<?xml version="1.0" standalone="no"?>
<!DOCTYPE svg PUBLIC "-//W3C//DTD SVG 1.1//EN" "http://www.w3.org/Graphics/SVG/1.1/DTD/svg11.dtd" >
<svg xmlns="http://www.w3.org/2000/svg" xmlns:xlink="http://www.w3.org/1999/xlink" version="1.1">
<metadata>
Created by FontForge 20150824 at Thu May  5 03:04:31 2016
 By Everything Fonts
Part of the Neutraface collection from House Industries
</metadata>
<defs>
<font id="NeutrafaceText-Demi" horiz-adv-x="500" >
  <font-face 
    font-family="Neutraface Text Demi"
    font-weight="600"
    font-stretch="normal"
    units-per-em="1000"
    panose-1="2 0 6 0 4 0 0 2 0 4"
    ascent="780"
    descent="-220"
    x-height="420"
    cap-height="680"
    bbox="-65 -269 1256 966"
    underline-thickness="20"
    underline-position="-133"
    stemh="89"
    stemv="101"
    unicode-range="U+000D-FB04"
  />
<missing-glyph horiz-adv-x="229" 
 />
    <glyph glyph-name="ff" unicode="ff" horiz-adv-x="620" 
d="M102 0v335h-69v85h69v146c0 101 49 149 132 149c48 0 82 -14 109 -44l-54 -65c-9 9 -20 18 -43 18c-25 0 -43 -15 -43 -57v-147h170v166c0 101 49 149 135 149c55 0 92 -19 119 -52l-60 -64c-12 14 -25 25 -49 25c-26 0 -44 -15 -44 -57v-167h113v-85h-113v-335h-101v335
h-170v-335h-101z" />
    <glyph glyph-name="ffi" unicode="ffi" horiz-adv-x="813" 
d="M696 516c-36 0 -68 27 -68 67c0 38 32 66 68 66c35 0 66 -28 66 -66c0 -40 -31 -67 -66 -67zM102 0v335h-69v85h69v146c0 101 49 149 132 149c48 0 82 -14 109 -44l-54 -65c-9 9 -20 18 -43 18c-25 0 -43 -15 -43 -57v-147h170v166c0 101 49 149 135 149
c53 0 84 -18 108 -42l-56 -68c-10 10 -21 19 -43 19c-25 0 -43 -15 -43 -57v-167h272v-420h-102v335h-170v-335h-101v335h-170v-335h-101z" />
    <glyph glyph-name="ffl" unicode="ffl" horiz-adv-x="815" 
d="M102 0v335h-69v85h69v146c0 101 49 149 132 149c48 0 82 -14 109 -44l-54 -65c-9 9 -20 18 -43 18c-25 0 -43 -15 -43 -57v-147h170v125c0 124 86 190 187 190s186 -59 186 -183v-552h-101v546c0 71 -37 98 -85 98c-49 0 -85 -28 -85 -98v-126h102v-85h-102v-335h-102
v335h-170v-335h-101z" />
    <glyph glyph-name="fi" unicode="fi" horiz-adv-x="542" 
d="M424 516c-36 0 -67 27 -67 67c0 38 31 66 67 66s67 -28 67 -66c0 -40 -31 -67 -67 -67zM102 0v335h-69v85h69v166c0 101 49 149 135 149c53 0 84 -18 108 -42l-56 -68c-10 10 -21 19 -43 19c-25 0 -43 -15 -43 -57v-167h272v-420h-102v335h-170v-335h-101z" />
    <glyph glyph-name="fl" unicode="fl" horiz-adv-x="544" 
d="M102 0v335h-69v85h69v125c0 124 85 190 186 190s187 -59 187 -183v-552h-102v546c0 71 -36 98 -85 98s-85 -28 -85 -98v-126h103v-85h-103v-335h-101z" />
    <glyph glyph-name="fj" unicode="fj" horiz-adv-x="542" 
d="M424 516c-36 0 -67 27 -67 67c0 38 31 66 67 66s67 -28 67 -66c0 -40 -31 -67 -67 -67zM344 -222c-48 0 -84 23 -103 46l51 64c12 -11 25 -19 42 -19c25 0 39 10 39 45v421h-170v-335h-101v335h-69v85h69v166c0 101 49 149 135 149c53 0 84 -18 108 -42l-56 -68
c-10 10 -21 19 -43 19c-25 0 -43 -15 -43 -57v-167h272v-503c0 -90 -49 -139 -131 -139z" />
    <glyph glyph-name="ft" unicode="ft" horiz-adv-x="635" 
d="M506 -10c-79 0 -133 40 -133 152v193h-170v-335h-101v335h-69v85h69v166c0 101 49 149 135 149c53 0 84 -18 108 -42l-56 -68c-10 10 -21 19 -43 19c-25 0 -43 -15 -43 -57v-167h170v219h101v-219h112v-85h-112v-195c0 -48 16 -62 42 -62c24 0 39 11 50 20l48 -68
c-21 -20 -54 -40 -108 -40z" />
    <glyph glyph-name="fb" unicode="fb" horiz-adv-x="859" 
d="M618 -9c-70 0 -121 34 -147 85l3 -76h-101v546c0 71 -36 98 -85 98s-85 -28 -85 -98v-126h103v-85h-103v-335h-101v335h-69v85h69v125c0 124 85 190 186 190s186 -59 186 -183v-205c28 48 75 82 146 82c109 0 195 -91 195 -218s-88 -220 -197 -220zM592 80
c73 0 119 52 119 131c0 76 -46 128 -119 128c-74 0 -122 -52 -122 -128c0 -79 48 -131 122 -131z" />
    <glyph glyph-name="fh" unicode="fh" horiz-adv-x="832" 
d="M102 0v335h-69v85h69v125c0 124 85 190 186 190s186 -59 186 -183v-206c26 52 77 83 141 83c92 0 156 -66 156 -180v-249h-101v241c0 60 -28 95 -87 95c-66 0 -109 -40 -109 -108v-228h-101v546c0 71 -36 98 -85 98s-85 -28 -85 -98v-126h103v-85h-103v-335h-101z" />
    <glyph glyph-name="fk" unicode="fk" horiz-adv-x="787" 
d="M474 124v-124h-101v546c0 71 -36 98 -85 98s-85 -28 -85 -98v-126h103v-85h-103v-335h-101v335h-69v85h69v125c0 124 85 190 186 190s186 -59 186 -183v-247c0 -26 -3 -52 -5 -74l168 189h115l-155 -175l176 -245h-119l-127 179z" />
    <glyph glyph-name="fff" unicode="fff" horiz-adv-x="892" 
d="M645 335h-170v-335h-101v335h-171v-335h-101v335h-69v85h69v146c0 101 49 149 132 149c48 0 82 -14 109 -44l-54 -65c-9 9 -20 18 -43 18c-25 0 -43 -15 -43 -57v-147h171v156c0 101 49 149 132 149c48 0 82 -14 109 -44l-54 -65c-9 9 -20 18 -43 18
c-25 0 -43 -15 -43 -57v-157h170v166c0 101 49 149 135 149c55 0 92 -19 119 -52l-60 -64c-12 14 -25 25 -49 25c-26 0 -44 -15 -44 -57v-167h113v-85h-113v-335h-101v335z" />
    <glyph glyph-name="ffj" unicode="ffj" horiz-adv-x="813" 
d="M696 516c-36 0 -68 27 -68 67c0 38 32 66 68 66c35 0 66 -28 66 -66c0 -40 -31 -67 -66 -67zM615 -222c-48 0 -84 23 -103 46l51 64c12 -11 25 -19 42 -19c25 0 40 10 40 45v421h-171v-335h-101v335h-170v-335h-101v335h-69v85h69v146c0 101 49 149 132 149
c48 0 82 -14 109 -44l-54 -65c-9 9 -20 18 -43 18c-25 0 -43 -15 -43 -57v-147h170v166c0 101 49 149 135 149c53 0 84 -18 108 -42l-56 -68c-10 10 -21 19 -43 19c-25 0 -43 -15 -43 -57v-167h272v-503c0 -90 -49 -139 -131 -139z" />
    <glyph glyph-name="fft" unicode="fft" horiz-adv-x="906" 
d="M777 -10c-79 0 -133 40 -133 152v193h-170v-335h-101v335h-170v-335h-101v335h-69v85h69v146c0 101 49 149 132 149c48 0 82 -14 109 -44l-54 -65c-9 9 -20 18 -43 18c-25 0 -43 -15 -43 -57v-147h170v166c0 101 49 149 135 149c53 0 84 -18 108 -42l-56 -68
c-10 10 -21 19 -43 19c-25 0 -43 -15 -43 -57v-167h170v219h101v-219h112v-85h-112v-195c0 -48 16 -62 42 -62c24 0 39 11 50 20l48 -68c-21 -20 -54 -40 -108 -40z" />
    <glyph glyph-name="ffb" unicode="ffb" horiz-adv-x="1132" 
d="M474 420h103v-85h-103v-335h-101v335h-170v-335h-101v335h-69v85h69v146c0 101 49 149 132 149c48 0 82 -14 109 -44l-54 -65c-9 9 -20 18 -43 18c-25 0 -43 -15 -43 -57v-147h170v125c0 124 86 190 187 190s186 -59 186 -183v-205c29 48 76 82 148 82
c108 0 194 -91 194 -218s-88 -220 -196 -220c-70 0 -123 34 -149 85l3 -76h-101v546c0 71 -37 98 -85 98c-49 0 -86 -28 -86 -98v-126zM865 80c72 0 118 52 118 131c0 76 -46 128 -118 128c-74 0 -123 -52 -123 -128c0 -79 49 -131 123 -131z" />
    <glyph glyph-name="ffh" unicode="ffh" horiz-adv-x="1104" 
d="M373 420v125c0 124 86 190 187 190s186 -59 186 -183v-206c26 52 77 83 140 83c92 0 157 -66 157 -180v-249h-101v241c0 60 -29 95 -87 95c-66 0 -109 -40 -109 -108v-228h-101v546c0 71 -37 98 -85 98c-49 0 -86 -28 -86 -98v-126h103v-85h-103v-335h-101v335h-170v-335
h-101v335h-69v85h69v146c0 101 49 149 132 149c48 0 82 -14 109 -44l-54 -65c-9 9 -20 18 -43 18c-25 0 -43 -15 -43 -57v-147h170z" />
    <glyph glyph-name="ffk" unicode="ffk" horiz-adv-x="1059" 
d="M373 420v125c0 124 86 190 187 190s186 -59 186 -183v-247c0 -26 -3 -52 -5 -74l168 189h115l-155 -175l176 -245h-119l-127 179l-53 -55v-124h-101v546c0 71 -37 98 -85 98c-49 0 -86 -28 -86 -98v-126h103v-85h-103v-335h-101v335h-170v-335h-101v335h-69v85h69v146
c0 101 49 149 132 149c48 0 82 -14 109 -44l-54 -65c-9 9 -20 18 -43 18c-25 0 -43 -15 -43 -57v-147h170z" />
    <glyph glyph-name="fiacute" unicode="f&#xed;" horiz-adv-x="542" 
d="M382 499l60 190h116l-98 -190h-78zM102 0v335h-69v85h69v166c0 101 49 149 135 149c53 0 84 -18 108 -42l-56 -68c-10 10 -21 19 -43 19c-25 0 -43 -15 -43 -57v-167h272v-420h-101v335h-171v-335h-101z" />
    <glyph glyph-name="ficircumflex" unicode="f&#xee;" horiz-adv-x="542" 
d="M275 498l143 204h10l143 -204h-83l-65 84l-66 -84h-82zM102 0v335h-69v85h69v166c0 101 49 149 135 149c53 0 84 -18 108 -42l-56 -68c-10 10 -21 19 -43 19c-25 0 -43 -15 -43 -57v-167h272v-420h-101v335h-171v-335h-101z" />
    <glyph glyph-name="fidieresis" unicode="f&#xef;" horiz-adv-x="542" 
d="M519 495c-32 0 -60 26 -60 58s28 58 60 58c31 0 58 -26 58 -58s-27 -58 -58 -58zM346 495c-30 0 -58 26 -58 58s28 58 58 58c32 0 60 -26 60 -58s-28 -58 -60 -58zM102 0v335h-69v85h69v166c0 101 49 149 135 149c44 0 76 -11 103 -36l-56 -71c-9 10 -20 16 -38 16
c-25 0 -43 -15 -43 -57v-167h272v-420h-101l-1 335h-170v-335h-101z" />
    <glyph glyph-name="ffiacute" unicode="ff&#xed;" horiz-adv-x="813" 
d="M653 499l60 190h116l-98 -190h-78zM102 0v335h-69v85h69v146c0 101 49 149 132 149c48 0 82 -14 109 -44l-54 -65c-9 9 -20 18 -43 18c-25 0 -43 -15 -43 -57v-147h170v166c0 101 49 149 135 149c53 0 84 -18 108 -42l-56 -68c-10 10 -21 19 -43 19
c-25 0 -43 -15 -43 -57v-167h272v-420h-101v335h-171v-335h-101v335h-170v-335h-101z" />
    <glyph glyph-name="fficircumflex" unicode="ff&#xee;" horiz-adv-x="813" 
d="M546 498l143 204h11l142 -204h-82l-65 84l-66 -84h-83zM102 0v335h-69v85h69v146c0 101 49 149 132 149c48 0 82 -14 109 -44l-54 -65c-9 9 -20 18 -43 18c-25 0 -43 -15 -43 -57v-147h170v166c0 101 49 149 135 149c53 0 84 -18 108 -42l-56 -68c-10 10 -21 19 -43 19
c-25 0 -43 -15 -43 -57v-167h272v-420h-101v335h-171v-335h-101v335h-170v-335h-101z" />
    <glyph glyph-name="ffidieresis" unicode="ff&#xef;" horiz-adv-x="813" 
d="M790 495c-32 0 -60 26 -60 58s28 58 60 58c31 0 58 -26 58 -58s-27 -58 -58 -58zM617 495c-30 0 -58 26 -58 58s28 58 58 58c32 0 60 -26 60 -58s-28 -58 -60 -58zM102 0v335h-69v85h69v146c0 101 49 149 132 149c48 0 82 -14 109 -44l-54 -65c-9 9 -20 18 -43 18
c-25 0 -43 -15 -43 -57v-147h170v166c0 101 49 149 135 149c44 0 76 -11 103 -36l-56 -71c-9 10 -20 16 -38 16c-25 0 -43 -15 -43 -57v-167h272v-420h-101v335h-171v-335h-101v335h-170v-335h-101z" />
    <glyph glyph-name="tt" unicode="tt" horiz-adv-x="670" 
d="M229 -10c-79 0 -133 40 -133 152v193h-63v85h63v219h101v-219h201v219h101v-219h112v-85h-112v-195c0 -48 16 -62 42 -62c24 0 39 11 50 20l48 -68c-21 -20 -54 -40 -108 -40c-79 0 -133 40 -133 152v193h-201v-195c0 -48 16 -62 42 -62c24 0 39 11 50 20l48 -68
c-21 -20 -54 -40 -108 -40z" />
    <glyph glyph-name="fffi" unicode="fffi" horiz-adv-x="1085" 
d="M967 516c-36 0 -67 27 -67 67c0 38 31 66 67 66s67 -28 67 -66c0 -40 -31 -67 -67 -67zM374 335h-171v-335h-101v335h-69v85h69v146c0 101 49 149 132 149c48 0 82 -14 109 -44l-54 -65c-9 9 -20 18 -43 18c-25 0 -43 -15 -43 -57v-147h171v156c0 101 49 149 132 149
c48 0 82 -14 109 -44l-54 -65c-9 9 -20 18 -43 18c-25 0 -43 -15 -43 -57v-157h170v166c0 101 49 149 135 149c53 0 84 -18 108 -42l-56 -68c-10 10 -21 19 -43 19c-25 0 -43 -15 -43 -57v-167h272v-420h-102v335h-170v-335h-101v335h-170v-335h-101v335z" />
    <glyph glyph-name="fffl" unicode="fffl" horiz-adv-x="1087" 
d="M374 335h-171v-335h-101v335h-69v85h69v146c0 101 49 149 132 149c48 0 82 -14 109 -44l-54 -65c-9 9 -20 18 -43 18c-25 0 -43 -15 -43 -57v-147h171v156c0 101 49 149 132 149c48 0 82 -14 109 -44l-54 -65c-9 9 -20 18 -43 18c-25 0 -43 -15 -43 -57v-157h170v125
c0 124 85 190 187 190c100 0 186 -59 186 -183v-552h-102v546c0 71 -36 98 -84 98c-49 0 -86 -28 -86 -98v-126h103v-85h-103v-335h-101v335h-170v-335h-101v335z" />
    <glyph glyph-name=".notdef" horiz-adv-x="229" 
 />
    <glyph glyph-name="space" unicode=" " horiz-adv-x="229" 
 />
    <glyph glyph-name="lslash" unicode="&#x142;" horiz-adv-x="277" 
d="M88 0v215l-77 -45v99l77 45v408h101v-351l81 48v-99l-81 -48v-272h-101z" />
    <glyph glyph-name="Scaron" unicode="&#x160;" horiz-adv-x="533" 
d="M266 -9c-129 0 -207 64 -245 141l87 48c32 -53 73 -95 156 -95c69 0 118 37 118 93c0 59 -40 85 -114 118l-45 20c-99 44 -159 94 -159 199c0 101 78 173 191 173c90 0 151 -34 192 -107l-83 -51c-26 45 -56 66 -109 66c-54 0 -88 -33 -88 -79c0 -51 29 -74 98 -104
l44 -20c116 -51 178 -105 178 -214c0 -119 -93 -188 -221 -188zM248 737l-143 204h83l65 -83l66 83h83l-143 -204h-11z" />
    <glyph glyph-name="scaron" unicode="&#x161;" horiz-adv-x="415" 
d="M214 -9c-96 0 -160 42 -188 87l69 48c26 -37 65 -54 113 -54c51 0 74 17 74 45c0 34 -31 39 -102 59c-62 17 -124 46 -124 129c0 84 67 124 150 124c67 0 114 -28 146 -63l-59 -58c-20 23 -49 41 -87 41s-59 -14 -59 -39c0 -32 26 -39 92 -56s138 -43 138 -132
c0 -72 -44 -131 -163 -131zM195 485l-143 204h83l65 -83l66 83h83l-143 -204h-11z" />
    <glyph glyph-name="Yacute" unicode="&#xdd;" horiz-adv-x="668" 
d="M287 0v215l-258 465h117l154 -280c21 -38 41 -98 41 -98s21 60 41 98l149 280h109l-247 -459v-221h-106zM296 751l60 190h116l-98 -190h-78z" />
    <glyph glyph-name="yacute" unicode="&#xfd;" horiz-adv-x="476" 
d="M80 -212l109 250l-172 382h112l88 -210c14 -32 24 -87 24 -87s9 55 23 87l90 210h105l-275 -632h-104zM204 499l60 190h116l-98 -190h-78z" />
    <glyph glyph-name="Thorn" unicode="&#xde;" horiz-adv-x="592" 
d="M82 0v680h106v-76h68c186 0 289 -104 289 -260s-104 -258 -289 -258h-68v-86h-106zM188 178h64c132 0 185 64 185 166c0 104 -54 167 -185 167h-64v-333z" />
    <glyph glyph-name="thorn" unicode="&#xfe;" horiz-adv-x="554" 
d="M67 -212v934h101v-375c29 48 77 82 148 82c108 0 194 -91 194 -218s-88 -220 -196 -220c-70 0 -121 34 -146 81v-284h-101zM287 80c72 0 118 52 118 131c0 76 -46 128 -118 128c-74 0 -122 -52 -122 -128c0 -79 48 -131 122 -131z" />
    <glyph glyph-name="Zcaron" unicode="&#x17d;" horiz-adv-x="586" 
d="M33 0v11l344 576h-289v93h454v-11l-342 -576h335v-93h-502zM304 737l-143 204h83l65 -83l66 83h83l-143 -204h-11z" />
    <glyph glyph-name="zcaron" unicode="&#x17e;" horiz-adv-x="429" 
d="M28 0v11l216 327h-192v82h347v-11l-217 -327h206v-82h-360zM221 485l-143 204h83l65 -83l66 83h83l-143 -204h-11z" />
    <glyph glyph-name="onehalf" unicode="&#xbd;" horiz-adv-x="220" 
d="M111 181c-37 0 -69 29 -69 70c0 40 32 68 69 68c36 0 68 -28 68 -68c0 -41 -32 -70 -68 -70z" />
    <glyph glyph-name="onequarter" unicode="&#xbc;" horiz-adv-x="220" 
d="M111 181c-37 0 -69 29 -69 70c0 40 32 68 69 68c36 0 68 -28 68 -68c0 -41 -32 -70 -68 -70z" />
    <glyph glyph-name="onesuperior" unicode="&#xb9;" horiz-adv-x="220" 
d="M111 181c-37 0 -69 29 -69 70c0 40 32 68 69 68c36 0 68 -28 68 -68c0 -41 -32 -70 -68 -70z" />
    <glyph glyph-name="threequarters" unicode="&#xbe;" horiz-adv-x="220" 
d="M111 181c-37 0 -69 29 -69 70c0 40 32 68 69 68c36 0 68 -28 68 -68c0 -41 -32 -70 -68 -70z" />
    <glyph glyph-name="threesuperior" unicode="&#xb3;" horiz-adv-x="220" 
d="M111 181c-37 0 -69 29 -69 70c0 40 32 68 69 68c36 0 68 -28 68 -68c0 -41 -32 -70 -68 -70z" />
    <glyph glyph-name="twosuperior" unicode="&#xb2;" horiz-adv-x="220" 
d="M111 181c-37 0 -69 29 -69 70c0 40 32 68 69 68c36 0 68 -28 68 -68c0 -41 -32 -70 -68 -70z" />
    <glyph glyph-name="brokenbar" unicode="&#xa6;" horiz-adv-x="220" 
d="M111 181c-37 0 -69 29 -69 70c0 40 32 68 69 68c36 0 68 -28 68 -68c0 -41 -32 -70 -68 -70z" />
    <glyph glyph-name="minus" unicode="&#x2212;" horiz-adv-x="220" 
d="M111 181c-37 0 -69 29 -69 70c0 40 32 68 69 68c36 0 68 -28 68 -68c0 -41 -32 -70 -68 -70z" />
    <glyph glyph-name="multiply" unicode="&#xd7;" horiz-adv-x="220" 
d="M111 181c-37 0 -69 29 -69 70c0 40 32 68 69 68c36 0 68 -28 68 -68c0 -41 -32 -70 -68 -70z" />
    <glyph glyph-name="Lslash" unicode="&#x141;" horiz-adv-x="551" 
d="M89 0v188l-75 -27v93l75 27v399h105v-361l190 70v-93l-190 -70v-133h315v-93h-420z" />
    <glyph glyph-name="exclam" unicode="!" horiz-adv-x="262" 
d="M91 210l-17 470h114l-17 -470h-80zM131 -6c-36 0 -68 28 -68 68s32 68 68 68c37 0 68 -28 68 -68s-31 -68 -68 -68z" />
    <glyph glyph-name="quotedbl" unicode="&#x22;" horiz-adv-x="344" 
d="M209 452l-12 228h109l-12 -228h-85zM50 452l-12 228h108l-11 -228h-85z" />
    <glyph glyph-name="numbersign" unicode="#" horiz-adv-x="493" 
d="M65 160l26 104h-60v78h79l23 92h-63v79h82l27 103h80l-26 -103h88l26 103h81l-26 -103h60v-79h-79l-23 -92h62v-78h-82l-26 -104h-81l26 104h-88l-25 -104h-81zM191 342h88l23 92h-87z" />
    <glyph glyph-name="dollar" unicode="$" horiz-adv-x="467" 
d="M206 -8c-104 10 -164 66 -190 117l76 42c21 -36 54 -69 114 -78v152c-112 28 -161 78 -161 153c0 73 56 136 161 142v104h55v-106c72 -10 121 -50 145 -87l-67 -49c-13 23 -37 48 -78 58v-135c116 -29 175 -79 175 -161c0 -90 -59 -146 -175 -152v-109h-55v109zM206 443
c-47 -4 -68 -25 -68 -57c0 -33 15 -50 68 -65v122zM261 72c59 5 80 30 80 63c0 35 -17 58 -80 76v-139z" />
    <glyph glyph-name="percent" unicode="%" horiz-adv-x="809" 
d="M183 218c-84 0 -156 63 -156 151s72 152 156 152s156 -64 156 -152s-72 -151 -156 -151zM193 0l322 513h101l-322 -513h-101zM626 -9c-84 0 -156 63 -156 152c0 88 72 152 156 152s156 -64 156 -152c0 -89 -72 -152 -156 -152zM183 295c38 0 71 29 71 74
c0 46 -33 75 -71 75c-37 0 -71 -29 -71 -75c0 -45 34 -74 71 -74zM626 69c38 0 71 29 71 74s-33 74 -71 74c-37 0 -70 -29 -70 -74s33 -74 70 -74z" />
    <glyph glyph-name="ampersand" unicode="&#x26;" horiz-adv-x="673" 
d="M345 377l130 -160c17 41 27 90 27 148h95c0 -89 -22 -166 -58 -226l113 -139h-125l-52 64c-54 -47 -122 -73 -197 -73c-150 0 -239 79 -239 193c0 105 61 157 166 211c-40 49 -57 95 -57 143c0 83 62 150 162 150c97 0 160 -61 160 -148c0 -66 -43 -119 -125 -163z
M294 439c55 31 83 61 83 101s-27 65 -65 65c-39 0 -67 -26 -67 -66c0 -35 16 -60 38 -87zM417 135l-162 199c-73 -38 -107 -79 -107 -143c0 -68 44 -108 130 -108c53 0 101 18 139 52z" />
    <glyph glyph-name="quotesingle" unicode="'" horiz-adv-x="184" 
d="M50 452l-12 228h108l-11 -228h-85z" />
    <glyph glyph-name="parenleft" unicode="(" horiz-adv-x="315" 
d="M227 -137c-87 87 -181 222 -181 428c0 205 94 341 181 428l62 -51c-79 -93 -136 -207 -136 -377s57 -284 136 -377z" />
    <glyph glyph-name="parenright" unicode=")" horiz-adv-x="315" 
d="M88 -137l-62 51c79 93 136 207 136 377s-57 284 -136 377l62 51c86 -87 181 -222 181 -428c0 -205 -95 -341 -181 -428z" />
    <glyph glyph-name="asterisk" unicode="*" horiz-adv-x="409" 
d="M159 368l22 118l-90 -77l-44 76l115 39l-115 40l44 76l90 -77l-22 117h90l-22 -117l91 77l44 -76l-117 -40l117 -39l-44 -76l-91 77l22 -118h-90z" />
    <glyph glyph-name="plus" unicode="+" horiz-adv-x="391" 
d="M150 96v118h-111v89h111v118h91v-118h111v-89h-111v-118h-91z" />
    <glyph glyph-name="comma" unicode="," horiz-adv-x="225" 
d="M48 -114l38 116c-25 10 -42 32 -42 62c0 38 32 67 69 67c36 0 68 -29 68 -68c0 -23 -10 -43 -21 -62l-59 -115h-53z" />
    <glyph glyph-name="hyphen" unicode="-" horiz-adv-x="294" 
d="M41 191v91h211v-91h-211z" />
    <glyph glyph-name="hyphen" unicode="&#xad;" horiz-adv-x="294" 
d="M41 191v91h211v-91h-211z" />
    <glyph glyph-name="period" unicode="." horiz-adv-x="223" 
d="M112 -6c-37 0 -69 29 -69 69s32 68 69 68c36 0 68 -28 68 -68s-32 -69 -68 -69z" />
    <glyph glyph-name="slash" unicode="/" horiz-adv-x="416" 
d="M0 -128l290 850h100l-290 -850h-100z" />
    <glyph glyph-name="zero" unicode="0" horiz-adv-x="618" 
d="M308 -9c-142 0 -270 112 -270 266c0 155 128 264 270 264c144 0 272 -109 272 -264c0 -154 -128 -266 -272 -266zM308 82c93 0 165 71 165 175c0 105 -72 174 -165 174c-91 0 -163 -69 -163 -174c0 -104 72 -175 163 -175z" />
    <glyph glyph-name="one" unicode="1" horiz-adv-x="307" 
d="M131 0v428h-106v85h209v-513h-103z" />
    <glyph glyph-name="two" unicode="2" horiz-adv-x="476" 
d="M25 0v10l201 198c62 61 96 96 96 146c0 48 -34 75 -81 75c-54 0 -85 -36 -104 -92l-96 27c25 100 101 157 199 157c122 0 187 -72 187 -161c0 -67 -44 -132 -111 -193l-47 -43c-19 -17 -55 -41 -55 -41s44 4 62 4h160v-87h-411z" />
    <glyph glyph-name="three" unicode="3" horiz-adv-x="508" 
d="M245 -103c-113 0 -189 58 -226 135l88 45c26 -60 76 -89 138 -89c68 0 120 44 120 122c0 79 -54 122 -131 122c-40 0 -64 -8 -84 -17l-8 10l133 171c14 20 33 36 33 36s-29 -4 -54 -4h-181v85h386v-9l-134 -171c-13 -17 -29 -29 -29 -29c100 -13 176 -82 176 -196
c0 -116 -82 -211 -227 -211z" />
    <glyph glyph-name="four" unicode="4" horiz-adv-x="537" 
d="M431 91h72v-80h-72v-105h-100v105h-308v62l396 448h12v-430zM331 91v160c0 21 4 61 4 61s-18 -27 -34 -45l-120 -142c-17 -19 -39 -37 -39 -37s25 3 50 3h139z" />
    <glyph glyph-name="five" unicode="5" horiz-adv-x="496" 
d="M235 -103c-111 0 -182 56 -211 120l87 45c21 -42 57 -74 123 -74c72 0 118 49 118 117c0 70 -43 117 -126 117c-64 0 -106 -26 -136 -51l-10 4v338h333v-85h-248v-140c18 11 49 21 88 21c124 0 207 -89 207 -205c0 -115 -81 -207 -225 -207z" />
    <glyph glyph-name="six" unicode="6" horiz-adv-x="518" 
d="M260 -9c-123 0 -222 84 -222 205c0 67 29 122 74 186l158 227h114l-130 -186c-18 -26 -55 -57 -55 -57c24 17 53 28 88 28c109 0 193 -78 193 -196c0 -124 -96 -207 -220 -207zM259 81c71 0 118 52 118 117c0 66 -44 117 -118 117c-73 0 -118 -55 -118 -117
c0 -65 44 -117 118 -117z" />
    <glyph glyph-name="seven" unicode="7" horiz-adv-x="468" 
d="M67 -94l237 522h-273v85h410v-10l-269 -597h-105z" />
    <glyph glyph-name="eight" unicode="8" horiz-adv-x="529" 
d="M265 -9c-133 0 -228 80 -228 193c0 83 53 139 127 163c-45 21 -79 60 -79 119c0 79 70 152 180 152c112 0 180 -73 180 -152c0 -59 -34 -98 -79 -119c75 -24 126 -80 126 -163c0 -113 -92 -193 -227 -193zM265 385c47 0 80 30 80 74c0 45 -34 75 -80 75s-80 -30 -80 -75
c0 -44 33 -74 80 -74zM265 82c74 0 121 45 121 109c0 65 -47 113 -121 113s-121 -48 -121 -113c0 -64 47 -109 121 -109z" />
    <glyph glyph-name="nine" unicode="9" horiz-adv-x="521" 
d="M142 -94l127 184c19 28 53 55 53 55c-24 -18 -53 -28 -85 -28c-113 0 -199 78 -199 197c0 123 97 207 222 207c123 0 223 -80 223 -205c0 -68 -29 -120 -75 -188l-151 -222h-115zM260 196c74 0 119 55 119 118c0 65 -46 117 -119 117c-72 0 -119 -52 -119 -117
c0 -67 45 -118 119 -118z" />
    <glyph glyph-name="colon" unicode=":" horiz-adv-x="233" 
d="M117 220c-37 0 -69 30 -69 70s32 69 69 69c36 0 68 -29 68 -69s-32 -70 -68 -70zM117 -6c-37 0 -69 29 -69 69s32 69 69 69c36 0 68 -29 68 -69s-32 -69 -68 -69z" />
    <glyph glyph-name="semicolon" unicode=";" horiz-adv-x="235" 
d="M118 220c-37 0 -69 30 -69 70s32 69 69 69c36 0 68 -29 68 -69s-32 -70 -68 -70zM53 -114l38 116c-25 10 -42 32 -42 62c0 38 32 67 69 67c36 0 68 -29 68 -68c0 -23 -10 -43 -21 -62l-59 -115h-53z" />
    <glyph glyph-name="semicolon" unicode="&#x37e;" horiz-adv-x="235" 
d="M118 220c-37 0 -69 30 -69 70s32 69 69 69c36 0 68 -29 68 -69s-32 -70 -68 -70zM53 -114l38 116c-25 10 -42 32 -42 62c0 38 32 67 69 67c36 0 68 -29 68 -68c0 -23 -10 -43 -21 -62l-59 -115h-53z" />
    <glyph glyph-name="less" unicode="&#x3c;" horiz-adv-x="357" 
d="M314 84l-284 155v10l284 153v-89l-139 -70l139 -69v-90z" />
    <glyph glyph-name="equal" unicode="=" horiz-adv-x="387" 
d="M39 280v88h309v-88h-309zM39 134v88h309v-88h-309z" />
    <glyph glyph-name="greater" unicode="&#x3e;" horiz-adv-x="357" 
d="M43 84v89l138 70l-138 69v90l284 -155v-10z" />
    <glyph glyph-name="question" unicode="?" horiz-adv-x="491" 
d="M175 208v168h39c85 0 127 53 127 115c0 61 -42 107 -106 107c-61 0 -95 -27 -122 -78l-82 47c34 79 106 122 204 122c130 0 210 -88 210 -198c0 -106 -67 -180 -175 -192v-91h-95zM221 -6c-36 0 -68 28 -68 68s32 68 68 68s68 -28 68 -68s-32 -68 -68 -68z" />
    <glyph glyph-name="at" unicode="@" horiz-adv-x="905" 
d="M462 -207c-236 0 -418 155 -418 400c0 238 193 404 414 404c237 0 403 -154 403 -371c0 -155 -67 -231 -170 -231c-64 0 -110 25 -127 85c-29 -61 -79 -89 -140 -89c-98 0 -175 81 -175 195s76 198 174 198c60 0 98 -30 121 -74l-2 64h98v-229c0 -50 14 -75 54 -75
c48 0 79 45 79 155c0 185 -121 294 -315 294c-189 0 -320 -136 -320 -326c0 -189 120 -321 323 -321c57 0 114 12 162 33l33 -71c-59 -28 -118 -41 -194 -41zM450 74c54 0 94 50 94 112c0 63 -40 114 -94 114c-59 0 -97 -49 -97 -114c0 -64 38 -112 97 -112z" />
    <glyph glyph-name="A" unicode="A" horiz-adv-x="659" 
d="M29 0l291 687h12l298 -687h-110l-39 96h-311l-39 -96h-102zM206 185h237l-85 212c-17 40 -34 101 -34 101s-16 -61 -33 -101z" />
    <glyph glyph-name="B" unicode="B" horiz-adv-x="609" 
d="M82 0v680h247c127 0 192 -77 192 -171c0 -65 -33 -111 -92 -131c91 -21 139 -86 139 -173c0 -117 -78 -205 -221 -205h-265zM188 415h136c63 0 93 35 93 86s-29 86 -95 86h-134v-172zM188 93h153c82 0 121 48 121 116s-42 116 -126 116h-148v-232z" />
    <glyph glyph-name="C" unicode="C" horiz-adv-x="720" 
d="M400 -9c-193 0 -349 146 -349 349s156 348 349 348c122 0 212 -45 272 -135l-81 -58c-38 59 -102 98 -191 98c-141 0 -241 -108 -241 -253s100 -254 241 -254c94 0 157 42 201 107l81 -57c-59 -90 -155 -145 -282 -145z" />
    <glyph glyph-name="D" unicode="D" horiz-adv-x="682" 
d="M82 0v680h187c218 0 363 -136 363 -340s-144 -340 -363 -340h-187zM188 93h74c177 0 260 102 260 247s-83 247 -260 247h-74v-494z" />
    <glyph glyph-name="E" unicode="E" horiz-adv-x="587" 
d="M82 0v680h432v-93h-326v-264h289v-91h-289v-139h340v-93h-446z" />
    <glyph glyph-name="F" unicode="F" horiz-adv-x="555" 
d="M82 0v680h423v-93h-317v-273h288v-94h-288v-220h-106z" />
    <glyph glyph-name="G" unicode="G" horiz-adv-x="741" 
d="M413 -9c-212 0 -362 146 -362 349s147 348 349 348c104 0 186 -29 241 -91l-71 -71c-39 41 -89 67 -170 67c-142 0 -241 -108 -241 -253s100 -254 254 -254c70 0 130 18 168 44v120h-183v93h280v-265c-44 -40 -138 -87 -265 -87z" />
    <glyph glyph-name="H" unicode="H" horiz-adv-x="703" 
d="M82 0v680h106v-366h327v366h106v-680h-106v220h-327v-220h-106z" />
    <glyph glyph-name="I" unicode="I" horiz-adv-x="276" 
d="M86 0v680h105v-680h-105z" />
    <glyph glyph-name="J" unicode="J" horiz-adv-x="489" 
d="M216 -9c-101 0 -161 52 -193 115l86 53c24 -43 52 -73 102 -73c57 0 94 27 94 106v488h106v-490c0 -135 -81 -199 -195 -199z" />
    <glyph glyph-name="K" unicode="K" horiz-adv-x="627" 
d="M180 300c15 31 35 69 52 92l220 288h120l-241 -318l268 -362h-128l-210 284l-73 -89v-195h-106v680h106v-280c0 -31 -4 -72 -8 -100z" />
    <glyph glyph-name="L" unicode="L" horiz-adv-x="544" 
d="M82 0v680h106v-587h314v-93h-420z" />
    <glyph glyph-name="M" unicode="M" horiz-adv-x="833" 
d="M82 0v687h11l325 -380l322 380h11v-687h-101v353c0 38 4 98 4 98s-33 -51 -61 -82l-171 -206h-12l-171 206c-26 31 -60 82 -60 82s4 -60 4 -98v-353h-101z" />
    <glyph glyph-name="N" unicode="N" horiz-adv-x="707" 
d="M612 -7l-375 404c-27 29 -64 76 -64 76s7 -56 7 -98v-375h-98v687h14l375 -403c26 -28 63 -76 63 -76s-7 60 -7 98v374h98v-687h-13z" />
    <glyph glyph-name="O" unicode="O" horiz-adv-x="803" 
d="M402 -9c-195 0 -351 146 -351 349s156 349 351 349c194 0 350 -146 350 -349s-156 -349 -350 -349zM402 86c142 0 242 109 242 254s-100 254 -242 254s-243 -109 -243 -254s101 -254 243 -254z" />
    <glyph glyph-name="P" unicode="P" horiz-adv-x="592" 
d="M82 0v680h171c188 0 292 -101 292 -259c0 -157 -105 -259 -292 -259h-65v-162h-106zM188 255h61c134 0 188 63 188 166s-55 166 -188 166h-61v-332z" />
    <glyph glyph-name="Q" unicode="Q" horiz-adv-x="802" 
d="M653 93l99 -110l-70 -59l-102 113c-52 -30 -113 -46 -178 -46c-195 0 -351 146 -351 349s156 349 351 349c194 0 350 -146 350 -349c0 -100 -38 -186 -99 -247zM514 110l-94 105l71 59l96 -107c37 44 57 104 57 173c0 145 -100 254 -242 254s-243 -109 -243 -254
s101 -254 243 -254c42 0 80 9 112 24z" />
    <glyph glyph-name="R" unicode="R" horiz-adv-x="605" 
d="M409 210l144 -210h-122l-122 179c-19 -2 -38 -4 -57 -4h-64v-175h-106v680h170c188 0 293 -98 293 -254c0 -105 -47 -177 -136 -216zM188 266h60c135 0 189 59 189 160c0 102 -56 161 -189 161h-60v-321z" />
    <glyph glyph-name="S" unicode="S" horiz-adv-x="533" 
d="M266 -9c-129 0 -207 64 -245 141l87 48c32 -53 73 -95 156 -95c69 0 118 37 118 93c0 59 -40 85 -114 118l-45 20c-99 44 -159 94 -159 199c0 101 78 173 191 173c90 0 151 -34 192 -107l-83 -51c-26 45 -56 66 -109 66c-54 0 -88 -33 -88 -79c0 -51 29 -74 98 -104
l44 -20c116 -51 178 -105 178 -214c0 -119 -93 -188 -221 -188z" />
    <glyph glyph-name="T" unicode="T" horiz-adv-x="573" 
d="M234 0v587h-202v93h509v-93h-202v-587h-105z" />
    <glyph glyph-name="U" unicode="U" horiz-adv-x="674" 
d="M337 -9c-148 0 -259 83 -259 248v441h106v-435c0 -110 54 -159 153 -159s154 49 154 159v435h105v-441c0 -165 -112 -248 -259 -248z" />
    <glyph glyph-name="V" unicode="V" horiz-adv-x="659" 
d="M327 -7l-298 687h113l153 -365c20 -45 41 -121 41 -121s19 75 40 121l151 365h103l-290 -687h-13z" />
    <glyph glyph-name="W" unicode="W" horiz-adv-x="955" 
d="M266 -7l-237 687h111l120 -362c13 -38 26 -97 26 -97s17 58 33 97l156 369h13l157 -369c16 -38 32 -97 32 -97s14 59 27 97l120 362h103l-235 -687h-13l-169 405c-14 33 -28 83 -28 83s-16 -50 -30 -83l-173 -405h-13z" />
    <glyph glyph-name="X" unicode="X" horiz-adv-x="647" 
d="M35 0l228 372l-191 308h117l103 -166c16 -26 33 -69 33 -69s15 42 31 69l101 166h114l-188 -308l230 -372h-117l-141 228c-16 26 -34 70 -34 70s-15 -42 -32 -70l-140 -228h-114z" />
    <glyph glyph-name="Y" unicode="Y" horiz-adv-x="668" 
d="M287 0v215l-258 465h117l154 -280c21 -38 41 -98 41 -98s21 60 41 98l149 280h109l-247 -459v-221h-106z" />
    <glyph glyph-name="Z" unicode="Z" horiz-adv-x="586" 
d="M33 0v11l344 576h-289v93h454v-11l-342 -576h335v-93h-502z" />
    <glyph glyph-name="bracketleft" unicode="[" horiz-adv-x="320" 
d="M68 -128v850h219v-86h-117v-678h117v-86h-219z" />
    <glyph glyph-name="backslash" unicode="\" horiz-adv-x="416" 
d="M316 -128l-290 850h100l290 -850h-100z" />
    <glyph glyph-name="bracketright" unicode="]" horiz-adv-x="321" 
d="M33 -128v86h118v678h-118v86h220v-850h-220z" />
    <glyph glyph-name="asciicircum" unicode="^" horiz-adv-x="427" 
d="M61 455l148 232h10l147 -232h-82l-70 99l-71 -99h-82z" />
    <glyph glyph-name="underscore" unicode="_" horiz-adv-x="269" 
d="M-2 -128v90h273v-90h-273z" />
    <glyph glyph-name="grave" unicode="`" 
d="M211 499l-98 190h116l60 -190h-78z" />
    <glyph glyph-name="a" unicode="a" horiz-adv-x="479" 
d="M318 250c0 67 -30 95 -84 95c-55 0 -87 -24 -110 -50l-58 59c37 44 87 75 176 75c101 0 177 -57 177 -181v-248h-101l3 60c-30 -45 -70 -69 -132 -69c-83 0 -151 39 -151 133c0 87 70 125 165 126h115zM318 180h-108c-44 0 -73 -16 -73 -53c0 -36 28 -55 80 -55
c59 0 101 29 101 75v33z" />
    <glyph glyph-name="b" unicode="b" horiz-adv-x="551" 
d="M310 -9c-70 0 -121 34 -147 85l3 -76h-102v722h102v-375c28 48 75 82 146 82c109 0 195 -91 195 -218s-88 -220 -197 -220zM284 80c73 0 119 52 119 131c0 76 -46 128 -119 128c-74 0 -122 -52 -122 -128c0 -79 48 -131 122 -131z" />
    <glyph glyph-name="c" unicode="c" horiz-adv-x="471" 
d="M267 -9c-128 0 -224 93 -224 219c0 125 96 219 224 219c79 0 130 -30 170 -80l-72 -58c-20 29 -55 49 -98 49c-75 0 -120 -55 -120 -130s45 -130 120 -130c50 0 80 21 103 47l69 -60c-41 -47 -91 -76 -172 -76z" />
    <glyph glyph-name="d" unicode="d" horiz-adv-x="551" 
d="M241 -9c-109 0 -197 93 -197 220s88 218 195 218c74 0 118 -34 146 -82v375h102v-722h-102l3 76c-26 -51 -77 -85 -147 -85zM267 80c74 0 122 52 122 131c0 76 -48 128 -122 128c-73 0 -119 -52 -119 -128c0 -79 46 -131 119 -131z" />
    <glyph glyph-name="e" unicode="e" horiz-adv-x="527" 
d="M146 176c12 -61 56 -100 133 -100c55 0 95 22 119 45l59 -62c-39 -39 -93 -68 -177 -68c-144 0 -237 93 -237 219c0 125 98 219 224 219c143 0 224 -106 217 -253h-338zM146 246h236c-9 57 -44 99 -114 99c-65 0 -110 -36 -122 -99z" />
    <glyph glyph-name="f" unicode="f" horiz-adv-x="348" 
d="M102 0v335h-69v85h69v166c0 101 49 149 135 149c55 0 92 -19 119 -52l-60 -64c-12 14 -25 25 -49 25c-26 0 -44 -15 -44 -57v-167h113v-85h-113v-335h-101z" />
    <glyph glyph-name="g" unicode="g" horiz-adv-x="482" 
d="M301 420h157v-74h-72c16 -19 24 -42 24 -68c0 -89 -68 -153 -170 -153c-34 0 -63 6 -87 19c-14 -8 -22 -21 -22 -36c0 -22 16 -34 49 -36l105 -7c117 -7 179 -52 179 -135c0 -90 -75 -152 -228 -152c-142 0 -220 55 -220 138c0 51 36 83 89 100c-37 17 -55 44 -55 82
c0 36 21 64 57 80c-26 26 -41 61 -41 100c0 88 71 151 174 151c23 0 43 -3 61 -9zM238 200c52 0 82 31 82 78c0 45 -30 75 -82 75s-81 -30 -81 -75c0 -47 29 -78 81 -78zM149 -15c-22 -13 -34 -32 -34 -58c0 -45 36 -72 121 -72c86 0 124 27 124 69c0 35 -21 48 -94 53z" />
    <glyph glyph-name="h" unicode="h" horiz-adv-x="522" 
d="M64 0v722h101v-376c27 52 77 83 140 83c93 0 157 -66 157 -180v-249h-101v241c0 60 -28 95 -87 95c-66 0 -109 -40 -109 -108v-228h-101z" />
    <glyph glyph-name="i" unicode="i" horiz-adv-x="236" 
d="M118 516c-36 0 -67 27 -67 67c0 38 31 66 67 66s67 -28 67 -66c0 -40 -31 -67 -67 -67zM67 0v420h102v-420h-102z" />
    <glyph glyph-name="j" unicode="j" horiz-adv-x="235" 
d="M118 516c-36 0 -67 27 -67 67c0 38 31 66 67 66s67 -28 67 -66c0 -40 -31 -67 -67 -67zM38 -222c-48 0 -84 23 -103 46l51 64c12 -11 25 -19 42 -19c25 0 39 10 39 45v506h102v-503c0 -90 -49 -139 -131 -139z" />
    <glyph glyph-name="k" unicode="k" horiz-adv-x="478" 
d="M165 124v-124h-101v722h101v-417c0 -26 -3 -52 -5 -74l168 189h115l-155 -175l176 -245h-119l-127 179z" />
    <glyph glyph-name="l" unicode="l" horiz-adv-x="237" 
d="M68 0v722h101v-722h-101z" />
    <glyph glyph-name="m" unicode="m" horiz-adv-x="773" 
d="M64 0v420h101l-2 -72c28 53 71 81 125 81c61 0 101 -29 123 -80c33 50 83 80 144 80c99 0 158 -66 158 -173v-256h-101v246c0 58 -21 90 -79 90c-59 0 -94 -36 -94 -106v-230h-101v246c0 58 -20 90 -78 90c-60 0 -95 -36 -95 -106v-230h-101z" />
    <glyph glyph-name="n" unicode="n" horiz-adv-x="522" 
d="M64 0v420h101l-2 -78c26 55 79 87 142 87c93 0 157 -66 157 -180v-249h-101v241c0 60 -28 95 -87 95c-66 0 -109 -40 -109 -108v-228h-101z" />
    <glyph glyph-name="o" unicode="o" horiz-adv-x="539" 
d="M270 -9c-127 0 -227 94 -227 219s100 219 227 219c128 0 226 -94 226 -219s-98 -219 -226 -219zM270 78c75 0 122 55 122 132s-47 131 -122 131s-123 -54 -123 -131s48 -132 123 -132z" />
    <glyph glyph-name="p" unicode="p" horiz-adv-x="551" 
d="M64 -212v632h102l-3 -78c27 52 77 87 149 87c108 0 195 -91 195 -218s-88 -220 -197 -220c-70 0 -120 34 -144 81v-284h-102zM284 80c73 0 119 52 119 131c0 76 -46 128 -119 128c-74 0 -122 -52 -122 -128c0 -79 48 -131 122 -131z" />
    <glyph glyph-name="q" unicode="q" horiz-adv-x="551" 
d="M386 -212v284c-25 -47 -75 -81 -145 -81c-109 0 -197 93 -197 220s88 218 195 218c74 0 123 -36 150 -87l-3 78h101v-632h-101zM267 80c74 0 122 52 122 131c0 76 -48 128 -122 128c-73 0 -119 -52 -119 -128c0 -79 46 -131 119 -131z" />
    <glyph glyph-name="r" unicode="r" horiz-adv-x="373" 
d="M64 0v420h101l-1 -79c28 66 76 87 122 87c30 0 51 -7 69 -18l-34 -91c-16 8 -32 14 -55 14c-60 0 -101 -35 -101 -129v-204h-101z" />
    <glyph glyph-name="s" unicode="s" horiz-adv-x="415" 
d="M214 -9c-96 0 -160 42 -188 87l69 48c26 -37 65 -54 113 -54c51 0 74 17 74 45c0 34 -31 39 -102 59c-62 17 -124 46 -124 129c0 84 67 124 150 124c67 0 114 -28 146 -63l-59 -58c-20 23 -49 41 -87 41s-59 -14 -59 -39c0 -32 26 -39 92 -56s138 -43 138 -132
c0 -72 -44 -131 -163 -131z" />
    <glyph glyph-name="t" unicode="t" horiz-adv-x="358" 
d="M229 -10c-79 0 -133 40 -133 152v193h-63v85h63v219h101v-219h112v-85h-112v-195c0 -48 16 -62 42 -62c24 0 39 11 50 20l48 -68c-21 -20 -54 -40 -108 -40z" />
    <glyph glyph-name="u" unicode="u" horiz-adv-x="520" 
d="M216 -9c-92 0 -156 65 -156 179v250h101v-242c0 -60 28 -95 87 -95c66 0 107 41 107 109v228h101v-420h-101l2 77c-26 -54 -77 -86 -141 -86z" />
    <glyph glyph-name="v" unicode="v" horiz-adv-x="475" 
d="M232 -9l-215 429h112l85 -186c16 -35 29 -91 29 -91s12 56 27 91l85 186h103l-213 -429h-13z" />
    <glyph glyph-name="w" unicode="w" horiz-adv-x="685" 
d="M200 -10l-183 430h112l67 -172c12 -32 25 -79 25 -79s13 48 29 79l90 180h10l93 -188c15 -30 30 -79 30 -79s13 48 25 79l69 180h101l-184 -430h-11l-104 204c-14 27 -24 71 -24 71s-12 -44 -26 -71l-108 -204h-11z" />
    <glyph glyph-name="x" unicode="x" horiz-adv-x="492" 
d="M24 0l164 221l-143 199h120l57 -81c14 -20 26 -52 26 -52s10 31 25 52l60 81h111l-140 -191l164 -229h-120l-75 105c-16 22 -31 58 -31 58s-14 -36 -30 -58l-77 -105h-111z" />
    <glyph glyph-name="y" unicode="y" horiz-adv-x="476" 
d="M80 -212l109 250l-172 382h112l88 -210c14 -32 24 -87 24 -87s9 55 23 87l90 210h105l-275 -632h-104z" />
    <glyph glyph-name="z" unicode="z" horiz-adv-x="429" 
d="M28 0v11l216 327h-192v82h347v-11l-217 -327h206v-82h-360z" />
    <glyph glyph-name="braceleft" unicode="{" horiz-adv-x="390" 
d="M286 -128c-74 0 -145 29 -145 144v144c0 50 -19 67 -58 67h-57v87h57c39 0 58 17 58 68v196c0 115 71 144 145 144h71v-86h-63c-35 0 -51 -16 -51 -61v-206c0 -66 -33 -90 -78 -98c45 -9 78 -33 78 -99v-153c0 -45 16 -61 51 -61h63v-86h-71z" />
    <glyph glyph-name="bar" unicode="|" horiz-adv-x="257" 
d="M80 -128v850h97v-850h-97z" />
    <glyph glyph-name="braceright" unicode="}" horiz-adv-x="390" 
d="M33 -128v86h63c35 0 50 16 50 61v153c0 67 34 90 79 98c-45 9 -79 33 -79 100v205c0 45 -15 61 -50 61h-63v86h71c73 0 144 -29 144 -144v-196c0 -50 20 -68 59 -68h57v-87h-57c-39 0 -59 -17 -59 -67v-144c0 -115 -71 -144 -144 -144h-71z" />
    <glyph glyph-name="asciitilde" unicode="~" horiz-adv-x="400" 
d="M113 215l-71 7c4 82 45 125 98 125c28 0 47 -12 66 -27c24 -18 34 -26 49 -26c19 0 29 16 32 52l71 -7c-4 -83 -43 -125 -98 -125c-27 0 -47 12 -66 27c-24 18 -32 26 -48 26c-18 0 -30 -17 -33 -52z" />
    <glyph glyph-name="Adieresis" unicode="&#xc4;" horiz-adv-x="659" 
d="M427 763c-31 0 -60 27 -60 61c0 33 29 60 60 60c32 0 61 -27 61 -60c0 -34 -29 -61 -61 -61zM233 763c-32 0 -61 27 -61 61c0 33 29 60 61 60s60 -27 60 -60c0 -34 -28 -61 -60 -61zM29 0l291 687h12l298 -687h-110l-39 96h-311l-39 -96h-102zM206 185h237l-85 212
c-17 40 -34 101 -34 101s-16 -61 -33 -101z" />
    <glyph glyph-name="Aring" unicode="&#xc5;" horiz-adv-x="659" 
d="M330 724c-66 0 -117 50 -117 109c0 61 51 110 117 110s117 -49 117 -110c0 -59 -51 -109 -117 -109zM29 0l291 687h12l298 -687h-110l-39 96h-311l-39 -96h-102zM330 783c28 0 48 19 48 50c0 32 -20 51 -48 51s-48 -19 -48 -51c0 -31 20 -50 48 -50zM206 185h237l-85 212
c-17 40 -34 101 -34 101s-16 -61 -33 -101z" />
    <glyph glyph-name="Ccedilla" unicode="&#xc7;" horiz-adv-x="727" 
d="M350 -6c-169 23 -299 161 -299 346c0 203 156 348 349 348c122 0 212 -45 272 -135l-81 -58c-38 59 -102 98 -191 98c-141 0 -241 -108 -241 -253s100 -254 241 -254c94 0 157 42 201 107l81 -57c-58 -88 -152 -143 -275 -145v-37c45 -8 86 -40 86 -97
c0 -59 -50 -93 -101 -93c-57 0 -92 27 -110 60l52 31c9 -18 23 -33 50 -33c22 0 42 13 42 40c0 25 -18 42 -49 42h-27v90z" />
    <glyph glyph-name="Eacute" unicode="&#xc9;" horiz-adv-x="587" 
d="M82 0v680h432v-93h-326v-264h289v-91h-289v-139h340v-93h-446zM258 751l60 190h116l-98 -190h-78z" />
    <glyph glyph-name="Ntilde" unicode="&#xd1;" horiz-adv-x="707" 
d="M612 -7l-375 404c-27 29 -64 76 -64 76s7 -56 7 -98v-375h-98v687h14l375 -403c26 -28 63 -76 63 -76s-7 60 -7 98v374h98v-687h-13zM266 748l-71 7c4 82 45 125 98 125c28 0 47 -11 66 -26c24 -18 33 -27 49 -27c19 0 29 17 32 52l71 -7c-4 -82 -43 -125 -98 -125
c-27 0 -47 12 -66 27c-24 18 -32 27 -48 27c-19 0 -30 -18 -33 -53z" />
    <glyph glyph-name="Odieresis" unicode="&#xd6;" horiz-adv-x="803" 
d="M499 763c-31 0 -60 27 -60 61c0 33 29 60 60 60c32 0 61 -27 61 -60c0 -34 -29 -61 -61 -61zM305 763c-32 0 -61 27 -61 61c0 33 29 60 61 60s60 -27 60 -60c0 -34 -28 -61 -60 -61zM402 -9c-195 0 -351 146 -351 349s156 349 351 349c194 0 350 -146 350 -349
s-156 -349 -350 -349zM402 86c142 0 242 109 242 254s-100 254 -242 254s-243 -109 -243 -254s101 -254 243 -254z" />
    <glyph glyph-name="Udieresis" unicode="&#xdc;" horiz-adv-x="674" 
d="M434 763c-31 0 -60 27 -60 61c0 33 29 60 60 60c32 0 61 -27 61 -60c0 -34 -29 -61 -61 -61zM240 763c-32 0 -61 27 -61 61c0 33 29 60 61 60s60 -27 60 -60c0 -34 -28 -61 -60 -61zM337 -9c-148 0 -259 83 -259 248v441h106v-435c0 -110 54 -159 153 -159
s154 49 154 159v435h105v-441c0 -165 -112 -248 -259 -248z" />
    <glyph glyph-name="aacute" unicode="&#xe1;" horiz-adv-x="479" 
d="M318 250c0 67 -30 95 -84 95c-55 0 -87 -24 -110 -50l-58 59c37 44 87 75 176 75c101 0 177 -57 177 -181v-248h-101l3 60c-30 -45 -70 -69 -132 -69c-83 0 -151 39 -151 133c0 87 70 125 165 126h115zM318 180h-108c-44 0 -73 -16 -73 -53c0 -36 28 -55 80 -55
c59 0 101 29 101 75v33zM193 499l60 190h116l-98 -190h-78z" />
    <glyph glyph-name="agrave" unicode="&#xe0;" horiz-adv-x="479" 
d="M318 250c0 67 -30 95 -84 95c-55 0 -87 -24 -110 -50l-58 59c37 44 87 75 176 75c101 0 177 -57 177 -181v-248h-101l3 60c-30 -45 -70 -69 -132 -69c-83 0 -151 39 -151 133c0 87 70 125 165 126h115zM318 180h-108c-44 0 -73 -16 -73 -53c0 -36 28 -55 80 -55
c59 0 101 29 101 75v33zM209 499l-98 190h116l60 -190h-78z" />
    <glyph glyph-name="acircumflex" unicode="&#xe2;" horiz-adv-x="479" 
d="M318 250c0 67 -30 95 -84 95c-55 0 -87 -24 -110 -50l-58 59c37 44 87 75 176 75c101 0 177 -57 177 -181v-248h-101l3 60c-30 -45 -70 -69 -132 -69c-83 0 -151 39 -151 133c0 87 70 125 165 126h115zM318 180h-108c-44 0 -73 -16 -73 -53c0 -36 28 -55 80 -55
c59 0 101 29 101 75v33zM90 498l143 204h11l143 -204h-83l-65 83l-66 -83h-83z" />
    <glyph glyph-name="adieresis" unicode="&#xe4;" horiz-adv-x="479" 
d="M318 250c0 67 -30 95 -84 95c-55 0 -87 -24 -110 -50l-58 59c37 44 87 75 176 75c101 0 177 -57 177 -181v-248h-101l3 60c-30 -45 -70 -69 -132 -69c-83 0 -151 39 -151 133c0 87 70 125 165 126h115zM318 180h-108c-44 0 -73 -16 -73 -53c0 -36 28 -55 80 -55
c59 0 101 29 101 75v33zM337 511c-31 0 -60 27 -60 61c0 33 29 60 60 60c32 0 61 -27 61 -60c0 -34 -29 -61 -61 -61zM143 511c-32 0 -61 27 -61 61c0 33 29 60 61 60s60 -27 60 -60c0 -34 -28 -61 -60 -61z" />
    <glyph glyph-name="atilde" unicode="&#xe3;" horiz-adv-x="479" 
d="M318 250c0 67 -30 95 -84 95c-55 0 -87 -24 -110 -50l-58 59c37 44 87 75 176 75c101 0 177 -57 177 -181v-248h-101l3 60c-30 -45 -70 -69 -132 -69c-83 0 -151 39 -151 133c0 87 70 125 165 126h115zM318 180h-108c-44 0 -73 -16 -73 -53c0 -36 28 -55 80 -55
c59 0 101 29 101 75v33zM147 496l-71 7c4 82 45 125 98 125c28 0 47 -11 66 -26c24 -18 33 -27 49 -27c19 0 29 17 32 52l71 -7c-4 -82 -43 -125 -98 -125c-27 0 -47 12 -66 27c-24 18 -32 27 -48 27c-19 0 -30 -18 -33 -53z" />
    <glyph glyph-name="aring" unicode="&#xe5;" horiz-adv-x="479" 
d="M318 250c0 67 -30 95 -84 95c-55 0 -87 -24 -110 -50l-58 59c37 44 87 75 176 75c101 0 177 -57 177 -181v-248h-101l3 60c-30 -45 -70 -69 -132 -69c-83 0 -151 39 -151 133c0 87 70 125 165 126h115zM318 180h-108c-44 0 -73 -16 -73 -53c0 -36 28 -55 80 -55
c59 0 101 29 101 75v33zM239 479c-66 0 -117 50 -117 109c0 61 51 110 117 110s117 -49 117 -110c0 -59 -51 -109 -117 -109zM239 538c28 0 48 19 48 50c0 32 -20 51 -48 51s-48 -19 -48 -51c0 -31 20 -50 48 -50z" />
    <glyph glyph-name="ccedilla" unicode="&#xe7;" horiz-adv-x="473" 
d="M213 -3c-100 22 -170 106 -170 213c0 125 96 219 224 219c79 0 130 -30 170 -80l-72 -58c-20 29 -55 49 -98 49c-75 0 -120 -55 -120 -130s45 -130 120 -130c50 0 80 21 103 47l69 -60c-40 -46 -90 -75 -169 -76v-37c45 -8 86 -40 86 -97c0 -59 -50 -93 -101 -93
c-57 0 -92 27 -110 60l52 31c9 -18 23 -33 50 -33c22 0 42 13 42 40c0 25 -18 42 -49 42h-27v93z" />
    <glyph glyph-name="eacute" unicode="&#xe9;" horiz-adv-x="527" 
d="M146 176c12 -61 56 -100 133 -100c55 0 95 22 119 45l59 -62c-39 -39 -93 -68 -177 -68c-144 0 -237 93 -237 219c0 125 98 219 224 219c143 0 224 -106 217 -253h-338zM146 246h236c-9 57 -44 99 -114 99c-65 0 -110 -36 -122 -99zM224 499l60 190h116l-98 -190h-78z
" />
    <glyph glyph-name="egrave" unicode="&#xe8;" horiz-adv-x="527" 
d="M146 176c12 -61 56 -100 133 -100c55 0 95 22 119 45l59 -62c-39 -39 -93 -68 -177 -68c-144 0 -237 93 -237 219c0 125 98 219 224 219c143 0 224 -106 217 -253h-338zM146 246h236c-9 57 -44 99 -114 99c-65 0 -110 -36 -122 -99zM231 499l-98 190h116l60 -190h-78z
" />
    <glyph glyph-name="ecircumflex" unicode="&#xea;" horiz-adv-x="527" 
d="M146 176c12 -61 56 -100 133 -100c55 0 95 22 119 45l59 -62c-39 -39 -93 -68 -177 -68c-144 0 -237 93 -237 219c0 125 98 219 224 219c143 0 224 -106 217 -253h-338zM146 246h236c-9 57 -44 99 -114 99c-65 0 -110 -36 -122 -99zM114 498l143 204h11l143 -204h-83
l-65 83l-66 -83h-83z" />
    <glyph glyph-name="edieresis" unicode="&#xeb;" horiz-adv-x="527" 
d="M146 176c12 -61 56 -100 133 -100c55 0 95 22 119 45l59 -62c-39 -39 -93 -68 -177 -68c-144 0 -237 93 -237 219c0 125 98 219 224 219c143 0 224 -106 217 -253h-338zM146 246h236c-9 57 -44 99 -114 99c-65 0 -110 -36 -122 -99zM360 511c-31 0 -60 27 -60 61
c0 33 29 60 60 60c32 0 61 -27 61 -60c0 -34 -29 -61 -61 -61zM166 511c-32 0 -61 27 -61 61c0 33 29 60 61 60s60 -27 60 -60c0 -34 -28 -61 -60 -61z" />
    <glyph glyph-name="iacute" unicode="&#xed;" horiz-adv-x="236" 
d="M67 0v420h102v-420h-102zM76 499l60 190h116l-98 -190h-78z" />
    <glyph glyph-name="igrave" unicode="&#xec;" horiz-adv-x="236" 
d="M67 0v420h102v-420h-102zM78 499l-98 190h116l60 -190h-78z" />
    <glyph glyph-name="icircumflex" unicode="&#xee;" horiz-adv-x="236" 
d="M67 0v420h102v-420h-102zM-31 498l143 204h11l143 -204h-83l-65 83l-66 -83h-83z" />
    <glyph glyph-name="idieresis" unicode="&#xef;" horiz-adv-x="236" 
d="M67 0v420h102v-420h-102zM215 511c-31 0 -60 27 -60 61c0 33 29 60 60 60c32 0 61 -27 61 -60c0 -34 -29 -61 -61 -61zM21 511c-32 0 -61 27 -61 61c0 33 29 60 61 60s60 -27 60 -60c0 -34 -28 -61 -60 -61z" />
    <glyph glyph-name="ntilde" unicode="&#xf1;" horiz-adv-x="522" 
d="M64 0v420h101l-2 -78c26 55 79 87 142 87c93 0 157 -66 157 -180v-249h-101v241c0 60 -28 95 -87 95c-66 0 -109 -40 -109 -108v-228h-101zM173 496l-71 7c4 82 45 125 98 125c28 0 47 -11 66 -26c24 -18 33 -27 49 -27c19 0 29 17 32 52l71 -7c-4 -82 -43 -125 -98 -125
c-27 0 -47 12 -66 27c-24 18 -32 27 -48 27c-19 0 -30 -18 -33 -53z" />
    <glyph glyph-name="oacute" unicode="&#xf3;" horiz-adv-x="539" 
d="M270 -9c-127 0 -227 94 -227 219s100 219 227 219c128 0 226 -94 226 -219s-98 -219 -226 -219zM270 78c75 0 122 55 122 132s-47 131 -122 131s-123 -54 -123 -131s48 -132 123 -132zM232 499l60 190h116l-98 -190h-78z" />
    <glyph glyph-name="ograve" unicode="&#xf2;" horiz-adv-x="539" 
d="M270 -9c-127 0 -227 94 -227 219s100 219 227 219c128 0 226 -94 226 -219s-98 -219 -226 -219zM270 78c75 0 122 55 122 132s-47 131 -122 131s-123 -54 -123 -131s48 -132 123 -132zM228 499l-98 190h116l60 -190h-78z" />
    <glyph glyph-name="ocircumflex" unicode="&#xf4;" horiz-adv-x="539" 
d="M270 -9c-127 0 -227 94 -227 219s100 219 227 219c128 0 226 -94 226 -219s-98 -219 -226 -219zM270 78c75 0 122 55 122 132s-47 131 -122 131s-123 -54 -123 -131s48 -132 123 -132zM120 498l143 204h11l143 -204h-83l-65 83l-66 -83h-83z" />
    <glyph glyph-name="odieresis" unicode="&#xf6;" horiz-adv-x="539" 
d="M270 -9c-127 0 -227 94 -227 219s100 219 227 219c128 0 226 -94 226 -219s-98 -219 -226 -219zM270 78c75 0 122 55 122 132s-47 131 -122 131s-123 -54 -123 -131s48 -132 123 -132zM366 511c-31 0 -60 27 -60 61c0 33 29 60 60 60c32 0 61 -27 61 -60
c0 -34 -29 -61 -61 -61zM172 511c-32 0 -61 27 -61 61c0 33 29 60 61 60s60 -27 60 -60c0 -34 -28 -61 -60 -61z" />
    <glyph glyph-name="otilde" unicode="&#xf5;" horiz-adv-x="539" 
d="M270 -9c-127 0 -227 94 -227 219s100 219 227 219c128 0 226 -94 226 -219s-98 -219 -226 -219zM270 78c75 0 122 55 122 132s-47 131 -122 131s-123 -54 -123 -131s48 -132 123 -132zM182 496l-71 7c4 82 45 125 98 125c28 0 47 -11 66 -26c24 -18 33 -27 49 -27
c19 0 29 17 32 52l71 -7c-4 -82 -43 -125 -98 -125c-27 0 -47 12 -66 27c-24 18 -32 27 -48 27c-19 0 -30 -18 -33 -53z" />
    <glyph glyph-name="uacute" unicode="&#xfa;" horiz-adv-x="520" 
d="M216 -9c-92 0 -156 65 -156 179v250h101v-242c0 -60 28 -95 87 -95c66 0 107 41 107 109v228h101v-420h-101l2 77c-26 -54 -77 -86 -141 -86zM221 499l60 190h116l-98 -190h-78z" />
    <glyph glyph-name="ugrave" unicode="&#xf9;" horiz-adv-x="520" 
d="M216 -9c-92 0 -156 65 -156 179v250h101v-242c0 -60 28 -95 87 -95c66 0 107 41 107 109v228h101v-420h-101l2 77c-26 -54 -77 -86 -141 -86zM221 499l-98 190h116l60 -190h-78z" />
    <glyph glyph-name="ucircumflex" unicode="&#xfb;" horiz-adv-x="520" 
d="M216 -9c-92 0 -156 65 -156 179v250h101v-242c0 -60 28 -95 87 -95c66 0 107 41 107 109v228h101v-420h-101l2 77c-26 -54 -77 -86 -141 -86zM111 498l143 204h11l143 -204h-83l-65 83l-66 -83h-83z" />
    <glyph glyph-name="udieresis" unicode="&#xfc;" horiz-adv-x="520" 
d="M216 -9c-92 0 -156 65 -156 179v250h101v-242c0 -60 28 -95 87 -95c66 0 107 41 107 109v228h101v-420h-101l2 77c-26 -54 -77 -86 -141 -86zM357 511c-31 0 -60 27 -60 61c0 33 29 60 60 60c32 0 61 -27 61 -60c0 -34 -29 -61 -61 -61zM163 511c-32 0 -61 27 -61 61
c0 33 29 60 61 60s60 -27 60 -60c0 -34 -28 -61 -60 -61z" />
    <glyph glyph-name="dagger" unicode="&#x2020;" horiz-adv-x="349" 
d="M128 261v234h-91v84h91v101h93v-101h91v-84h-91v-234h-93z" />
    <glyph glyph-name="degree" unicode="&#xb0;" horiz-adv-x="328" 
d="M164 277c-70 0 -128 55 -128 122c0 70 58 122 128 122c71 0 128 -52 128 -122c0 -67 -57 -122 -128 -122zM164 340c34 0 58 24 58 59c0 36 -24 60 -58 60s-57 -24 -57 -60c0 -35 23 -59 57 -59z" />
    <glyph glyph-name="cent" unicode="&#xa2;" horiz-adv-x="475" 
d="M237 -7c-112 14 -194 101 -194 217c0 115 81 204 194 217v108h55v-107c65 -5 111 -33 148 -79l-71 -57c-16 24 -42 42 -77 48v-261c37 5 61 24 82 47l67 -59c-37 -43 -82 -70 -149 -75v-108h-55v109zM237 339c-57 -13 -92 -63 -92 -129s35 -117 92 -130v259z" />
    <glyph glyph-name="sterling" unicode="&#xa3;" horiz-adv-x="562" 
d="M169 253h-96v79h61c-14 36 -25 72 -25 108c0 100 76 178 203 178c93 0 159 -46 193 -116l-84 -49c-25 50 -54 74 -109 74c-60 0 -100 -32 -100 -92c0 -34 10 -68 23 -103h160v-79h-129c14 -40 25 -82 25 -127v-9c32 -20 65 -37 102 -37c38 0 64 16 86 41l61 -61
c-33 -43 -81 -69 -143 -69c-58 0 -102 25 -139 54c-28 -32 -70 -54 -117 -54c-72 0 -117 42 -117 101c0 58 46 94 105 94c25 0 48 -6 69 -15c-6 27 -17 55 -29 82zM200 94c-21 16 -41 28 -61 28c-24 0 -39 -13 -39 -33s15 -34 40 -34c27 0 50 16 60 39z" />
    <glyph glyph-name="section" unicode="&#xa7;" horiz-adv-x="509" 
d="M115 392c-15 23 -24 50 -24 82c0 85 70 144 164 144c87 0 136 -38 168 -101l-81 -39c-17 33 -39 58 -83 58c-47 0 -71 -24 -71 -59c0 -32 14 -52 54 -67l101 -39c93 -35 136 -82 136 -147c0 -55 -34 -91 -82 -112c15 -20 24 -46 24 -78c0 -83 -63 -137 -173 -137
c-94 0 -165 49 -191 107l81 42c18 -38 51 -66 106 -66c48 0 76 22 76 53c0 29 -18 45 -61 62l-91 35c-95 36 -138 80 -138 152c0 53 36 91 85 110zM348 156c24 10 37 27 37 51c0 35 -17 55 -70 75l-100 39c-21 8 -41 18 -57 30c-23 -12 -33 -31 -33 -54c0 -36 16 -57 67 -77
l93 -35c23 -9 44 -18 63 -29z" />
    <glyph glyph-name="bullet" unicode="&#x2022;" horiz-adv-x="278" 
d="M139 169c-54 0 -101 44 -101 101c0 58 47 101 101 101c53 0 101 -43 101 -101c0 -57 -48 -101 -101 -101z" />
    <glyph glyph-name="paragraph" unicode="&#xb6;" horiz-adv-x="665" 
d="M309 0v274h-50c-140 0 -217 91 -217 201c0 108 77 205 217 205h324v-680h-100v591h-73v-591h-101zM262 363h47v228h-47c-64 0 -109 -40 -109 -114s45 -114 109 -114z" />
    <glyph glyph-name="germandbls" unicode="&#xdf;" horiz-adv-x="560" 
d="M305 -5c-36 0 -65 5 -81 11l15 83c16 -5 27 -8 50 -8c82 0 124 50 124 131c0 93 -61 140 -163 138v81c60 7 102 43 102 116s-38 104 -91 104c-54 0 -96 -35 -96 -117v-534h-101v532c0 136 87 203 197 203c113 0 188 -69 188 -184c0 -68 -31 -119 -88 -146
c94 -23 156 -90 156 -196c0 -125 -76 -214 -212 -214z" />
    <glyph glyph-name="registered" unicode="&#xae;" horiz-adv-x="510" 
d="M254 259c-121 0 -220 91 -220 216c0 126 99 217 220 217c122 0 222 -91 222 -217c0 -125 -100 -216 -222 -216zM254 300c101 0 176 68 176 174c0 109 -75 176 -176 176c-100 0 -173 -67 -173 -176c0 -106 73 -174 173 -174zM312 431l42 -68h-58l-33 56h-35v-56h-55v227
h83c64 0 97 -41 97 -85c0 -30 -14 -58 -41 -74zM228 462h29c25 0 42 12 42 41c0 25 -17 40 -42 40h-29v-81z" />
    <glyph glyph-name="copyright" unicode="&#xa9;" horiz-adv-x="596" 
d="M299 -6c-142 0 -265 112 -265 263c0 153 123 264 265 264s263 -111 263 -264c0 -151 -121 -263 -263 -263zM299 43c117 0 211 87 211 214c0 128 -94 215 -211 215c-118 0 -213 -87 -213 -215c0 -127 95 -214 213 -214zM303 109c-86 0 -150 63 -150 148
c0 87 64 150 148 150c57 0 93 -24 119 -53l-56 -51c-14 18 -32 28 -57 28c-41 0 -66 -30 -66 -74c0 -41 26 -73 67 -73c29 0 47 14 58 29l56 -50c-24 -29 -61 -54 -119 -54z" />
    <glyph glyph-name="trademark" unicode="&#x2122;" horiz-adv-x="718" 
d="M344 381v303h9l145 -154l146 154h9v-303h-72v156l-78 -92h-9l-79 92v-156h-71zM127 381v239h-85v60h243v-60h-85v-239h-73z" />
    <glyph glyph-name="acute" unicode="&#xb4;" 
d="M211 499l60 190h116l-98 -190h-78z" />
    <glyph glyph-name="dieresis" unicode="&#xa8;" 
d="M347 511c-31 0 -60 27 -60 61c0 33 29 60 60 60c32 0 61 -27 61 -60c0 -34 -29 -61 -61 -61zM153 511c-32 0 -61 27 -61 61c0 33 29 60 61 60s60 -27 60 -60c0 -34 -28 -61 -60 -61z" />
    <glyph glyph-name="AE" unicode="&#xc6;" horiz-adv-x="971" 
d="M21 0l460 680h417v-93h-326v-264h289v-91h-289v-139h340v-93h-445v96h-270l-64 -96h-112zM259 187h208v253c0 38 8 90 8 90s-20 -47 -42 -80z" />
    <glyph glyph-name="Oslash" unicode="&#xd8;" horiz-adv-x="801" 
d="M102 -10l-59 58l79 77c-45 58 -72 132 -72 215c0 201 156 349 351 349c84 0 160 -28 220 -76l78 76l59 -58l-78 -77c44 -57 71 -131 71 -214c0 -201 -156 -349 -350 -349c-84 0 -161 28 -220 75c-37 -35 -79 -76 -79 -76zM198 199l352 346c-39 32 -91 50 -149 50
c-142 0 -243 -110 -243 -255c0 -54 14 -102 40 -141zM401 85c142 0 243 110 243 255c0 53 -15 102 -40 141l-353 -346c40 -32 91 -50 150 -50z" />
    <glyph glyph-name="lessequal" unicode="&#x2264;" horiz-adv-x="220" 
d="M111 181c-37 0 -69 29 -69 70c0 40 32 68 69 68c36 0 68 -28 68 -68c0 -41 -32 -70 -68 -70z" />
    <glyph glyph-name="greaterequal" unicode="&#x2265;" horiz-adv-x="220" 
d="M111 181c-37 0 -69 29 -69 70c0 40 32 68 69 68c36 0 68 -28 68 -68c0 -41 -32 -70 -68 -70z" />
    <glyph glyph-name="yen" unicode="&#xa5;" horiz-adv-x="565" 
d="M152 307l-119 206h113l107 -195c19 -36 33 -85 33 -85s15 49 34 85l107 195h105s-64 -111 -120 -206h99v-72h-140l-36 -61h176v-72h-177v-102h-104v102h-177v72h175l-35 61h-140v72h99z" />
    <glyph glyph-name="mu" unicode="&#xb5;" horiz-adv-x="220" 
d="M111 181c-37 0 -69 29 -69 70c0 40 32 68 69 68c36 0 68 -28 68 -68c0 -41 -32 -70 -68 -70z" />
    <glyph glyph-name="mu" unicode="&#x3bc;" horiz-adv-x="220" 
d="M111 181c-37 0 -69 29 -69 70c0 40 32 68 69 68c36 0 68 -28 68 -68c0 -41 -32 -70 -68 -70z" />
    <glyph glyph-name="partialdiff" unicode="&#x2202;" horiz-adv-x="220" 
d="M111 181c-37 0 -69 29 -69 70c0 40 32 68 69 68c36 0 68 -28 68 -68c0 -41 -32 -70 -68 -70z" />
    <glyph glyph-name="Q.alt1" horiz-adv-x="801" 
d="M458 6c35 -31 67 -55 119 -55c44 0 73 24 91 45l69 -61c-33 -44 -81 -76 -159 -76c-92 0 -154 57 -209 104c-40 33 -78 63 -127 63c-52 0 -88 -32 -113 -70l-71 58c24 37 57 63 96 79c-64 60 -105 146 -105 248c0 203 156 348 351 348c194 0 350 -145 350 -348
c0 -182 -125 -310 -292 -335zM400 90c142 0 242 106 242 251s-100 253 -242 253s-243 -108 -243 -253s101 -251 243 -251z" />
    <glyph glyph-name="product" unicode="&#x220f;" horiz-adv-x="220" 
d="M111 181c-37 0 -69 29 -69 70c0 40 32 68 69 68c36 0 68 -28 68 -68c0 -41 -32 -70 -68 -70z" />
    <glyph glyph-name="pi" unicode="&#x3c0;" horiz-adv-x="220" 
d="M111 181c-37 0 -69 29 -69 70c0 40 32 68 69 68c36 0 68 -28 68 -68c0 -41 -32 -70 -68 -70z" />
    <glyph glyph-name="integral" unicode="&#x222b;" horiz-adv-x="220" 
d="M111 181c-37 0 -69 29 -69 70c0 40 32 68 69 68c36 0 68 -28 68 -68c0 -41 -32 -70 -68 -70z" />
    <glyph glyph-name="ordfeminine" unicode="&#xaa;" horiz-adv-x="415" 
d="M272 370c-1 57 -27 75 -69 75c-49 0 -74 -23 -92 -42l-56 51c29 35 74 67 157 67c84 0 153 -45 153 -154v-209h-93l2 45c-23 -33 -60 -54 -108 -54c-72 0 -131 36 -131 111s63 110 143 110h94zM272 307h-85c-37 0 -60 -12 -60 -41c0 -28 22 -44 62 -44c51 0 83 24 83 62
v23z" />
    <glyph glyph-name="ordmasculine" unicode="&#xba;" horiz-adv-x="466" 
d="M233 149c-107 0 -193 79 -193 186c0 106 86 186 193 186s193 -80 193 -186c0 -107 -86 -186 -193 -186zM233 227c59 0 98 44 98 108c0 63 -39 107 -98 107s-96 -44 -96 -107c0 -64 37 -108 96 -108z" />
    <glyph glyph-name="Omega" unicode="&#x3a9;" horiz-adv-x="220" 
d="M111 181c-37 0 -69 29 -69 70c0 40 32 68 69 68c36 0 68 -28 68 -68c0 -41 -32 -70 -68 -70z" />
    <glyph glyph-name="Omega" unicode="&#x2126;" horiz-adv-x="220" 
d="M111 181c-37 0 -69 29 -69 70c0 40 32 68 69 68c36 0 68 -28 68 -68c0 -41 -32 -70 -68 -70z" />
    <glyph glyph-name="ae" unicode="&#xe6;" horiz-adv-x="802" 
d="M318 250c0 66 -30 95 -84 95c-55 0 -87 -24 -110 -50l-58 59c37 44 87 75 176 75c64 0 113 -26 137 -81c35 49 92 81 163 81c143 0 224 -106 217 -253h-339c12 -60 58 -100 133 -100c56 0 96 22 120 45l59 -62c-39 -39 -93 -68 -178 -68c-83 0 -144 33 -180 86
c-28 -56 -92 -86 -168 -86c-97 0 -168 37 -168 133c0 87 70 126 165 126h115zM420 246h237c-9 57 -43 99 -115 99c-65 0 -110 -37 -122 -99zM318 180h-108c-44 0 -73 -16 -73 -53c0 -36 27 -55 80 -55c59 0 101 29 101 75v33z" />
    <glyph glyph-name="oslash" unicode="&#xf8;" horiz-adv-x="539" 
d="M457 333c25 -35 39 -77 39 -123c0 -125 -98 -219 -226 -219c-55 0 -105 18 -144 49l-60 -53l-42 48l58 51c-25 36 -39 78 -39 124c0 125 100 219 227 219c55 0 104 -18 143 -49l60 53l42 -49zM153 150l193 171c-20 15 -46 23 -76 23c-76 0 -128 -56 -128 -134
c0 -22 4 -42 11 -60zM386 270l-194 -171c21 -16 48 -25 78 -25c77 0 127 57 127 136c0 22 -4 42 -11 60z" />
    <glyph glyph-name="questiondown" unicode="&#xbf;" horiz-adv-x="483" 
d="M266 544c-38 0 -71 30 -71 71s33 71 71 71c37 0 71 -30 71 -71s-34 -71 -71 -71zM251 -9c-133 0 -205 85 -205 195c0 106 56 176 170 195v92h97v-176h-41c-87 0 -120 -53 -120 -111c0 -55 36 -104 99 -104c62 0 93 27 119 80l82 -47c-32 -80 -103 -124 -201 -124z" />
    <glyph glyph-name="exclamdown" unicode="&#xa1;" horiz-adv-x="268" 
d="M134 544c-38 0 -71 30 -71 71s33 71 71 71s71 -30 71 -71s-33 -71 -71 -71zM77 0l17 466h80l17 -466h-114z" />
    <glyph glyph-name="logicalnot" unicode="&#xac;" horiz-adv-x="220" 
d="M111 181c-37 0 -69 29 -69 70c0 40 32 68 69 68c36 0 68 -28 68 -68c0 -41 -32 -70 -68 -70z" />
    <glyph glyph-name="radical" unicode="&#x221a;" horiz-adv-x="220" 
d="M111 181c-37 0 -69 29 -69 70c0 40 32 68 69 68c36 0 68 -28 68 -68c0 -41 -32 -70 -68 -70z" />
    <glyph glyph-name="florin" unicode="&#x192;" horiz-adv-x="382" 
d="M199 193l-46 -405h-99l46 405h-65v79h74l22 196c12 104 65 150 145 150c57 0 92 -23 116 -57l-64 -56c-12 18 -24 27 -47 27c-27 0 -45 -15 -50 -58l-23 -202h100v-79h-109z" />
    <glyph glyph-name="approxequal" unicode="&#x2248;" horiz-adv-x="220" 
d="M111 181c-37 0 -69 29 -69 70c0 40 32 68 69 68c36 0 68 -28 68 -68c0 -41 -32 -70 -68 -70z" />
    <glyph glyph-name="Delta" unicode="&#x394;" horiz-adv-x="220" 
d="M111 181c-37 0 -69 29 -69 70c0 40 32 68 69 68c36 0 68 -28 68 -68c0 -41 -32 -70 -68 -70z" />
    <glyph glyph-name="Delta" unicode="&#x2206;" horiz-adv-x="220" 
d="M111 181c-37 0 -69 29 -69 70c0 40 32 68 69 68c36 0 68 -28 68 -68c0 -41 -32 -70 -68 -70z" />
    <glyph glyph-name="guillemotleft" unicode="&#xab;" horiz-adv-x="449" 
d="M314 35l-95 163v8l95 161h100l-97 -165l97 -167h-100zM129 35l-94 163v8l94 161h101l-97 -165l97 -167h-101z" />
    <glyph glyph-name="guillemotright" unicode="&#xbb;" horiz-adv-x="449" 
d="M219 35l97 165l-97 167h101l94 -163v-8l-94 -161h-101zM35 35l97 165l-97 167h100l95 -163v-8l-95 -161h-100z" />
    <glyph glyph-name="ellipsis" unicode="&#x2026;" horiz-adv-x="674" 
d="M563 -6c-37 0 -70 29 -70 69s33 68 70 68c36 0 68 -28 68 -68s-32 -69 -68 -69zM337 -6c-37 0 -69 29 -69 69s32 68 69 68s69 -28 69 -68s-32 -69 -69 -69zM112 -6c-37 0 -69 29 -69 69s32 68 69 68c36 0 68 -28 68 -68s-32 -69 -68 -69z" />
    <glyph glyph-name="nbspace" unicode="&#xa0;" horiz-adv-x="229" 
 />
    <glyph glyph-name="Agrave" unicode="&#xc0;" horiz-adv-x="659" 
d="M29 0l291 687h12l298 -687h-110l-39 96h-311l-39 -96h-102zM206 185h237l-85 212c-17 40 -34 101 -34 101s-16 -61 -33 -101zM289 751l-98 190h116l60 -190h-78z" />
    <glyph glyph-name="Atilde" unicode="&#xc3;" horiz-adv-x="659" 
d="M29 0l291 687h12l298 -687h-110l-39 96h-311l-39 -96h-102zM206 185h237l-85 212c-17 40 -34 101 -34 101s-16 -61 -33 -101zM237 748l-71 7c4 82 45 125 98 125c28 0 47 -11 66 -26c24 -18 33 -27 49 -27c19 0 29 17 32 52l71 -7c-4 -82 -43 -125 -98 -125
c-27 0 -47 12 -66 27c-24 18 -32 27 -48 27c-19 0 -30 -18 -33 -53z" />
    <glyph glyph-name="Otilde" unicode="&#xd5;" horiz-adv-x="803" 
d="M402 -9c-195 0 -351 146 -351 349s156 349 351 349c194 0 350 -146 350 -349s-156 -349 -350 -349zM402 86c142 0 242 109 242 254s-100 254 -242 254s-243 -109 -243 -254s101 -254 243 -254zM315 748l-71 7c4 82 45 125 98 125c28 0 47 -11 66 -26
c24 -18 33 -27 49 -27c19 0 29 17 32 52l71 -7c-4 -82 -43 -125 -98 -125c-27 0 -47 12 -66 27c-24 18 -32 27 -48 27c-19 0 -30 -18 -33 -53z" />
    <glyph glyph-name="OE" unicode="&#x152;" horiz-adv-x="992" 
d="M408 0c-215 0 -358 139 -358 340s142 340 358 340h511v-93h-326v-264h289v-91h-289v-139h340v-93h-525zM414 93h73v494h-73c-173 0 -256 -102 -256 -247s83 -247 256 -247z" />
    <glyph glyph-name="oe" unicode="&#x153;" horiz-adv-x="875" 
d="M493 176c12 -61 56 -100 133 -100c55 0 95 22 119 45l59 -62c-39 -39 -93 -68 -177 -68c-88 0 -150 38 -183 96c-32 -58 -93 -96 -174 -96c-127 0 -227 94 -227 219s100 219 227 219c81 0 141 -37 173 -95c32 57 92 95 172 95c142 0 223 -106 216 -253h-338zM493 246h236
c-9 57 -44 99 -114 99c-65 0 -110 -36 -122 -99zM270 78c75 0 122 55 122 132s-47 131 -122 131s-123 -54 -123 -131s48 -132 123 -132z" />
    <glyph glyph-name="endash" unicode="&#x2013;" horiz-adv-x="400" 
d="M33 165v90h334v-90h-334z" />
    <glyph glyph-name="emdash" unicode="&#x2014;" horiz-adv-x="640" 
d="M33 165v90h574v-90h-574z" />
    <glyph glyph-name="quotedblleft" unicode="&#x201c;" horiz-adv-x="406" 
d="M297 445c-35 0 -67 28 -67 65c0 22 9 40 22 63l57 107h51l-36 -109c21 -8 39 -31 39 -60c0 -38 -31 -66 -66 -66zM110 445c-35 0 -66 28 -66 65c0 22 8 40 21 63l57 107h51l-36 -109c21 -8 39 -31 39 -60c0 -38 -31 -66 -66 -66z" />
    <glyph glyph-name="quotedblright" unicode="&#x201d;" horiz-adv-x="406" 
d="M233 452l36 109c-20 8 -39 31 -39 60c0 38 32 66 66 66c36 0 67 -28 67 -65c0 -22 -9 -40 -21 -63l-58 -107h-51zM46 452l36 109c-20 8 -38 31 -38 60c0 38 31 66 65 66c36 0 67 -28 67 -65c0 -22 -8 -40 -21 -63l-58 -107h-51z" />
    <glyph glyph-name="quoteleft" unicode="&#x2018;" horiz-adv-x="220" 
d="M110 445c-35 0 -66 28 -66 65c0 22 8 40 21 63l57 107h51l-36 -109c21 -8 39 -31 39 -60c0 -38 -31 -66 -66 -66z" />
    <glyph glyph-name="quoteright" unicode="&#x2019;" horiz-adv-x="220" 
d="M46 452l36 109c-20 8 -38 31 -38 60c0 38 31 66 65 66c36 0 67 -28 67 -65c0 -22 -8 -40 -21 -63l-58 -107h-51z" />
    <glyph glyph-name="divide" unicode="&#xf7;" horiz-adv-x="220" 
d="M111 181c-37 0 -69 29 -69 70c0 40 32 68 69 68c36 0 68 -28 68 -68c0 -41 -32 -70 -68 -70z" />
    <glyph glyph-name="lozenge" unicode="&#x25ca;" horiz-adv-x="220" 
d="M111 181c-37 0 -69 29 -69 70c0 40 32 68 69 68c36 0 68 -28 68 -68c0 -41 -32 -70 -68 -70z" />
    <glyph glyph-name="ydieresis" unicode="&#xff;" horiz-adv-x="476" 
d="M80 -212l109 250l-172 382h112l88 -210c14 -32 24 -87 24 -87s9 55 23 87l90 210h105l-275 -632h-104zM334 511c-31 0 -60 27 -60 61c0 33 29 60 60 60c32 0 61 -27 61 -60c0 -34 -29 -61 -61 -61zM140 511c-32 0 -61 27 -61 61c0 33 29 60 61 60s60 -27 60 -60
c0 -34 -28 -61 -60 -61z" />
    <glyph glyph-name="Ydieresis" unicode="&#x178;" horiz-adv-x="668" 
d="M431 763c-31 0 -60 27 -60 61c0 33 29 60 60 60c32 0 61 -27 61 -60c0 -34 -29 -61 -61 -61zM237 763c-32 0 -61 27 -61 61c0 33 29 60 61 60s60 -27 60 -60c0 -34 -28 -61 -60 -61zM287 0v215l-258 465h117l154 -280c21 -38 41 -98 41 -98s21 60 41 98l149 280h109
l-247 -459v-221h-106z" />
    <glyph glyph-name="fraction" unicode="&#x2044;" horiz-adv-x="437" 
d="M-38 0l412 680h101l-411 -680h-102z" />
    <glyph glyph-name="fraction" unicode="&#x2215;" horiz-adv-x="437" 
d="M-38 0l412 680h101l-411 -680h-102z" />
    <glyph glyph-name="Euro" unicode="&#x20ac;" horiz-adv-x="610" 
d="M98 283h-65v72h81c39 100 135 166 248 166c90 0 152 -29 201 -92l-71 -59c-32 43 -70 64 -130 64c-63 0 -113 -29 -141 -79h174v-72h-196c-1 -8 -1 -17 -1 -26s1 -18 1 -27h196v-72h-173c28 -50 78 -79 140 -79c68 0 106 28 134 70l76 -55c-48 -71 -112 -103 -210 -103
c-113 0 -208 67 -247 167h-82v72h65c-1 9 -1 18 -1 27s0 18 1 26z" />
    <glyph glyph-name="guilsinglleft" unicode="&#x2039;" horiz-adv-x="265" 
d="M129 35l-94 163v8l94 161h101l-97 -165l97 -167h-101z" />
    <glyph glyph-name="guilsinglright" unicode="&#x203a;" horiz-adv-x="265" 
d="M35 35l97 165l-97 167h100l95 -163v-8l-95 -161h-100z" />
    <glyph glyph-name="daggerdbl" unicode="&#x2021;" horiz-adv-x="349" 
d="M128 261v101h-91v76h91v65h-91v76h91v101h93v-101h91v-76h-91v-65h91v-76h-91v-101h-93z" />
    <glyph glyph-name="periodcentered" unicode="&#xb7;" horiz-adv-x="223" 
d="M112 181c-37 0 -69 29 -69 70c0 40 32 68 69 68c36 0 68 -28 68 -68c0 -41 -32 -70 -68 -70z" />
    <glyph glyph-name="periodcentered" unicode="&#x2219;" horiz-adv-x="223" 
d="M112 181c-37 0 -69 29 -69 70c0 40 32 68 69 68c36 0 68 -28 68 -68c0 -41 -32 -70 -68 -70z" />
    <glyph glyph-name="quotesinglbase" unicode="&#x201a;" horiz-adv-x="220" 
d="M46 -102l36 109c-20 8 -38 31 -38 60c0 37 31 66 65 66c36 0 67 -29 67 -66c0 -21 -8 -40 -21 -62l-58 -107h-51z" />
    <glyph glyph-name="quotedblbase" unicode="&#x201e;" horiz-adv-x="406" 
d="M233 -102l36 109c-20 8 -39 31 -39 60c0 37 32 66 66 66c36 0 67 -29 67 -66c0 -21 -9 -40 -21 -62l-58 -107h-51zM46 -102l36 109c-20 8 -38 31 -38 60c0 37 31 66 65 66c36 0 67 -29 67 -66c0 -21 -8 -40 -21 -62l-58 -107h-51z" />
    <glyph glyph-name="perthousand" unicode="&#x2030;" horiz-adv-x="1166" 
d="M183 218c-84 0 -156 63 -156 151s72 152 156 152s156 -64 156 -152s-72 -151 -156 -151zM193 0l322 513h101l-322 -513h-101zM983 -9c-85 0 -156 63 -156 152c0 88 71 152 156 152c84 0 156 -64 156 -152c0 -89 -72 -152 -156 -152zM626 -9c-84 0 -156 63 -156 152
c0 88 72 152 156 152s156 -64 156 -152c0 -89 -72 -152 -156 -152zM183 295c38 0 71 29 71 74c0 46 -33 75 -71 75c-37 0 -71 -29 -71 -75c0 -45 34 -74 71 -74zM983 69c37 0 71 29 71 74s-34 74 -71 74s-70 -29 -70 -74s33 -74 70 -74zM626 69c38 0 71 29 71 74
s-33 74 -71 74c-37 0 -70 -29 -70 -74s33 -74 70 -74z" />
    <glyph glyph-name="Acircumflex" unicode="&#xc2;" horiz-adv-x="659" 
d="M29 0l291 687h12l298 -687h-110l-39 96h-311l-39 -96h-102zM206 185h237l-85 212c-17 40 -34 101 -34 101s-16 -61 -33 -101zM177 750l143 204h11l143 -204h-83l-65 83l-66 -83h-83z" />
    <glyph glyph-name="Ecircumflex" unicode="&#xca;" horiz-adv-x="587" 
d="M82 0v680h432v-93h-326v-264h289v-91h-289v-139h340v-93h-446zM153 750l143 204h11l143 -204h-83l-65 83l-66 -83h-83z" />
    <glyph glyph-name="Aacute" unicode="&#xc1;" horiz-adv-x="659" 
d="M29 0l291 687h12l298 -687h-110l-39 96h-311l-39 -96h-102zM206 185h237l-85 212c-17 40 -34 101 -34 101s-16 -61 -33 -101zM289 751l60 190h116l-98 -190h-78z" />
    <glyph glyph-name="Edieresis" unicode="&#xcb;" horiz-adv-x="587" 
d="M82 0v680h432v-93h-326v-264h289v-91h-289v-139h340v-93h-446zM398 763c-31 0 -60 27 -60 61c0 33 29 60 60 60c32 0 61 -27 61 -60c0 -34 -29 -61 -61 -61zM204 763c-32 0 -61 27 -61 61c0 33 29 60 61 60s60 -27 60 -60c0 -34 -28 -61 -60 -61z" />
    <glyph glyph-name="Egrave" unicode="&#xc8;" horiz-adv-x="587" 
d="M82 0v680h432v-93h-326v-264h289v-91h-289v-139h340v-93h-446zM270 751l-98 190h116l60 -190h-78z" />
    <glyph glyph-name="Iacute" unicode="&#xcd;" horiz-adv-x="276" 
d="M86 0v680h105v-680h-105zM100 751l60 190h116l-98 -190h-78z" />
    <glyph glyph-name="Icircumflex" unicode="&#xce;" horiz-adv-x="276" 
d="M86 0v680h105v-680h-105zM-11 750l143 204h11l143 -204h-83l-65 83l-66 -83h-83z" />
    <glyph glyph-name="Idieresis" unicode="&#xcf;" horiz-adv-x="276" 
d="M86 0v680h105v-680h-105zM234 763c-31 0 -60 27 -60 61c0 33 29 60 60 60c32 0 61 -27 61 -60c0 -34 -29 -61 -61 -61zM40 763c-32 0 -61 27 -61 61c0 33 29 60 61 60s60 -27 60 -60c0 -34 -28 -61 -60 -61z" />
    <glyph glyph-name="Igrave" unicode="&#xcc;" horiz-adv-x="276" 
d="M86 0v680h105v-680h-105zM97 751l-98 190h116l60 -190h-78z" />
    <glyph glyph-name="Oacute" unicode="&#xd3;" horiz-adv-x="803" 
d="M402 -9c-195 0 -351 146 -351 349s156 349 351 349c194 0 350 -146 350 -349s-156 -349 -350 -349zM402 86c142 0 242 109 242 254s-100 254 -242 254s-243 -109 -243 -254s101 -254 243 -254zM363 751l60 190h116l-98 -190h-78z" />
    <glyph glyph-name="Ocircumflex" unicode="&#xd4;" horiz-adv-x="803" 
d="M402 -9c-195 0 -351 146 -351 349s156 349 351 349c194 0 350 -146 350 -349s-156 -349 -350 -349zM402 86c142 0 242 109 242 254s-100 254 -242 254s-243 -109 -243 -254s101 -254 243 -254zM253 750l143 204h11l143 -204h-83l-65 83l-66 -83h-83z" />
    <glyph glyph-name="apple" horiz-adv-x="223" 
d="M112 181c-37 0 -69 29 -69 70c0 40 32 68 69 68c36 0 68 -28 68 -68c0 -41 -32 -70 -68 -70z" />
    <glyph glyph-name="Ograve" unicode="&#xd2;" horiz-adv-x="803" 
d="M402 -9c-195 0 -351 146 -351 349s156 349 351 349c194 0 350 -146 350 -349s-156 -349 -350 -349zM402 86c142 0 242 109 242 254s-100 254 -242 254s-243 -109 -243 -254s101 -254 243 -254zM363 751l-98 190h116l60 -190h-78z" />
    <glyph glyph-name="Uacute" unicode="&#xda;" horiz-adv-x="674" 
d="M337 -9c-148 0 -259 83 -259 248v441h106v-435c0 -110 54 -159 153 -159s154 49 154 159v435h105v-441c0 -165 -112 -248 -259 -248zM298 751l60 190h116l-98 -190h-78z" />
    <glyph glyph-name="Ucircumflex" unicode="&#xdb;" horiz-adv-x="674" 
d="M337 -9c-148 0 -259 83 -259 248v441h106v-435c0 -110 54 -159 153 -159s154 49 154 159v435h105v-441c0 -165 -112 -248 -259 -248zM188 750l143 204h11l143 -204h-83l-65 83l-66 -83h-83z" />
    <glyph glyph-name="Ugrave" unicode="&#xd9;" horiz-adv-x="674" 
d="M337 -9c-148 0 -259 83 -259 248v441h106v-435c0 -110 54 -159 153 -159s154 49 154 159v435h105v-441c0 -165 -112 -248 -259 -248zM298 751l-98 190h116l60 -190h-78z" />
    <glyph glyph-name="dotlessi" unicode="&#x131;" horiz-adv-x="236" 
d="M67 0v420h102v-420h-102z" />
    <glyph glyph-name="circumflex" unicode="&#x2c6;" 
d="M101 498l143 204h11l143 -204h-83l-65 83l-66 -83h-83z" />
    <glyph glyph-name="tilde" unicode="&#x2dc;" 
d="M163 496l-71 7c4 82 45 125 98 125c28 0 47 -11 66 -26c24 -18 33 -27 49 -27c19 0 29 17 32 52l71 -7c-4 -82 -43 -125 -98 -125c-27 0 -47 12 -66 27c-24 18 -32 27 -48 27c-19 0 -30 -18 -33 -53z" />
    <glyph glyph-name="macron" unicode="&#xaf;" 
d="M137 527v76h226v-76h-226z" />
    <glyph glyph-name="macron" unicode="&#x2c9;" 
d="M137 527v76h226v-76h-226z" />
    <glyph glyph-name="breve" unicode="&#x2d8;" 
d="M250 494c-86 0 -137 55 -146 128l79 12c7 -36 25 -64 67 -64s60 28 67 64l79 -12c-9 -73 -60 -128 -146 -128z" />
    <glyph glyph-name="dotaccent" unicode="&#x2d9;" 
d="M250 511c-31 0 -61 27 -61 61s30 61 61 61c32 0 61 -27 61 -61s-29 -61 -61 -61z" />
    <glyph glyph-name="ring" unicode="&#x2da;" 
d="M250 479c-66 0 -117 50 -117 109c0 61 51 110 117 110s117 -49 117 -110c0 -59 -51 -109 -117 -109zM250 538c28 0 48 19 48 50c0 32 -20 51 -48 51s-48 -19 -48 -51c0 -31 20 -50 48 -50z" />
    <glyph glyph-name="cedilla" unicode="&#xb8;" 
d="M258 -236c-57 0 -92 27 -110 60l52 31c9 -18 23 -33 50 -33c22 0 42 13 42 40c0 25 -18 42 -49 42h-27v96h57v-46c45 -8 86 -40 86 -97c0 -59 -50 -93 -101 -93z" />
    <glyph glyph-name="hungarumlaut" unicode="&#x2dd;" 
d="M291 499l59 190h107l-89 -190h-77zM129 499l60 190h107l-89 -190h-78z" />
    <glyph glyph-name="ogonek" unicode="&#x2db;" 
d="M240 -236c-52 0 -99 31 -99 95c0 37 18 69 40 97l34 44h64l-38 -63c-21 -35 -30 -49 -30 -76c0 -24 15 -37 35 -37c24 0 37 15 47 31l53 -31c-19 -36 -50 -60 -106 -60z" />
    <glyph glyph-name="caron" unicode="&#x2c7;" 
d="M245 485l-143 204h83l65 -83l66 83h83l-143 -204h-11z" />
    <glyph glyph-name="G.alt" horiz-adv-x="771" 
d="M399 -9c-201 0 -352 147 -352 349s156 348 350 348c118 0 215 -43 276 -139l-82 -59c-42 66 -106 103 -194 103c-142 0 -242 -108 -242 -253s101 -255 243 -255c130 0 207 76 223 164h-207v92h319c4 -210 -118 -350 -334 -350z" />
    <glyph glyph-name="M.alt" horiz-adv-x="838" 
d="M67 0l65 688h12l235 -363c20 -29 41 -70 41 -70s22 41 41 70l233 363h12l65 -688h-105l-33 335c-3 41 -6 110 -6 110s-28 -59 -52 -95l-153 -245h-10l-152 244c-24 36 -55 95 -55 95s-2 -68 -5 -109l-34 -335h-99z" />
    <glyph glyph-name="Q.alt" horiz-adv-x="803" 
d="M453 -5v-153h-102v153c-171 23 -300 160 -300 345c0 203 156 348 351 348c194 0 350 -145 350 -348c0 -185 -129 -322 -299 -345zM351 86v131h102v-131c114 22 191 120 191 254c0 145 -100 253 -242 253s-243 -108 -243 -253c0 -134 77 -232 192 -254z" />
    <glyph glyph-name="a.alt" horiz-adv-x="546" 
d="M237 -9c-107 0 -193 93 -193 220c0 126 84 218 194 218c71 0 118 -34 144 -86l-1 77h101v-420h-101l1 78c-24 -50 -75 -87 -145 -87zM264 80c74 0 119 53 119 130c0 76 -45 129 -119 129c-72 0 -115 -52 -115 -128c0 -78 43 -131 115 -131z" />
    <glyph glyph-name="g.alt" horiz-adv-x="551" 
d="M269 -222c-108 0 -181 47 -219 110l73 54c33 -48 74 -79 141 -79c76 0 122 42 122 136v73c-25 -47 -75 -81 -145 -81c-109 0 -197 93 -197 220s88 218 195 218c74 0 123 -36 150 -87l-3 78h101v-426c0 -154 -95 -216 -218 -216zM267 80c74 0 122 52 122 131
c0 76 -48 128 -122 128c-73 0 -119 -52 -119 -128c0 -79 46 -131 119 -131z" />
    <glyph glyph-name="u.alt" horiz-adv-x="510" 
d="M251 -10c-123 0 -191 74 -191 197v233h101v-230c0 -72 27 -111 94 -111s94 39 94 111v230h101v-233c0 -123 -74 -197 -199 -197z" />
    <glyph glyph-name="aacute.alt" horiz-adv-x="546" 
d="M237 -9c-107 0 -193 93 -193 220c0 126 84 218 194 218c71 0 118 -34 144 -86l-1 77h101v-420h-101l1 78c-24 -50 -75 -87 -145 -87zM264 80c74 0 119 53 119 130c0 76 -45 129 -119 129c-72 0 -115 -52 -115 -128c0 -78 43 -131 115 -131zM213 499l60 190h116l-98 -190
h-78z" />
    <glyph glyph-name="agrave.alt" horiz-adv-x="546" 
d="M237 -9c-107 0 -193 93 -193 220c0 126 84 218 194 218c71 0 118 -34 144 -86l-1 77h101v-420h-101l1 78c-24 -50 -75 -87 -145 -87zM264 80c74 0 119 53 119 130c0 76 -45 129 -119 129c-72 0 -115 -52 -115 -128c0 -78 43 -131 115 -131zM212 499l-98 190h116l60 -190
h-78z" />
    <glyph glyph-name="acircumflex.alt" horiz-adv-x="546" 
d="M237 -9c-107 0 -193 93 -193 220c0 126 84 218 194 218c71 0 118 -34 144 -86l-1 77h101v-420h-101l1 78c-24 -50 -75 -87 -145 -87zM264 80c74 0 119 53 119 130c0 76 -45 129 -119 129c-72 0 -115 -52 -115 -128c0 -78 43 -131 115 -131zM119 498l143 204h11l143 -204
h-83l-65 83l-66 -83h-83z" />
    <glyph glyph-name="adieresis.alt" horiz-adv-x="546" 
d="M237 -9c-107 0 -193 93 -193 220c0 126 84 218 194 218c71 0 118 -34 144 -86l-1 77h101v-420h-101l1 78c-24 -50 -75 -87 -145 -87zM264 80c74 0 119 53 119 130c0 76 -45 129 -119 129c-72 0 -115 -52 -115 -128c0 -78 43 -131 115 -131zM365 511c-31 0 -60 27 -60 61
c0 33 29 60 60 60c32 0 61 -27 61 -60c0 -34 -29 -61 -61 -61zM171 511c-32 0 -61 27 -61 61c0 33 29 60 61 60s60 -27 60 -60c0 -34 -28 -61 -60 -61z" />
    <glyph glyph-name="atilde.alt" horiz-adv-x="546" 
d="M237 -9c-107 0 -193 93 -193 220c0 126 84 218 194 218c71 0 118 -34 144 -86l-1 77h101v-420h-101l1 78c-24 -50 -75 -87 -145 -87zM264 80c74 0 119 53 119 130c0 76 -45 129 -119 129c-72 0 -115 -52 -115 -128c0 -78 43 -131 115 -131zM178 496l-71 7
c4 82 45 125 98 125c28 0 47 -11 66 -26c24 -18 33 -27 49 -27c19 0 29 17 32 52l71 -7c-4 -82 -43 -125 -98 -125c-27 0 -47 12 -66 27c-24 18 -32 27 -48 27c-19 0 -30 -18 -33 -53z" />
    <glyph glyph-name="aring.alt" horiz-adv-x="546" 
d="M237 -9c-107 0 -193 93 -193 220c0 126 84 218 194 218c71 0 118 -34 144 -86l-1 77h101v-420h-101l1 78c-24 -50 -75 -87 -145 -87zM264 80c74 0 119 53 119 130c0 76 -45 129 -119 129c-72 0 -115 -52 -115 -128c0 -78 43 -131 115 -131zM258 479
c-66 0 -117 50 -117 109c0 61 51 110 117 110s117 -49 117 -110c0 -59 -51 -109 -117 -109zM258 538c28 0 48 19 48 50c0 32 -20 51 -48 51s-48 -19 -48 -51c0 -31 20 -50 48 -50z" />
    <glyph glyph-name="uacute.alt" horiz-adv-x="510" 
d="M251 -10c-123 0 -191 74 -191 197v233h101v-230c0 -72 27 -111 94 -111s94 39 94 111v230h101v-233c0 -123 -74 -197 -199 -197zM215 499l60 190h116l-98 -190h-78z" />
    <glyph glyph-name="ugrave.alt" horiz-adv-x="510" 
d="M251 -10c-123 0 -191 74 -191 197v233h101v-230c0 -72 27 -111 94 -111s94 39 94 111v230h101v-233c0 -123 -74 -197 -199 -197zM217 499l-98 190h116l60 -190h-78z" />
    <glyph glyph-name="ucircumflex.alt" horiz-adv-x="510" 
d="M251 -10c-123 0 -191 74 -191 197v233h101v-230c0 -72 27 -111 94 -111s94 39 94 111v230h101v-233c0 -123 -74 -197 -199 -197zM108 498l143 204h11l143 -204h-83l-65 83l-66 -83h-83z" />
    <glyph glyph-name="udieresis.alt" horiz-adv-x="510" 
d="M251 -10c-123 0 -191 74 -191 197v233h101v-230c0 -72 27 -111 94 -111s94 39 94 111v230h101v-233c0 -123 -74 -197 -199 -197zM353 511c-31 0 -60 27 -60 61c0 33 29 60 60 60c32 0 61 -27 61 -60c0 -34 -29 -61 -61 -61zM159 511c-32 0 -61 27 -61 61
c0 33 29 60 61 60s60 -27 60 -60c0 -34 -28 -61 -60 -61z" />
    <glyph glyph-name="zerolining" horiz-adv-x="739" 
d="M370 -9c-181 0 -326 143 -326 349s145 349 326 349c180 0 325 -143 325 -349s-145 -349 -325 -349zM370 87c130 0 215 104 215 253s-85 253 -215 253c-131 0 -217 -104 -217 -253s86 -253 217 -253z" />
    <glyph glyph-name="onelining" horiz-adv-x="342" 
d="M150 0v586h-116v94h222v-680h-106z" />
    <glyph glyph-name="twolining" horiz-adv-x="547" 
d="M18 0v9l280 294c67 70 96 122 96 180c0 61 -37 108 -110 108c-68 0 -117 -46 -137 -126l-105 24c24 115 109 199 242 199c134 0 218 -85 218 -204c0 -81 -43 -154 -118 -233l-114 -120c-20 -21 -50 -42 -50 -42s33 4 59 4h222v-93h-483z" />
    <glyph glyph-name="threelining" horiz-adv-x="558" 
d="M268 -9c-120 0 -216 63 -256 148l90 47c28 -53 78 -99 161 -99c92 0 149 60 149 142c0 84 -55 144 -156 144c-44 0 -73 -9 -91 -16l-6 9l146 187c15 19 36 38 36 38s-30 -4 -55 -4h-214v93h435v-9l-139 -180c-22 -29 -43 -44 -43 -44c112 -14 195 -98 195 -222
c0 -146 -109 -234 -252 -234z" />
    <glyph glyph-name="fourlining" horiz-adv-x="619" 
d="M391 0v113h-358v70l455 512h9v-495h83v-87h-83v-113h-106zM159 195c0 0 33 5 66 5h166v205c0 30 5 70 5 70s-20 -31 -44 -60l-143 -171c-20 -24 -50 -49 -50 -49z" />
    <glyph glyph-name="fivelining" horiz-adv-x="564" 
d="M271 -9c-119 0 -210 59 -253 140l90 48c28 -49 77 -92 163 -92c89 0 145 60 145 143c0 86 -61 143 -157 143c-78 0 -126 -28 -166 -62l-9 4v365h386v-93h-294v-147c28 15 60 22 102 22c148 0 248 -96 248 -230c0 -150 -105 -241 -255 -241z" />
    <glyph glyph-name="sixlining" horiz-adv-x="582" 
d="M291 -9c-146 0 -250 104 -250 233c0 62 24 118 62 174l194 282h119l-124 -178c-22 -33 -63 -71 -63 -71c24 14 59 24 87 24c127 0 225 -96 225 -227s-101 -237 -250 -237zM291 86c89 0 142 66 142 142s-51 144 -142 144c-88 0 -142 -66 -142 -144c0 -76 54 -142 142 -142
z" />
    <glyph glyph-name="sevenlining" horiz-adv-x="560" 
d="M98 0l287 586h-355v94h509v-9l-329 -671h-112z" />
    <glyph glyph-name="eightlining" horiz-adv-x="582" 
d="M292 -9c-153 0 -255 92 -255 219c0 92 60 154 143 181c-48 24 -84 68 -84 133c0 95 88 164 196 164s196 -69 196 -164c0 -65 -36 -109 -85 -133c83 -27 142 -90 142 -181c0 -127 -100 -219 -253 -219zM292 433c55 0 91 34 91 82c0 47 -36 81 -91 81s-91 -34 -91 -81
c0 -48 36 -82 91 -82zM292 85c88 0 146 54 146 129c0 74 -58 128 -146 128c-89 0 -146 -54 -146 -128c0 -75 57 -129 146 -129z" />
    <glyph glyph-name="ninelining" horiz-adv-x="582" 
d="M174 0l122 181c22 33 52 64 52 64c-24 -15 -58 -23 -84 -23c-128 0 -225 96 -225 229c0 131 102 238 251 238c148 0 252 -105 252 -234c0 -62 -25 -119 -63 -175l-189 -280h-116zM290 305c89 0 144 67 144 146c0 76 -54 143 -144 143c-91 0 -144 -67 -144 -143
c0 -77 51 -146 144 -146z" />
    <glyph glyph-name="minuslining" horiz-adv-x="220" 
d="M111 181c-37 0 -69 29 -69 70c0 40 32 68 69 68c36 0 68 -28 68 -68c0 -41 -32 -70 -68 -70z" />
    <glyph glyph-name="multiplylining" horiz-adv-x="220" 
d="M111 181c-37 0 -69 29 -69 70c0 40 32 68 69 68c36 0 68 -28 68 -68c0 -41 -32 -70 -68 -70z" />
    <glyph glyph-name="spacelining" horiz-adv-x="229" 
 />
    <glyph glyph-name="numbersignlining" horiz-adv-x="493" 
d="M65 224l26 104h-60v78h79l23 93h-63v78h82l27 103h80l-26 -103h88l26 103h81l-26 -103h60v-78h-79l-23 -93h62v-78h-82l-26 -104h-81l26 104h-88l-25 -104h-81zM191 406h88l23 93h-87z" />
    <glyph glyph-name="dollarlining" horiz-adv-x="542" 
d="M242 -8c-109 8 -179 66 -220 138l87 50c30 -51 63 -90 133 -97v226l-4 2c-113 43 -179 99 -179 206c0 95 76 164 183 170v86h57v-87c74 -10 128 -45 164 -104l-83 -57c-20 36 -46 59 -81 68v-197c124 -46 198 -103 198 -215c0 -118 -82 -180 -198 -189v-108h-57v108z
M242 597c-51 -5 -80 -36 -80 -77c0 -51 23 -74 80 -100v177zM299 84c58 9 94 44 94 94c0 54 -36 82 -94 107v-201z" />
    <glyph glyph-name="percentlining" horiz-adv-x="877" 
d="M208 338c-94 0 -178 74 -178 175c0 102 84 175 178 175s179 -73 179 -175c0 -101 -85 -175 -179 -175zM174 0l427 680h102l-427 -680h-102zM668 -9c-94 0 -178 74 -178 175c0 102 84 175 178 175c95 0 179 -73 179 -175c0 -101 -84 -175 -179 -175zM208 419
c49 0 88 40 88 94c0 56 -39 94 -88 94c-50 0 -87 -38 -87 -94c0 -54 37 -94 87 -94zM668 72c49 0 88 40 88 94c0 56 -39 94 -88 94s-87 -38 -87 -94c0 -54 38 -94 87 -94z" />
    <glyph glyph-name="parenleftlining" horiz-adv-x="315" 
d="M227 -137c-87 87 -181 222 -181 428c0 205 94 341 181 428l62 -51c-79 -93 -136 -207 -136 -377s57 -284 136 -377z" />
    <glyph glyph-name="parenrightlining" horiz-adv-x="315" 
d="M88 -137l-62 51c79 93 136 207 136 377s-57 284 -136 377l62 51c86 -87 181 -222 181 -428c0 -205 -95 -341 -181 -428z" />
    <glyph glyph-name="pluslining" horiz-adv-x="431" 
d="M170 137v138h-131v89h131v137h91v-137h131v-89h-131v-138h-91z" />
    <glyph glyph-name="commalining" horiz-adv-x="225" 
d="M48 -114l38 116c-25 10 -42 32 -42 62c0 38 32 67 69 67c36 0 68 -29 68 -68c0 -23 -10 -43 -21 -62l-59 -115h-53z" />
    <glyph glyph-name="periodlining" horiz-adv-x="223" 
d="M112 -6c-37 0 -69 29 -69 69s32 68 69 68c36 0 68 -28 68 -68s-32 -69 -68 -69z" />
    <glyph glyph-name="colonlining" horiz-adv-x="233" 
d="M117 220c-37 0 -69 30 -69 70s32 69 69 69c36 0 68 -29 68 -69s-32 -70 -68 -70zM117 -6c-37 0 -69 29 -69 69s32 69 69 69c36 0 68 -29 68 -69s-32 -69 -68 -69z" />
    <glyph glyph-name="semicolonlining" horiz-adv-x="235" 
d="M118 220c-37 0 -69 30 -69 70s32 69 69 69c36 0 68 -29 68 -69s-32 -70 -68 -70zM53 -114l38 116c-25 10 -42 32 -42 62c0 38 32 67 69 67c36 0 68 -29 68 -68c0 -23 -10 -43 -21 -62l-59 -115h-53z" />
    <glyph glyph-name="lesslining" horiz-adv-x="394" 
d="M351 136l-321 177v10l321 174v-90l-175 -90l175 -91v-90z" />
    <glyph glyph-name="equallining" horiz-adv-x="427" 
d="M39 341v87h349v-87h-349zM39 180v88h349v-88h-349z" />
    <glyph glyph-name="greaterlining" horiz-adv-x="395" 
d="M43 136v90l175 90l-175 91v90l322 -177v-10z" />
    <glyph glyph-name="bracketleftlining" horiz-adv-x="320" 
d="M68 -128v850h219v-86h-117v-678h117v-86h-219z" />
    <glyph glyph-name="bracketrightlining" horiz-adv-x="321" 
d="M33 -128v86h118v678h-118v86h220v-850h-220z" />
    <glyph glyph-name="braceleftlining" horiz-adv-x="390" 
d="M286 -128c-74 0 -145 29 -145 144v144c0 50 -19 67 -58 67h-57v87h57c39 0 58 17 58 68v196c0 115 71 144 145 144h71v-86h-63c-35 0 -51 -16 -51 -61v-206c0 -66 -33 -90 -78 -98c45 -9 78 -33 78 -99v-153c0 -45 16 -61 51 -61h63v-86h-71z" />
    <glyph glyph-name="bracerightlining" horiz-adv-x="390" 
d="M33 -128v86h63c35 0 50 16 50 61v153c0 67 34 90 79 98c-45 9 -79 33 -79 100v205c0 45 -15 61 -50 61h-63v86h71c73 0 144 -29 144 -144v-196c0 -50 20 -68 59 -68h57v-87h-57c-39 0 -59 -17 -59 -67v-144c0 -115 -71 -144 -144 -144h-71z" />
    <glyph glyph-name="degreelining" horiz-adv-x="371" 
d="M186 408c-81 0 -147 63 -147 140c0 80 66 140 147 140c80 0 146 -60 146 -140c0 -77 -66 -140 -146 -140zM186 476c41 0 69 30 69 72s-28 72 -69 72c-42 0 -71 -30 -71 -72s29 -72 71 -72z" />
    <glyph glyph-name="centlining" horiz-adv-x="475" 
d="M237 -7c-112 14 -194 101 -194 217c0 115 81 204 194 217v108h55v-107c65 -5 111 -33 148 -79l-71 -57c-16 24 -42 42 -77 48v-261c37 5 61 24 82 47l67 -59c-37 -43 -82 -70 -149 -75v-108h-55v109zM237 339c-57 -13 -92 -63 -92 -129s35 -117 92 -130v259z" />
    <glyph glyph-name="sterlinglining" horiz-adv-x="622" 
d="M187 275h-103v79h66c-18 40 -32 83 -32 132c0 117 88 202 222 202c109 0 173 -51 210 -126l-85 -45c-25 50 -61 81 -125 81c-69 0 -115 -40 -115 -112c0 -47 15 -89 33 -132h200v-79h-168c12 -34 21 -70 21 -111c0 -14 -2 -28 -4 -41c34 -24 70 -43 118 -43
c47 0 73 20 99 52l66 -60c-47 -58 -87 -81 -165 -81c-67 0 -114 29 -153 60c-31 -37 -78 -60 -134 -60c-65 0 -117 41 -117 104c0 62 51 104 117 104c29 0 54 -7 77 -18c-3 32 -14 63 -28 94zM207 106c-20 16 -41 26 -64 26c-29 0 -46 -14 -46 -36s18 -37 46 -37
c29 0 52 15 64 47z" />
    <glyph glyph-name="sectionlining" horiz-adv-x="564" 
d="M271 -180c-103 0 -179 51 -218 111l81 56c26 -42 69 -75 132 -75c71 0 96 32 96 69s-27 57 -84 84l-109 50c-91 41 -134 88 -134 163c0 71 42 109 93 130c-22 29 -34 63 -34 106c0 97 74 174 193 174c95 0 151 -45 186 -103l-83 -54c-27 45 -59 65 -103 65
c-55 0 -85 -35 -85 -77c0 -44 22 -66 73 -90l110 -50c101 -46 144 -96 144 -172c0 -62 -38 -103 -94 -127c24 -29 36 -63 36 -102c0 -93 -70 -158 -200 -158zM378 129c31 12 49 35 49 65c0 43 -27 63 -85 89l-110 50c-18 8 -35 18 -49 30c-27 -12 -46 -35 -46 -66
c0 -42 23 -62 75 -85l108 -50c22 -10 42 -21 58 -33z" />
    <glyph glyph-name="yenlining" horiz-adv-x="647" 
d="M205 346l-173 334h115l139 -284c20 -41 41 -106 41 -106s19 66 39 106l141 284h108l-173 -334h140v-79h-180l-26 -50v-26h206v-79h-206v-112h-106v112h-206v79h206v31l-23 45h-183v79h141z" />
    <glyph glyph-name="florinlining" horiz-adv-x="388" 
d="M205 238l-51 -450h-99l51 450h-68v79h77l25 221c12 104 65 150 145 150c57 0 92 -23 116 -57l-64 -56c-12 18 -24 27 -47 27c-27 0 -45 -15 -50 -58l-26 -227h103v-79h-112z" />
    <glyph glyph-name="dividelining" horiz-adv-x="220" 
d="M111 181c-37 0 -69 29 -69 70c0 40 32 68 69 68c36 0 68 -28 68 -68c0 -41 -32 -70 -68 -70z" />
    <glyph glyph-name="perthousandlining" horiz-adv-x="1286" 
d="M208 338c-94 0 -178 74 -178 175c0 102 84 175 178 175s179 -73 179 -175c0 -101 -85 -175 -179 -175zM174 0l427 680h102l-427 -680h-102zM1078 -9c-95 0 -179 74 -179 175c0 102 84 175 179 175c94 0 178 -73 178 -175c0 -101 -84 -175 -178 -175zM668 -9
c-94 0 -178 74 -178 175c0 102 84 175 178 175c95 0 179 -73 179 -175c0 -101 -84 -175 -179 -175zM208 419c49 0 88 40 88 94c0 56 -39 94 -88 94c-50 0 -87 -38 -87 -94c0 -54 37 -94 87 -94zM1078 72c49 0 88 40 88 94c0 56 -39 94 -88 94c-50 0 -88 -38 -88 -94
c0 -54 38 -94 88 -94zM668 72c49 0 88 40 88 94c0 56 -39 94 -88 94s-87 -38 -87 -94c0 -54 38 -94 87 -94z" />
    <glyph glyph-name="fl.alt" horiz-adv-x="544" 
d="M102 0v335h-69v85h69v166c0 101 49 149 131 149c47 0 79 -17 104 -42l-56 -67c-10 12 -19 18 -38 18c-24 0 -40 -15 -40 -57v-167h104v-85h-104v-335h-101zM373 0v722h102v-722h-102z" />
    <glyph glyph-name="ffl.alt" horiz-adv-x="815" 
d="M102 0v335h-69v85h69v146c0 101 49 149 132 149c48 0 82 -14 109 -44l-54 -65c-9 9 -20 18 -43 18c-25 0 -43 -15 -43 -57v-147h170v166c0 101 49 149 131 149c47 0 79 -17 104 -42l-56 -67c-10 12 -19 18 -38 18c-24 0 -40 -15 -40 -57v-167h104v-85h-104v-335h-101v335
h-170v-335h-101zM644 0v722h102v-722h-102z" />
    <glyph glyph-name="Eurolining" horiz-adv-x="772" 
d="M119 364h-77v79h90c40 147 164 245 317 245c121 0 200 -44 257 -128l-79 -56c-38 57 -89 90 -178 90c-98 0 -175 -57 -208 -151h296v-79h-311c-1 -8 -1 -16 -1 -24c0 -16 1 -31 3 -46h309v-79h-287c37 -80 110 -131 203 -131c103 0 156 54 192 110l82 -55
c-50 -85 -132 -148 -274 -148c-146 0 -268 90 -314 224h-97v79h79c-2 15 -3 30 -3 46c0 8 0 16 1 24z" />
    <glyph glyph-name="Ethsmall" unicode="&#xf7f0;" horiz-adv-x="544" 
d="M66 0v181h-46v86h46v246h164c157 0 268 -101 268 -257c0 -154 -110 -256 -268 -256h-164zM168 89h56c116 0 169 66 169 167c0 100 -53 168 -169 168h-56v-157h116v-86h-116v-92z" />
    <glyph glyph-name="Lslashsmall" unicode="&#xf6f9;" horiz-adv-x="449" 
d="M175 177v-88h232v-89h-334v134l-56 -23v86l56 23v293h102v-249l135 56v-86z" />
    <glyph glyph-name="Scaronsmall" unicode="&#xf6fd;" horiz-adv-x="442" 
d="M222 -9c-99 0 -170 51 -202 116l83 45c22 -42 57 -74 118 -74c47 0 82 22 82 58s-24 53 -82 78l-31 14c-78 32 -130 72 -130 155c0 84 66 138 156 138c68 0 118 -23 157 -80l-74 -51c-21 30 -46 47 -81 47c-36 0 -60 -19 -60 -52c0 -34 23 -49 63 -67l32 -14
c90 -37 151 -78 151 -167c0 -91 -71 -146 -182 -146zM206 565l-143 204h83l65 -83l66 83h83l-143 -204h-11z" />
    <glyph glyph-name="Yacutesmall" unicode="&#xf7fd;" horiz-adv-x="529" 
d="M216 0v164l-192 349h117l88 -165c24 -44 40 -105 40 -105s17 63 39 105l87 165h110l-186 -347v-166h-103zM235 579l60 190h116l-98 -190h-78z" />
    <glyph glyph-name="Thornsmall" unicode="&#xf7fe;" horiz-adv-x="487" 
d="M66 0v513h102v-56h51c141 0 225 -74 225 -198c0 -122 -84 -197 -225 -197h-51v-62h-102zM168 150h48c86 0 123 39 123 109c0 72 -39 110 -123 110h-48v-219z" />
    <glyph glyph-name="Zcaronsmall" unicode="&#xf6ff;" horiz-adv-x="480" 
d="M37 0v10l244 415h-205v88h364v-10l-245 -415h234v-88h-392zM243 565l-143 204h83l65 -83l66 83h83l-143 -204h-11z" />
    <glyph glyph-name="minussmall" horiz-adv-x="220" 
d="M111 181c-37 0 -69 29 -69 70c0 40 32 68 69 68c36 0 68 -28 68 -68c0 -41 -32 -70 -68 -70z" />
    <glyph glyph-name="multiplysmall" horiz-adv-x="220" 
d="M111 181c-37 0 -69 29 -69 70c0 40 32 68 69 68c36 0 68 -28 68 -68c0 -41 -32 -70 -68 -70z" />
    <glyph glyph-name="spacesmall" horiz-adv-x="211" 
 />
    <glyph glyph-name="numbersignsmall" horiz-adv-x="493" 
d="M65 160l26 104h-60v78h79l23 92h-63v79h82l27 103h80l-26 -103h88l26 103h81l-26 -103h60v-79h-79l-23 -92h62v-78h-82l-26 -104h-81l26 104h-88l-25 -104h-81zM191 342h88l23 92h-87z" />
    <glyph glyph-name="dollarsmall" horiz-adv-x="467" 
d="M206 -8c-104 10 -164 66 -190 117l76 42c21 -36 54 -69 114 -78v152c-112 28 -161 78 -161 153c0 73 56 136 161 142v104h55v-106c72 -10 121 -50 145 -87l-67 -49c-13 23 -37 48 -78 58v-135c116 -29 175 -79 175 -161c0 -90 -59 -146 -175 -152v-109h-55v109zM206 443
c-47 -4 -68 -25 -68 -57c0 -33 15 -50 68 -65v122zM261 72c59 5 80 30 80 63c0 35 -17 58 -80 76v-139z" />
    <glyph glyph-name="percentsmall" horiz-adv-x="809" 
d="M183 218c-84 0 -156 63 -156 151s72 152 156 152s156 -64 156 -152s-72 -151 -156 -151zM193 0l322 513h101l-322 -513h-101zM626 -9c-84 0 -156 63 -156 152c0 88 72 152 156 152s156 -64 156 -152c0 -89 -72 -152 -156 -152zM183 295c38 0 71 29 71 74
c0 46 -33 75 -71 75c-37 0 -71 -29 -71 -75c0 -45 34 -74 71 -74zM626 69c38 0 71 29 71 74s-33 74 -71 74c-37 0 -70 -29 -70 -74s33 -74 70 -74z" />
    <glyph glyph-name="parenleftsmall" horiz-adv-x="315" 
d="M227 -63c-88 86 -181 209 -181 400s94 316 181 401l62 -50c-80 -93 -136 -196 -136 -351c0 -153 56 -257 136 -350z" />
    <glyph glyph-name="parenrightsmall" horiz-adv-x="315" 
d="M88 -63l-62 50c80 93 136 197 136 350c0 155 -56 258 -136 351l62 50c87 -86 181 -210 181 -401s-94 -315 -181 -400z" />
    <glyph glyph-name="plussmall" horiz-adv-x="391" 
d="M150 96v118h-111v89h111v118h91v-118h111v-89h-111v-118h-91z" />
    <glyph glyph-name="commasmall" horiz-adv-x="225" 
d="M48 -114l38 116c-25 10 -42 32 -42 62c0 38 32 67 69 67c36 0 68 -29 68 -68c0 -23 -10 -43 -21 -62l-59 -115h-53z" />
    <glyph glyph-name="periodsmall" horiz-adv-x="223" 
d="M112 -6c-37 0 -69 29 -69 69s32 68 69 68c36 0 68 -28 68 -68s-32 -69 -68 -69z" />
    <glyph glyph-name="slashsmall" horiz-adv-x="416" 
d="M0 -128l290 850h100l-290 -850h-100z" />
    <glyph glyph-name="zerosmall" horiz-adv-x="585" 
d="M292 -9c-136 0 -250 108 -250 265c0 159 114 265 250 265s251 -106 251 -265c0 -157 -115 -265 -251 -265zM292 82c86 0 145 67 145 174s-59 175 -145 175s-145 -68 -145 -175s59 -174 145 -174z" />
    <glyph glyph-name="onesmall" horiz-adv-x="308" 
d="M136 0v424h-101v89h204v-513h-103z" />
    <glyph glyph-name="twosmall" horiz-adv-x="454" 
d="M22 0v10l212 217c46 48 71 87 71 130c0 42 -25 72 -74 72c-47 0 -79 -30 -98 -85l-92 24c22 93 93 153 193 153c107 0 175 -66 175 -160c0 -61 -33 -116 -87 -173l-61 -64c-17 -18 -50 -40 -50 -40s35 4 61 4h140v-88h-390z" />
    <glyph glyph-name="threesmall" horiz-adv-x="463" 
d="M224 -9c-100 0 -172 51 -203 120l86 41c20 -40 53 -70 114 -70c62 0 98 41 98 93c0 53 -38 93 -107 93c-32 0 -56 -7 -70 -13l-5 8l88 119c14 18 45 48 45 48s-46 -6 -71 -6h-134v89h350v-10l-94 -128c-20 -27 -39 -39 -39 -39c82 -13 142 -74 142 -167
c0 -113 -91 -178 -200 -178z" />
    <glyph glyph-name="foursmall" 
d="M294 0v76h-261v76l352 366h10v-360h66v-82h-66v-76h-101zM134 151c0 0 35 4 62 4h100v99c0 30 4 81 4 81s-22 -36 -49 -66l-71 -78c-18 -20 -46 -40 -46 -40z" />
    <glyph glyph-name="fivesmall" horiz-adv-x="456" 
d="M221 -9c-101 0 -169 56 -198 111l84 47c22 -37 55 -67 109 -67c60 0 98 37 98 90c0 56 -40 93 -111 93c-52 0 -98 -19 -127 -39l-7 3v284h306v-88h-219v-93c18 9 44 14 69 14c119 0 192 -73 192 -176c0 -106 -76 -179 -196 -179z" />
    <glyph glyph-name="sixsmall" horiz-adv-x="480" 
d="M241 -9c-117 0 -199 81 -199 185c0 49 18 89 50 136l139 201h115l-82 -116c-20 -28 -56 -61 -56 -61c16 8 39 14 56 14c98 0 176 -71 176 -174c0 -102 -81 -185 -199 -185zM240 81c64 0 96 45 96 96c0 52 -31 96 -96 96c-60 0 -97 -43 -97 -96c0 -51 37 -96 97 -96z" />
    <glyph glyph-name="sevensmall" horiz-adv-x="461" 
d="M79 0l208 424h-249v89h396v-9l-245 -504h-110z" />
    <glyph glyph-name="eightsmall" horiz-adv-x="473" 
d="M236 -9c-118 0 -201 71 -201 162c0 75 49 123 113 143c-39 17 -71 49 -71 101c0 73 74 124 159 124c86 0 158 -51 158 -124c0 -52 -31 -84 -70 -101c65 -20 114 -68 114 -143c0 -91 -84 -162 -202 -162zM236 327c36 0 65 21 65 57c0 34 -29 55 -65 55s-64 -21 -64 -55
c0 -36 28 -57 64 -57zM236 80c58 0 97 36 97 85c0 51 -39 87 -97 87c-57 0 -97 -36 -97 -87c0 -49 40 -85 97 -85z" />
    <glyph glyph-name="ninesmall" horiz-adv-x="481" 
d="M128 0l92 122c20 28 51 55 51 55c-15 -10 -36 -15 -54 -15c-98 0 -178 72 -178 175c0 101 82 184 201 184c117 0 199 -81 199 -184c0 -49 -20 -97 -53 -142l-144 -195h-114zM241 239c60 0 96 44 96 97c0 49 -35 96 -96 96c-65 0 -98 -46 -98 -96c0 -52 32 -97 98 -97z
" />
    <glyph glyph-name="colonsmall" horiz-adv-x="233" 
d="M117 220c-37 0 -69 30 -69 70s32 69 69 69c36 0 68 -29 68 -69s-32 -70 -68 -70zM117 -6c-37 0 -69 29 -69 69s32 69 69 69c36 0 68 -29 68 -69s-32 -69 -68 -69z" />
    <glyph glyph-name="semicolonsmall" horiz-adv-x="235" 
d="M118 220c-37 0 -69 30 -69 70s32 69 69 69c36 0 68 -29 68 -69s-32 -70 -68 -70zM53 -114l38 116c-25 10 -42 32 -42 62c0 38 32 67 69 67c36 0 68 -29 68 -68c0 -23 -10 -43 -21 -62l-59 -115h-53z" />
    <glyph glyph-name="lesssmall" horiz-adv-x="357" 
d="M314 84l-284 155v10l284 153v-89l-139 -70l139 -69v-90z" />
    <glyph glyph-name="equalsmall" horiz-adv-x="387" 
d="M39 280v88h309v-88h-309zM39 134v88h309v-88h-309z" />
    <glyph glyph-name="greatersmall" horiz-adv-x="357" 
d="M43 84v89l138 70l-138 69v90l284 -155v-10z" />
    <glyph glyph-name="bracketleftsmall" horiz-adv-x="320" 
d="M68 -58v790h219v-86h-117v-618h117v-86h-219z" />
    <glyph glyph-name="bracketrightsmall" horiz-adv-x="320" 
d="M33 -58v86h118v618h-118v86h219v-790h-219z" />
    <glyph glyph-name="Asmall" unicode="&#xf761;" horiz-adv-x="526" 
d="M151 58l-24 -58h-100l230 519h11l231 -519h-106l-24 58h-218zM337 135l-47 114c-17 42 -29 91 -29 91s-12 -49 -30 -91l-48 -114h154z" />
    <glyph glyph-name="Bsmall" unicode="&#xf762;" horiz-adv-x="499" 
d="M66 0v513h200c99 0 151 -58 151 -127c0 -49 -21 -86 -66 -102c66 -16 106 -65 106 -135c0 -90 -64 -149 -174 -149h-217zM165 318h96c37 0 57 21 57 55c0 33 -21 55 -61 55h-92v-110zM165 85h110c55 0 80 31 80 76c0 44 -26 75 -80 75h-110v-151z" />
    <glyph glyph-name="Csmall" unicode="&#xf763;" horiz-adv-x="577" 
d="M311 -9c-157 0 -265 113 -265 265c0 153 111 265 264 265c100 0 167 -38 213 -108l-80 -54c-28 42 -68 72 -133 72c-96 0 -160 -75 -160 -175c0 -99 64 -174 161 -174c70 0 115 35 145 79l82 -53c-47 -75 -119 -117 -227 -117z" />
    <glyph glyph-name="Dsmall" unicode="&#xf764;" horiz-adv-x="544" 
d="M66 0v513h162c158 0 270 -101 270 -257c0 -154 -111 -256 -270 -256h-162zM168 89h54c118 0 171 66 171 167c0 100 -53 168 -171 168h-54v-335z" />
    <glyph glyph-name="Esmall" unicode="&#xf765;" horiz-adv-x="468" 
d="M66 0v513h344v-89h-242v-157h207v-86h-207v-92h252v-89h-354z" />
    <glyph glyph-name="Fsmall" unicode="&#xf766;" horiz-adv-x="449" 
d="M66 0v513h338v-90h-236v-168h213v-90h-213v-165h-102z" />
    <glyph glyph-name="Gsmall" unicode="&#xf767;" horiz-adv-x="577" 
d="M323 -9c-167 0 -277 112 -277 265c0 157 118 265 267 265c94 0 151 -32 191 -74l-66 -68c-25 29 -63 52 -125 52c-100 0 -163 -77 -163 -175s56 -178 173 -178c47 0 84 13 108 28v78h-122v83h215v-217c-34 -26 -104 -59 -201 -59z" />
    <glyph glyph-name="Hsmall" unicode="&#xf768;" horiz-adv-x="559" 
d="M66 0v513h102v-258h223v258h102v-513h-102v164h-223v-164h-102z" />
    <glyph glyph-name="Ismall" unicode="&#xf769;" horiz-adv-x="239" 
d="M68 0v513h103v-513h-103z" />
    <glyph glyph-name="Jsmall" unicode="&#xf76a;" horiz-adv-x="406" 
d="M181 -9c-85 0 -134 45 -159 99l82 47c19 -34 37 -56 74 -56c39 0 62 21 62 72v360h102v-364c0 -110 -69 -158 -161 -158z" />
    <glyph glyph-name="Ksmall" unicode="&#xf76b;" horiz-adv-x="524" 
d="M159 225c15 27 41 75 63 105l139 183h115l-180 -233l206 -280h-123l-153 208l-58 -68v-140h-102v513h102v-175c0 -37 -6 -87 -9 -113z" />
    <glyph glyph-name="Lsmall" unicode="&#xf76c;" horiz-adv-x="441" 
d="M66 0v513h102v-424h233v-89h-335z" />
    <glyph glyph-name="Msmall" unicode="&#xf76d;" horiz-adv-x="649" 
d="M65 0v519h10l251 -283l247 283h10v-519h-99v217c0 40 6 95 6 95s-29 -47 -59 -82l-102 -119h-9l-103 119c-30 34 -59 82 -59 82s6 -55 6 -95v-217h-99z" />
    <glyph glyph-name="Nsmall" unicode="&#xf76e;" horiz-adv-x="553" 
d="M477 -7l-262 255c-31 30 -64 74 -64 74s8 -55 8 -97v-225h-93v519h10l260 -253c36 -35 64 -74 64 -74s-6 52 -6 97v224h93v-520h-10z" />
    <glyph glyph-name="Osmall" unicode="&#xf76f;" horiz-adv-x="638" 
d="M319 -9c-148 0 -273 110 -273 265c0 157 125 265 273 265c149 0 273 -108 273 -265c0 -155 -124 -265 -273 -265zM319 82c99 0 168 72 168 174c0 101 -69 175 -168 175s-168 -74 -168 -175c0 -102 69 -174 168 -174z" />
    <glyph glyph-name="Psmall" unicode="&#xf770;" horiz-adv-x="487" 
d="M66 0v513h151c142 0 227 -75 227 -198s-85 -198 -227 -198h-49v-117h-102zM168 205h46c88 0 125 39 125 110s-39 109 -125 109h-46v-219z" />
    <glyph glyph-name="Qsmall" unicode="&#xf771;" horiz-adv-x="638" 
d="M516 71l70 -80l-67 -56l-75 84c-38 -18 -80 -28 -125 -28c-148 0 -273 110 -273 265c0 157 125 265 273 265c149 0 273 -108 273 -265c0 -74 -29 -138 -76 -185zM382 89l-67 76l68 57l70 -80c22 29 34 68 34 114c0 101 -69 175 -168 175s-168 -74 -168 -175
c0 -102 69 -177 168 -177c23 0 44 4 63 10z" />
    <glyph glyph-name="Rsmall" unicode="&#xf772;" horiz-adv-x="495" 
d="M350 159l103 -159h-115l-83 130c-11 -1 -22 -2 -34 -2h-53v-128h-102v513h155c137 0 225 -69 225 -194c0 -77 -36 -132 -96 -160zM168 215h50c88 0 124 38 124 104c0 67 -36 105 -124 105h-50v-209z" />
    <glyph glyph-name="Ssmall" unicode="&#xf773;" horiz-adv-x="442" 
d="M222 -9c-99 0 -170 51 -202 116l83 45c22 -42 57 -74 118 -74c47 0 82 22 82 58s-24 53 -82 78l-31 14c-78 32 -130 72 -130 155c0 84 66 138 156 138c68 0 118 -23 157 -80l-74 -51c-21 30 -46 47 -81 47c-36 0 -60 -19 -60 -52c0 -34 23 -49 63 -67l32 -14
c90 -37 151 -78 151 -167c0 -91 -71 -146 -182 -146z" />
    <glyph glyph-name="Tsmall" unicode="&#xf774;" horiz-adv-x="480" 
d="M189 0v424h-153v89h408v-89h-153v-424h-102z" />
    <glyph glyph-name="Usmall" unicode="&#xf775;" horiz-adv-x="537" 
d="M270 -9c-123 0 -208 69 -208 201v321h102v-318c0 -77 37 -113 105 -113c67 0 104 36 104 113v318h102v-321c0 -132 -86 -201 -205 -201z" />
    <glyph glyph-name="Vsmall" unicode="&#xf776;" horiz-adv-x="528" 
d="M259 -7l-233 520h112l93 -223c21 -50 36 -111 36 -111s14 62 35 111l95 223h105l-232 -520h-11z" />
    <glyph glyph-name="Wsmall" unicode="&#xf777;" horiz-adv-x="738" 
d="M213 -7l-188 520h110l75 -219c14 -42 26 -99 26 -99s13 55 32 99l99 225h10l101 -225c20 -46 33 -99 33 -99s11 54 26 99l74 219h102l-185 -520h-11l-113 253c-18 41 -32 90 -32 90s-14 -50 -32 -90l-116 -253h-11z" />
    <glyph glyph-name="Xsmall" unicode="&#xf778;" horiz-adv-x="537" 
d="M29 0l176 282l-146 231h115l62 -102c21 -35 33 -78 33 -78s15 44 34 78l61 102h110l-145 -232l179 -281h-115l-87 137c-23 38 -41 85 -41 85s-18 -48 -40 -85l-84 -137h-112z" />
    <glyph glyph-name="Ysmall" unicode="&#xf779;" horiz-adv-x="529" 
d="M216 0v164l-192 349h117l88 -165c24 -44 40 -105 40 -105s17 63 39 105l87 165h110l-186 -347v-166h-103z" />
    <glyph glyph-name="Zsmall" unicode="&#xf77a;" horiz-adv-x="480" 
d="M37 0v10l244 415h-205v88h364v-10l-245 -415h234v-88h-392z" />
    <glyph glyph-name="Q.alt1small" horiz-adv-x="638" 
d="M372 -4c25 -21 51 -37 86 -37c34 0 55 17 71 34l62 -62c-31 -39 -72 -61 -132 -61c-77 0 -132 44 -185 96c-32 30 -56 48 -94 48c-41 0 -66 -27 -83 -51l-64 60c16 22 38 46 78 59c-40 45 -65 105 -65 174c0 157 125 265 273 265c149 0 273 -108 273 -265
c0 -136 -95 -237 -220 -260zM319 82c99 0 168 72 168 174c0 101 -69 175 -168 175s-168 -74 -168 -175c0 -102 69 -174 168 -174z" />
    <glyph glyph-name="braceleftsmall" horiz-adv-x="390" 
d="M286 -58c-74 0 -145 28 -145 144v88c0 50 -19 68 -58 68h-57v86h57c39 0 58 18 58 68v192c0 115 71 144 145 144h71v-86h-63c-35 0 -51 -16 -51 -61v-201c0 -67 -33 -90 -78 -99c45 -8 78 -33 78 -99v-98c0 -45 16 -60 51 -60h63v-86h-71z" />
    <glyph glyph-name="bracerightsmall" horiz-adv-x="390" 
d="M33 -58v86h63c35 0 50 15 50 60v98c0 67 34 90 79 99c-45 8 -79 32 -79 99v201c0 45 -15 61 -50 61h-63v86h71c74 0 145 -29 145 -144v-192c0 -50 19 -68 58 -68h57v-86h-57c-39 0 -58 -18 -58 -68v-88c0 -116 -71 -144 -145 -144h-71z" />
    <glyph glyph-name="Aacutesmall" unicode="&#xf7e1;" horiz-adv-x="526" 
d="M151 58l-24 -58h-100l230 519h11l231 -519h-106l-24 58h-218zM337 135l-47 114c-17 42 -29 91 -29 91s-12 -49 -30 -91l-48 -114h154zM224 579l60 190h116l-98 -190h-78z" />
    <glyph glyph-name="Agravesmall" unicode="&#xf7e0;" horiz-adv-x="526" 
d="M151 58l-24 -58h-100l230 519h11l231 -519h-106l-24 58h-218zM337 135l-47 114c-17 42 -29 91 -29 91s-12 -49 -30 -91l-48 -114h154zM224 579l-98 190h116l60 -190h-78z" />
    <glyph glyph-name="Acircumflexsmall" unicode="&#xf7e2;" horiz-adv-x="526" 
d="M151 58l-24 -58h-100l230 519h11l231 -519h-106l-24 58h-218zM337 135l-47 114c-17 42 -29 91 -29 91s-12 -49 -30 -91l-48 -114h154zM113 578l143 204h11l143 -204h-83l-65 83l-66 -83h-83z" />
    <glyph glyph-name="Adieresissmall" unicode="&#xf7e4;" horiz-adv-x="526" 
d="M151 58l-24 -58h-100l230 519h11l231 -519h-106l-24 58h-218zM337 135l-47 114c-17 42 -29 91 -29 91s-12 -49 -30 -91l-48 -114h154zM359 591c-31 0 -60 27 -60 61c0 33 29 60 60 60c32 0 61 -27 61 -60c0 -34 -29 -61 -61 -61zM165 591c-32 0 -61 27 -61 61
c0 33 29 60 61 60s60 -27 60 -60c0 -34 -28 -61 -60 -61z" />
    <glyph glyph-name="Atildesmall" unicode="&#xf7e3;" horiz-adv-x="526" 
d="M151 58l-24 -58h-100l230 519h11l231 -519h-106l-24 58h-218zM337 135l-47 114c-17 42 -29 91 -29 91s-12 -49 -30 -91l-48 -114h154zM171 576l-71 7c4 82 45 125 98 125c28 0 47 -11 66 -26c24 -18 33 -27 49 -27c19 0 29 17 32 52l71 -7c-4 -82 -43 -125 -98 -125
c-27 0 -47 12 -66 27c-24 18 -32 27 -48 27c-19 0 -30 -18 -33 -53z" />
    <glyph glyph-name="Aringsmall" unicode="&#xf7e5;" horiz-adv-x="526" 
d="M151 58l-24 -58h-100l230 519h11l231 -519h-106l-24 58h-218zM337 135l-47 114c-17 42 -29 91 -29 91s-12 -49 -30 -91l-48 -114h154zM262 559c-66 0 -117 50 -117 109c0 61 51 110 117 110s117 -49 117 -110c0 -59 -51 -109 -117 -109zM262 618c28 0 48 19 48 50
c0 32 -20 51 -48 51s-48 -19 -48 -51c0 -31 20 -50 48 -50z" />
    <glyph glyph-name="Ccedillasmall" unicode="&#xf7e7;" horiz-adv-x="577" 
d="M258 -5c-128 23 -212 127 -212 261c0 153 111 265 264 265c100 0 167 -38 213 -108l-80 -54c-28 42 -68 72 -133 72c-96 0 -160 -75 -160 -175c0 -99 64 -174 161 -174c70 0 115 35 145 79l82 -53c-46 -74 -117 -116 -223 -117v-37c45 -8 86 -40 86 -97
c0 -59 -50 -93 -101 -93c-57 0 -92 27 -110 60l52 31c9 -18 23 -33 50 -33c22 0 42 13 42 40c0 25 -18 42 -49 42h-27v91z" />
    <glyph glyph-name="Eacutesmall" unicode="&#xf7e9;" horiz-adv-x="468" 
d="M66 0v513h344v-89h-242v-157h207v-86h-207v-92h252v-89h-354zM202 579l60 190h116l-98 -190h-78z" />
    <glyph glyph-name="Egravesmall" unicode="&#xf7e8;" horiz-adv-x="468" 
d="M66 0v513h344v-89h-242v-157h207v-86h-207v-92h252v-89h-354zM205 579l-98 190h116l60 -190h-78z" />
    <glyph glyph-name="Ecircumflexsmall" unicode="&#xf7ea;" horiz-adv-x="468" 
d="M66 0v513h344v-89h-242v-157h207v-86h-207v-92h252v-89h-354zM90 578l143 204h11l143 -204h-83l-65 83l-66 -83h-83z" />
    <glyph glyph-name="Edieresissmall" unicode="&#xf7eb;" horiz-adv-x="468" 
d="M66 0v513h344v-89h-242v-157h207v-86h-207v-92h252v-89h-354zM337 591c-31 0 -60 27 -60 61c0 33 29 60 60 60c32 0 61 -27 61 -60c0 -34 -29 -61 -61 -61zM143 591c-32 0 -61 27 -61 61c0 33 29 60 61 60s60 -27 60 -60c0 -34 -28 -61 -60 -61z" />
    <glyph glyph-name="Iacutesmall" unicode="&#xf7ed;" horiz-adv-x="239" 
d="M68 0v513h103v-513h-103zM76 579l60 190h116l-98 -190h-78z" />
    <glyph glyph-name="Igravesmall" unicode="&#xf7ec;" horiz-adv-x="239" 
d="M68 0v513h103v-513h-103zM81 579l-98 190h116l60 -190h-78z" />
    <glyph glyph-name="Icircumflexsmall" unicode="&#xf7ee;" horiz-adv-x="239" 
d="M68 0v513h103v-513h-103zM-31 578l143 204h11l143 -204h-83l-65 83l-66 -83h-83z" />
    <glyph glyph-name="Idieresissmall" unicode="&#xf7ef;" horiz-adv-x="239" 
d="M68 0v513h103v-513h-103zM215 591c-31 0 -60 27 -60 61c0 33 29 60 60 60c32 0 61 -27 61 -60c0 -34 -29 -61 -61 -61zM21 591c-32 0 -61 27 -61 61c0 33 29 60 61 60s60 -27 60 -60c0 -34 -28 -61 -60 -61z" />
    <glyph glyph-name="Ntildesmall" unicode="&#xf7f1;" horiz-adv-x="553" 
d="M477 -7l-262 255c-31 30 -64 74 -64 74s8 -55 8 -97v-225h-93v519h10l260 -253c36 -35 64 -74 64 -74s-6 52 -6 97v224h93v-520h-10zM187 576l-71 7c4 82 45 125 98 125c28 0 47 -11 66 -26c24 -18 33 -27 49 -27c19 0 29 17 32 52l71 -7c-4 -82 -43 -125 -98 -125
c-27 0 -47 12 -66 27c-24 18 -32 27 -48 27c-19 0 -30 -18 -33 -53z" />
    <glyph glyph-name="Oacutesmall" unicode="&#xf7f3;" horiz-adv-x="638" 
d="M319 -9c-148 0 -273 110 -273 265c0 157 125 265 273 265c149 0 273 -108 273 -265c0 -155 -124 -265 -273 -265zM319 82c99 0 168 72 168 174c0 101 -69 175 -168 175s-168 -74 -168 -175c0 -102 69 -174 168 -174zM280 579l60 190h116l-98 -190h-78z" />
    <glyph glyph-name="Ogravesmall" unicode="&#xf7f2;" horiz-adv-x="638" 
d="M319 -9c-148 0 -273 110 -273 265c0 157 125 265 273 265c149 0 273 -108 273 -265c0 -155 -124 -265 -273 -265zM319 82c99 0 168 72 168 174c0 101 -69 175 -168 175s-168 -74 -168 -175c0 -102 69 -174 168 -174zM280 579l-98 190h116l60 -190h-78z" />
    <glyph glyph-name="Ocircumflexsmall" unicode="&#xf7f4;" horiz-adv-x="638" 
d="M319 -9c-148 0 -273 110 -273 265c0 157 125 265 273 265c149 0 273 -108 273 -265c0 -155 -124 -265 -273 -265zM319 82c99 0 168 72 168 174c0 101 -69 175 -168 175s-168 -74 -168 -175c0 -102 69 -174 168 -174zM170 578l143 204h11l143 -204h-83l-65 83l-66 -83h-83
z" />
    <glyph glyph-name="Odieresissmall" unicode="&#xf7f6;" horiz-adv-x="638" 
d="M319 -9c-148 0 -273 110 -273 265c0 157 125 265 273 265c149 0 273 -108 273 -265c0 -155 -124 -265 -273 -265zM319 82c99 0 168 72 168 174c0 101 -69 175 -168 175s-168 -74 -168 -175c0 -102 69 -174 168 -174zM416 591c-31 0 -60 27 -60 61c0 33 29 60 60 60
c32 0 61 -27 61 -60c0 -34 -29 -61 -61 -61zM222 591c-32 0 -61 27 -61 61c0 33 29 60 61 60s60 -27 60 -60c0 -34 -28 -61 -60 -61z" />
    <glyph glyph-name="Otildesmall" unicode="&#xf7f5;" horiz-adv-x="638" 
d="M319 -9c-148 0 -273 110 -273 265c0 157 125 265 273 265c149 0 273 -108 273 -265c0 -155 -124 -265 -273 -265zM319 82c99 0 168 72 168 174c0 101 -69 175 -168 175s-168 -74 -168 -175c0 -102 69 -174 168 -174zM232 576l-71 7c4 82 45 125 98 125
c28 0 47 -11 66 -26c24 -18 33 -27 49 -27c19 0 29 17 32 52l71 -7c-4 -82 -43 -125 -98 -125c-27 0 -47 12 -66 27c-24 18 -32 27 -48 27c-19 0 -30 -18 -33 -53z" />
    <glyph glyph-name="Uacutesmall" unicode="&#xf7fa;" horiz-adv-x="537" 
d="M270 -9c-123 0 -208 69 -208 201v321h102v-318c0 -77 37 -113 105 -113c67 0 104 36 104 113v318h102v-321c0 -132 -86 -201 -205 -201zM233 579l60 190h116l-98 -190h-78z" />
    <glyph glyph-name="Ugravesmall" unicode="&#xf7f9;" horiz-adv-x="537" 
d="M270 -9c-123 0 -208 69 -208 201v321h102v-318c0 -77 37 -113 105 -113c67 0 104 36 104 113v318h102v-321c0 -132 -86 -201 -205 -201zM232 579l-98 190h116l60 -190h-78z" />
    <glyph glyph-name="Ucircumflexsmall" unicode="&#xf7fb;" horiz-adv-x="537" 
d="M270 -9c-123 0 -208 69 -208 201v321h102v-318c0 -77 37 -113 105 -113c67 0 104 36 104 113v318h102v-321c0 -132 -86 -201 -205 -201zM120 578l143 204h11l143 -204h-83l-65 83l-66 -83h-83z" />
    <glyph glyph-name="Udieresissmall" unicode="&#xf7fc;" horiz-adv-x="537" 
d="M270 -9c-123 0 -208 69 -208 201v321h102v-318c0 -77 37 -113 105 -113c67 0 104 36 104 113v318h102v-321c0 -132 -86 -201 -205 -201zM366 591c-31 0 -60 27 -60 61c0 33 29 60 60 60c32 0 61 -27 61 -60c0 -34 -29 -61 -61 -61zM172 591c-32 0 -61 27 -61 61
c0 33 29 60 61 60s60 -27 60 -60c0 -34 -28 -61 -60 -61z" />
    <glyph glyph-name="degreesmall" horiz-adv-x="328" 
d="M164 277c-70 0 -128 55 -128 122c0 70 58 122 128 122c71 0 128 -52 128 -122c0 -67 -57 -122 -128 -122zM164 340c34 0 58 24 58 59c0 36 -24 60 -58 60s-57 -24 -57 -60c0 -35 23 -59 57 -59z" />
    <glyph glyph-name="centsmall" horiz-adv-x="411" 
d="M205 -112v105c-97 13 -170 88 -170 187c0 100 73 176 170 188v100h55v-99c58 -7 99 -31 126 -65l-65 -58c-15 20 -34 33 -61 38v-208c31 5 52 21 67 39l64 -60c-30 -34 -71 -57 -131 -62v-105h-55zM205 79v203c-42 -11 -70 -50 -70 -102s27 -90 70 -101z" />
    <glyph glyph-name="sterlingsmall" horiz-adv-x="510" 
d="M160 213h-88v72h53c-10 26 -18 53 -18 84c0 88 63 152 173 152c93 0 145 -44 174 -97l-81 -49c-19 38 -48 59 -88 59c-45 0 -73 -27 -73 -73c0 -25 9 -50 19 -76h149v-72h-120c8 -25 14 -51 14 -80c0 -9 -1 -18 -2 -27c26 -13 53 -24 84 -24c32 0 57 15 76 39l63 -64
c-36 -47 -74 -66 -135 -66c-50 0 -88 22 -121 46c-26 -28 -64 -46 -112 -46c-59 0 -100 36 -100 88c0 51 39 86 95 86c21 0 40 -5 59 -11c-4 20 -12 40 -21 59zM177 85c-16 11 -32 19 -48 19c-22 0 -32 -10 -32 -25c0 -16 11 -27 32 -27c20 0 39 10 48 33z" />
    <glyph glyph-name="sectionsmall" horiz-adv-x="463" 
d="M103 298c-21 24 -32 53 -32 89c0 78 65 134 159 134c88 0 132 -40 154 -77l-76 -49c-15 26 -39 43 -77 43c-40 0 -58 -23 -58 -49c0 -27 14 -42 44 -55l107 -42c71 -29 105 -68 105 -127c0 -42 -29 -74 -68 -93c20 -21 33 -48 33 -80c0 -83 -65 -134 -169 -134
c-91 0 -158 39 -189 91l78 52c20 -31 54 -59 105 -59c50 0 70 21 70 46c0 24 -16 39 -46 52l-108 42c-66 27 -101 63 -101 117c0 50 31 82 69 99zM303 113c21 8 32 22 32 42c0 24 -16 41 -52 55l-115 46c-6 2 -11 4 -16 7c-17 -9 -27 -25 -27 -41c0 -28 13 -44 50 -59
l111 -43c6 -2 11 -5 17 -7z" />
    <glyph glyph-name="yensmall" horiz-adv-x="525" 
d="M331 198l-17 -33v-20h153v-72h-153v-73h-102v73h-152v72h152v19l-18 34h-134v72h96l-129 243h114l87 -175c21 -41 36 -106 36 -106s19 67 39 106l88 175h107l-129 -243h98v-72h-136z" />
    <glyph glyph-name="AEsmall" unicode="&#xf7e6;" horiz-adv-x="769" 
d="M21 0l358 513h333v-89h-243v-157h208v-86h-208v-92h252v-89h-354v65h-194l-44 -65h-108zM228 143h139v139c0 39 8 93 8 93s-23 -52 -45 -83z" />
    <glyph glyph-name="Oslashsmall" unicode="&#xf7f8;" horiz-adv-x="636" 
d="M538 416c33 -42 53 -97 53 -160c0 -155 -124 -265 -273 -265c-63 0 -123 20 -169 55c-30 -28 -59 -55 -59 -55l-49 51l57 54c-33 43 -53 98 -53 160c0 157 125 265 273 265c64 0 123 -20 170 -55l58 55l49 -51zM169 163l251 239c-27 20 -62 32 -102 32
c-101 0 -171 -75 -171 -178c0 -35 8 -66 22 -93zM467 348l-252 -238c28 -20 63 -31 103 -31c101 0 171 73 171 177c0 35 -8 66 -22 92z" />
    <glyph glyph-name="florinsmall" horiz-adv-x="388" 
d="M200 207l-34 -301h-99l34 301h-65v72h73l10 92c12 104 65 150 145 150c57 0 92 -23 116 -57l-64 -56c-12 18 -24 27 -47 27c-27 0 -45 -15 -50 -58l-11 -98h93v-72h-101z" />
    <glyph glyph-name="OEsmall" unicode="&#xf6fa;" horiz-adv-x="774" 
d="M316 0c-159 0 -270 100 -270 256c0 155 111 257 270 257h400v-89h-242v-157h208v-86h-208v-92h252v-89h-410zM322 89h50v335h-50c-118 0 -172 -67 -172 -168c0 -100 54 -167 172 -167z" />
    <glyph glyph-name="Ydieresissmall" unicode="&#xf7ff;" horiz-adv-x="529" 
d="M216 0v164l-192 349h117l88 -165c24 -44 40 -105 40 -105s17 63 39 105l87 165h110l-186 -347v-166h-103zM364 591c-31 0 -60 27 -60 61c0 33 29 60 60 60c32 0 61 -27 61 -60c0 -34 -29 -61 -61 -61zM170 591c-32 0 -61 27 -61 61c0 33 29 60 61 60s60 -27 60 -60
c0 -34 -28 -61 -60 -61z" />
    <glyph glyph-name="Eurosmall" horiz-adv-x="583" 
d="M96 277h-60v72h73c33 103 121 172 233 172c97 0 157 -39 198 -102l-80 -51c-24 38 -59 62 -119 62c-61 0 -103 -31 -125 -81h171v-72h-187c-1 -7 -1 -14 -1 -21c0 -11 1 -21 1 -31h187v-72h-165c23 -45 64 -73 121 -73c75 0 108 37 131 76l83 -46
c-37 -67 -96 -119 -216 -119c-110 0 -194 65 -229 162h-76v72h60c-1 10 -1 20 -1 31c0 7 0 14 1 21z" />
    <glyph glyph-name="perthousandsmall" horiz-adv-x="1166" 
d="M183 218c-84 0 -156 63 -156 151s72 152 156 152s156 -64 156 -152s-72 -151 -156 -151zM193 0l322 513h101l-322 -513h-101zM983 -9c-85 0 -156 63 -156 152c0 88 71 152 156 152c84 0 156 -64 156 -152c0 -89 -72 -152 -156 -152zM626 -9c-84 0 -156 63 -156 152
c0 88 72 152 156 152s156 -64 156 -152c0 -89 -72 -152 -156 -152zM183 295c38 0 71 29 71 74c0 46 -33 75 -71 75c-37 0 -71 -29 -71 -75c0 -45 34 -74 71 -74zM983 69c37 0 71 29 71 74s-34 74 -71 74s-70 -29 -70 -74s33 -74 70 -74zM626 69c38 0 71 29 71 74
s-33 74 -71 74c-37 0 -70 -29 -70 -74s33 -74 70 -74z" />
    <glyph glyph-name="dotlessi.001" horiz-adv-x="239" 
d="M68 0v513h103v-513h-103z" />
    <glyph glyph-name="G.altsmall" horiz-adv-x="612" 
d="M318 -9c-147 0 -270 109 -270 265c0 155 121 265 270 265c95 0 166 -35 214 -105l-80 -55c-29 45 -72 70 -135 70c-96 0 -165 -75 -165 -175s68 -176 166 -176c81 0 137 46 152 106h-136v83h239c9 -163 -89 -278 -255 -278z" />
    <glyph glyph-name="M.altsmall" horiz-adv-x="663" 
d="M59 0l51 518h10l176 -241c18 -25 35 -60 35 -60s20 36 37 60l175 241h10l51 -518h-99l-19 202c-5 49 -5 97 -5 97s-20 -45 -48 -84l-97 -135h-9l-97 135c-30 42 -51 85 -51 85s2 -49 -3 -99l-20 -201h-97z" />
    <glyph glyph-name="Q.altsmall" horiz-adv-x="638" 
d="M364 -4v-111h-91v112c-127 19 -227 120 -227 259c0 157 125 265 273 265c149 0 273 -108 273 -265c0 -139 -100 -240 -228 -260zM273 84v96h91v-97c75 19 123 84 123 173c0 101 -69 175 -168 175s-168 -74 -168 -175c0 -89 48 -154 122 -172z" />
    <glyph glyph-name="minustab" horiz-adv-x="520" 
d="M80 214v89h360v-89h-360z" />
    <glyph glyph-name="multiplytab" horiz-adv-x="520" 
d="M261 196l-114 -113l-62 62l113 113l-113 114l62 62l113 -114l114 114l62 -62l-114 -113l114 -114l-62 -62z" />
    <glyph glyph-name="spacetab" horiz-adv-x="200" 
 />
    <glyph glyph-name="numbersigntab" horiz-adv-x="520" 
d="M144 432h-66v81h86l26 103h84l-26 -103h86l26 103h83l-26 -103h64v-81h-84l-22 -87h66v-81h-86l-26 -104h-83l26 104h-87l-26 -104h-82l26 104h-64v81h84zM314 432h-86l-22 -87h86z" />
    <glyph glyph-name="dollartab" horiz-adv-x="520" 
d="M232 -8c-104 10 -164 66 -190 117l76 42c21 -36 54 -69 114 -78v152c-112 28 -161 78 -161 153c0 73 56 136 161 142v104h55v-106c72 -10 121 -50 145 -87l-67 -49c-13 23 -37 48 -78 58v-135c116 -29 175 -79 175 -161c0 -90 -59 -146 -175 -152v-109h-55v109zM232 443
c-47 -4 -68 -25 -68 -57c0 -33 15 -50 68 -65v122zM287 72c59 5 80 30 80 63c0 35 -17 58 -80 76v-139z" />
    <glyph glyph-name="percenttab" horiz-adv-x="750" 
d="M169 218c-80 0 -145 63 -145 151s65 152 145 152c79 0 144 -64 144 -152s-65 -151 -144 -151zM163 0l323 513h100l-322 -513h-101zM582 -9c-81 0 -145 63 -145 152c0 88 64 152 145 152c79 0 143 -64 143 -152c0 -89 -64 -152 -143 -152zM169 292c37 0 63 31 63 77
c0 47 -26 77 -63 77s-63 -30 -63 -77c0 -46 26 -77 63 -77zM582 66c37 0 62 30 62 77s-25 77 -62 77c-38 0 -63 -30 -63 -77s25 -77 63 -77z" />
    <glyph glyph-name="parenlefttab" horiz-adv-x="300" 
d="M209 -135c-82 91 -166 220 -166 426c0 205 84 335 166 426l63 -47c-74 -97 -122 -209 -122 -379s48 -282 122 -379z" />
    <glyph glyph-name="parenrighttab" horiz-adv-x="300" 
d="M90 -135l-63 47c75 97 123 210 123 379c0 170 -48 282 -123 379l63 47c83 -91 167 -220 167 -426s-84 -335 -167 -426z" />
    <glyph glyph-name="plustab" horiz-adv-x="520" 
d="M306 214v-141h-92v141h-134v89h134v141h92v-141h134v-89h-134z" />
    <glyph glyph-name="commatab" horiz-adv-x="200" 
d="M35 -114l40 116c-25 10 -42 31 -42 60c0 37 31 64 67 64c35 0 66 -27 66 -66c0 -22 -10 -40 -20 -59l-60 -115h-51z" />
    <glyph glyph-name="periodtab" horiz-adv-x="200" 
d="M100 -6c-36 0 -67 28 -67 66c0 39 31 66 67 66c35 0 66 -27 66 -66c0 -38 -31 -66 -66 -66z" />
    <glyph glyph-name="zerotab" horiz-adv-x="520" 
d="M260 -9c-132 0 -226 107 -226 266c0 160 95 264 226 264s226 -104 226 -264c0 -159 -94 -266 -226 -266zM260 82c74 0 118 65 118 175c0 111 -44 174 -118 174s-119 -63 -119 -174c0 -110 45 -175 119 -175z" />
    <glyph glyph-name="onetab" horiz-adv-x="520" 
d="M215 85v343h-118v85h221v-428h118v-85h-350v85h129z" />
    <glyph glyph-name="twotab" horiz-adv-x="520" 
d="M43 0v10l200 198c63 62 96 96 96 146c0 48 -33 75 -81 75c-54 0 -88 -36 -106 -91l-94 25c23 100 102 158 200 158c122 0 186 -72 186 -161c0 -67 -43 -130 -110 -192l-48 -44c-21 -20 -56 -41 -56 -41s44 4 62 4h161v-87h-410z" />
    <glyph glyph-name="threetab" horiz-adv-x="520" 
d="M247 -103c-115 0 -188 60 -220 135l88 44c26 -58 68 -88 132 -88c66 0 116 45 116 124c0 78 -52 120 -128 120c-40 0 -63 -8 -83 -17l-8 10l134 171c16 20 31 36 31 36s-28 -4 -54 -4h-175v85h380v-9l-130 -169c-15 -20 -32 -31 -32 -31c93 -8 172 -81 172 -194
c0 -114 -80 -213 -223 -213z" />
    <glyph glyph-name="fourtab" horiz-adv-x="520" 
d="M417 91h70v-80h-70v-105h-101v105h-291v60l380 450h12v-430zM317 89v162c0 21 4 59 4 59s-15 -27 -32 -46l-112 -140c-18 -21 -40 -38 -40 -38s26 3 50 3h130z" />
    <glyph glyph-name="fivetab" horiz-adv-x="520" 
d="M249 -103c-111 0 -182 56 -211 120l87 45c21 -42 57 -74 123 -74c72 0 118 49 118 117c0 70 -43 117 -126 117c-64 0 -106 -26 -136 -51l-10 4v338h333v-85h-248v-140c18 11 49 21 88 21c124 0 207 -89 207 -205c0 -115 -81 -207 -225 -207z" />
    <glyph glyph-name="sixtab" horiz-adv-x="520" 
d="M262 -8c-117 0 -213 78 -213 198c0 65 27 119 70 181l164 238h114l-136 -198c-18 -25 -58 -55 -58 -55c23 16 48 28 81 28c106 0 190 -77 190 -192c0 -119 -94 -200 -212 -200zM261 80c69 0 113 49 113 112c0 64 -42 113 -113 113c-69 0 -112 -53 -112 -113
c0 -63 43 -112 112 -112z" />
    <glyph glyph-name="seventab" horiz-adv-x="520" 
d="M92 -94l238 522h-279v85h418v-10l-270 -597h-107z" />
    <glyph glyph-name="eighttab" horiz-adv-x="520" 
d="M163 348c-42 21 -76 60 -76 119c0 78 69 151 173 151c106 0 174 -73 174 -151c0 -60 -34 -98 -76 -119c71 -26 119 -81 119 -165c0 -113 -97 -192 -217 -192s-218 79 -218 192c0 84 49 140 121 165zM260 385c45 0 75 31 75 75s-30 74 -75 74c-44 0 -74 -30 -74 -74
s30 -75 74 -75zM260 82c68 0 111 45 111 109c0 65 -43 113 -111 113c-69 0 -111 -48 -111 -113c0 -64 42 -109 111 -109z" />
    <glyph glyph-name="ninetab" horiz-adv-x="520" 
d="M123 -94l136 195c18 26 58 56 58 56c-23 -16 -48 -28 -81 -28c-106 0 -190 77 -190 192c0 119 94 200 212 200c117 0 213 -78 213 -198c0 -65 -26 -121 -69 -182l-164 -235h-115zM259 208c69 0 111 53 111 113c0 62 -42 112 -111 112s-112 -50 -112 -112
c0 -64 41 -113 112 -113z" />
    <glyph glyph-name="colontab" horiz-adv-x="200" 
d="M100 223c-36 0 -67 28 -67 67c0 38 31 66 67 66c35 0 66 -28 66 -66c0 -39 -31 -67 -66 -67zM100 -6c-36 0 -67 28 -67 66c0 39 31 67 67 67c35 0 66 -28 66 -67c0 -38 -31 -66 -66 -66z" />
    <glyph glyph-name="semicolontab" horiz-adv-x="200" 
d="M100 223c-36 0 -67 28 -67 67c0 38 31 66 67 66c35 0 66 -28 66 -66c0 -39 -31 -67 -66 -67zM35 -114l40 116c-25 10 -42 31 -42 60c0 37 31 64 67 64c35 0 66 -27 66 -66c0 -22 -10 -40 -20 -59l-60 -115h-51z" />
    <glyph glyph-name="lesstab" horiz-adv-x="520" 
d="M411 64l-334 175v10l334 173v-89l-181 -90l181 -90v-89z" />
    <glyph glyph-name="equaltab" horiz-adv-x="520" 
d="M78 280v88h364v-88h-364zM78 134v88h364v-88h-364z" />
    <glyph glyph-name="greatertab" horiz-adv-x="520" 
d="M109 64v89l181 90l-181 90v89l334 -175v-10z" />
    <glyph glyph-name="bracketlefttab" horiz-adv-x="300" 
d="M57 -128v850h213v-86h-111v-678h111v-86h-213z" />
    <glyph glyph-name="bracketrighttab" horiz-adv-x="300" 
d="M29 -128v86h111v678h-111v86h214v-850h-214z" />
    <glyph glyph-name="bracelefttab" horiz-adv-x="300" 
d="M228 -128c-73 0 -145 29 -145 144v144c0 50 -19 67 -57 67h-26v87h26c38 0 57 17 57 68v196c0 115 72 144 145 144h43v-86h-34c-36 0 -51 -16 -51 -61v-206c0 -66 -34 -90 -79 -98c45 -9 79 -33 79 -99v-153c0 -45 15 -61 51 -61h34v-86h-43z" />
    <glyph glyph-name="bracerighttab" horiz-adv-x="300" 
d="M29 -128v86h34c35 0 51 16 51 61v153c0 66 33 90 78 99c-45 8 -78 32 -78 98v206c0 45 -16 61 -51 61h-34v86h42c74 0 145 -29 145 -144v-196c0 -51 20 -68 58 -68h26v-87h-26c-38 0 -58 -17 -58 -67v-144c0 -115 -71 -144 -145 -144h-42z" />
    <glyph glyph-name="degreetab" horiz-adv-x="350" 
d="M175 277c-70 0 -128 55 -128 122c0 70 58 122 128 122s128 -52 128 -122c0 -67 -58 -122 -128 -122zM175 340c34 0 57 24 57 59c0 36 -23 60 -57 60s-58 -24 -58 -60c0 -35 24 -59 58 -59z" />
    <glyph glyph-name="centtab" horiz-adv-x="520" 
d="M258 -7c-112 14 -194 101 -194 217c0 115 81 204 194 217v108h55v-107c65 -5 111 -33 148 -79l-71 -57c-16 24 -42 42 -77 48v-261c37 5 61 24 82 47l67 -59c-37 -43 -82 -70 -149 -75v-108h-55v109zM258 339c-57 -13 -92 -63 -92 -129s35 -117 92 -130v259z" />
    <glyph glyph-name="sterlingtab" horiz-adv-x="520" 
d="M153 253h-95v79h60c-14 36 -25 73 -25 110c0 99 70 176 191 176c94 0 150 -45 183 -112l-83 -46c-24 46 -48 67 -100 67c-53 0 -88 -32 -88 -92c0 -34 10 -68 22 -103h142v-79h-112c13 -40 24 -81 24 -127c0 -4 0 -8 -1 -13c29 -18 59 -33 93 -33c39 0 56 11 80 37
l60 -61c-34 -44 -74 -65 -136 -65c-54 0 -94 24 -127 51c-26 -30 -65 -51 -111 -51c-74 0 -118 42 -118 101c0 58 46 94 104 94c24 0 46 -6 67 -16c-7 28 -18 55 -30 83zM184 93c-20 17 -40 30 -61 30c-22 0 -36 -14 -36 -34s14 -34 36 -34c27 0 51 14 61 38z" />
    <glyph glyph-name="sectiontab" horiz-adv-x="520" 
d="M255 -103c-95 0 -164 47 -191 107l80 41c20 -39 51 -65 106 -65c49 0 76 22 76 53c0 29 -17 45 -60 62l-92 35c-96 37 -137 80 -137 152c0 55 37 91 86 111c-16 22 -25 49 -25 81c0 85 70 144 164 144c88 0 137 -39 168 -102l-81 -38c-17 33 -38 58 -83 58
c-47 0 -72 -24 -72 -59c0 -32 15 -52 55 -67l100 -39c94 -35 137 -82 137 -147c0 -55 -33 -90 -82 -111c15 -21 24 -46 24 -79c0 -83 -63 -137 -173 -137zM352 155c25 10 40 27 40 52c0 35 -18 55 -70 75l-100 39c-22 9 -41 19 -56 32c-23 -11 -35 -31 -35 -56
c0 -36 16 -57 68 -77l93 -35c22 -9 43 -19 60 -30z" />
    <glyph glyph-name="yentab" horiz-adv-x="520" 
d="M343 235l-33 -61h168v-72h-167v-102h-103v102h-167v72h168l-33 61h-135v72h96l-110 206h114l96 -188c19 -37 27 -80 27 -80s8 43 27 80l96 188h105s-110 -206 -111 -206h97v-72h-135z" />
    <glyph glyph-name="florintab" horiz-adv-x="520" 
d="M167 193h-92v79h101l20 181c12 110 72 165 159 165c66 0 111 -30 138 -77l-69 -51c-13 24 -29 42 -64 42c-32 0 -58 -20 -65 -78l-20 -182h130v-79h-139l-46 -405h-99z" />
    <glyph glyph-name="dividetab" horiz-adv-x="520" 
d="M260 358c-36 0 -66 28 -66 66s30 65 66 65c35 0 65 -27 65 -65s-30 -66 -65 -66zM79 214v89h361v-89h-361zM260 28c-36 0 -66 28 -66 66s30 65 66 65c35 0 65 -27 65 -65s-30 -66 -65 -66z" />
    <glyph glyph-name="Eurotab" horiz-adv-x="520" 
d="M74 283h-54v72h68c34 100 118 166 222 166c88 0 147 -32 190 -96l-72 -55c-30 44 -59 65 -118 65c-54 0 -94 -30 -116 -80h153v-72h-170c-1 -8 -1 -17 -1 -26s0 -18 1 -27h170v-72h-153c21 -50 60 -79 116 -79c64 0 94 29 119 70l78 -49c-39 -66 -99 -109 -195 -109
c-103 0 -188 67 -223 167h-69v72h54c-1 9 -1 18 -1 27s0 18 1 26z" />
    <glyph glyph-name="perthousandtab" horiz-adv-x="1100" 
d="M176 218c-80 0 -144 63 -144 151s64 152 144 152s144 -64 144 -152s-64 -151 -144 -151zM173 0l323 513h100l-322 -513h-101zM924 -9c-80 0 -144 63 -144 152c0 88 64 152 144 152s144 -64 144 -152c0 -89 -64 -152 -144 -152zM594 -9c-80 0 -145 63 -145 152
c0 88 65 152 145 152s144 -64 144 -152c0 -89 -64 -152 -144 -152zM176 292c38 0 63 31 63 77c0 47 -25 77 -63 77c-37 0 -63 -30 -63 -77c0 -46 26 -77 63 -77zM924 66c37 0 63 30 63 77s-26 77 -63 77s-63 -30 -63 -77s26 -77 63 -77zM594 66c37 0 63 30 63 77
s-26 77 -63 77s-63 -30 -63 -77s26 -77 63 -77z" />
    <glyph glyph-name="minustablining" horiz-adv-x="580" 
d="M93 275v89h393v-89h-393z" />
    <glyph glyph-name="multiplytablining" horiz-adv-x="580" 
d="M290 252l-117 -117l-60 60l117 117l-117 118l59 59l117 -118l119 119l60 -60l-119 -119l118 -117l-59 -59z" />
    <glyph glyph-name="spacetablining" horiz-adv-x="200" 
 />
    <glyph glyph-name="numbersigntablining" horiz-adv-x="580" 
d="M173 496h-77v81h97l26 103h83l-26 -103h90l26 103h82l-25 -103h74v-81h-94l-23 -91h76v-80h-96l-26 -105h-84l26 105h-89l-26 -105h-83l26 105h-74v80h94zM345 496h-89l-23 -91h89z" />
    <glyph glyph-name="dollartablining" horiz-adv-x="580" 
d="M258 -8c-114 8 -181 69 -219 139l85 48c30 -50 62 -89 134 -96v227l-2 1c-113 44 -182 99 -182 205c0 92 71 165 184 171v86h57v-87c82 -10 133 -52 165 -105l-82 -52c-16 28 -40 55 -83 65v-197l6 -2c118 -47 195 -103 195 -214s-72 -180 -201 -189v-108h-57v108z
M258 597c-54 -6 -80 -40 -80 -77c0 -44 17 -70 80 -99v176zM315 84c70 9 96 48 96 94c0 47 -27 77 -96 108v-202z" />
    <glyph glyph-name="percenttablining" horiz-adv-x="800" 
d="M192 338c-88 0 -162 72 -162 175c0 104 74 175 162 175s162 -71 162 -175c0 -103 -74 -175 -162 -175zM136 0l428 680h100l-428 -680h-100zM608 -9c-88 0 -162 72 -162 175c0 104 74 175 162 175s162 -71 162 -175c0 -103 -74 -175 -162 -175zM192 417c45 0 75 40 75 96
c0 57 -30 96 -75 96s-75 -39 -75 -96c0 -56 30 -96 75 -96zM608 70c45 0 75 40 75 96c0 58 -30 97 -75 97s-75 -39 -75 -97c0 -56 30 -96 75 -96z" />
    <glyph glyph-name="parenlefttablining" horiz-adv-x="300" 
d="M209 -135c-82 91 -166 220 -166 426c0 205 84 335 166 426l63 -47c-74 -97 -122 -209 -122 -379s48 -282 122 -379z" />
    <glyph glyph-name="parenrighttablining" horiz-adv-x="300" 
d="M90 -135l-63 47c75 97 123 210 123 379c0 170 -48 282 -123 379l63 47c83 -91 167 -220 167 -426s-84 -335 -167 -426z" />
    <glyph glyph-name="plustablining" horiz-adv-x="580" 
d="M336 275v-158h-92v158h-151v89h151v157h92v-157h151v-89h-151z" />
    <glyph glyph-name="commatablining" horiz-adv-x="200" 
d="M35 -114l40 116c-25 10 -42 31 -42 60c0 37 31 64 67 64c35 0 66 -27 66 -66c0 -22 -10 -40 -20 -59l-60 -115h-51z" />
    <glyph glyph-name="periodtablining" horiz-adv-x="200" 
d="M100 -6c-36 0 -67 28 -67 66c0 39 31 66 67 66c35 0 66 -27 66 -66c0 -38 -31 -66 -66 -66z" />
    <glyph glyph-name="zerotablining" horiz-adv-x="580" 
d="M290 -9c-148 0 -252 126 -252 349s104 349 252 349s252 -126 252 -349s-104 -349 -252 -349zM290 85c96 0 142 102 142 255s-46 255 -142 255s-142 -102 -142 -255s46 -255 142 -255z" />
    <glyph glyph-name="onetablining" horiz-adv-x="580" 
d="M273 0v586h-163v94h269v-680h-106z" />
    <glyph glyph-name="twotablining" horiz-adv-x="580" 
d="M29 0v9l276 294c64 68 94 122 94 180c0 61 -36 108 -108 108c-68 0 -112 -44 -131 -122l-105 20c24 117 103 199 237 199c133 0 215 -85 215 -204c0 -81 -41 -152 -112 -228l-116 -125c-21 -21 -53 -42 -53 -42s33 4 59 4h221v-93h-477z" />
    <glyph glyph-name="threetablining" horiz-adv-x="580" 
d="M279 -9c-123 0 -208 61 -250 146l90 47c29 -55 73 -97 155 -97c92 0 146 59 146 142c0 84 -55 144 -157 144c-43 0 -72 -9 -90 -16l-6 9l146 187c15 19 36 38 36 38s-30 -4 -55 -4h-206v93h425v-9l-138 -180c-22 -29 -43 -44 -43 -44c112 -14 195 -98 195 -222
c0 -146 -105 -234 -248 -234z" />
    <glyph glyph-name="fourtablining" horiz-adv-x="580" 
d="M464 200h81v-87h-81v-113h-105v113h-326v68l422 514h9v-495zM361 200v181c0 33 9 84 9 84s-23 -41 -44 -67l-124 -154c-22 -27 -51 -49 -51 -49s39 5 71 5h139z" />
    <glyph glyph-name="fivetablining" horiz-adv-x="580" 
d="M275 -9c-113 0 -199 58 -238 138l89 47c26 -51 71 -90 149 -90c84 0 140 58 140 144c0 87 -62 143 -150 143c-71 0 -115 -26 -155 -59l-9 4v362h366v-93h-274v-147c28 15 59 22 100 22c141 0 231 -97 231 -230c0 -148 -103 -241 -249 -241z" />
    <glyph glyph-name="sixtablining" horiz-adv-x="580" 
d="M290 -9c-143 0 -242 102 -242 228c0 61 20 116 58 171l197 290h118l-132 -195c-20 -29 -56 -62 -56 -62c23 14 54 23 78 23c127 0 221 -94 221 -223c0 -128 -96 -232 -242 -232zM290 86c84 0 134 63 134 137c0 76 -49 139 -134 139c-84 0 -134 -61 -134 -139
c0 -74 50 -137 134 -137z" />
    <glyph glyph-name="seventablining" horiz-adv-x="580" 
d="M117 0l268 586h-330v94h479v-9l-304 -671h-113z" />
    <glyph glyph-name="eighttablining" horiz-adv-x="580" 
d="M178 391c-46 25 -82 67 -82 133c0 95 86 164 194 164c109 0 194 -69 194 -164c0 -66 -36 -108 -82 -133c77 -29 133 -90 133 -181c0 -127 -96 -219 -245 -219c-148 0 -245 92 -245 219c0 91 56 152 133 181zM290 432c56 0 90 35 90 83c0 47 -34 81 -90 81
c-55 0 -90 -34 -90 -81c0 -48 35 -83 90 -83zM290 85c85 0 137 55 137 129c0 75 -52 128 -137 128c-84 0 -137 -53 -137 -128c0 -77 53 -129 137 -129z" />
    <glyph glyph-name="ninetablining" horiz-adv-x="580" 
d="M163 0l134 194c20 29 50 60 50 60c-24 -15 -54 -24 -78 -24c-128 0 -222 95 -222 225c0 128 96 233 243 233c144 0 243 -103 243 -229c0 -61 -23 -118 -61 -174l-196 -285h-113zM290 313c85 0 136 64 136 142c0 75 -50 139 -136 139s-137 -64 -137 -139
c0 -76 50 -142 137 -142z" />
    <glyph glyph-name="colontablining" horiz-adv-x="200" 
d="M100 223c-36 0 -67 28 -67 67c0 38 31 66 67 66c35 0 66 -28 66 -66c0 -39 -31 -67 -66 -67zM100 -6c-36 0 -67 28 -67 66c0 39 31 67 67 67c35 0 66 -28 66 -67c0 -38 -31 -66 -66 -66z" />
    <glyph glyph-name="semicolontablining" horiz-adv-x="200" 
d="M100 223c-36 0 -67 28 -67 67c0 38 31 66 67 66c35 0 66 -28 66 -66c0 -39 -31 -67 -66 -67zM35 -114l40 116c-25 10 -42 31 -42 60c0 37 31 64 67 64c35 0 66 -27 66 -66c0 -22 -10 -40 -20 -59l-60 -115h-51z" />
    <glyph glyph-name="lesstablining" horiz-adv-x="580" 
d="M463 119l-371 194v10l371 190v-89l-214 -107l214 -108v-90z" />
    <glyph glyph-name="equaltablining" horiz-adv-x="580" 
d="M93 341v87h394v-87h-394zM93 180v88h394v-88h-394z" />
    <glyph glyph-name="greatertablining" horiz-adv-x="580" 
d="M117 119v90l214 108l-214 107v89l371 -190v-10z" />
    <glyph glyph-name="bracketlefttablining" horiz-adv-x="300" 
d="M57 -128v850h213v-86h-111v-678h111v-86h-213z" />
    <glyph glyph-name="bracketrighttablining" horiz-adv-x="300" 
d="M29 -128v86h111v678h-111v86h213v-850h-213z" />
    <glyph glyph-name="bracelefttablining" horiz-adv-x="300" 
d="M228 -128c-73 0 -145 29 -145 144v144c0 50 -19 67 -57 67h-26v87h26c38 0 57 17 57 68v196c0 115 72 144 145 144h43v-86h-34c-36 0 -51 -16 -51 -61v-206c0 -66 -34 -90 -79 -98c45 -9 79 -33 79 -99v-153c0 -45 15 -61 51 -61h34v-86h-43z" />
    <glyph glyph-name="bracerighttablining" horiz-adv-x="300" 
d="M29 -128v86h34c35 0 51 16 51 61v153c0 66 33 90 78 99c-45 8 -78 32 -78 98v206c0 45 -16 61 -51 61h-34v86h42c74 0 145 -29 145 -144v-196c0 -51 20 -68 58 -68h26v-87h-26c-38 0 -58 -17 -58 -67v-144c0 -115 -71 -144 -145 -144h-42z" />
    <glyph glyph-name="degreetablining" horiz-adv-x="387" 
d="M194 408c-81 0 -147 63 -147 140c0 80 66 140 147 140s146 -60 146 -140c0 -77 -65 -140 -146 -140zM194 476c42 0 70 30 70 72s-28 72 -70 72s-70 -30 -70 -72s28 -72 70 -72z" />
    <glyph glyph-name="centtablining" horiz-adv-x="580" 
d="M285 -7c-112 14 -194 101 -194 217c0 115 81 204 194 217v108h55v-107c65 -5 111 -33 148 -79l-71 -57c-16 24 -42 42 -77 48v-261c37 5 61 24 82 47l67 -59c-37 -43 -82 -70 -149 -75v-108h-55v109zM285 339c-57 -13 -92 -63 -92 -129s35 -117 92 -130v259z" />
    <glyph glyph-name="sterlingtablining" horiz-adv-x="580" 
d="M174 275h-101v79h66c-16 40 -30 83 -30 132c0 117 80 202 211 202c101 0 160 -47 193 -119l-85 -44c-23 50 -52 73 -108 73c-63 0 -104 -41 -104 -112c0 -47 14 -89 29 -132h184v-79h-155c11 -35 19 -71 19 -111c0 -14 -1 -28 -4 -41c32 -23 64 -43 107 -43
c46 0 73 23 96 51l66 -61c-41 -51 -86 -79 -157 -79c-62 0 -106 29 -144 60c-29 -37 -73 -60 -124 -60c-61 0 -117 41 -117 104c0 62 49 104 114 104c27 0 51 -7 72 -17c-4 32 -14 62 -28 93zM195 106c-19 15 -39 26 -60 26c-26 0 -44 -14 -44 -36s19 -37 43 -37
c29 0 51 14 61 47z" />
    <glyph glyph-name="sectiontablining" horiz-adv-x="580" 
d="M277 -180c-103 0 -179 51 -218 111l81 56c26 -42 69 -75 132 -75c71 0 96 32 96 69s-27 57 -84 84l-109 50c-91 41 -134 88 -134 163c0 71 42 109 93 130c-22 29 -34 63 -34 106c0 97 74 174 193 174c95 0 151 -45 186 -103l-83 -54c-27 45 -59 65 -103 65
c-55 0 -85 -35 -85 -77c0 -44 22 -66 73 -90l110 -50c101 -46 144 -96 144 -172c0 -62 -38 -103 -94 -127c24 -29 36 -63 36 -102c0 -93 -70 -158 -200 -158zM384 129c31 12 49 35 49 65c0 43 -27 63 -85 89l-110 50c-18 8 -35 18 -49 30c-27 -12 -46 -35 -46 -66
c0 -42 23 -62 75 -85l108 -50c22 -10 42 -21 58 -33z" />
    <glyph glyph-name="yentablining" horiz-adv-x="580" 
d="M360 267l-19 -41v-35h185v-79h-185v-112h-102v112h-187v79h187v38l-18 38h-169v79h132l-155 334h113l118 -265c17 -40 33 -109 33 -109s17 70 34 109l117 265h106l-154 -334h130v-79h-166z" />
    <glyph glyph-name="florintablining" horiz-adv-x="580" 
d="M202 237h-92v81h101l23 205c13 110 73 165 159 165c66 0 112 -30 139 -77l-69 -51c-14 24 -30 42 -65 42c-32 0 -58 -20 -64 -78l-24 -206h130v-81h-139l-51 -449h-99z" />
    <glyph glyph-name="dividetablining" horiz-adv-x="580" 
d="M290 423c-37 0 -69 29 -69 69s32 68 69 68c36 0 68 -28 68 -68s-32 -69 -68 -69zM93 275v89h393v-89h-393zM290 78c-37 0 -69 29 -69 69s32 68 69 68c36 0 68 -28 68 -68s-32 -69 -68 -69z" />
    <glyph glyph-name="Eurotablining" horiz-adv-x="580" 
d="M74 364h-58v79h67c29 158 126 245 248 245c105 0 173 -50 215 -147l-91 -43c-30 67 -61 98 -125 98c-73 0 -121 -58 -141 -153h183v-79h-192v-24c0 -16 1 -31 2 -46h190v-79h-177c23 -85 74 -131 138 -131c68 0 104 40 133 110l92 -40c-42 -107 -113 -163 -224 -163
c-116 0 -212 78 -246 224h-72v79h60c-1 15 -2 30 -2 46v24z" />
    <glyph glyph-name="perthousandtablining" horiz-adv-x="1160" 
d="M192 338c-88 0 -162 72 -162 175c0 104 74 175 162 175s162 -71 162 -175c0 -103 -74 -175 -162 -175zM133 0l428 680h100l-429 -680h-99zM968 -9c-88 0 -162 72 -162 175c0 104 74 175 162 175s162 -71 162 -175c0 -103 -74 -175 -162 -175zM602 -9
c-88 0 -162 72 -162 175c0 104 74 175 162 175s161 -71 161 -175c0 -103 -73 -175 -161 -175zM192 417c45 0 75 40 75 96c0 57 -30 96 -75 96s-75 -39 -75 -96c0 -56 30 -96 75 -96zM968 70c45 0 75 40 75 96c0 58 -30 97 -75 97s-75 -39 -75 -97c0 -56 30 -96 75 -96z
M602 70c45 0 75 40 75 96c0 58 -30 97 -75 97c-46 0 -75 -39 -75 -97c0 -56 29 -96 75 -96z" />
    <glyph glyph-name="minustabsmall" 
d="M70 214v89h360v-89h-360z" />
    <glyph glyph-name="multiplytabsmall" 
d="M251 196l-114 -113l-62 62l113 113l-113 114l62 62l113 -114l114 114l62 -62l-114 -113l114 -114l-62 -62z" />
    <glyph glyph-name="spacetabsmall" horiz-adv-x="200" 
 />
    <glyph glyph-name="numbersigntabsmall" 
d="M140 434h-67v79h87l26 103h79l-26 -103h84l26 103h79l-26 -103h64v-79h-84l-23 -92h67v-78h-86l-26 -104h-79l26 104h-85l-26 -104h-78l26 104h-64v78h83zM303 434h-84l-23 -92h84z" />
    <glyph glyph-name="dollartabsmall" 
d="M221 -7c-96 9 -152 57 -183 118l76 42c23 -44 54 -72 107 -80v153c-112 33 -156 78 -156 157c0 76 57 130 156 137v104h55v-105c67 -9 115 -45 144 -89l-67 -49c-17 29 -41 51 -77 59v-134c109 -31 170 -81 170 -166c0 -95 -61 -144 -170 -148v-109h-55v110zM221 443
c-42 -5 -63 -23 -63 -54c0 -36 17 -51 63 -66v120zM276 72c54 4 76 27 76 63c0 37 -19 57 -76 75v-138z" />
    <glyph glyph-name="percenttabsmall" horiz-adv-x="750" 
d="M169 218c-80 0 -145 63 -145 151s65 152 145 152c79 0 144 -64 144 -152s-65 -151 -144 -151zM163 0l323 513h100l-322 -513h-101zM582 -9c-81 0 -145 63 -145 152c0 88 64 152 145 152c79 0 143 -64 143 -152c0 -89 -64 -152 -143 -152zM169 292c37 0 63 31 63 77
c0 47 -26 77 -63 77s-63 -30 -63 -77c0 -46 26 -77 63 -77zM582 66c37 0 62 30 62 77s-25 77 -62 77c-38 0 -63 -30 -63 -77s25 -77 63 -77z" />
    <glyph glyph-name="parenlefttabsmall" horiz-adv-x="300" 
d="M206 -63c-85 88 -167 209 -167 400s82 313 167 401l63 -49c-77 -95 -124 -197 -124 -352c0 -153 47 -256 124 -351z" />
    <glyph glyph-name="parenrighttabsmall" horiz-adv-x="300" 
d="M93 -63l-63 49c78 95 124 198 124 351c0 155 -47 257 -124 352l63 49c86 -88 168 -210 168 -401s-83 -312 -168 -400z" />
    <glyph glyph-name="plustabsmall" 
d="M296 214v-141h-92v141h-134v89h134v141h92v-141h134v-89h-134z" />
    <glyph glyph-name="commatabsmall" horiz-adv-x="200" 
d="M35 -114l40 116c-25 10 -42 31 -42 60c0 37 31 64 67 64c35 0 66 -27 66 -66c0 -22 -10 -40 -20 -59l-60 -115h-51z" />
    <glyph glyph-name="periodtabsmall" horiz-adv-x="200" 
d="M100 -6c-36 0 -67 28 -67 66c0 39 31 66 67 66c35 0 66 -27 66 -66c0 -38 -31 -66 -66 -66z" />
    <glyph glyph-name="zerotabsmall" 
d="M250 -9c-132 0 -218 108 -218 266c0 159 87 264 218 264s218 -105 218 -264c0 -158 -86 -266 -218 -266zM250 82c71 0 110 65 110 175c0 111 -39 174 -110 174s-111 -63 -111 -174c0 -110 40 -175 111 -175z" />
    <glyph glyph-name="onetabsmall" 
d="M205 85v343h-117v85h220v-428h115v-85h-342v85h124z" />
    <glyph glyph-name="twotabsmall" 
d="M39 0v10l212 217c46 48 71 87 71 130c0 42 -25 72 -74 72c-47 0 -79 -30 -98 -85l-92 24c22 93 93 153 193 153c107 0 175 -66 175 -160c0 -61 -33 -118 -87 -174l-61 -63c-17 -18 -50 -40 -50 -40s35 4 61 4h140v-88h-390z" />
    <glyph glyph-name="threetabsmall" 
d="M244 -9c-100 0 -172 51 -203 120l86 41c20 -40 53 -70 114 -70c62 0 98 41 98 93c0 53 -38 93 -107 93c-32 0 -56 -7 -70 -13l-5 8l88 119c14 18 45 48 45 48s-46 -6 -71 -6h-134v89h350v-10l-94 -128c-20 -27 -39 -39 -39 -39c82 -13 142 -74 142 -167
c0 -113 -91 -178 -200 -178z" />
    <glyph glyph-name="fourtabsmall" 
d="M393 158h60v-82h-60v-76h-98v76h-256v76l345 366h9v-360zM298 155v109c0 26 5 68 5 68s-23 -34 -44 -56l-82 -89c-17 -18 -44 -37 -44 -37s34 5 59 5h106z" />
    <glyph glyph-name="fivetabsmall" 
d="M245 -9c-101 0 -169 56 -198 111l84 47c22 -37 55 -67 109 -67c60 0 98 37 98 90c0 56 -40 93 -111 93c-52 0 -98 -19 -127 -39l-7 3v284h306v-88h-219v-93c18 9 44 14 69 14c119 0 192 -73 192 -176c0 -106 -76 -179 -196 -179z" />
    <glyph glyph-name="sixtabsmall" 
d="M250 -9c-117 0 -199 81 -199 185c0 49 18 89 50 136l139 201h115l-82 -116c-20 -28 -56 -61 -56 -61c16 8 39 14 56 14c98 0 176 -71 176 -174c0 -102 -81 -185 -199 -185zM249 81c64 0 96 45 96 96c0 52 -31 96 -96 96c-60 0 -97 -43 -97 -96c0 -51 37 -96 97 -96z" />
    <glyph glyph-name="seventabsmall" 
d="M99 0l206 424h-250v89h397v-9l-243 -504h-110z" />
    <glyph glyph-name="eighttabsmall" 
d="M158 297c-34 18 -63 48 -63 97c0 74 70 127 155 127s155 -53 155 -127c0 -49 -28 -80 -63 -97c60 -21 105 -66 105 -137c0 -97 -79 -169 -197 -169s-197 72 -197 169c0 71 45 116 105 137zM250 327c36 0 61 22 61 57c0 32 -25 55 -61 55s-61 -23 -61 -55
c0 -35 25 -57 61 -57zM250 79c56 0 92 37 92 86c0 51 -36 87 -92 87s-92 -36 -92 -87c0 -49 36 -86 92 -86z" />
    <glyph glyph-name="ninetabsmall" 
d="M139 0l92 122c20 28 51 55 51 55c-15 -10 -36 -15 -54 -15c-98 0 -178 72 -178 175c0 101 82 184 201 184c117 0 199 -81 199 -184c0 -49 -20 -97 -53 -142l-144 -195h-114zM252 239c60 0 96 44 96 97c0 49 -35 96 -96 96c-65 0 -98 -46 -98 -96c0 -52 32 -97 98 -97z
" />
    <glyph glyph-name="colontabsmall" horiz-adv-x="200" 
d="M100 223c-36 0 -67 28 -67 67c0 38 31 66 67 66c35 0 66 -28 66 -66c0 -39 -31 -67 -66 -67zM100 -6c-36 0 -67 28 -67 66c0 39 31 67 67 67c35 0 66 -28 66 -67c0 -38 -31 -66 -66 -66z" />
    <glyph glyph-name="semicolontabsmall" horiz-adv-x="200" 
d="M100 223c-36 0 -67 28 -67 67c0 38 31 66 67 66c35 0 66 -28 66 -66c0 -39 -31 -67 -66 -67zM35 -114l40 116c-25 10 -42 31 -42 60c0 37 31 64 67 64c35 0 66 -27 66 -66c0 -22 -10 -40 -20 -59l-60 -115h-51z" />
    <glyph glyph-name="lesstabsmall" 
d="M401 64l-334 175v10l334 173v-89l-181 -90l181 -90v-89z" />
    <glyph glyph-name="equaltabsmall" 
d="M68 280v88h364v-88h-364zM68 134v88h364v-88h-364z" />
    <glyph glyph-name="greatertabsmall" 
d="M99 64v89l181 90l-181 90v89l334 -175v-10z" />
    <glyph glyph-name="bracketlefttabsmall" horiz-adv-x="300" 
d="M57 -58v790h213v-86h-111v-618h111v-86h-213z" />
    <glyph glyph-name="bracketrighttabsmall" horiz-adv-x="300" 
d="M29 -58v86h111v618h-111v86h213v-790h-213z" />
    <glyph glyph-name="bracelefttabsmall" horiz-adv-x="300" 
d="M228 -58c-73 0 -145 28 -145 144v88c0 50 -19 68 -57 68h-26v86h26c38 0 57 18 57 68v192c0 115 72 144 145 144h43v-86h-34c-36 0 -51 -16 -51 -61v-201c0 -67 -34 -90 -79 -99c45 -8 79 -33 79 -99v-98c0 -45 15 -60 51 -60h34v-86h-43z" />
    <glyph glyph-name="bracerighttabsmall" horiz-adv-x="300" 
d="M29 -58v86h34c35 0 51 15 51 60v98c0 67 33 90 78 99c-45 8 -78 32 -78 99v201c0 45 -16 61 -51 61h-34v86h42c74 0 145 -29 145 -144v-192c0 -50 20 -68 58 -68h26v-86h-26c-38 0 -58 -18 -58 -68v-88c0 -116 -71 -144 -145 -144h-42z" />
    <glyph glyph-name="degreetabsmall" horiz-adv-x="328" 
d="M164 277c-70 0 -128 55 -128 122c0 70 58 122 128 122c71 0 128 -52 128 -122c0 -67 -57 -122 -128 -122zM164 340c34 0 58 24 58 59c0 36 -24 60 -58 60s-57 -24 -57 -60c0 -35 23 -59 57 -59z" />
    <glyph glyph-name="centtabsmall" 
d="M305 -8v-105h-56v106c-97 13 -170 88 -170 187c0 100 74 175 170 188v100h56v-99c59 -6 98 -31 126 -65l-66 -57c-15 20 -33 33 -60 38v-209c31 5 51 20 67 38l64 -59c-31 -34 -71 -58 -131 -63zM249 78v205c-42 -12 -69 -51 -69 -103s27 -90 69 -102z" />
    <glyph glyph-name="sterlingtabsmall" 
d="M156 213h-86v72h51c-10 26 -18 53 -18 84c0 88 63 152 174 152c93 0 147 -43 172 -96l-82 -48c-17 37 -45 57 -86 57c-45 0 -71 -27 -71 -72c0 -26 8 -51 18 -77h140v-72h-112c8 -24 13 -51 13 -80c0 -9 -1 -19 -2 -28c24 -13 50 -23 79 -23c32 0 50 11 68 33l63 -64
c-34 -42 -69 -60 -124 -60c-48 0 -86 22 -119 46c-25 -28 -62 -46 -105 -46c-59 0 -101 36 -101 88c0 51 38 86 92 86c20 0 39 -4 57 -11c-4 20 -12 40 -21 59zM174 86c-16 11 -32 19 -47 19c-21 0 -31 -12 -31 -26c0 -15 10 -28 31 -28c18 0 37 11 47 35z" />
    <glyph glyph-name="sectiontabsmall" 
d="M135 297c-20 23 -30 53 -30 90c0 76 57 134 150 134c78 0 121 -36 145 -76l-77 -48c-13 24 -33 39 -64 39c-33 0 -52 -20 -52 -46c0 -28 18 -42 45 -54l87 -39c66 -30 105 -65 105 -123c0 -50 -33 -83 -78 -103c19 -23 31 -51 31 -83c0 -79 -57 -130 -161 -130
c-78 0 -146 39 -177 93l79 50c15 -31 49 -57 90 -57c47 0 64 19 64 43s-18 38 -45 50l-94 41c-65 29 -97 63 -97 117c0 56 40 87 79 102zM315 112c22 9 34 21 34 41c0 28 -20 41 -52 55l-91 40c-10 4 -19 9 -27 14c-18 -8 -29 -23 -29 -41c0 -27 13 -40 44 -54l97 -43
c9 -4 17 -8 24 -12z" />
    <glyph glyph-name="yentabsmall" 
d="M199 145v25l-15 28h-138v72h102l-125 243h115l86 -176c18 -40 29 -93 29 -93s11 54 30 93l87 176h106l-123 -243h103v-72h-140l-14 -27v-26h154v-72h-154v-73h-103v73h-153v72h153z" />
    <glyph glyph-name="florintabsmall" 
d="M157 200h-82v80h91l9 76c12 110 72 165 159 165c65 0 111 -30 138 -77l-69 -51c-13 24 -29 42 -65 42c-31 0 -57 -20 -64 -78l-9 -77h120v-80h-129l-33 -294h-99z" />
    <glyph glyph-name="dividetabsmall" 
d="M250 358c-36 0 -66 28 -66 66s30 65 66 65c35 0 65 -27 65 -65s-30 -66 -65 -66zM69 214v89h361v-89h-361zM250 28c-36 0 -66 28 -66 66s30 65 66 65c35 0 65 -27 65 -65s-30 -66 -65 -66z" />
    <glyph glyph-name="Eurotabsmall" 
d="M75 277h-54v72h65c28 105 106 172 210 172c84 0 137 -35 176 -94l-71 -53c-27 40 -52 61 -104 61c-55 0 -90 -32 -107 -86h142v-72h-155v-20c0 -11 0 -22 1 -32h154v-72h-139c18 -47 51 -74 105 -74c53 0 84 31 106 69l78 -47c-36 -63 -88 -110 -184 -110
c-101 0 -178 63 -209 162h-68v72h54c-1 10 -1 21 -1 32c0 7 0 13 1 20z" />
    <glyph glyph-name="perthousandtabsmall" horiz-adv-x="1100" 
d="M176 218c-80 0 -144 63 -144 151s64 152 144 152s144 -64 144 -152s-64 -151 -144 -151zM173 0l323 513h100l-322 -513h-101zM924 -9c-80 0 -144 63 -144 152c0 88 64 152 144 152s144 -64 144 -152c0 -89 -64 -152 -144 -152zM594 -9c-80 0 -145 63 -145 152
c0 88 65 152 145 152s144 -64 144 -152c0 -89 -64 -152 -144 -152zM176 292c38 0 63 31 63 77c0 47 -25 77 -63 77c-37 0 -63 -30 -63 -77c0 -46 26 -77 63 -77zM924 66c37 0 63 30 63 77s-26 77 -63 77s-63 -30 -63 -77s26 -77 63 -77zM594 66c37 0 63 30 63 77
s-26 77 -63 77s-63 -30 -63 -77s26 -77 63 -77z" />
    <glyph glyph-name="at.up" horiz-adv-x="905" 
d="M462 -115c-236 0 -418 154 -418 399c0 238 193 404 414 404c237 0 403 -154 403 -371c0 -155 -67 -232 -170 -232c-64 0 -110 25 -127 86c-29 -61 -79 -89 -140 -89c-98 0 -175 81 -175 195s76 197 174 197c60 0 98 -30 121 -73l-2 64h98v-229c0 -50 14 -76 54 -76
c48 0 79 46 79 156c0 185 -121 294 -315 294c-189 0 -320 -136 -320 -325c0 -190 120 -322 323 -322c57 0 114 12 162 34l33 -72c-59 -28 -118 -40 -194 -40zM450 165c54 0 94 50 94 112s-40 113 -94 113c-59 0 -97 -48 -97 -113s38 -112 97 -112z" />
    <glyph glyph-name="fb.alt" horiz-adv-x="859" 
d="M102 0v335h-69v85h69v166c0 101 49 149 131 149c47 0 79 -17 104 -42l-56 -67c-10 12 -19 18 -38 18c-24 0 -40 -15 -40 -57v-167h104v-85h-104v-335h-101zM619 -9c-70 0 -122 34 -148 85l3 -76h-101v722h101v-375c28 48 76 82 147 82c109 0 194 -91 194 -218
s-87 -220 -196 -220zM592 80c73 0 119 52 119 131c0 76 -46 128 -119 128c-74 0 -122 -52 -122 -128c0 -79 48 -131 122 -131z" />
    <glyph glyph-name="fh.alt" horiz-adv-x="832" 
d="M102 0v335h-69v85h69v166c0 101 49 149 131 149c47 0 79 -17 104 -42l-56 -67c-10 12 -19 18 -38 18c-24 0 -40 -15 -40 -57v-167h104v-85h-104v-335h-101zM373 0v722h101v-376c26 52 77 83 141 83c92 0 156 -66 156 -180v-249h-101v241c0 60 -28 95 -87 95
c-66 0 -109 -40 -109 -108v-228h-101z" />
    <glyph glyph-name="fk.alt" horiz-adv-x="787" 
d="M102 0v335h-69v85h69v166c0 101 49 149 131 149c47 0 79 -17 104 -42l-56 -67c-10 12 -19 18 -38 18c-24 0 -40 -15 -40 -57v-167h104v-85h-104v-335h-101zM474 124v-124h-101v722h101v-417c0 -26 -3 -52 -5 -74l168 189h115l-155 -175l176 -245h-119l-127 179z" />
    <glyph glyph-name="ffb.alt" horiz-adv-x="1131" 
d="M102 0v335h-69v85h69v146c0 101 49 149 132 149c48 0 82 -14 109 -44l-54 -65c-9 9 -20 18 -43 18c-25 0 -43 -15 -43 -57v-147h170v166c0 101 49 149 131 149c47 0 79 -17 104 -42l-56 -67c-10 12 -19 18 -38 18c-24 0 -40 -15 -40 -57v-167h104v-85h-104v-335h-101v335
h-170v-335h-101zM891 -9c-70 0 -123 34 -149 85l3 -76h-101v722h101v-375c29 48 76 82 148 82c108 0 194 -91 194 -218s-88 -220 -196 -220zM864 80c72 0 118 52 118 131c0 76 -46 128 -118 128c-74 0 -123 -52 -123 -128c0 -79 49 -131 123 -131z" />
    <glyph glyph-name="ffh.alt" horiz-adv-x="1103" 
d="M102 0v335h-69v85h69v146c0 101 49 149 132 149c48 0 82 -14 109 -44l-54 -65c-9 9 -20 18 -43 18c-25 0 -43 -15 -43 -57v-147h170v166c0 101 49 149 131 149c47 0 79 -17 104 -42l-56 -67c-10 12 -19 18 -38 18c-24 0 -40 -15 -40 -57v-167h104v-85h-104v-335h-101v335
h-170v-335h-101zM644 0v722h101v-376c26 52 77 83 140 83c92 0 157 -66 157 -180v-249h-101v241c0 60 -29 95 -87 95c-66 0 -109 -40 -109 -108v-228h-101z" />
    <glyph glyph-name="ffk.alt" horiz-adv-x="1059" 
d="M102 0v335h-69v85h69v146c0 101 49 149 132 149c48 0 82 -14 109 -44l-54 -65c-9 9 -20 18 -43 18c-25 0 -43 -15 -43 -57v-147h170v166c0 101 49 149 131 149c47 0 79 -17 104 -42l-56 -67c-10 12 -19 18 -38 18c-24 0 -40 -15 -40 -57v-167h104v-85h-104v-335h-101v335
h-170v-335h-101zM746 124v-124h-101v722h101v-417c0 -26 -3 -52 -5 -74l168 189h115l-155 -175l176 -245h-119l-127 179z" />
    <glyph glyph-name="fffl.alt" horiz-adv-x="1087" 
d="M373 335h-170v-335h-101v335h-69v85h69v146c0 101 49 149 132 149c48 0 78 -16 104 -43l-47 -71c-9 13 -21 23 -45 23c-25 0 -43 -15 -43 -57v-147h170v156c0 101 50 149 133 149c48 0 77 -16 104 -43l-47 -71c-10 13 -22 23 -45 23c-26 0 -43 -15 -43 -57v-157h170v166
c0 101 49 149 131 149c47 0 76 -15 100 -41l-47 -71c-9 12 -21 21 -42 21c-25 0 -41 -15 -41 -57v-167h104v-85h-104v-335h-101v335h-170v-335h-102v335zM916 0v722h102v-722h-102z" />
    <glyph glyph-name="space.up" horiz-adv-x="229" 
 />
    <glyph glyph-name="nbspace.up" horiz-adv-x="229" 
 />
    <glyph glyph-name="hyphen.up" horiz-adv-x="313" 
d="M41 223v91h231v-91h-231z" />
    <glyph glyph-name="guillemotleft.up" horiz-adv-x="449" 
d="M314 88l-95 163v8l95 161h100l-97 -165l97 -167h-100zM129 88l-94 163v8l94 161h101l-97 -165l97 -167h-101z" />
    <glyph glyph-name="guillemotright.up" horiz-adv-x="449" 
d="M219 88l97 165l-97 167h101l94 -163v-8l-94 -161h-101zM35 88l97 165l-97 167h100l95 -163v-8l-95 -161h-100z" />
    <glyph glyph-name="endash.up" horiz-adv-x="464" 
d="M42 224v90h380v-90h-380z" />
    <glyph glyph-name="emdash.up" horiz-adv-x="730" 
d="M42 224v90h647v-90h-647z" />
    <glyph glyph-name="guilsinglleft.up" horiz-adv-x="265" 
d="M129 88l-94 163v8l94 161h101l-97 -165l97 -167h-101z" />
    <glyph glyph-name="guilsinglright.up" horiz-adv-x="265" 
d="M35 88l97 165l-97 167h100l95 -163v-8l-95 -161h-100z" />
    <glyph glyph-name="Amacron" unicode="&#x100;" horiz-adv-x="659" 
d="M213 779v76h226v-76h-226zM29 0l291 687h12l298 -687h-110l-39 96h-311l-39 -96h-102zM206 185h237l-85 212c-17 40 -34 101 -34 101s-16 -61 -33 -101z" />
    <glyph glyph-name="amacron" unicode="&#x101;" horiz-adv-x="479" 
d="M132 527v76h226v-76h-226zM318 250c0 67 -30 95 -84 95c-55 0 -87 -24 -110 -50l-58 59c37 44 87 75 176 75c101 0 177 -57 177 -181v-248h-101l3 60c-30 -45 -70 -69 -132 -69c-83 0 -151 39 -151 133c0 87 70 125 165 126h115zM318 180h-108c-44 0 -73 -16 -73 -53
c0 -36 28 -55 80 -55c59 0 101 29 101 75v33z" />
    <glyph glyph-name="Aogonek" unicode="&#x104;" horiz-adv-x="659" 
d="M623 16l-47 -79c-21 -35 -30 -49 -30 -76c0 -24 15 -37 35 -37c24 0 37 15 47 31l53 -31c-19 -36 -50 -60 -106 -60c-52 0 -99 31 -99 95c0 37 18 69 40 97l34 44h-30l-39 96h-311l-39 -96h-102l291 687h12zM206 185h237l-85 212c-17 40 -34 101 -34 101
s-16 -61 -33 -101z" />
    <glyph glyph-name="aogonek" unicode="&#x105;" horiz-adv-x="479" 
d="M419 23l-52 -86c-21 -35 -30 -49 -30 -76c0 -24 15 -37 35 -37c24 0 37 15 47 31l53 -31c-19 -36 -50 -60 -106 -60c-52 0 -99 31 -99 95c0 37 18 69 40 97l34 44h-23l3 60c-30 -45 -70 -69 -132 -69c-83 0 -151 39 -151 133c0 87 70 125 165 126h115c0 67 -30 95 -84 95
c-55 0 -87 -24 -110 -50l-58 59c37 44 87 75 176 75c101 0 177 -57 177 -181v-225zM318 180h-108c-44 0 -73 -16 -73 -53c0 -36 28 -55 80 -55c59 0 101 29 101 75v33z" />
    <glyph glyph-name="Ccaron" unicode="&#x10c;" horiz-adv-x="721" 
d="M387 737l-143 204h83l65 -83l66 83h83l-143 -204h-11zM400 -9c-193 0 -349 146 -349 349s156 348 349 348c122 0 212 -45 272 -135l-81 -58c-38 59 -102 98 -191 98c-141 0 -241 -108 -241 -253s100 -254 241 -254c94 0 157 42 201 107l81 -57
c-59 -90 -155 -145 -282 -145z" />
    <glyph glyph-name="ccaron" unicode="&#x10d;" horiz-adv-x="472" 
d="M251 485l-143 204h83l65 -83l66 83h83l-143 -204h-11zM267 -9c-128 0 -224 93 -224 219c0 125 96 219 224 219c79 0 130 -30 170 -80l-72 -58c-20 29 -55 49 -98 49c-75 0 -120 -55 -120 -130s45 -130 120 -130c50 0 80 21 103 47l69 -60c-41 -47 -91 -76 -172 -76z" />
    <glyph glyph-name="Cacute" unicode="&#x106;" horiz-adv-x="721" 
d="M346 751l60 190h116l-98 -190h-78zM400 -9c-193 0 -349 146 -349 349s156 348 349 348c122 0 212 -45 272 -135l-81 -58c-38 59 -102 98 -191 98c-141 0 -241 -108 -241 -253s100 -254 241 -254c94 0 157 42 201 107l81 -57c-59 -90 -155 -145 -282 -145z" />
    <glyph glyph-name="cacute" unicode="&#x107;" horiz-adv-x="472" 
d="M215 499l60 190h116l-98 -190h-78zM267 -9c-128 0 -224 93 -224 219c0 125 96 219 224 219c79 0 130 -30 170 -80l-72 -58c-20 29 -55 49 -98 49c-75 0 -120 -55 -120 -130s45 -130 120 -130c50 0 80 21 103 47l69 -60c-41 -47 -91 -76 -172 -76z" />
    <glyph glyph-name="Zacute" unicode="&#x179;" horiz-adv-x="586" 
d="M267 751l60 190h116l-98 -190h-78zM33 0v11l344 576h-289v93h454v-11l-342 -576h335v-93h-502z" />
    <glyph glyph-name="zacute" unicode="&#x17a;" horiz-adv-x="429" 
d="M181 499l60 190h116l-98 -190h-78zM28 0v11l216 327h-192v82h347v-11l-217 -327h206v-82h-360z" />
    <glyph glyph-name="Dcaron" unicode="&#x10e;" horiz-adv-x="682" 
d="M297 737l-143 204h83l65 -83l66 83h83l-143 -204h-11zM82 0v680h187c218 0 363 -136 363 -340s-144 -340 -363 -340h-187zM188 93h74c177 0 260 102 260 247s-83 247 -260 247h-74v-494z" />
    <glyph glyph-name="dcaron" unicode="&#x10f;" horiz-adv-x="666" 
d="M549 452l36 109c-20 8 -38 31 -38 60c0 38 31 66 65 66c36 0 67 -28 67 -65c0 -22 -8 -40 -21 -63l-58 -107h-51zM241 -9c-109 0 -197 93 -197 220s88 218 195 218c74 0 118 -34 146 -82v375h102v-722h-102l3 76c-26 -51 -77 -85 -147 -85zM267 80c74 0 122 52 122 131
c0 76 -48 128 -122 128c-73 0 -119 -52 -119 -128c0 -79 46 -131 119 -131z" />
    <glyph glyph-name="Emacron" unicode="&#x112;" horiz-adv-x="587" 
d="M192 779v76h226v-76h-226zM82 0v680h432v-93h-326v-264h289v-91h-289v-139h340v-93h-446z" />
    <glyph glyph-name="emacron" unicode="&#x113;" horiz-adv-x="527" 
d="M152 527v76h226v-76h-226zM146 176c12 -61 56 -100 133 -100c55 0 95 22 119 45l59 -62c-39 -39 -93 -68 -177 -68c-144 0 -237 93 -237 219c0 125 98 219 224 219c143 0 224 -106 217 -253h-338zM146 246h236c-9 57 -44 99 -114 99c-65 0 -110 -36 -122 -99z" />
    <glyph glyph-name="Edotaccent" unicode="&#x116;" horiz-adv-x="587" 
d="M306 763c-31 0 -61 27 -61 61s30 61 61 61c32 0 61 -27 61 -61s-29 -61 -61 -61zM82 0v680h432v-93h-326v-264h289v-91h-289v-139h340v-93h-446z" />
    <glyph glyph-name="edotaccent" unicode="&#x117;" horiz-adv-x="527" 
d="M268 511c-31 0 -61 27 -61 61s30 61 61 61c32 0 61 -27 61 -61s-29 -61 -61 -61zM146 176c12 -61 56 -100 133 -100c55 0 95 22 119 45l59 -62c-39 -39 -93 -68 -177 -68c-144 0 -237 93 -237 219c0 125 98 219 224 219c143 0 224 -106 217 -253h-338zM146 246h236
c-9 57 -44 99 -114 99c-65 0 -110 -36 -122 -99z" />
    <glyph glyph-name="Ecaron" unicode="&#x11a;" horiz-adv-x="587" 
d="M298 737l-143 204h83l65 -83l66 83h83l-143 -204h-11zM82 0v680h432v-93h-326v-264h289v-91h-289v-139h340v-93h-446z" />
    <glyph glyph-name="ecaron" unicode="&#x11b;" horiz-adv-x="527" 
d="M260 485l-143 204h83l65 -83l66 83h83l-143 -204h-11zM146 176c12 -61 56 -100 133 -100c55 0 95 22 119 45l59 -62c-39 -39 -93 -68 -177 -68c-144 0 -237 93 -237 219c0 125 98 219 224 219c143 0 224 -106 217 -253h-338zM146 246h236c-9 57 -44 99 -114 99
c-65 0 -110 -36 -122 -99z" />
    <glyph glyph-name="Eogonek" unicode="&#x118;" horiz-adv-x="587" 
d="M399 0h-317v680h432v-93h-326v-264h289v-91h-289v-139h340v-93h-65l-38 -63c-21 -35 -30 -49 -30 -76c0 -24 15 -37 35 -37c24 0 37 15 47 31l53 -31c-19 -36 -50 -60 -106 -60c-52 0 -99 31 -99 95c0 37 18 69 40 97z" />
    <glyph glyph-name="eogonek" unicode="&#x119;" horiz-adv-x="527" 
d="M302 -8l-33 -55c-21 -35 -30 -49 -30 -76c0 -24 15 -37 35 -37c24 0 37 15 47 31l53 -31c-19 -36 -50 -60 -106 -60c-52 0 -99 31 -99 95c0 37 18 69 40 97l29 38c-120 16 -195 103 -195 216c0 125 98 219 224 219c143 0 224 -106 217 -253h-338c12 -61 56 -100 133 -100
c55 0 95 22 119 45l59 -62c-35 -35 -83 -63 -155 -67zM146 246h236c-9 57 -44 99 -114 99c-65 0 -110 -36 -122 -99z" />
    <glyph glyph-name="gcommaaccent" unicode="&#x123;" horiz-adv-x="481" 
d="M300 720l-32 -98c20 -8 36 -30 36 -58c0 -36 -30 -63 -63 -63s-64 27 -64 63c0 22 7 40 19 60l52 96h52zM301 420h157v-74h-72c16 -19 24 -42 24 -68c0 -89 -68 -153 -170 -153c-34 0 -63 6 -87 19c-14 -8 -22 -21 -22 -36c0 -22 16 -34 49 -36l105 -7
c117 -7 179 -52 179 -135c0 -90 -75 -152 -228 -152c-142 0 -220 55 -220 138c0 51 36 83 89 100c-37 17 -55 44 -55 82c0 36 21 64 57 80c-26 26 -41 61 -41 100c0 88 71 151 174 151c23 0 43 -3 61 -9zM238 200c52 0 82 31 82 78c0 45 -30 75 -82 75s-81 -30 -81 -75
c0 -47 29 -78 81 -78zM149 -15c-22 -13 -34 -32 -34 -58c0 -45 36 -72 121 -72c86 0 124 27 124 69c0 35 -21 48 -94 53z" />
    <glyph glyph-name="Iogonek" unicode="&#x12e;" horiz-adv-x="276" 
d="M112 0h-26v680h105v-655l-53 -88c-21 -35 -30 -49 -30 -76c0 -24 15 -37 35 -37c24 0 37 15 47 31l53 -31c-19 -36 -50 -60 -106 -60c-52 0 -99 31 -99 95c0 37 18 69 40 97z" />
    <glyph glyph-name="iogonek" unicode="&#x12f;" horiz-adv-x="236" 
d="M118 516c-36 0 -67 27 -67 67c0 38 31 66 67 66s67 -28 67 -66c0 -40 -31 -67 -67 -67zM67 0v420h102v-400l-50 -83c-21 -35 -30 -49 -30 -76c0 -24 15 -37 35 -37c24 0 37 15 47 31l53 -31c-19 -36 -50 -60 -106 -60c-52 0 -99 31 -99 95c0 37 18 69 40 97l34 44h-26z
" />
    <glyph glyph-name="Imacron" unicode="&#x12a;" horiz-adv-x="276" 
d="M24 779v76h226v-76h-226zM86 0v680h105v-680h-105z" />
    <glyph glyph-name="imacron" unicode="&#x12b;" horiz-adv-x="236" 
d="M5 527v76h226v-76h-226zM67 0v420h102v-420h-102z" />
    <glyph glyph-name="Kcommaaccent" unicode="&#x136;" horiz-adv-x="627" 
d="M180 300c15 31 35 69 52 92l220 288h120l-241 -318l268 -362h-128l-210 284l-73 -89v-195h-106v680h106v-280c0 -31 -4 -72 -8 -100zM258 -269l32 98c-20 8 -36 30 -36 58c0 36 30 63 63 63s64 -27 64 -63c0 -22 -7 -40 -19 -60l-52 -96h-52z" />
    <glyph glyph-name="Lcommaaccent" unicode="&#x13b;" horiz-adv-x="544" 
d="M82 0v680h106v-587h314v-93h-420zM229 -269l32 98c-20 8 -36 30 -36 58c0 36 30 63 63 63s64 -27 64 -63c0 -22 -7 -40 -19 -60l-52 -96h-52z" />
    <glyph glyph-name="lcommaaccent" unicode="&#x13c;" horiz-adv-x="237" 
d="M68 0v722h101v-722h-101zM60 -269l32 98c-20 8 -36 30 -36 58c0 36 30 63 63 63s64 -27 64 -63c0 -22 -7 -40 -19 -60l-52 -96h-52z" />
    <glyph glyph-name="Lcaron" unicode="&#x13d;" horiz-adv-x="544" 
d="M316 452l36 109c-20 8 -38 31 -38 60c0 38 31 66 65 66c36 0 67 -28 67 -65c0 -22 -8 -40 -21 -63l-58 -107h-51zM82 0v680h106v-587h314v-93h-420z" />
    <glyph glyph-name="lcaron" unicode="&#x13e;" horiz-adv-x="349" 
d="M233 452l36 109c-20 8 -38 31 -38 60c0 38 31 66 65 66c36 0 67 -28 67 -65c0 -22 -8 -40 -21 -63l-58 -107h-51zM68 0v722h101v-722h-101z" />
    <glyph glyph-name="Lacute" unicode="&#x139;" horiz-adv-x="544" 
d="M94 751l60 190h116l-98 -190h-78zM82 0v680h106v-587h314v-93h-420z" />
    <glyph glyph-name="lacute" unicode="&#x13a;" horiz-adv-x="237" 
d="M76 771l60 190h116l-98 -190h-78zM68 0v722h101v-722h-101z" />
    <glyph glyph-name="Ncommaaccent" unicode="&#x145;" horiz-adv-x="707" 
d="M612 -7l-375 404c-27 29 -64 76 -64 76s7 -56 7 -98v-375h-98v687h14l375 -403c26 -28 63 -76 63 -76s-7 60 -7 98v374h98v-687h-13zM299 -269l32 98c-20 8 -36 30 -36 58c0 36 30 63 63 63s64 -27 64 -63c0 -22 -7 -40 -19 -60l-52 -96h-52z" />
    <glyph glyph-name="ncommaaccent" unicode="&#x146;" horiz-adv-x="523" 
d="M64 0v420h101l-2 -78c26 55 79 87 142 87c93 0 157 -66 157 -180v-249h-101v241c0 60 -28 95 -87 95c-66 0 -109 -40 -109 -108v-228h-101zM202 -269l32 98c-20 8 -36 30 -36 58c0 36 30 63 63 63s64 -27 64 -63c0 -22 -7 -40 -19 -60l-52 -96h-52z" />
    <glyph glyph-name="Nacute" unicode="&#x143;" horiz-adv-x="707" 
d="M310 751l60 190h116l-98 -190h-78zM612 -7l-375 404c-27 29 -64 76 -64 76s7 -56 7 -98v-375h-98v687h14l375 -403c26 -28 63 -76 63 -76s-7 60 -7 98v374h98v-687h-13z" />
    <glyph glyph-name="Abreve" unicode="&#x102;" horiz-adv-x="659" 
d="M323 746c-86 0 -137 55 -146 128l79 12c7 -36 25 -64 67 -64s60 28 67 64l79 -12c-9 -73 -60 -128 -146 -128zM29 0l291 687h12l298 -687h-110l-39 96h-311l-39 -96h-102zM206 185h237l-85 212c-17 40 -34 101 -34 101s-16 -61 -33 -101z" />
    <glyph glyph-name="abreve" unicode="&#x103;" horiz-adv-x="479" 
d="M243 494c-86 0 -137 55 -146 128l79 12c7 -36 25 -64 67 -64s60 28 67 64l79 -12c-9 -73 -60 -128 -146 -128zM318 250c0 67 -30 95 -84 95c-55 0 -87 -24 -110 -50l-58 59c37 44 87 75 176 75c101 0 177 -57 177 -181v-248h-101l3 60c-30 -45 -70 -69 -132 -69
c-83 0 -151 39 -151 133c0 87 70 125 165 126h115zM318 180h-108c-44 0 -73 -16 -73 -53c0 -36 28 -55 80 -55c59 0 101 29 101 75v33z" />
    <glyph glyph-name="nacute" unicode="&#x144;" horiz-adv-x="523" 
d="M222 499l60 190h116l-98 -190h-78zM64 0v420h101l-2 -78c26 55 79 87 142 87c93 0 157 -66 157 -180v-249h-101v241c0 60 -28 95 -87 95c-66 0 -109 -40 -109 -108v-228h-101z" />
    <glyph glyph-name="Ncaron" unicode="&#x147;" horiz-adv-x="707" 
d="M348 737l-143 204h83l65 -83l66 83h83l-143 -204h-11zM612 -7l-375 404c-27 29 -64 76 -64 76s7 -56 7 -98v-375h-98v687h14l375 -403c26 -28 63 -76 63 -76s-7 60 -7 98v374h98v-687h-13z" />
    <glyph glyph-name="ncaron" unicode="&#x148;" horiz-adv-x="523" 
d="M257 485l-143 204h83l65 -83l66 83h83l-143 -204h-11zM64 0v420h101l-2 -78c26 55 79 87 142 87c93 0 157 -66 157 -180v-249h-101v241c0 60 -28 95 -87 95c-66 0 -109 -40 -109 -108v-228h-101z" />
    <glyph glyph-name="Ohungarumlaut" unicode="&#x150;" horiz-adv-x="804" 
d="M447 751l59 190h107l-89 -190h-77zM285 751l60 190h107l-89 -190h-78zM402 -9c-195 0 -351 146 -351 349s156 349 351 349c194 0 350 -146 350 -349s-156 -349 -350 -349zM402 86c142 0 242 109 242 254s-100 254 -242 254s-243 -109 -243 -254s101 -254 243 -254z" />
    <glyph glyph-name="ohungarumlaut" unicode="&#x151;" horiz-adv-x="539" 
d="M314 499l59 190h107l-89 -190h-77zM152 499l60 190h107l-89 -190h-78zM270 -9c-127 0 -227 94 -227 219s100 219 227 219c128 0 226 -94 226 -219s-98 -219 -226 -219zM270 78c75 0 122 55 122 132s-47 131 -122 131s-123 -54 -123 -131s48 -132 123 -132z" />
    <glyph glyph-name="Omacron" unicode="&#x14c;" horiz-adv-x="804" 
d="M289 779v76h226v-76h-226zM402 -9c-195 0 -351 146 -351 349s156 349 351 349c194 0 350 -146 350 -349s-156 -349 -350 -349zM402 86c142 0 242 109 242 254s-100 254 -242 254s-243 -109 -243 -254s101 -254 243 -254z" />
    <glyph glyph-name="omacron" unicode="&#x14d;" horiz-adv-x="539" 
d="M156 527v76h226v-76h-226zM270 -9c-127 0 -227 94 -227 219s100 219 227 219c128 0 226 -94 226 -219s-98 -219 -226 -219zM270 78c75 0 122 55 122 132s-47 131 -122 131s-123 -54 -123 -131s48 -132 123 -132z" />
    <glyph glyph-name="Racute" unicode="&#x154;" horiz-adv-x="605" 
d="M246 751l60 190h116l-98 -190h-78zM409 210l144 -210h-122l-122 179c-19 -2 -38 -4 -57 -4h-64v-175h-106v680h170c188 0 293 -98 293 -254c0 -105 -47 -177 -136 -216zM188 266h60c135 0 189 59 189 160c0 102 -56 161 -189 161h-60v-321z" />
    <glyph glyph-name="racute" unicode="&#x155;" horiz-adv-x="374" 
d="M164 499l60 190h116l-98 -190h-78zM64 0v420h101l-1 -79c28 66 76 87 122 87c30 0 51 -7 69 -18l-34 -91c-16 8 -32 14 -55 14c-60 0 -101 -35 -101 -129v-204h-101z" />
    <glyph glyph-name="Rcaron" unicode="&#x158;" horiz-adv-x="605" 
d="M281 737l-143 204h83l65 -83l66 83h83l-143 -204h-11zM409 210l144 -210h-122l-122 179c-19 -2 -38 -4 -57 -4h-64v-175h-106v680h170c188 0 293 -98 293 -254c0 -105 -47 -177 -136 -216zM188 266h60c135 0 189 59 189 160c0 102 -56 161 -189 161h-60v-321z" />
    <glyph glyph-name="rcaron" unicode="&#x159;" horiz-adv-x="374" 
d="M200 485l-143 204h83l65 -83l66 83h83l-143 -204h-11zM64 0v420h101l-1 -79c28 66 76 87 122 87c30 0 51 -7 69 -18l-34 -91c-16 8 -32 14 -55 14c-60 0 -101 -35 -101 -129v-204h-101z" />
    <glyph glyph-name="Rcommaaccent" unicode="&#x156;" horiz-adv-x="605" 
d="M409 210l144 -210h-122l-122 179c-19 -2 -38 -4 -57 -4h-64v-175h-106v680h170c188 0 293 -98 293 -254c0 -105 -47 -177 -136 -216zM238 -269l32 98c-20 8 -36 30 -36 58c0 36 30 63 63 63s64 -27 64 -63c0 -22 -7 -40 -19 -60l-52 -96h-52zM188 266h60
c135 0 189 59 189 160c0 102 -56 161 -189 161h-60v-321z" />
    <glyph glyph-name="rcommaaccent" unicode="&#x157;" horiz-adv-x="374" 
d="M64 0v420h101l-1 -79c28 66 76 87 122 87c30 0 51 -7 69 -18l-34 -91c-16 8 -32 14 -55 14c-60 0 -101 -35 -101 -129v-204h-101zM55 -269l32 98c-20 8 -36 30 -36 58c0 36 30 63 63 63s64 -27 64 -63c0 -22 -7 -40 -19 -60l-52 -96h-52z" />
    <glyph glyph-name="Sacute" unicode="&#x15a;" horiz-adv-x="533" 
d="M220 751l60 190h116l-98 -190h-78zM266 -9c-129 0 -207 64 -245 141l87 48c32 -53 73 -95 156 -95c69 0 118 37 118 93c0 59 -40 85 -114 118l-45 20c-99 44 -159 94 -159 199c0 101 78 173 191 173c90 0 151 -34 192 -107l-83 -51c-26 45 -56 66 -109 66
c-54 0 -88 -33 -88 -79c0 -51 29 -74 98 -104l44 -20c116 -51 178 -105 178 -214c0 -119 -93 -188 -221 -188z" />
    <glyph glyph-name="sacute" unicode="&#x15b;" horiz-adv-x="415" 
d="M161 499l60 190h116l-98 -190h-78zM214 -9c-96 0 -160 42 -188 87l69 48c26 -37 65 -54 113 -54c51 0 74 17 74 45c0 34 -31 39 -102 59c-62 17 -124 46 -124 129c0 84 67 124 150 124c67 0 114 -28 146 -63l-59 -58c-20 23 -49 41 -87 41s-59 -14 -59 -39
c0 -32 26 -39 92 -56s138 -43 138 -132c0 -72 -44 -131 -163 -131z" />
    <glyph glyph-name="Tcaron" unicode="&#x164;" horiz-adv-x="573" 
d="M282 737l-143 204h83l65 -83l66 83h83l-143 -204h-11zM234 0v587h-202v93h509v-93h-202v-587h-105z" />
    <glyph glyph-name="tcaron" unicode="&#x165;" horiz-adv-x="446" 
d="M330 452l36 109c-20 8 -38 31 -38 60c0 38 31 66 65 66c36 0 67 -28 67 -65c0 -22 -8 -40 -21 -63l-58 -107h-51zM229 -10c-79 0 -133 40 -133 152v193h-63v85h63v219h101v-219h112v-85h-112v-195c0 -48 16 -62 42 -62c24 0 39 11 50 20l48 -68c-21 -20 -54 -40 -108 -40
z" />
    <glyph glyph-name="Umacron" unicode="&#x16a;" horiz-adv-x="674" 
d="M224 779v76h226v-76h-226zM337 -9c-148 0 -259 83 -259 248v441h106v-435c0 -110 54 -159 153 -159s154 49 154 159v435h105v-441c0 -165 -112 -248 -259 -248z" />
    <glyph glyph-name="umacron" unicode="&#x16b;" horiz-adv-x="521" 
d="M146 527v76h226v-76h-226zM216 -9c-92 0 -156 65 -156 179v250h101v-242c0 -60 28 -95 87 -95c66 0 107 41 107 109v228h101v-420h-101l2 77c-26 -54 -77 -86 -141 -86z" />
    <glyph glyph-name="Uring" unicode="&#x16e;" horiz-adv-x="674" 
d="M337 731c-66 0 -117 50 -117 109c0 61 51 110 117 110s117 -49 117 -110c0 -59 -51 -109 -117 -109zM337 -9c-148 0 -259 83 -259 248v441h106v-435c0 -110 54 -159 153 -159s154 49 154 159v435h105v-441c0 -165 -112 -248 -259 -248zM337 790c28 0 48 19 48 50
c0 32 -20 51 -48 51s-48 -19 -48 -51c0 -31 20 -50 48 -50z" />
    <glyph glyph-name="uring" unicode="&#x16f;" horiz-adv-x="521" 
d="M259 479c-66 0 -117 50 -117 109c0 61 51 110 117 110s117 -49 117 -110c0 -59 -51 -109 -117 -109zM216 -9c-92 0 -156 65 -156 179v250h101v-242c0 -60 28 -95 87 -95c66 0 107 41 107 109v228h101v-420h-101l2 77c-26 -54 -77 -86 -141 -86zM259 538c28 0 48 19 48 50
c0 32 -20 51 -48 51s-48 -19 -48 -51c0 -31 20 -50 48 -50z" />
    <glyph glyph-name="Uhungarumlaut" unicode="&#x170;" horiz-adv-x="674" 
d="M379 751l59 190h107l-89 -190h-77zM217 751l60 190h107l-89 -190h-78zM337 -9c-148 0 -259 83 -259 248v441h106v-435c0 -110 54 -159 153 -159s154 49 154 159v435h105v-441c0 -165 -112 -248 -259 -248z" />
    <glyph glyph-name="uhungarumlaut" unicode="&#x171;" horiz-adv-x="521" 
d="M304 499l59 190h107l-89 -190h-77zM142 499l60 190h107l-89 -190h-78zM216 -9c-92 0 -156 65 -156 179v250h101v-242c0 -60 28 -95 87 -95c66 0 107 41 107 109v228h101v-420h-101l2 77c-26 -54 -77 -86 -141 -86z" />
    <glyph glyph-name="Uogonek" unicode="&#x172;" horiz-adv-x="674" 
d="M312 -8c-136 9 -234 92 -234 247v441h106v-435c0 -110 54 -159 153 -159s154 49 154 159v435h105v-441c0 -149 -92 -231 -218 -246l-34 -56c-21 -35 -30 -49 -30 -76c0 -24 15 -37 35 -37c24 0 37 15 47 31l53 -31c-19 -36 -50 -60 -106 -60c-52 0 -99 31 -99 95
c0 37 18 69 40 97z" />
    <glyph glyph-name="uogonek" unicode="&#x173;" horiz-adv-x="521" 
d="M378 0h-23l2 77c-26 -54 -77 -86 -141 -86c-92 0 -156 65 -156 179v250h101v-242c0 -60 28 -95 87 -95c66 0 107 41 107 109v228h101v-397l-52 -86c-21 -35 -30 -49 -30 -76c0 -24 15 -37 35 -37c24 0 37 15 47 31l53 -31c-19 -36 -50 -60 -106 -60c-52 0 -99 31 -99 95
c0 37 18 69 40 97z" />
    <glyph glyph-name="kcommaaccent" unicode="&#x137;" horiz-adv-x="478" 
d="M165 124v-124h-101v722h101v-417c0 -26 -3 -52 -5 -74l168 189h115l-155 -175l176 -245h-119l-127 179zM188 -269l32 98c-20 8 -36 30 -36 58c0 36 30 63 63 63s64 -27 64 -63c0 -22 -7 -40 -19 -60l-52 -96h-52z" />
    <glyph glyph-name="Zdotaccent" unicode="&#x17b;" horiz-adv-x="586" 
d="M310 763c-31 0 -61 27 -61 61s30 61 61 61c32 0 61 -27 61 -61s-29 -61 -61 -61zM33 0v11l344 576h-289v93h454v-11l-342 -576h335v-93h-502z" />
    <glyph glyph-name="zdotaccent" unicode="&#x17c;" horiz-adv-x="429" 
d="M224 511c-31 0 -61 27 -61 61s30 61 61 61c32 0 61 -27 61 -61s-29 -61 -61 -61zM28 0v11l216 327h-192v82h347v-11l-217 -327h206v-82h-360z" />
    <glyph glyph-name="Gcommaaccent" unicode="&#x122;" horiz-adv-x="741" 
d="M413 -9c-212 0 -362 146 -362 349s147 348 349 348c104 0 186 -29 241 -91l-71 -71c-39 41 -89 67 -170 67c-142 0 -241 -108 -241 -253s100 -254 254 -254c70 0 130 18 168 44v120h-183v93h280v-265c-44 -40 -138 -87 -265 -87zM330 -269l32 98c-20 8 -36 30 -36 58
c0 36 30 63 63 63s64 -27 64 -63c0 -22 -7 -40 -19 -60l-52 -96h-52z" />
    <glyph glyph-name="Idotaccent" unicode="&#x130;" horiz-adv-x="276" 
d="M137 763c-31 0 -61 27 -61 61s30 61 61 61c32 0 61 -27 61 -61s-29 -61 -61 -61zM86 0v680h105v-680h-105z" />
    <glyph glyph-name="Gbreve" unicode="&#x11e;" horiz-adv-x="741" 
d="M385 746c-86 0 -137 55 -146 128l79 12c7 -36 25 -64 67 -64s60 28 67 64l79 -12c-9 -73 -60 -128 -146 -128zM413 -9c-212 0 -362 146 -362 349s147 348 349 348c104 0 186 -29 241 -91l-71 -71c-39 41 -89 67 -170 67c-142 0 -241 -108 -241 -253s100 -254 254 -254
c70 0 130 18 168 44v120h-183v93h280v-265c-44 -40 -138 -87 -265 -87z" />
    <glyph glyph-name="gbreve" unicode="&#x11f;" horiz-adv-x="481" 
d="M253 494c-86 0 -137 55 -146 128l79 12c7 -36 25 -64 67 -64s60 28 67 64l79 -12c-9 -73 -60 -128 -146 -128zM301 420h157v-74h-72c16 -19 24 -42 24 -68c0 -89 -68 -153 -170 -153c-34 0 -63 6 -87 19c-14 -8 -22 -21 -22 -36c0 -22 16 -34 49 -36l105 -7
c117 -7 179 -52 179 -135c0 -90 -75 -152 -228 -152c-142 0 -220 55 -220 138c0 51 36 83 89 100c-37 17 -55 44 -55 82c0 36 21 64 57 80c-26 26 -41 61 -41 100c0 88 71 151 174 151c23 0 43 -3 61 -9zM238 200c52 0 82 31 82 78c0 45 -30 75 -82 75s-81 -30 -81 -75
c0 -47 29 -78 81 -78zM149 -15c-22 -13 -34 -32 -34 -58c0 -45 36 -72 121 -72c86 0 124 27 124 69c0 35 -21 48 -94 53z" />
    <glyph glyph-name="Dcroat" unicode="&#x110;" horiz-adv-x="682" 
d="M82 0v240h-69v91h69v349h191c215 0 359 -139 359 -340s-143 -340 -359 -340h-191zM188 93h79c173 0 255 102 255 247s-82 247 -255 247h-79v-256h167v-91h-167v-147z" />
    <glyph glyph-name="dcroat" unicode="&#x111;" horiz-adv-x="551" 
d="M385 508h-133v85h133v129h102v-129h70v-85h-70v-508h-102l3 76c-26 -51 -78 -85 -148 -85c-109 0 -196 93 -196 220s87 218 194 218c74 0 119 -34 147 -82v161zM267 80c74 0 122 52 122 131c0 76 -48 128 -122 128c-73 0 -119 -52 -119 -128c0 -79 46 -131 119 -131z" />
    <glyph glyph-name="scommaaccent" unicode="&#x219;" horiz-adv-x="415" 
d="M214 -9c-96 0 -160 42 -188 87l69 48c26 -37 65 -54 113 -54c51 0 74 17 74 45c0 34 -31 39 -102 59c-62 17 -124 46 -124 129c0 84 67 124 150 124c67 0 114 -28 146 -63l-59 -58c-20 23 -49 41 -87 41s-59 -14 -59 -39c0 -32 26 -39 92 -56s138 -43 138 -132
c0 -72 -44 -131 -163 -131zM149 -269l32 98c-20 8 -36 30 -36 58c0 36 30 63 63 63s64 -27 64 -63c0 -22 -7 -40 -19 -60l-52 -96h-52z" />
    <glyph glyph-name="Scommaaccent" unicode="&#x218;" horiz-adv-x="533" 
d="M266 -9c-129 0 -207 64 -245 141l87 48c32 -53 73 -95 156 -95c69 0 118 37 118 93c0 59 -40 85 -114 118l-45 20c-99 44 -159 94 -159 199c0 101 78 173 191 173c90 0 151 -34 192 -107l-83 -51c-26 45 -56 66 -109 66c-54 0 -88 -33 -88 -79c0 -51 29 -74 98 -104
l44 -20c116 -51 178 -105 178 -214c0 -119 -93 -188 -221 -188zM206 -269l32 98c-20 8 -36 30 -36 58c0 36 30 63 63 63s64 -27 64 -63c0 -22 -7 -40 -19 -60l-52 -96h-52z" />
    <glyph glyph-name="tcommaaccent" unicode="&#x163;" horiz-adv-x="358" 
d="M229 -10c-79 0 -133 40 -133 152v193h-63v85h63v219h101v-219h112v-85h-112v-195c0 -48 16 -62 42 -62c24 0 39 11 50 20l48 -68c-21 -20 -54 -40 -108 -40zM133 -269l32 98c-20 8 -36 30 -36 58c0 36 30 63 63 63s64 -27 64 -63c0 -22 -7 -40 -19 -60l-52 -96h-52z" />
    <glyph glyph-name="tcommaaccent" unicode="&#x21b;" horiz-adv-x="358" 
d="M229 -10c-79 0 -133 40 -133 152v193h-63v85h63v219h101v-219h112v-85h-112v-195c0 -48 16 -62 42 -62c24 0 39 11 50 20l48 -68c-21 -20 -54 -40 -108 -40zM133 -269l32 98c-20 8 -36 30 -36 58c0 36 30 63 63 63s64 -27 64 -63c0 -22 -7 -40 -19 -60l-52 -96h-52z" />
    <glyph glyph-name="Tcommaaccent" unicode="&#x162;" horiz-adv-x="573" 
d="M234 0v587h-202v93h509v-93h-202v-587h-105zM228 -269l32 98c-20 8 -36 30 -36 58c0 36 30 63 63 63s64 -27 64 -63c0 -22 -7 -40 -19 -60l-52 -96h-52z" />
    <glyph glyph-name="Tcommaaccent" unicode="&#x21a;" horiz-adv-x="573" 
d="M234 0v587h-202v93h509v-93h-202v-587h-105zM228 -269l32 98c-20 8 -36 30 -36 58c0 36 30 63 63 63s64 -27 64 -63c0 -22 -7 -40 -19 -60l-52 -96h-52z" />
    <glyph glyph-name="amacron.alt" horiz-adv-x="546" 
d="M162 527v76h226v-76h-226zM237 -9c-107 0 -193 93 -193 220c0 126 84 218 194 218c71 0 118 -34 144 -86l-1 77h101v-420h-101l1 78c-24 -50 -75 -87 -145 -87zM264 80c74 0 119 53 119 130c0 76 -45 129 -119 129c-72 0 -115 -52 -115 -128c0 -78 43 -131 115 -131z" />
    <glyph glyph-name="aogonek.alt" horiz-adv-x="546" 
d="M381 0l1 78c-24 -50 -75 -87 -145 -87c-107 0 -193 93 -193 220c0 126 84 218 194 218c71 0 118 -34 144 -86l-1 77h101v-397l-52 -86c-21 -35 -30 -49 -30 -76c0 -24 15 -37 35 -37c24 0 37 15 47 31l53 -31c-19 -36 -50 -60 -106 -60c-52 0 -99 31 -99 95
c0 37 18 69 40 97l34 44h-23zM264 80c74 0 119 53 119 130c0 76 -45 129 -119 129c-72 0 -115 -52 -115 -128c0 -78 43 -131 115 -131z" />
    <glyph glyph-name="gcommaaccent.alt" horiz-adv-x="552" 
d="M325 720l-32 -98c20 -8 36 -30 36 -58c0 -36 -30 -63 -63 -63s-64 27 -64 63c0 22 7 40 19 60l52 96h52zM269 -222c-108 0 -181 47 -219 110l73 54c33 -48 74 -79 141 -79c76 0 122 42 122 136v73c-25 -47 -75 -81 -145 -81c-109 0 -197 93 -197 220s88 218 195 218
c74 0 123 -36 150 -87l-3 78h101v-426c0 -154 -95 -216 -218 -216zM267 80c74 0 122 52 122 131c0 76 -48 128 -122 128c-73 0 -119 -52 -119 -128c0 -79 46 -131 119 -131z" />
    <glyph glyph-name="abreve.alt" horiz-adv-x="546" 
d="M277 494c-86 0 -137 55 -146 128l79 12c7 -36 25 -64 67 -64s60 28 67 64l79 -12c-9 -73 -60 -128 -146 -128zM237 -9c-107 0 -193 93 -193 220c0 126 84 218 194 218c71 0 118 -34 144 -86l-1 77h101v-420h-101l1 78c-24 -50 -75 -87 -145 -87zM264 80
c74 0 119 53 119 130c0 76 -45 129 -119 129c-72 0 -115 -52 -115 -128c0 -78 43 -131 115 -131z" />
    <glyph glyph-name="umacron.alt" horiz-adv-x="512" 
d="M143 527v76h226v-76h-226zM251 -10c-123 0 -191 74 -191 197v233h101v-230c0 -72 27 -111 94 -111s94 39 94 111v230h101v-233c0 -123 -74 -197 -199 -197z" />
    <glyph glyph-name="uring.alt" horiz-adv-x="512" 
d="M256 479c-66 0 -117 50 -117 109c0 61 51 110 117 110s117 -49 117 -110c0 -59 -51 -109 -117 -109zM251 -10c-123 0 -191 74 -191 197v233h101v-230c0 -72 27 -111 94 -111s94 39 94 111v230h101v-233c0 -123 -74 -197 -199 -197zM256 538c28 0 48 19 48 50
c0 32 -20 51 -48 51s-48 -19 -48 -51c0 -31 20 -50 48 -50z" />
    <glyph glyph-name="uhungarumlaut.alt" horiz-adv-x="512" 
d="M297 499l59 190h107l-89 -190h-77zM135 499l60 190h107l-89 -190h-78zM251 -10c-123 0 -191 74 -191 197v233h101v-230c0 -72 27 -111 94 -111s94 39 94 111v230h101v-233c0 -123 -74 -197 -199 -197z" />
    <glyph glyph-name="uogonek.alt" horiz-adv-x="512" 
d="M235 -10c-113 7 -175 80 -175 197v233h101v-230c0 -72 27 -111 94 -111s94 39 94 111v230h101v-233c0 -105 -54 -174 -147 -192l-35 -58c-21 -35 -30 -49 -30 -76c0 -24 15 -37 35 -37c24 0 37 15 47 31l53 -31c-19 -36 -50 -60 -106 -60c-52 0 -99 31 -99 95
c0 37 18 69 40 97z" />
    <glyph glyph-name="Gcommaaccent.alt" horiz-adv-x="772" 
d="M399 -9c-201 0 -352 147 -352 349s156 348 350 348c118 0 215 -43 276 -139l-82 -59c-42 66 -106 103 -194 103c-142 0 -242 -108 -242 -253s101 -255 243 -255c130 0 207 76 223 164h-207v92h319c4 -210 -118 -350 -334 -350zM332 -269l32 98c-20 8 -36 30 -36 58
c0 36 30 63 63 63s64 -27 64 -63c0 -22 -7 -40 -19 -60l-52 -96h-52z" />
    <glyph glyph-name="Gbreve.alt" horiz-adv-x="772" 
d="M386 746c-86 0 -137 55 -146 128l79 12c7 -36 25 -64 67 -64s60 28 67 64l79 -12c-9 -73 -60 -128 -146 -128zM399 -9c-201 0 -352 147 -352 349s156 348 350 348c118 0 215 -43 276 -139l-82 -59c-42 66 -106 103 -194 103c-142 0 -242 -108 -242 -253
s101 -255 243 -255c130 0 207 76 223 164h-207v92h319c4 -210 -118 -350 -334 -350z" />
    <glyph glyph-name="gbreve.alt" horiz-adv-x="552" 
d="M281 494c-86 0 -137 55 -146 128l79 12c7 -36 25 -64 67 -64s60 28 67 64l79 -12c-9 -73 -60 -128 -146 -128zM269 -222c-108 0 -181 47 -219 110l73 54c33 -48 74 -79 141 -79c76 0 122 42 122 136v73c-25 -47 -75 -81 -145 -81c-109 0 -197 93 -197 220s88 218 195 218
c74 0 123 -36 150 -87l-3 78h101v-426c0 -154 -95 -216 -218 -216zM267 80c74 0 122 52 122 131c0 76 -48 128 -122 128c-73 0 -119 -52 -119 -128c0 -79 46 -131 119 -131z" />
    <glyph glyph-name="Ccircumflex" unicode="&#x108;" horiz-adv-x="721" 
d="M239 750l143 204h11l143 -204h-83l-65 83l-66 -83h-83zM400 -9c-193 0 -349 146 -349 349s156 348 349 348c122 0 212 -45 272 -135l-81 -58c-38 59 -102 98 -191 98c-141 0 -241 -108 -241 -253s100 -254 241 -254c94 0 157 42 201 107l81 -57
c-59 -90 -155 -145 -282 -145z" />
    <glyph glyph-name="ccircumflex" unicode="&#x109;" horiz-adv-x="472" 
d="M108 498l143 204h11l143 -204h-83l-65 83l-66 -83h-83zM267 -9c-128 0 -224 93 -224 219c0 125 96 219 224 219c79 0 130 -30 170 -80l-72 -58c-20 29 -55 49 -98 49c-75 0 -120 -55 -120 -130s45 -130 120 -130c50 0 80 21 103 47l69 -60c-41 -47 -91 -76 -172 -76z" />
    <glyph glyph-name="Gcircumflex" unicode="&#x11c;" horiz-adv-x="741" 
d="M238 750l143 204h11l143 -204h-83l-65 83l-66 -83h-83zM413 -9c-212 0 -362 146 -362 349s147 348 349 348c104 0 186 -29 241 -91l-71 -71c-39 41 -89 67 -170 67c-142 0 -241 -108 -241 -253s100 -254 254 -254c70 0 130 18 168 44v120h-183v93h280v-265
c-44 -40 -138 -87 -265 -87z" />
    <glyph glyph-name="gcircumflex" unicode="&#x11d;" horiz-adv-x="481" 
d="M104 498l143 204h11l143 -204h-83l-65 83l-66 -83h-83zM301 420h157v-74h-72c16 -19 24 -42 24 -68c0 -89 -68 -153 -170 -153c-34 0 -63 6 -87 19c-14 -8 -22 -21 -22 -36c0 -22 16 -34 49 -36l105 -7c117 -7 179 -52 179 -135c0 -90 -75 -152 -228 -152
c-142 0 -220 55 -220 138c0 51 36 83 89 100c-37 17 -55 44 -55 82c0 36 21 64 57 80c-26 26 -41 61 -41 100c0 88 71 151 174 151c23 0 43 -3 61 -9zM238 200c52 0 82 31 82 78c0 45 -30 75 -82 75s-81 -30 -81 -75c0 -47 29 -78 81 -78zM149 -15c-22 -13 -34 -32 -34 -58
c0 -45 36 -72 121 -72c86 0 124 27 124 69c0 35 -21 48 -94 53z" />
    <glyph glyph-name="Hcircumflex" unicode="&#x124;" horiz-adv-x="703" 
d="M202 750l143 204h11l143 -204h-83l-65 83l-66 -83h-83zM82 0v680h106v-366h327v366h106v-680h-106v220h-327v-220h-106z" />
    <glyph glyph-name="hcircumflex" unicode="&#x125;" horiz-adv-x="523" 
d="M105 762l143 204h11l143 -204h-83l-65 83l-66 -83h-83zM64 0v722h101v-376c27 52 77 83 140 83c93 0 157 -66 157 -180v-249h-101v241c0 60 -28 95 -87 95c-66 0 -109 -40 -109 -108v-228h-101z" />
    <glyph glyph-name="Jcircumflex" unicode="&#x134;" horiz-adv-x="489" 
d="M205 750l143 204h11l143 -204h-83l-65 83l-66 -83h-83zM216 -9c-101 0 -161 52 -193 115l86 53c24 -43 52 -73 102 -73c57 0 94 27 94 106v488h106v-490c0 -135 -81 -199 -195 -199z" />
    <glyph glyph-name="jcircumflex" unicode="&#x135;" horiz-adv-x="235" 
d="M-30 498l143 204h10l143 -204h-82l-65 84l-66 -84h-83zM38 -222c-48 0 -84 23 -103 46l51 64c12 -11 25 -19 42 -19c25 0 39 10 39 45v506h102v-503c0 -90 -49 -139 -131 -139z" />
    <glyph glyph-name="Scircumflex" unicode="&#x15c;" horiz-adv-x="533" 
d="M110 750l143 204h11l143 -204h-83l-65 83l-66 -83h-83zM266 -9c-129 0 -207 64 -245 141l87 48c32 -53 73 -95 156 -95c69 0 118 37 118 93c0 59 -40 85 -114 118l-45 20c-99 44 -159 94 -159 199c0 101 78 173 191 173c90 0 151 -34 192 -107l-83 -51
c-26 45 -56 66 -109 66c-54 0 -88 -33 -88 -79c0 -51 29 -74 98 -104l44 -20c116 -51 178 -105 178 -214c0 -119 -93 -188 -221 -188z" />
    <glyph glyph-name="scircumflex" unicode="&#x15d;" horiz-adv-x="415" 
d="M58 498l143 204h11l143 -204h-83l-65 83l-66 -83h-83zM214 -9c-96 0 -160 42 -188 87l69 48c26 -37 65 -54 113 -54c51 0 74 17 74 45c0 34 -31 39 -102 59c-62 17 -124 46 -124 129c0 84 67 124 150 124c67 0 114 -28 146 -63l-59 -58c-20 23 -49 41 -87 41
s-59 -14 -59 -39c0 -32 26 -39 92 -56s138 -43 138 -132c0 -72 -44 -131 -163 -131z" />
    <glyph glyph-name="Ubreve" unicode="&#x16c;" horiz-adv-x="674" 
d="M337 746c-86 0 -137 55 -146 128l79 12c7 -36 25 -64 67 -64s60 28 67 64l79 -12c-9 -73 -60 -128 -146 -128zM337 -9c-148 0 -259 83 -259 248v441h106v-435c0 -110 54 -159 153 -159s154 49 154 159v435h105v-441c0 -165 -112 -248 -259 -248z" />
    <glyph glyph-name="ubreve" unicode="&#x16d;" horiz-adv-x="521" 
d="M261 494c-86 0 -137 55 -146 128l79 12c7 -36 25 -64 67 -64s60 28 67 64l79 -12c-9 -73 -60 -128 -146 -128zM216 -9c-92 0 -156 65 -156 179v250h101v-242c0 -60 28 -95 87 -95c66 0 107 41 107 109v228h101v-420h-101l2 77c-26 -54 -77 -86 -141 -86z" />
    <glyph glyph-name="Gcircumflex.alt" horiz-adv-x="772" 
d="M244 750l143 204h11l143 -204h-83l-65 83l-66 -83h-83zM399 -9c-201 0 -352 147 -352 349s156 348 350 348c118 0 215 -43 276 -139l-82 -59c-42 66 -106 103 -194 103c-142 0 -242 -108 -242 -253s101 -255 243 -255c130 0 207 76 223 164h-207v92h319
c4 -210 -118 -350 -334 -350z" />
    <glyph glyph-name="gcircumflex.alt" horiz-adv-x="552" 
d="M132 498l143 204h11l143 -204h-83l-65 83l-66 -83h-83zM272 -222c-108 0 -181 47 -219 110l73 54c33 -48 74 -79 141 -79c76 0 122 42 122 136v73c-25 -47 -75 -81 -145 -81c-109 0 -197 93 -197 220s88 218 195 218c74 0 123 -36 150 -87l-3 78h101v-426
c0 -154 -95 -216 -218 -216zM270 80c74 0 122 52 122 131c0 76 -48 128 -122 128c-73 0 -119 -52 -119 -128c0 -79 46 -131 119 -131z" />
    <glyph glyph-name="ubreve.alt" horiz-adv-x="512" 
d="M256 494c-86 0 -137 55 -146 128l79 12c7 -36 25 -64 67 -64s60 28 67 64l79 -12c-9 -73 -60 -128 -146 -128zM251 -10c-123 0 -191 74 -191 197v233h101v-230c0 -72 27 -111 94 -111s94 39 94 111v230h101v-233c0 -123 -74 -197 -199 -197z" />
    <glyph glyph-name="Amacronsmall" horiz-adv-x="526" 
d="M150 607v76h226v-76h-226zM151 58l-24 -58h-100l230 519h11l231 -519h-106l-24 58h-218zM337 135l-47 114c-17 42 -29 91 -29 91s-12 -49 -30 -91l-48 -114h154z" />
    <glyph glyph-name="Aogoneksmall" horiz-adv-x="526" 
d="M491 18l-48 -81c-21 -35 -30 -49 -30 -76c0 -24 15 -37 35 -37c24 0 37 15 47 31l53 -31c-19 -36 -50 -60 -106 -60c-52 0 -99 31 -99 95c0 37 18 69 40 97l34 44h-24l-24 58h-218l-24 -58h-100l230 519h11zM337 135l-47 114c-17 42 -29 91 -29 91s-12 -49 -30 -91
l-48 -114h154z" />
    <glyph glyph-name="Ccaronsmall" horiz-adv-x="577" 
d="M297 565l-143 204h83l65 -83l66 83h83l-143 -204h-11zM311 -9c-157 0 -265 113 -265 265c0 153 111 265 264 265c100 0 167 -38 213 -108l-80 -54c-28 42 -68 72 -133 72c-96 0 -160 -75 -160 -175c0 -99 64 -174 161 -174c70 0 115 35 145 79l82 -53
c-47 -75 -119 -117 -227 -117z" />
    <glyph glyph-name="Cacutesmall" horiz-adv-x="577" 
d="M267 579l60 190h116l-98 -190h-78zM311 -9c-157 0 -265 113 -265 265c0 153 111 265 264 265c100 0 167 -38 213 -108l-80 -54c-28 42 -68 72 -133 72c-96 0 -160 -75 -160 -175c0 -99 64 -174 161 -174c70 0 115 35 145 79l82 -53c-47 -75 -119 -117 -227 -117z" />
    <glyph glyph-name="Zacutesmall" horiz-adv-x="480" 
d="M214 579l60 190h116l-98 -190h-78zM37 0v10l244 415h-205v88h364v-10l-245 -415h234v-88h-392z" />
    <glyph glyph-name="Dcaronsmall" horiz-adv-x="545" 
d="M248 565l-143 204h83l65 -83l66 83h83l-143 -204h-11zM66 0v513h162c158 0 270 -101 270 -257c0 -154 -111 -256 -270 -256h-162zM168 89h54c118 0 171 66 171 167c0 100 -53 168 -171 168h-54v-335z" />
    <glyph glyph-name="Emacronsmall" horiz-adv-x="467" 
d="M126 607v76h226v-76h-226zM66 0v513h344v-89h-242v-157h207v-86h-207v-92h252v-89h-354z" />
    <glyph glyph-name="Edotaccentsmall" horiz-adv-x="467" 
d="M245 591c-31 0 -61 27 -61 61s30 61 61 61c32 0 61 -27 61 -61s-29 -61 -61 -61zM66 0v513h344v-89h-242v-157h207v-86h-207v-92h252v-89h-354z" />
    <glyph glyph-name="Ecaronsmall" horiz-adv-x="467" 
d="M240 565l-143 204h83l65 -83l66 83h83l-143 -204h-11zM66 0v513h344v-89h-242v-157h207v-86h-207v-92h252v-89h-354z" />
    <glyph glyph-name="Eogoneksmall" horiz-adv-x="467" 
d="M300 0h-234v513h344v-89h-242v-157h207v-86h-207v-92h252v-89h-56l-38 -63c-21 -35 -30 -49 -30 -76c0 -24 15 -37 35 -37c24 0 37 15 47 31l53 -31c-19 -36 -50 -60 -106 -60c-52 0 -99 31 -99 95c0 37 18 69 40 97z" />
    <glyph glyph-name="Gcommaaccentsmall" horiz-adv-x="578" 
d="M323 -9c-167 0 -277 112 -277 265c0 157 118 265 267 265c94 0 151 -32 191 -74l-66 -68c-25 29 -63 52 -125 52c-100 0 -163 -77 -163 -175s56 -178 173 -178c47 0 84 13 108 28v78h-122v83h215v-217c-34 -26 -104 -59 -201 -59zM239 -269l32 98c-20 8 -36 30 -36 58
c0 36 30 63 63 63s64 -27 64 -63c0 -22 -7 -40 -19 -60l-52 -96h-52z" />
    <glyph glyph-name="Iogoneksmall" horiz-adv-x="239" 
d="M91 0h-23v513h103v-486l-54 -90c-21 -35 -30 -49 -30 -76c0 -24 15 -37 35 -37c24 0 37 15 47 31l53 -31c-19 -36 -50 -60 -106 -60c-52 0 -99 31 -99 95c0 37 18 69 40 97z" />
    <glyph glyph-name="Imacronsmall" horiz-adv-x="239" 
d="M6 607v76h226v-76h-226zM68 0v513h103v-513h-103z" />
    <glyph glyph-name="Lcommaaccentsmall" horiz-adv-x="441" 
d="M66 0v513h102v-424h233v-89h-335zM172 -269l32 98c-20 8 -36 30 -36 58c0 36 30 63 63 63s64 -27 64 -63c0 -22 -7 -40 -19 -60l-52 -96h-52z" />
    <glyph glyph-name="Lcaronsmall" horiz-adv-x="441" 
d="M275 286l36 109c-20 8 -38 31 -38 60c0 38 31 66 65 66c36 0 67 -28 67 -65c0 -22 -8 -40 -21 -63l-58 -107h-51zM66 0v513h102v-424h233v-89h-335z" />
    <glyph glyph-name="Lacutesmall" horiz-adv-x="441" 
d="M84 579l60 190h116l-98 -190h-78zM66 0v513h102v-424h233v-89h-335z" />
    <glyph glyph-name="Ncommaaccentsmall" horiz-adv-x="553" 
d="M477 -7l-262 255c-31 30 -64 74 -64 74s8 -55 8 -97v-225h-93v519h10l260 -253c36 -35 64 -74 64 -74s-6 52 -6 97v224h93v-520h-10zM226 -269l32 98c-20 8 -36 30 -36 58c0 36 30 63 63 63s64 -27 64 -63c0 -22 -7 -40 -19 -60l-52 -96h-52z" />
    <glyph glyph-name="Abrevesmall" horiz-adv-x="526" 
d="M262 574c-86 0 -137 55 -146 128l79 12c7 -36 25 -64 67 -64s60 28 67 64l79 -12c-9 -73 -60 -128 -146 -128zM151 58l-24 -58h-100l230 519h11l231 -519h-106l-24 58h-218zM337 135l-47 114c-17 42 -29 91 -29 91s-12 -49 -30 -91l-48 -114h154z" />
    <glyph glyph-name="Nacutesmall" horiz-adv-x="553" 
d="M235 579l60 190h116l-98 -190h-78zM477 -7l-262 255c-31 30 -64 74 -64 74s8 -55 8 -97v-225h-93v519h10l260 -253c36 -35 64 -74 64 -74s-6 52 -6 97v224h93v-520h-10z" />
    <glyph glyph-name="Ncaronsmall" horiz-adv-x="553" 
d="M268 565l-143 204h83l65 -83l66 83h83l-143 -204h-11zM477 -7l-262 255c-31 30 -64 74 -64 74s8 -55 8 -97v-225h-93v519h10l260 -253c36 -35 64 -74 64 -74s-6 52 -6 97v224h93v-520h-10z" />
    <glyph glyph-name="Ohungarumlautsmall" horiz-adv-x="638" 
d="M362 579l59 190h107l-89 -190h-77zM200 579l60 190h107l-89 -190h-78zM319 -9c-148 0 -273 110 -273 265c0 157 125 265 273 265c149 0 273 -108 273 -265c0 -155 -124 -265 -273 -265zM319 82c99 0 168 72 168 174c0 101 -69 175 -168 175s-168 -74 -168 -175
c0 -102 69 -174 168 -174z" />
    <glyph glyph-name="Omacronsmall" horiz-adv-x="638" 
d="M206 607v76h226v-76h-226zM319 -9c-148 0 -273 110 -273 265c0 157 125 265 273 265c149 0 273 -108 273 -265c0 -155 -124 -265 -273 -265zM319 82c99 0 168 72 168 174c0 101 -69 175 -168 175s-168 -74 -168 -175c0 -102 69 -174 168 -174z" />
    <glyph glyph-name="Racutesmall" horiz-adv-x="497" 
d="M195 579l60 190h116l-98 -190h-78zM350 159l103 -159h-115l-83 130c-11 -1 -22 -2 -34 -2h-53v-128h-102v513h155c137 0 225 -69 225 -194c0 -77 -36 -132 -96 -160zM168 215h50c88 0 124 38 124 104c0 67 -36 105 -124 105h-50v-209z" />
    <glyph glyph-name="Rcaronsmall" horiz-adv-x="497" 
d="M235 565l-143 204h83l65 -83l66 83h83l-143 -204h-11zM350 159l103 -159h-115l-83 130c-11 -1 -22 -2 -34 -2h-53v-128h-102v513h155c137 0 225 -69 225 -194c0 -77 -36 -132 -96 -160zM168 215h50c88 0 124 38 124 104c0 67 -36 105 -124 105h-50v-209z" />
    <glyph glyph-name="Rcommaaccentsmall" horiz-adv-x="497" 
d="M350 159l103 -159h-115l-83 130c-11 -1 -22 -2 -34 -2h-53v-128h-102v513h155c137 0 225 -69 225 -194c0 -77 -36 -132 -96 -160zM190 -269l32 98c-20 8 -36 30 -36 58c0 36 30 63 63 63s64 -27 64 -63c0 -22 -7 -40 -19 -60l-52 -96h-52zM168 215h50
c88 0 124 38 124 104c0 67 -36 105 -124 105h-50v-209z" />
    <glyph glyph-name="Sacutesmall" horiz-adv-x="442" 
d="M177 579l60 190h116l-98 -190h-78zM222 -9c-99 0 -170 51 -202 116l83 45c22 -42 57 -74 118 -74c47 0 82 22 82 58s-24 53 -82 78l-31 14c-78 32 -130 72 -130 155c0 84 66 138 156 138c68 0 118 -23 157 -80l-74 -51c-21 30 -46 47 -81 47c-36 0 -60 -19 -60 -52
c0 -34 23 -49 63 -67l32 -14c90 -37 151 -78 151 -167c0 -91 -71 -146 -182 -146z" />
    <glyph glyph-name="Tcaronsmall" horiz-adv-x="480" 
d="M235 565l-143 204h83l65 -83l66 83h83l-143 -204h-11zM189 0v424h-153v89h408v-89h-153v-424h-102z" />
    <glyph glyph-name="Umacronsmall" horiz-adv-x="538" 
d="M156 607v76h226v-76h-226zM270 -9c-123 0 -208 69 -208 201v321h102v-318c0 -77 37 -113 105 -113c67 0 104 36 104 113v318h102v-321c0 -132 -86 -201 -205 -201z" />
    <glyph glyph-name="Uringsmall" horiz-adv-x="538" 
d="M269 559c-66 0 -117 50 -117 109c0 61 51 110 117 110s117 -49 117 -110c0 -59 -51 -109 -117 -109zM270 -9c-123 0 -208 69 -208 201v321h102v-318c0 -77 37 -113 105 -113c67 0 104 36 104 113v318h102v-321c0 -132 -86 -201 -205 -201zM269 618c28 0 48 19 48 50
c0 32 -20 51 -48 51s-48 -19 -48 -51c0 -31 20 -50 48 -50z" />
    <glyph glyph-name="Uhungarumlautsmall" horiz-adv-x="538" 
d="M307 579l59 190h107l-89 -190h-77zM145 579l60 190h107l-89 -190h-78zM270 -9c-123 0 -208 69 -208 201v321h102v-318c0 -77 37 -113 105 -113c67 0 104 36 104 113v318h102v-321c0 -132 -86 -201 -205 -201z" />
    <glyph glyph-name="Uogoneksmall" horiz-adv-x="538" 
d="M245 -8c-109 9 -183 77 -183 200v321h102v-318c0 -77 37 -113 105 -113c67 0 104 36 104 113v318h102v-321c0 -116 -67 -183 -164 -198l-34 -57c-21 -35 -30 -49 -30 -76c0 -24 15 -37 35 -37c24 0 37 15 47 31l53 -31c-19 -36 -50 -60 -106 -60c-52 0 -99 31 -99 95
c0 37 18 69 40 97z" />
    <glyph glyph-name="Kcommaaccentsmall" horiz-adv-x="524" 
d="M159 225c15 27 41 75 63 105l139 183h115l-180 -233l206 -280h-123l-153 208l-58 -68v-140h-102v513h102v-175c0 -37 -6 -87 -9 -113zM206 -269l32 98c-20 8 -36 30 -36 58c0 36 30 63 63 63s64 -27 64 -63c0 -22 -7 -40 -19 -60l-52 -96h-52z" />
    <glyph glyph-name="Zdotaccentsmall" horiz-adv-x="480" 
d="M252 591c-31 0 -61 27 -61 61s30 61 61 61c32 0 61 -27 61 -61s-29 -61 -61 -61zM37 0v10l244 415h-205v88h364v-10l-245 -415h234v-88h-392z" />
    <glyph glyph-name="Idotaccentsmall" horiz-adv-x="239" 
d="M119 591c-31 0 -61 27 -61 61s30 61 61 61c32 0 61 -27 61 -61s-29 -61 -61 -61zM68 0v513h103v-513h-103z" />
    <glyph glyph-name="Gbrevesmall" horiz-adv-x="578" 
d="M302 574c-86 0 -137 55 -146 128l79 12c7 -36 25 -64 67 -64s60 28 67 64l79 -12c-9 -73 -60 -128 -146 -128zM323 -9c-167 0 -277 112 -277 265c0 157 118 265 267 265c94 0 151 -32 191 -74l-66 -68c-25 29 -63 52 -125 52c-100 0 -163 -77 -163 -175s56 -178 173 -178
c47 0 84 13 108 28v78h-122v83h215v-217c-34 -26 -104 -59 -201 -59z" />
    <glyph glyph-name="Dcroatsmall" horiz-adv-x="545" 
d="M66 0v181h-46v86h46v246h164c157 0 268 -101 268 -257c0 -154 -110 -256 -268 -256h-164zM168 89h56c116 0 169 66 169 167c0 100 -53 168 -169 168h-56v-157h116v-86h-116v-92z" />
    <glyph glyph-name="Scommaaccentsmall" horiz-adv-x="442" 
d="M222 -9c-99 0 -170 51 -202 116l83 45c22 -42 57 -74 118 -74c47 0 82 22 82 58s-24 53 -82 78l-31 14c-78 32 -130 72 -130 155c0 84 66 138 156 138c68 0 118 -23 157 -80l-74 -51c-21 30 -46 47 -81 47c-36 0 -60 -19 -60 -52c0 -34 23 -49 63 -67l32 -14
c90 -37 151 -78 151 -167c0 -91 -71 -146 -182 -146zM161 -269l32 98c-20 8 -36 30 -36 58c0 36 30 63 63 63s64 -27 64 -63c0 -22 -7 -40 -19 -60l-52 -96h-52z" />
    <glyph glyph-name="Tcommaaccentsmall" horiz-adv-x="480" 
d="M189 0v424h-153v89h408v-89h-153v-424h-102zM181 -269l32 98c-20 8 -36 30 -36 58c0 36 30 63 63 63s64 -27 64 -63c0 -22 -7 -40 -19 -60l-52 -96h-52z" />
    <glyph glyph-name="Gcommaaccentsmall.alt" horiz-adv-x="613" 
d="M318 -9c-147 0 -270 109 -270 265c0 155 121 265 270 265c95 0 166 -35 214 -105l-80 -55c-29 45 -72 70 -135 70c-96 0 -165 -75 -165 -175s68 -176 166 -176c81 0 137 46 152 106h-136v83h239c9 -163 -89 -278 -255 -278zM252 -269l32 98c-20 8 -36 30 -36 58
c0 36 30 63 63 63s64 -27 64 -63c0 -22 -7 -40 -19 -60l-52 -96h-52z" />
    <glyph glyph-name="Gbrevesmall.alt" horiz-adv-x="613" 
d="M308 574c-86 0 -137 55 -146 128l79 12c7 -36 25 -64 67 -64s60 28 67 64l79 -12c-9 -73 -60 -128 -146 -128zM318 -9c-147 0 -270 109 -270 265c0 155 121 265 270 265c95 0 166 -35 214 -105l-80 -55c-29 45 -72 70 -135 70c-96 0 -165 -75 -165 -175s68 -176 166 -176
c81 0 137 46 152 106h-136v83h239c9 -163 -89 -278 -255 -278z" />
    <glyph glyph-name="Ccircumflexsmall" horiz-adv-x="577" 
d="M157 578l143 204h11l143 -204h-83l-65 83l-66 -83h-83zM311 -9c-157 0 -265 113 -265 265c0 153 111 265 264 265c100 0 167 -38 213 -108l-80 -54c-28 42 -68 72 -133 72c-96 0 -160 -75 -160 -175c0 -99 64 -174 161 -174c70 0 115 35 145 79l82 -53
c-47 -75 -119 -117 -227 -117z" />
    <glyph glyph-name="Gcircumflexsmall" horiz-adv-x="578" 
d="M153 578l143 204h11l143 -204h-83l-65 83l-66 -83h-83zM323 -9c-167 0 -277 112 -277 265c0 157 118 265 267 265c94 0 151 -32 191 -74l-66 -68c-25 29 -63 52 -125 52c-100 0 -163 -77 -163 -175s56 -178 173 -178c47 0 84 13 108 28v78h-122v83h215v-217
c-34 -26 -104 -59 -201 -59z" />
    <glyph glyph-name="Hcircumflexsmall" horiz-adv-x="559" 
d="M130 578l143 204h11l143 -204h-83l-65 83l-66 -83h-83zM66 0v513h102v-258h223v258h102v-513h-102v164h-223v-164h-102z" />
    <glyph glyph-name="Jcircumflexsmall" horiz-adv-x="406" 
d="M139 578l143 204h11l143 -204h-83l-65 83l-66 -83h-83zM181 -9c-85 0 -134 45 -159 99l82 47c19 -34 37 -56 74 -56c39 0 62 21 62 72v360h102v-364c0 -110 -69 -158 -161 -158z" />
    <glyph glyph-name="Scircumflexsmall" horiz-adv-x="442" 
d="M68 578l143 204h11l143 -204h-83l-65 83l-66 -83h-83zM222 -9c-99 0 -170 51 -202 116l83 45c22 -42 57 -74 118 -74c47 0 82 22 82 58s-24 53 -82 78l-31 14c-78 32 -130 72 -130 155c0 84 66 138 156 138c68 0 118 -23 157 -80l-74 -51c-21 30 -46 47 -81 47
c-36 0 -60 -19 -60 -52c0 -34 23 -49 63 -67l32 -14c90 -37 151 -78 151 -167c0 -91 -71 -146 -182 -146z" />
    <glyph glyph-name="Ubrevesmall" horiz-adv-x="538" 
d="M269 574c-86 0 -137 55 -146 128l79 12c7 -36 25 -64 67 -64s60 28 67 64l79 -12c-9 -73 -60 -128 -146 -128zM270 -9c-123 0 -208 69 -208 201v321h102v-318c0 -77 37 -113 105 -113c67 0 104 36 104 113v318h102v-321c0 -132 -86 -201 -205 -201z" />
    <glyph glyph-name="Gcircumflexsmall.alt" horiz-adv-x="613" 
d="M161 578l143 204h11l143 -204h-83l-65 83l-66 -83h-83zM318 -9c-147 0 -270 109 -270 265c0 155 121 265 270 265c95 0 166 -35 214 -105l-80 -55c-29 45 -72 70 -135 70c-96 0 -165 -75 -165 -175s68 -176 166 -176c81 0 137 46 152 106h-136v83h239
c9 -163 -89 -278 -255 -278z" />
    <glyph glyph-name="zero.numerator" horiz-adv-x="556" 
d="M278 210c-131 0 -242 102 -242 239s111 239 242 239c130 0 242 -102 242 -239s-111 -239 -242 -239zM278 294c84 0 143 66 143 155c0 90 -59 155 -143 155s-143 -65 -143 -155c0 -89 59 -155 143 -155z" />
    <glyph glyph-name="one.numerator" horiz-adv-x="279" 
d="M117 218v377h-94v85h189v-462h-95z" />
    <glyph glyph-name="two.numerator" horiz-adv-x="414" 
d="M16 218v11l200 201c42 42 58 74 58 110s-25 62 -68 62s-72 -25 -90 -72l-86 29c28 80 88 129 177 129c100 0 163 -61 163 -147c0 -52 -28 -103 -76 -152l-48 -49c-19 -20 -59 -44 -59 -44s44 4 68 4h114v-82h-353z" />
    <glyph glyph-name="three.numerator" horiz-adv-x="407" 
d="M193 210c-92 0 -152 42 -181 107l83 39c17 -35 46 -60 97 -60c52 0 85 32 85 81c0 51 -32 82 -89 82c-29 0 -47 -5 -61 -10l-6 9l77 105c11 15 38 40 38 40s-34 -4 -56 -4h-122v81h312v-8l-86 -117c-15 -20 -37 -34 -37 -34c73 -10 128 -65 128 -148
c0 -105 -83 -163 -182 -163z" />
    <glyph glyph-name="four.numerator" horiz-adv-x="439" 
d="M265 218v68h-239v66l322 335h10v-328h56v-73h-56v-68h-93zM128 355c0 0 37 3 63 3h75v88c0 33 3 65 3 65s-16 -27 -41 -54l-52 -56c-21 -23 -48 -46 -48 -46z" />
    <glyph glyph-name="five.numerator" horiz-adv-x="415" 
d="M198 210c-88 0 -151 38 -185 104l79 42c18 -36 49 -59 100 -59c53 0 89 30 89 76c0 51 -39 79 -97 79c-52 0 -84 -14 -114 -35l-9 5v258h277v-82h-195v-84c18 8 40 13 66 13c101 0 170 -57 170 -155c0 -97 -69 -162 -181 -162z" />
    <glyph glyph-name="six.numerator" horiz-adv-x="430" 
d="M217 210c-107 0 -183 74 -183 162c0 44 17 84 49 127l128 181h106l-72 -101c-23 -34 -63 -61 -63 -61c15 8 35 14 52 14c96 0 167 -64 167 -156c0 -90 -72 -166 -184 -166zM218 290c56 0 88 40 88 85c0 46 -32 86 -88 86s-89 -40 -89 -86c0 -45 33 -85 89 -85z" />
    <glyph glyph-name="seven.numerator" horiz-adv-x="409" 
d="M69 218l187 377h-225v85h357v-10l-221 -452h-98z" />
    <glyph glyph-name="eight.numerator" horiz-adv-x="424" 
d="M130 485c-33 17 -57 46 -57 89c0 64 65 113 139 113c75 0 139 -49 139 -113c0 -43 -23 -72 -57 -89c56 -20 98 -60 98 -122c0 -87 -72 -152 -180 -152c-107 0 -180 65 -180 152c0 62 42 102 98 122zM212 516c34 0 55 21 55 49s-21 48 -55 48c-33 0 -54 -20 -54 -48
s21 -49 54 -49zM212 294c50 0 83 30 83 75s-33 75 -83 75s-83 -30 -83 -75s32 -75 83 -75z" />
    <glyph glyph-name="nine.numerator" horiz-adv-x="429" 
d="M110 218l76 103c25 33 61 60 61 60c-15 -9 -34 -15 -51 -15c-97 0 -167 65 -167 156c0 90 72 166 183 166c108 0 183 -73 183 -162c0 -44 -16 -84 -49 -128l-131 -180h-105zM212 437c55 0 89 41 89 86s-33 86 -89 86s-89 -41 -89 -86s32 -86 89 -86z" />
    <glyph glyph-name="zero.denominator" horiz-adv-x="556" 
d="M278 -8c-131 0 -242 102 -242 239s111 239 242 239c130 0 242 -102 242 -239s-111 -239 -242 -239zM278 76c84 0 143 66 143 155c0 90 -59 155 -143 155s-143 -65 -143 -155c0 -89 59 -155 143 -155z" />
    <glyph glyph-name="one.denominator" horiz-adv-x="279" 
d="M117 0v377h-94v85h189v-462h-95z" />
    <glyph glyph-name="two.denominator" horiz-adv-x="414" 
d="M16 0v11l200 201c42 42 58 74 58 110s-25 62 -68 62s-72 -25 -90 -72l-86 29c28 80 88 129 177 129c100 0 163 -61 163 -147c0 -52 -28 -103 -76 -152l-48 -49c-19 -20 -59 -44 -59 -44s44 4 68 4h114v-82h-353z" />
    <glyph glyph-name="three.denominator" horiz-adv-x="407" 
d="M193 -8c-92 0 -152 42 -181 107l83 39c17 -35 46 -60 97 -60c52 0 85 32 85 81c0 51 -32 82 -89 82c-29 0 -47 -5 -61 -10l-6 9l77 105c11 15 38 40 38 40s-34 -4 -56 -4h-122v81h312v-8l-86 -117c-15 -20 -37 -34 -37 -34c73 -10 128 -65 128 -148
c0 -105 -83 -163 -182 -163z" />
    <glyph glyph-name="four.denominator" horiz-adv-x="439" 
d="M265 0v68h-239v66l322 335h10v-328h56v-73h-56v-68h-93zM128 137c0 0 37 3 63 3h75v88c0 33 3 65 3 65s-16 -27 -41 -54l-52 -56c-21 -23 -48 -46 -48 -46z" />
    <glyph glyph-name="five.denominator" horiz-adv-x="415" 
d="M198 -8c-88 0 -151 38 -185 104l79 42c18 -36 49 -59 100 -59c53 0 89 30 89 76c0 51 -39 79 -97 79c-52 0 -84 -14 -114 -35l-9 5v258h277v-82h-195v-84c18 8 40 13 66 13c101 0 170 -57 170 -155c0 -97 -69 -162 -181 -162z" />
    <glyph glyph-name="six.denominator" horiz-adv-x="430" 
d="M217 -8c-107 0 -183 74 -183 162c0 44 17 84 49 127l128 181h106l-72 -101c-23 -34 -63 -61 -63 -61c15 8 35 14 52 14c96 0 167 -64 167 -156c0 -90 -72 -166 -184 -166zM218 72c56 0 88 40 88 85c0 46 -32 86 -88 86s-89 -40 -89 -86c0 -45 33 -85 89 -85z" />
    <glyph glyph-name="seven.denominator" horiz-adv-x="409" 
d="M69 0l187 377h-225v85h357v-10l-221 -452h-98z" />
    <glyph glyph-name="eight.denominator" horiz-adv-x="424" 
d="M130 267c-33 17 -57 46 -57 89c0 64 65 113 139 113c75 0 139 -49 139 -113c0 -43 -23 -72 -57 -89c56 -20 98 -60 98 -122c0 -87 -72 -152 -180 -152c-107 0 -180 65 -180 152c0 62 42 102 98 122zM212 298c34 0 55 21 55 49s-21 48 -55 48c-33 0 -54 -20 -54 -48
s21 -49 54 -49zM212 76c50 0 83 30 83 75s-33 75 -83 75s-83 -30 -83 -75s32 -75 83 -75z" />
    <glyph glyph-name="nine.denominator" horiz-adv-x="429" 
d="M110 0l76 103c25 33 61 60 61 60c-15 -9 -34 -15 -51 -15c-97 0 -167 65 -167 156c0 90 72 166 183 166c108 0 183 -73 183 -162c0 -44 -16 -84 -49 -128l-131 -180h-105zM212 219c55 0 89 41 89 86s-33 86 -89 86s-89 -41 -89 -86s32 -86 89 -86z" />
    <glyph glyph-name="zero.subscript" horiz-adv-x="471" 
d="M235 -257c-111 0 -205 87 -205 203s94 204 205 204s206 -88 206 -204s-95 -203 -206 -203zM235 -185c71 0 122 55 122 131c0 77 -51 132 -122 132s-121 -55 -121 -132c0 -76 50 -131 121 -131z" />
    <glyph glyph-name="one.subscript" horiz-adv-x="235" 
d="M98 -250v320h-79v73h160v-393h-81z" />
    <glyph glyph-name="two.subscript" horiz-adv-x="351" 
d="M13 -250v9l170 171c36 36 49 63 49 94s-21 52 -58 52s-61 -21 -76 -61l-73 25c24 68 74 110 150 110c85 0 139 -52 139 -125c0 -44 -24 -88 -65 -130l-41 -41c-16 -17 -50 -38 -50 -38s38 4 58 4h97v-70h-300z" />
    <glyph glyph-name="three.subscript" horiz-adv-x="346" 
d="M164 -257c-78 0 -129 36 -154 91l71 33c14 -30 39 -51 82 -51c44 0 72 27 72 69c0 43 -27 70 -75 70c-25 0 -40 -5 -52 -9l-5 8l65 89c9 13 33 34 33 34s-29 -3 -48 -3h-104v69h266v-7l-74 -100c-13 -17 -31 -28 -31 -28c62 -9 109 -55 109 -126
c0 -89 -71 -139 -155 -139z" />
    <glyph glyph-name="four.subscript" horiz-adv-x="373" 
d="M225 -250v58h-203v56l274 285h8v-279h48v-62h-48v-58h-79zM109 -134c0 0 31 3 53 3h64v75c0 28 3 55 3 55s-14 -23 -35 -46l-44 -47c-18 -20 -41 -40 -41 -40z" />
    <glyph glyph-name="five.subscript" horiz-adv-x="352" 
d="M168 -257c-75 0 -128 33 -157 89l67 35c15 -31 42 -50 85 -50c45 0 76 26 76 65c0 43 -34 67 -83 67c-44 0 -70 -12 -96 -30l-8 4v220h235v-70h-165v-71c15 7 34 11 56 11c86 0 144 -49 144 -132c0 -82 -59 -138 -154 -138z" />
    <glyph glyph-name="six.subscript" horiz-adv-x="364" 
d="M183 -257c-91 0 -155 63 -155 138c0 37 15 71 42 108l108 154h90l-61 -86c-20 -29 -53 -52 -53 -52c13 7 30 12 44 12c82 0 142 -55 142 -133c0 -77 -62 -141 -157 -141zM184 -189c48 0 75 34 75 72c0 39 -27 74 -75 74s-75 -35 -75 -74c0 -38 27 -72 75 -72z" />
    <glyph glyph-name="seven.subscript" horiz-adv-x="347" 
d="M59 -250l159 320h-192v73h304v-9l-188 -384h-83z" />
    <glyph glyph-name="eight.subscript" horiz-adv-x="360" 
d="M111 -23c-28 14 -49 39 -49 76c0 54 55 96 118 96c64 0 118 -42 118 -96c0 -37 -19 -62 -48 -76c48 -17 83 -51 83 -104c0 -74 -61 -129 -153 -129c-91 0 -153 55 -153 129c0 53 36 87 84 104zM180 3c29 0 47 18 47 42s-18 41 -47 41c-28 0 -46 -17 -46 -41
s18 -42 46 -42zM180 -185c43 0 71 25 71 63s-28 64 -71 64s-70 -26 -70 -64s27 -63 70 -63z" />
    <glyph glyph-name="nine.subscript" horiz-adv-x="363" 
d="M93 -250l64 88c21 28 52 51 52 51c-13 -8 -29 -13 -43 -13c-82 0 -142 55 -142 132s61 142 155 142c92 0 156 -62 156 -138c0 -37 -14 -72 -42 -109l-111 -153h-89zM179 -64c47 0 76 35 76 73s-28 73 -76 73s-75 -35 -75 -73s27 -73 75 -73z" />
    <glyph glyph-name="zero.superscript" horiz-adv-x="471" 
d="M235 281c-111 0 -205 87 -205 203s94 203 205 203s206 -87 206 -203s-95 -203 -206 -203zM235 352c71 0 122 56 122 132c0 77 -51 131 -122 131s-121 -54 -121 -131c0 -76 50 -132 121 -132z" />
    <glyph glyph-name="one.superscript" horiz-adv-x="235" 
d="M98 287v321h-79v72h160v-393h-81z" />
    <glyph glyph-name="two.superscript" horiz-adv-x="351" 
d="M13 287v10l170 171c36 36 49 62 49 93s-21 53 -58 53s-61 -21 -76 -61l-73 24c24 68 74 110 150 110c85 0 139 -52 139 -125c0 -44 -24 -87 -65 -129l-41 -42c-16 -17 -50 -37 -50 -37s38 3 58 3h97v-70h-300z" />
    <glyph glyph-name="three.superscript" horiz-adv-x="346" 
d="M164 281c-78 0 -129 35 -154 90l71 34c14 -30 39 -51 82 -51c44 0 72 26 72 68c0 43 -27 70 -75 70c-25 0 -40 -4 -52 -8l-5 7l65 90c9 13 33 34 33 34s-29 -4 -48 -4h-104v69h266v-7l-74 -99c-13 -17 -31 -29 -31 -29c62 -9 109 -55 109 -126c0 -89 -71 -138 -155 -138z
" />
    <glyph glyph-name="four.superscript" horiz-adv-x="373" 
d="M225 287v58h-203v56l274 285h8v-279h48v-62h-48v-58h-79zM109 404c0 0 31 2 53 2h64v75c0 28 3 55 3 55s-14 -23 -35 -46l-44 -47c-18 -20 -41 -39 -41 -39z" />
    <glyph glyph-name="five.superscript" horiz-adv-x="352" 
d="M168 281c-75 0 -128 32 -157 88l67 36c15 -31 42 -51 85 -51c45 0 76 26 76 65c0 43 -34 67 -83 67c-44 0 -70 -12 -96 -30l-8 5v219h235v-70h-165v-71c15 7 34 11 56 11c86 0 144 -49 144 -132c0 -82 -59 -137 -154 -137z" />
    <glyph glyph-name="six.superscript" horiz-adv-x="364" 
d="M183 281c-91 0 -155 62 -155 137c0 37 15 71 42 108l108 154h90l-61 -86c-20 -29 -53 -52 -53 -52c13 7 30 12 44 12c82 0 142 -54 142 -132c0 -77 -62 -141 -157 -141zM184 349c48 0 75 34 75 72c0 39 -27 73 -75 73s-75 -34 -75 -73c0 -38 27 -72 75 -72z" />
    <glyph glyph-name="seven.superscript" horiz-adv-x="347" 
d="M59 287l159 321h-192v72h304v-8l-188 -385h-83z" />
    <glyph glyph-name="eight.superscript" horiz-adv-x="360" 
d="M111 514c-28 14 -49 39 -49 76c0 54 55 96 118 96c64 0 118 -42 118 -96c0 -37 -19 -62 -48 -76c48 -17 83 -50 83 -103c0 -74 -61 -130 -153 -130c-91 0 -153 56 -153 130c0 53 36 86 84 103zM180 541c29 0 47 17 47 41s-18 41 -47 41c-28 0 -46 -17 -46 -41
s18 -41 46 -41zM180 352c43 0 71 26 71 64s-28 63 -71 63s-70 -25 -70 -63s27 -64 70 -64z" />
    <glyph glyph-name="nine.superscript" horiz-adv-x="363" 
d="M93 287l64 88c21 28 52 51 52 51c-13 -8 -29 -13 -43 -13c-82 0 -142 56 -142 133s61 141 155 141c92 0 156 -62 156 -138c0 -37 -14 -72 -42 -109l-111 -153h-89zM179 473c47 0 76 36 76 74s-28 73 -76 73s-75 -35 -75 -73s27 -74 75 -74z" />
    <glyph glyph-name="idotaccent" horiz-adv-x="236" 
d="M118 516c-36 0 -67 27 -67 67c0 38 31 66 67 66s67 -28 67 -66c0 -40 -31 -67 -67 -67zM67 0v420h102v-420h-102z" />
    <glyph glyph-name="Eth" unicode="&#xd0;" horiz-adv-x="682" 
d="M82 0v240h-69v91h69v349h191c215 0 359 -139 359 -340s-143 -340 -359 -340h-191zM188 93h79c173 0 255 102 255 247s-82 247 -255 247h-79v-256h167v-91h-167v-147z" />
    </font>
</defs>
</svg>
