<?xml version="1.0" encoding="utf-8"?>
<!-- Generator: Adobe Illustrator 19.1.1, SVG Export Plug-In . SVG Version: 6.00 Build 0)  -->
<svg version="1.1" id="Layer_1" xmlns="http://www.w3.org/2000/svg" xmlns:xlink="http://www.w3.org/1999/xlink" x="0px" y="0px"
	 viewBox="0 0 15.2 15.8" style="enable-background:new 0 0 15.2 15.8;" xml:space="preserve">
<style type="text/css">
	.st0{fill:#FFFFFF;}
</style>
<g>
	<path class="st0" d="M15,13.5c-0.7-1.8-1.8-2.2-2.7-2.3c-0.8-0.1-1.7-0.4-2.1-0.6c0-0.2,0-0.5,0-1c0,0,0,0,0.1-0.1l0,0
		C10.7,8.9,11,8.3,11,8c0.3-0.2,0.6-0.6,0.8-1.4c0.1-0.4,0.2-1-0.1-1.4c0,0,0,0,0,0c0.3-2.8-1.5-4.3-2.6-4.7l0,0l0,0
		C8.6,0.3,8.2,0.3,7.9,0.3c-0.1,0-0.2,0-0.2,0c-0.1,0-0.2,0-0.2,0C7,0.3,6.6,0.3,6.2,0.5l0,0l0,0C5.1,0.8,3.3,2.3,3.6,5.1
		c0,0,0,0,0,0c-0.3,0.4-0.2,1-0.1,1.4C3.6,7.3,3.9,7.7,4.2,8C4.3,8.3,4.5,8.9,5,9.5l0,0l0,0c0,0,0,0.1,0.1,0.1c0,0.5,0,0.8,0,1
		c-0.3,0.2-1.3,0.5-2,0.6c-0.9,0.2-2.1,0.6-2.7,2.3c-0.1,0.3-0.1,0.6,0.1,0.9c0.7,1,4.3,1.2,7.2,1.2s6.6-0.2,7.2-1.2
		C15.1,14.1,15.1,13.8,15,13.5z M4.8,7.4c-0.1,0-0.5-0.1-0.7-1C4,5.7,4.2,5.5,4.3,5.5c0.1,0,0.1,0,0.1,0c-0.7-3.5,2-4.4,2-4.4
		C6.8,1,7.1,1,7.4,1c0.1,0,0.2,0,0.2,0c0.1,0,0.2,0,0.2,0c0.3,0,0.6,0,0.9,0.2c0,0,2.7,0.9,2,4.4c0,0,0.1,0,0.1,0
		c0.1,0,0.3,0.1,0.1,0.9c-0.2,1-0.6,1-0.7,1c0,0,0,0,0,0s0,0.9-0.9,1.9c0,0,0,0,0,0c-0.6,0.7-1.3,1-2,0.9c-0.8,0-1.5-0.6-1.8-0.9
		l0,0C4.9,8.3,4.9,7.4,4.8,7.4C4.9,7.4,4.9,7.4,4.8,7.4z M7.6,14.9c-3.5,0-7-0.4-6.7-1.1c0.6-1.5,1.5-1.8,2.2-1.9
		c0.7-0.1,2.4-0.6,2.6-1c0-0.1,0.1-0.3,0.1-0.6c0.4,0.3,1,0.6,1.7,0.7c0,0,0.1,0,0.1,0c0.6,0,1.3-0.2,1.8-0.7c0,0.3,0,0.5,0.1,0.6
		c0.2,0.4,1.9,0.8,2.6,1c0.7,0.1,1.6,0.4,2.2,1.9C14.6,14.5,11.1,14.9,7.6,14.9z"/>
</g>
</svg>
