<?xml version="1.0" encoding="utf-8"?>
<!-- Generator: Adobe Illustrator 19.1.1, SVG Export Plug-In . SVG Version: 6.00 Build 0)  -->
<svg version="1.1" id="Layer_1" xmlns="http://www.w3.org/2000/svg" xmlns:xlink="http://www.w3.org/1999/xlink" x="0px" y="0px"
	 viewBox="0 0 102 71.2" style="enable-background:new 0 0 102 71.2;" xml:space="preserve">
<style type="text/css">
	.st0{fill:#F26C63;}
	.st1{fill:#2D2E2D;}
	.st2{fill:none;stroke:#2D2E2D;stroke-width:2;stroke-linecap:round;stroke-linejoin:round;stroke-miterlimit:10;}
</style>
<g>
	<path class="st0" d="M18.7,67.2c-7.1,0-12.9-5.8-12.9-12.9c0-7.1,5.7-12.8,12.7-12.9c-0.9-0.2-1.8-0.3-2.7-0.3
		C8.2,41.2,2,47.4,2,55.1s6.2,13.9,13.9,13.9c3.4,0,6.5-1.2,8.9-3.2C22.9,66.7,20.9,67.2,18.7,67.2z"/>
	<path class="st0" d="M81.3,58.5c-5-5-5-13.2,0-18.2c5-5,13.1-5,18.1-0.1c-0.5-0.8-1.1-1.5-1.7-2.1c-5.4-5.4-14.2-5.4-19.6,0
		c-5.4,5.4-5.4,14.2,0,19.6c2.4,2.4,3.8,1.8,6.9,2C83,59.1,82.8,60,81.3,58.5z"/>
	<path class="st1" d="M58.1,42.8c0,0,0-0.1,0-0.1l0.1-2.2l5.3,1.3c0.6,0.1,1.1,0,1.3-0.6c0.1-0.6-0.3-1-0.8-1.1l-6.6-1.6
		c-0.3-0.1-0.6-0.1-0.9,0.1c-0.3,0.2-0.4,0.3-0.4,0.6l0,1.7l-22.2-5.4l-0.3-3.8l3.4,0.8c0.6,0.1,1.2-0.5,1.4-1.1
		c0.1-0.6-0.2-1.4-0.7-1.6l-8-2c-0.6-0.1-1.2,0.5-1.4,1.1c-0.1,0.6,0.1,1.4,0.7,1.6l2.4,0.6l0.2,5.3L25.8,43
		c-1.7-1.3-3.6-2.3-5.8-2.8c-8.2-2-16.5,3-18.5,11.2c-2,8.2,3,16.5,11.2,18.5c7.5,1.8,15-2.2,17.8-9.1l2.9,0.9c0,0,0.1,0,0.1,0
		c0.1,0,0.1,0,0.2,0c0,0,0.1,0,0.1,0c0.1,0,0.1,0,0.2,0c0,0,0.1,0,0.1,0c0,0,0.1,0,0.1,0c0,0,0.1,0,0.1,0c0,0,0.1,0,0.1,0L56,48
		l1.7,17.6c0,0.5,0.4,0.8,0.8,0.9c0.1,0,0.2,0,0.4,0c0.6-0.1,1-0.6,1-1.2L58,46L58.1,42.8z M13.3,67.5C6.5,65.8,2.2,58.9,3.9,52
		c1.7-6.9,8.6-11.1,15.5-9.4c1.8,0.4,3.3,1.2,4.7,2.2l-8.5,9.5c-0.2,0.3-0.3,0.7-0.2,1c0.1,0.4,0.4,0.6,0.7,0.8L28.1,60
		C25.7,65.7,19.5,69,13.3,67.5z M28.8,58l-10.5-3.4l7.4-8.2C28.5,49.3,29.8,53.7,28.8,58z M31.1,58.7C31.1,58.7,31.1,58.7,31.1,58.7
		c1.3-5.3-0.3-10.6-3.8-14.3l4.4-4.8l0.9,19.6L31.1,58.7z M55.8,45.5l-21,13.2l-0.9-20.5l22,5.4L55.8,45.5z"/>
	<path class="st1" d="M73.5,60.8l-10.9,6.3c-0.2,0.1-0.4,0.4-0.5,0.6c-0.1,0.3,0,0.5,0.1,0.8c0.2,0.3,0.5,0.5,0.9,0.5
		c0.2,0,0.4,0,0.5-0.1l10.9-6.3c0.2-0.1,0.4-0.4,0.5-0.6c0.1-0.3,0-0.5-0.1-0.8C74.6,60.7,74,60.6,73.5,60.8z"/>
	<path class="st1" d="M62.6,63.1L62.6,63.1c0.2,0.3,0.5,0.5,0.9,0.5c0.2,0,0.3,0,0.5-0.1l8.6-4.9c0.5-0.3,0.7-0.9,0.4-1.4
		c-0.3-0.5-0.9-0.7-1.4-0.4L63,61.7C62.5,62,62.3,62.6,62.6,63.1z"/>
	<path class="st1" d="M96.8,36.5c-2.7-2.7-6.3-4.2-10.1-4.2c-7.9,0-14.3,6.4-14.3,14.3c0,7.9,6.4,14.3,14.3,14.3
		c3.5,0,5.5-2.8,7.3-5.2c0.6-0.8,1.1-1.5,1.7-2.2c0.6-0.7,1.3-1.2,2-1.7c1.6-1.1,3.3-2.4,3.3-5.2C101,42.8,99.5,39.2,96.8,36.5z
		 M96.4,50c-0.8,0.6-1.6,1.2-2.4,2.1c-0.6,0.7-1.2,1.5-1.8,2.3c-1.6,2.2-3.1,4.3-5.4,4.3c-6.6,0-12-5.4-12-12c0-6.6,5.4-12,12-12
		c3.2,0,6.2,1.3,8.5,3.5c2.3,2.3,3.5,5.3,3.5,8.5C98.7,48.2,97.9,48.9,96.4,50z"/>
	<g>
		<path class="st2" d="M87.5,7.2l-1.1-5.4l-1.5,0.3l-1.5,0.3l1.1,5.4c0.2,1.1-1.1,2.8-0.8,4.3c0.3,1.4,1.4,6.7,1.6,7.7
			c0.2,1,1,1.2,1.9,1c0.7-0.2,1.4-0.3,1.6-0.3c0,0,0.1,0,0.1,0c0.2,0,0.6-0.1,1.3-0.3c0.9-0.2,1.5-0.7,1.3-1.7
			c-0.2-1-1.3-6.3-1.6-7.7C89.6,9.4,87.7,8.3,87.5,7.2z"/>
		<path class="st2" d="M73.3,21.7l3.6-4.2l-1.2-1l-1.2-1L71,19.7c-0.7,0.9-2.9,0.9-3.9,2c-0.9,1.1-4.4,5.2-5.1,5.9
			c-0.7,0.8-0.4,1.6,0.3,2.1c0.6,0.5,1.1,1,1.3,1.1c0,0,0,0,0,0c0.1,0.1,0.5,0.4,1,0.9c0.7,0.6,1.5,0.8,2.2,0
			c0.7-0.8,4.2-4.9,5.1-5.9C72.9,24.7,72.6,22.6,73.3,21.7z"/>
		<g>
			<path class="st2" d="M68.5,10.5L66.6,8c-0.5-0.7-0.4-1.8,0.3-2.3l5.1-3.8c0.7-0.5,1.8-0.4,2.3,0.3l1.8,2.5
				c0.5,0.7,0.4,1.8-0.3,2.3l-5.1,3.8C70,11.3,69,11.2,68.5,10.5z"/>
			<line class="st2" x1="70" y1="3.4" x2="73.8" y2="8.5"/>
		</g>
	</g>
</g>
</svg>
