<?xml version="1.0" encoding="utf-8"?>
<!-- Generator: Adobe Illustrator 19.1.1, SVG Export Plug-In . SVG Version: 6.00 Build 0)  -->
<svg version="1.1" id="Layer_1" xmlns="http://www.w3.org/2000/svg" xmlns:xlink="http://www.w3.org/1999/xlink" x="0px" y="0px"
	 viewBox="0 0 20.9 18.7" style="enable-background:new 0 0 20.9 18.7;" xml:space="preserve">
<style type="text/css">
	.st0{fill:#FFFFFF;}
</style>
<g>
	<path class="st0" d="M19.3,18.2H1.6c-0.8,0-1.3-0.6-1.3-1.5V5c0-0.9,0.8-1.7,1.7-1.7h3.6c0-0.1,0.1-0.2,0.1-0.3
		C6,2.7,6.3,2.2,6.6,1.7c0.3-0.7,0.8-1,1.1-1.1c0.2-0.1,0.4-0.1,0.7-0.1h4.3c0.3,0,0.5,0,0.7,0.1c0.3,0.1,0.7,0.4,1.1,1.1
		c0.2,0.5,0.5,1,0.8,1.4c0.1,0.1,0.1,0.2,0.1,0.3H19c0.9,0,1.7,0.8,1.7,1.7v11.7C20.6,17.6,20.1,18.2,19.3,18.2z M2,4.4
		C1.7,4.4,1.4,4.7,1.4,5v11.7c0,0.4,0.2,0.4,0.2,0.4h17.7c0.1,0,0.2,0,0.2-0.4V5c0-0.3-0.3-0.6-0.6-0.6h-3.6c-0.4,0-0.7-0.2-0.9-0.5
		c0-0.1-0.1-0.2-0.2-0.3c-0.2-0.4-0.5-0.9-0.8-1.4c-0.2-0.4-0.4-0.5-0.6-0.6c-0.1,0-0.1,0-0.2,0H8.3c-0.1,0-0.2,0-0.2,0
		C8,1.6,7.7,1.8,7.5,2.2c-0.3,0.5-0.6,1-0.8,1.4C6.6,3.7,6.6,3.8,6.5,3.9C6.4,4.2,6.1,4.4,5.7,4.4L2,4.4z M5.6,3.4
		C5.6,3.4,5.6,3.4,5.6,3.4C5.6,3.4,5.6,3.4,5.6,3.4z M15.4,3.4L15.4,3.4L15.4,3.4z"/>
	<g>
		<path class="st0" d="M10.6,13.7c-1.8,0-3.2-1.4-3.3-3.1H8c0.2,0,0.3-0.2,0.2-0.4L7.1,8.8C7,8.6,6.7,8.6,6.5,8.8l-1.1,1.4
			c-0.1,0.1,0,0.4,0.2,0.4h0.6c0.1,2.3,2,4.1,4.3,4.1c0.8,0,1.6-0.2,2.2-0.6c0.3-0.2,0.3-0.6,0.1-0.8l0,0c-0.2-0.2-0.4-0.2-0.6-0.1
			C11.8,13.5,11.2,13.7,10.6,13.7z"/>
		<path class="st0" d="M10.4,6.9c1.8,0,3.2,1.4,3.3,3.1H13c-0.2,0-0.3,0.2-0.2,0.4l1.1,1.4c0.1,0.2,0.4,0.2,0.5,0l1.1-1.4
			c0.1-0.1,0-0.4-0.2-0.4h-0.6c-0.1-2.3-2-4.1-4.3-4.1c-0.8,0-1.6,0.2-2.2,0.6C7.9,6.6,7.8,7,8.1,7.3l0,0c0.2,0.2,0.4,0.2,0.6,0.1
			C9.2,7.1,9.8,6.9,10.4,6.9z"/>
	</g>
</g>
</svg>
