<?xml version="1.0" encoding="utf-8"?>
<!-- Generator: Adobe Illustrator 19.1.1, SVG Export Plug-In . SVG Version: 6.00 Build 0)  -->
<svg version="1.1" id="Layer_1" xmlns="http://www.w3.org/2000/svg" xmlns:xlink="http://www.w3.org/1999/xlink" x="0px" y="0px"
	 viewBox="0 0 16.9 14.6" style="enable-background:new 0 0 16.9 14.6;" xml:space="preserve">
<style type="text/css">
	.st0{fill:#FFFFFF;}
</style>
<g>
	<path class="st0" d="M14.8,10.6c-0.1-0.4-0.6-1.1-1.5-1.1H6c0,0-0.4,0-0.6-0.7c0-0.1-0.1-0.3-0.1-0.5L5.2,8h9.2
		c0.2,0,0.3-0.1,0.4-0.3l1.9-5.8c0-0.1,0-0.3-0.1-0.3c-0.1-0.1-0.2-0.2-0.3-0.2H4.7c-0.2,0-0.4,0.2-0.4,0.4c0,0.2,0.2,0.4,0.4,0.4
		h11l0,0.1L14,7.2H4.9l0-0.1C4.3,4.7,3.2,0.7,3.2,0.7c0-0.2-0.2-0.3-0.4-0.3H0.7c-0.2,0-0.4,0.2-0.4,0.4c0,0.2,0.2,0.4,0.4,0.4h1.9
		l0,0.1C2.8,2,3.3,4,3.8,5.8C4.1,7.2,4.5,8.6,4.6,9c0.3,1.2,1.2,1.3,1.4,1.3h7.3c0.5,0,0.7,0.4,0.8,0.6c0.1,0.2,0.2,0.3,0.4,0.3
		c0,0,0.1,0,0.1,0C14.7,11.1,14.8,10.8,14.8,10.6z"/>
	<path class="st0" d="M12.1,11c-0.9,0-1.7,0.8-1.7,1.7c0,0.9,0.7,1.7,1.7,1.7c0.9,0,1.7-0.8,1.7-1.7C13.7,11.8,13,11,12.1,11z
		 M12.1,13.6c-0.5,0-0.9-0.4-0.9-0.9c0-0.5,0.4-0.9,0.9-0.9c0.5,0,0.9,0.4,0.9,0.9C12.9,13.2,12.5,13.6,12.1,13.6z"/>
	<path class="st0" d="M6.3,11c-0.9,0-1.7,0.8-1.7,1.7c0,0.9,0.8,1.7,1.7,1.7c0.9,0,1.7-0.7,1.7-1.7C7.9,11.8,7.2,11,6.3,11z
		 M6.3,13.6c-0.5,0-0.9-0.4-0.9-0.9c0-0.5,0.4-0.9,0.9-0.9c0.5,0,0.9,0.4,0.9,0.9C7.1,13.2,6.7,13.6,6.3,13.6z"/>
</g>
</svg>
