<?xml version="1.0" encoding="utf-8"?>
<!-- Generator: Adobe Illustrator 19.1.1, SVG Export Plug-In . SVG Version: 6.00 Build 0)  -->
<svg version="1.1" id="Layer_1" xmlns="http://www.w3.org/2000/svg" xmlns:xlink="http://www.w3.org/1999/xlink" x="0px" y="0px"
	 viewBox="0 0 64.6 64.4" style="enable-background:new 0 0 64.6 64.4;" xml:space="preserve">
<style type="text/css">
	.st0{fill:#E5E5E5;}
	.st1{fill:#010101;}
</style>
<g>
	<path class="st0" d="M63.2,63.7H1.5V2h61.7V63.7z M2.5,62.7h59.7V3H2.5V62.7z"/>
	<path class="st0" d="M32.4,63.7c-17,0-30.8-13.8-30.8-30.8C1.5,15.8,15.4,2,32.4,2c17,0,30.8,13.8,30.8,30.8
		C63.2,49.8,49.4,63.7,32.4,63.7z M32.4,3C15.9,3,2.5,16.4,2.5,32.8c0,16.5,13.4,29.8,29.8,29.8c16.5,0,29.8-13.4,29.8-29.8
		C62.2,16.4,48.8,3,32.4,3z"/>
	<path class="st0" d="M32.4,47.7c-8.2,0-14.8-6.7-14.8-14.8c0-8.2,6.7-14.8,14.8-14.8c8.2,0,14.8,6.7,14.8,14.8
		C47.2,41,40.5,47.7,32.4,47.7z M32.4,19c-7.6,0-13.8,6.2-13.8,13.8c0,7.6,6.2,13.8,13.8,13.8c7.6,0,13.8-6.2,13.8-13.8
		C46.2,25.2,40,19,32.4,19z"/>
	<path class="st0" d="M1.5,64.4V1.3l30.8,30.8l30-30L63,2.9l-30,30l30,30l-0.7,0.7l-30-30L1.5,64.4z M2.5,3.7V62l29.1-29.1L2.5,3.7z
		"/>
</g>
<g>
	<path class="st1" d="M32.5,20.4c0.3,0.1,0.6,0.2,0.9,0.1c1-0.2,1.6-1.1,1.5-2c0-0.2,0.1-0.4,0.3-0.4c0.1,0,0.1,0,0.2,0
		c0.1,0,0.2,0.2,0.2,0.3c0.1,0.6,0.5,1.1,1.1,1.4c0.3,0.1,0.6,0.2,0.9,0.1c1-0.2,1.6-1.1,1.5-2c-0.2-1.4-1.2-2.5-2.4-3
		c-0.7-0.3-1.4-0.3-2.1-0.2c-2.1,0.4-3.6,2.4-3.2,4.5C31.5,19.6,31.9,20.2,32.5,20.4z M34.8,15.8c0.5-0.1,1,0,1.4,0.1
		c0.9,0.3,1.5,1.1,1.6,2c0,0.3-0.1,0.5-0.4,0.5c-0.1,0-0.2,0-0.2,0c-0.2-0.1-0.3-0.2-0.3-0.4c-0.1-0.6-0.5-1.1-1-1.3
		c-0.3-0.1-0.6-0.1-0.9-0.1c-0.9,0.2-1.5,1-1.4,2c0,0.3-0.1,0.5-0.4,0.5c-0.1,0-0.2,0-0.2,0c-0.2-0.1-0.3-0.2-0.3-0.4
		C32.4,17.4,33.4,16,34.8,15.8z"/>
	<path class="st1" d="M43.3,21c0.1,0.1,0.2,0.1,0.4,0.2l0,0c1.9,0.7,4,0,4.9-1.8c0.2-0.4,0.3-0.9,0.1-1.4c-0.1-0.5-0.5-0.8-0.9-1
		c-0.1,0-0.1-0.1-0.2-0.1c-0.8-0.3-1.8,0-2.2,0.8c-0.1,0.2-0.3,0.2-0.5,0.2c0,0,0,0,0,0c-0.1,0-0.2-0.1-0.2-0.2c0-0.1,0-0.2,0-0.3
		c0.2-0.4,0.3-0.9,0.1-1.4c-0.1-0.5-0.5-0.8-0.9-1c-0.1,0-0.1-0.1-0.2-0.1c-0.8-0.3-1.8,0-2.2,0.8c-0.5,0.9-0.6,2-0.3,3
		C41.7,19.7,42.4,20.5,43.3,21z M42.8,16.3c0.1-0.2,0.4-0.3,0.6-0.2c0,0,0,0,0,0c0.1,0.1,0.2,0.2,0.2,0.3c0,0.1,0,0.2,0,0.4
		c-0.2,0.4-0.3,0.9-0.1,1.3c0.1,0.4,0.4,0.8,0.8,1c0.1,0,0.1,0.1,0.2,0.1c0.8,0.3,1.7,0,2.1-0.8c0.1-0.2,0.4-0.3,0.6-0.2
		c0.1,0.1,0.2,0.2,0.2,0.3c0,0.1,0,0.2,0,0.4c-0.6,1.2-2,1.7-3.3,1.2c-0.1,0-0.2-0.1-0.2-0.1c-0.6-0.3-1.1-0.9-1.3-1.5
		C42.4,17.6,42.5,16.9,42.8,16.3z"/>
	<path class="st1" d="M30.2,15.5c0.8-0.6,1.4-1.5,1.5-2.6c0.3-1.8-0.7-3.6-2.4-4.2c-0.3-0.1-0.6-0.2-0.9-0.2c-0.5-0.1-0.9,0-1.3,0.3
		c-0.4,0.3-0.6,0.7-0.7,1.2c-0.1,0.8,0.3,1.6,1.1,1.9c0.1,0.1,0.3,0.1,0.4,0.1c0.2,0,0.4,0.2,0.3,0.4c0,0.1-0.1,0.2-0.1,0.2
		c-0.1,0.1-0.2,0.1-0.3,0.1c-0.5-0.1-0.9,0-1.3,0.3c-0.4,0.3-0.6,0.7-0.7,1.2c-0.1,0.8,0.3,1.6,1.1,1.9l0,0c0.1,0.1,0.3,0.1,0.4,0.1
		C28.3,16.4,29.3,16.1,30.2,15.5z M29.4,14.5c-0.6,0.4-1.3,0.6-1.9,0.5c0,0-0.1,0-0.1,0l0,0c-0.2-0.1-0.3-0.3-0.3-0.5
		c0-0.1,0.1-0.2,0.2-0.3c0.1-0.1,0.2-0.1,0.3-0.1c0.4,0.1,0.9,0,1.3-0.3c0.4-0.3,0.6-0.7,0.7-1.1c0.1-0.8-0.3-1.5-1.1-1.8
		c-0.1,0-0.2-0.1-0.4-0.1c0,0-0.1,0-0.1,0c-0.2-0.1-0.3-0.3-0.3-0.5c0-0.1,0.1-0.2,0.2-0.3c0.1-0.1,0.2-0.1,0.3-0.1
		c0.2,0,0.4,0.1,0.6,0.2c1.1,0.4,1.8,1.6,1.6,2.8C30.3,13.4,29.9,14,29.4,14.5z"/>
	<path class="st1" d="M39,50.7L39,50.7C39,50.7,39,50.7,39,50.7C39,50.6,39,50.6,39,50.7c0-0.1,0-0.1,0-0.1l0,0c0,0,0.4-2.5,1.7-5.9
		l3-7.4c1.3-3.4,2.8-5.5,2.8-5.5l0,0c0,0,0,0,0-0.1c0,0,0,0,0,0c0,0,0,0,0-0.1l0,0l0,0l1.4-3.6c0.1-0.3,0-0.7-0.4-0.9l-1.7-0.7
		c0.6-1.4,0.4-3-0.6-4.1c-0.2-0.2-0.4-0.4-0.7-0.5c-0.6-0.2-1.3-0.1-1.8,0.3c-0.7,0.6-0.8,1.8-0.2,2.5c0.1,0.1,0.1,0.3,0,0.5
		l-15.2-6c-0.3-0.1-0.7,0-0.9,0.4L25,23l0,0c0,0,0,0,0,0c0,0,0,0,0,0.1c0,0,0,0,0,0c0,0,0,0,0,0.1c0,0,0,0,0,0c0,0-0.4,2.5-1.7,5.9
		l-3,7.4c-1.3,3.4-2.8,5.5-2.8,5.5c0,0,0,0,0,0c0,0,0,0,0,0c0,0,0,0,0,0c0,0,0,0,0,0.1c0,0,0,0,0,0l0,0l-1.4,3.6
		c-0.1,0.3,0,0.7,0.4,0.9l20.3,8c0.3,0.1,0.7,0,0.9-0.4L39,50.7L39,50.7L39,50.7z M24,45.5L23,47.8L20.9,47l0.9-2.3L24,45.5z
		 M25.2,46l2.1,0.8l-0.9,2.3l-2.1-0.8L25.2,46z M28.5,47.3l2.1,0.8l-0.9,2.3l-2.1-0.8L28.5,47.3z M31.8,48.6l2.1,0.8L33,51.8
		l-2.1-0.8L31.8,48.6z M19.1,42.1c0.6-0.9,1.5-2.7,2.5-5.1l3-7.4c1-2.4,1.4-4.4,1.6-5.4l18.8,7.4c-0.5,0.9-1.5,2.7-2.5,5.1l-3,7.4
		c-1,2.4-1.4,4.4-1.7,5.4L19.1,42.1z M43,26.7L42,29.1l-2.1-0.8l0.9-2.3L43,26.7z M38.7,27.7l-2.1-0.8l0.9-2.3l2.1,0.8L38.7,27.7z
		 M35.4,26.4l-2.1-0.8l0.9-2.3l2.1,0.8L35.4,26.4z M32,25.1l-2.1-0.8l0.9-2.3l2.1,0.8L32,25.1z M45.5,30.5l-2.3-0.9l0.9-2.3l2.3,0.9
		L45.5,30.5z M43.6,23.2c0.1-0.1,0.3-0.1,0.5-0.1c0.1,0,0.1,0.1,0.2,0.1c0.6,0.7,0.8,1.6,0.5,2.4l-0.9-0.3c0.1-0.5,0-1.1-0.4-1.5
		C43.4,23.6,43.4,23.3,43.6,23.2z M27.4,20.6l2.1,0.8l-0.9,2.3l-2.1-0.8L27.4,20.6z M18.5,43.3l2.1,0.8l-0.9,2.3l-2.1-0.8L18.5,43.3
		z M36.6,53.2l-2.3-0.9l0.9-2.3l2.3,0.9L36.6,53.2z"/>
	<path class="st1" d="M39.7,35.6l-1.4-0.5c-0.3-0.1-0.7,0-0.9,0.4c-0.1,0.3,0,0.7,0.4,0.9l0.7,0.3l-1.9,4.9l-11.1-4.4l1.9-4.9
		l7.1,2.8c0.3,0.1,0.7,0,0.9-0.4c0.1-0.3,0-0.7-0.4-0.9l-7.7-3.1c-0.3-0.1-0.7,0-0.9,0.4l-2.4,6.1c-0.1,0.3,0,0.7,0.4,0.9L36.8,43
		c0.3,0.1,0.7,0,0.9-0.4l2.4-6.1C40.2,36.1,40,35.7,39.7,35.6z"/>
</g>
</svg>
