<?xml version="1.0" encoding="utf-8"?>
<!-- Generator: Adobe Illustrator 19.1.1, SVG Export Plug-In . SVG Version: 6.00 Build 0)  -->
<svg version="1.1" id="Layer_1" xmlns="http://www.w3.org/2000/svg" xmlns:xlink="http://www.w3.org/1999/xlink" x="0px" y="0px"
	 viewBox="0 0 64.1 64.1" style="enable-background:new 0 0 64.1 64.1;" xml:space="preserve">
<style type="text/css">
	.st0{fill:#E5E5E5;}
	.st1{fill:#010101;stroke:#010101;stroke-width:0.25;stroke-miterlimit:10;}
	.st2{fill:#010101;}
</style>
<g>
	<path class="st0" d="M62.9,63.4H1.2V1.7h61.7V63.4z M2.2,62.4h59.7V2.7H2.2V62.4z"/>
	<path class="st0" d="M32,63.4c-17,0-30.8-13.8-30.8-30.8C1.2,15.6,15,1.7,32,1.7c17,0,30.8,13.8,30.8,30.8
		C62.9,49.6,49,63.4,32,63.4z M32,2.7C15.6,2.7,2.2,16.1,2.2,32.6C2.2,49,15.6,62.4,32,62.4S61.9,49,61.9,32.6
		C61.9,16.1,48.5,2.7,32,2.7z"/>
	<path class="st0" d="M32,47.4c-8.2,0-14.8-6.7-14.8-14.8c0-8.2,6.7-14.8,14.8-14.8c8.2,0,14.8,6.7,14.8,14.8
		C46.9,40.7,40.2,47.4,32,47.4z M32,18.7c-7.6,0-13.8,6.2-13.8,13.8c0,7.6,6.2,13.8,13.8,13.8c7.6,0,13.8-6.2,13.8-13.8
		C45.9,24.9,39.7,18.7,32,18.7z"/>
	<path class="st0" d="M1.2,64.1V1L32,31.8l30-30l0.7,0.7l-30,30l30,30L62,63.2l-30-30L1.2,64.1z M2.2,3.4v58.3l29.1-29.1L2.2,3.4z"
		/>
</g>
<g>
	<path class="st1" d="M29.4,32v-4c0-0.6-0.4-1-1-1h-9c-0.6,0-1,0.4-1,1v4c-1.7,0-3,1.3-3,3v13c0,1.7,1.3,3,3,3h11c1.7,0,3-1.3,3-3
		V35C32.4,33.4,31.1,32,29.4,32z M21.5,28v2c0,0.3,0.2,0.5,0.5,0.5c0.3,0,0.5-0.2,0.5-0.5v-2h3v2c0,0.3,0.2,0.5,0.5,0.5
		c0.3,0,0.5-0.2,0.5-0.5v-2h2v4h-9v-4H21.5z M31.4,48c0,1.1-0.9,2-2,2h-11c-1.1,0-2-0.9-2-2V35c0-1.1,0.9-2,2-2h11c1.1,0,2,0.9,2,2
		V48z"/>
	<path class="st1" d="M19.5,34h-1c-0.6,0-1,0.4-1,1v13.5c0,0.3,0.2,0.5,0.5,0.5c0.3,0,0.5-0.2,0.5-0.5V35h1c0.3,0,0.5-0.2,0.5-0.5
		C20,34.2,19.7,34,19.5,34z"/>
	<path class="st1" d="M25.5,38h-3v2h-2v3h2v2h3v-2h2v-3h-2V38z M26.5,41v1h-1h-1v1v1h-1v-1v-1h-1h-1v-1h1h1v-1v-1h1v1v1h1H26.5z"/>
</g>
<path class="st2" d="M44.2,15.5l-8,3.6l-1-2.2c-0.2-0.4-0.6-0.6-1-0.4c-0.4,0.2-0.6,0.6-0.4,1l1,2.2L34,20.2l-1.8-4
	c-0.2-0.4-0.6-0.6-1-0.4c-0.4,0.2-0.6,0.6-0.4,1l1.8,4l-2.3,1c-0.4,0.2-0.6,0.6-0.4,1l7.8,17.2c0.2,0.4,0.6,0.6,1,0.4l13.9-6.3
	c0.4-0.2,0.6-0.6,0.4-1l-7.8-17.2C45,15.5,44.6,15.4,44.2,15.5z M31.1,22.9l13.3-6l1.9,4.2L44.2,22c-1.6-1.2-3.8-1.6-5.8-0.7
	c-2,0.9-3.2,2.8-3.3,4.8L33,27.1L31.1,22.9z M45.2,23.3l1.7-0.8l0.8,1.8l-1.7,0.8c-0.1-0.3-0.2-0.6-0.3-0.8
	C45.6,23.9,45.4,23.6,45.2,23.3z M44.5,24.7c0.9,2.1,0,4.5-2,5.4s-4.5,0-5.4-2c-0.9-2.1,0-4.5,2-5.4C41.1,21.7,43.5,22.6,44.5,24.7z
	 M33.6,28.4l1.7-0.8c0.1,0.4,0.2,0.7,0.3,1c0.1,0.3,0.3,0.5,0.4,0.8l-1.7,0.8L33.6,28.4z M51.9,33.3l-13.3,6.1L35,31.6l2-0.9
	c1.6,1.3,3.9,1.6,6,0.7c2-0.9,3.3-2.9,3.4-5l2-0.9L51.9,33.3z"/>
</svg>
