<?xml version="1.0" encoding="utf-8"?>
<!-- Generator: Adobe Illustrator 19.1.1, SVG Export Plug-In . SVG Version: 6.00 Build 0)  -->
<svg version="1.1" id="Layer_1" xmlns="http://www.w3.org/2000/svg" xmlns:xlink="http://www.w3.org/1999/xlink" x="0px" y="0px"
	 viewBox="0 0 64 64.7" style="enable-background:new 0 0 64 64.7;" xml:space="preserve">
<style type="text/css">
	.st0{fill:#E5E5E5;}
	.st1{fill:#2D2E2D;}
</style>
<g>
	<path class="st0" d="M63,63.9H1.3V2.3H63V63.9z M2.3,62.9H62V3.3H2.3V62.9z"/>
	<path class="st0" d="M32.1,63.9c-17,0-30.8-13.8-30.8-30.8c0-17,13.8-30.8,30.8-30.8c17,0,30.8,13.8,30.8,30.8
		C63,50.1,49.1,63.9,32.1,63.9z M32.1,3.3C15.7,3.3,2.3,16.7,2.3,33.1c0,16.5,13.4,29.8,29.8,29.8C48.6,62.9,62,49.6,62,33.1
		C62,16.7,48.6,3.3,32.1,3.3z"/>
	<path class="st0" d="M32.1,47.9c-8.2,0-14.8-6.7-14.8-14.8c0-8.2,6.7-14.8,14.8-14.8c8.2,0,14.8,6.7,14.8,14.8
		C47,41.3,40.3,47.9,32.1,47.9z M32.1,19.3c-7.6,0-13.8,6.2-13.8,13.8c0,7.6,6.2,13.8,13.8,13.8c7.6,0,13.8-6.2,13.8-13.8
		C46,25.5,39.8,19.3,32.1,19.3z"/>
	<path class="st0" d="M1.3,64.7V1.6l30.8,30.8l30-30l0.7,0.7l-30,30l30,30l-0.7,0.7l-30-30L1.3,64.7z M2.3,4v58.3l29.1-29.1L2.3,4z"
		/>
</g>
<g>
	<path class="st1" d="M45.6,22.9c-1.2-0.8-2.1-1.4-2.1-3.5c0-0.3,0.1-0.5,0.3-0.7c0.3-0.1,0.5-0.4,0.5-0.7l0-0.9
		c0-1.5-1.2-2.4-3.2-2.4c-2,0-3.2,0.9-3.2,2.4l0,0.9c0,0.3,0.2,0.6,0.5,0.7c0.1,0.2,0.3,0.5,0.3,0.7c0,2.1-0.9,2.7-2.1,3.5
		c-1.6,1.1-3.5,2.4-3.5,6.9l0,4.8l0,6.4l0,8c0,2.5,1.2,4,3.2,4l9.6,0c2,0,3.2-1.5,3.2-4l0-8l0-6.4l0-4.8
		C49.1,25.3,47.2,24,45.6,22.9z M38.6,34.2c-0.4-0.6-0.7-1.2-0.7-1.9c0-1.8,1.4-3.2,3.2-3.2c1.8,0,3.2,1.4,3.2,3.2
		c0,0.7-0.2,1.4-0.7,1.9c-0.2,0.2-0.2,0.6-0.1,0.8c0.1,0.3,0.4,0.4,0.7,0.4l3.2,0l0,4.8l-12.8,0l0-4.8l3.2,0c0.3,0,0.6-0.2,0.7-0.4
		C38.8,34.7,38.8,34.4,38.6,34.2z M46,51.5l-9.6,0c-0.4,0-1.6,0-1.6-2.4l0-7.2l12.8,0l0,7.2C47.6,51.5,46.4,51.5,46,51.5z
		 M47.5,33.9l-1.9,0c0.2-0.5,0.3-1.1,0.3-1.6c0-2.6-2.2-4.8-4.8-4.8c-2.6,0-4.8,2.2-4.8,4.8c0,0.6,0.1,1.1,0.3,1.6l-1.9,0l0-4
		c0-3.7,1.4-4.6,2.8-5.6c1.3-0.9,2.8-1.9,2.8-4.8c0-0.9-0.5-1.6-0.8-1.9l0-0.5c0-0.7,1-0.8,1.6-0.8c0.6,0,1.6,0.1,1.6,0.8l0,0.5
		c-0.3,0.4-0.8,1-0.8,1.9c0,2.9,1.5,3.9,2.8,4.8c1.4,1,2.8,1.9,2.8,5.6L47.5,33.9z"/>
</g>
<g>
	<path class="st1" d="M26.3,24l0-11c0-0.4-0.4-0.8-0.8-0.8l-0.1,0l-4,0c-0.4,0-0.8,0.4-0.8,0.8l0,4.1l0,6.9c-2.9,1.1-4.8,3.9-4.8,7
		l0,6.1l0,9.2l0,5.9c0,0.4,0.4,0.8,0.8,0.8l13.6,0c0.4,0,0.8-0.4,0.8-0.8l0-5.9l0-9.2l0-6.1C31,27.9,29.1,25.2,26.3,24z M22.2,13.8
		l2.5,0l0,2.6l-2.5,0L22.2,13.8z M29.4,45.6l-12.1,0l0-7.7l12.1,0L29.4,45.6z M17.3,51.5l0-4.4l12.1,0l0,4.4L17.3,51.5z M29.4,36.5
		l-12.1,0l0-5.4c0-2.7,1.7-5,4.3-5.8c0.3-0.1,0.6-0.4,0.6-0.7l0-6.7l2.6,0l0,6.7c0,0.4,0.2,0.6,0.5,0.7c2.5,0.8,4.2,3.1,4.2,5.8
		L29.4,36.5z"/>
</g>
</svg>
