<?xml version="1.0" encoding="utf-8"?>
<!-- Generator: Adobe Illustrator 19.1.1, SVG Export Plug-In . SVG Version: 6.00 Build 0)  -->
<svg version="1.1" id="Layer_1" xmlns="http://www.w3.org/2000/svg" xmlns:xlink="http://www.w3.org/1999/xlink" x="0px" y="0px"
	 viewBox="0 0 31.9 11.7" style="enable-background:new 0 0 31.9 11.7;" xml:space="preserve">
<style type="text/css">
	.st0{fill:#FFFFFF;stroke:#2D2E2D;stroke-width:2;stroke-miterlimit:10;}
	.st1{fill:#EAEAEA;}
	.st2{fill:#2D2E2D;}
</style>
<g>
	<line class="st0" x1="7.6" y1="5.8" x2="24" y2="5.8"/>
	<g>
		<path class="st1" d="M5.8,10.4c-2.5,0-4.5-2-4.5-4.5c0-2.5,2-4.5,4.5-4.5s4.5,2,4.5,4.5C10.4,8.3,8.3,10.4,5.8,10.4z"/>
		<g>
			<path class="st2" d="M5.8,2.3c2,0,3.5,1.6,3.5,3.5c0,2-1.6,3.5-3.5,3.5c-2,0-3.5-1.6-3.5-3.5C2.3,3.9,3.9,2.3,5.8,2.3 M5.8,0.3
				c-3.1,0-5.5,2.5-5.5,5.5s2.5,5.5,5.5,5.5c3.1,0,5.5-2.5,5.5-5.5S8.9,0.3,5.8,0.3L5.8,0.3z"/>
		</g>
	</g>
	<g>
		<path class="st1" d="M26.1,10.4c-2.5,0-4.5-2-4.5-4.5c0-2.5,2-4.5,4.5-4.5c2.5,0,4.5,2,4.5,4.5C30.6,8.3,28.6,10.4,26.1,10.4z"/>
		<path class="st2" d="M26.1,2.3c2,0,3.5,1.6,3.5,3.5c0,2-1.6,3.5-3.5,3.5c-2,0-3.5-1.6-3.5-3.5C22.5,3.9,24.1,2.3,26.1,2.3
			 M26.1,0.3c-3.1,0-5.5,2.5-5.5,5.5s2.5,5.5,5.5,5.5s5.5-2.5,5.5-5.5S29.1,0.3,26.1,0.3L26.1,0.3z"/>
	</g>
</g>
</svg>
