<?xml version="1.0" encoding="utf-8"?>
<!-- Generator: Adobe Illustrator 19.1.1, SVG Export Plug-In . SVG Version: 6.00 Build 0)  -->
<svg version="1.1" id="Layer_1" xmlns="http://www.w3.org/2000/svg" xmlns:xlink="http://www.w3.org/1999/xlink" x="0px" y="0px"
	 viewBox="0 0 71 71.8" style="enable-background:new 0 0 71 71.8;" xml:space="preserve">
<style type="text/css">
	.st0{fill:#FFFFFF;}
</style>
<g >
	<path  class="st0" d="M61.7,14.5c0.1,0.2,0.1,0.5,0.2,0.9c-0.5-0.1-1.1-0.2-1.9-0.2
		c-0.5,0-1.3,0.3-2.1,0.6c-0.7,0.3-1.5,0.6-2.1,0.6c-0.3,0-0.9-0.3-1.5-0.5c-0.9-0.3-1.7-0.7-2.5-0.7h0c-0.6,0-1.4,0.3-2.3,0.7
		c-0.2,0.1-0.4,0.2-0.6,0.3l0.7-1.6L61.7,14.5z M49.4,27.2h-0.7l-0.2,0.7c-1.6,4.7-3.6,7.4-9,7.4v0.1h-1.1v31.3l10.4,3.1H26.2
		l9.8-3.1V35.4h-1v-0.1c-5,0-8.3-1.2-10.2-7.4l-0.2-0.7l-0.8,0c-3.6,0.2-6.6-0.8-8.9-2.9c-2-1.9-3-4.3-3.1-6.1
		c0.9-0.3,3.4-1.2,4.6-1.2c0.6,0,1.1,0.2,1.7,0.5c0.8,0.3,1.6,0.7,2.8,0.7c1.1,0,2.1-0.3,3-0.6c0.9-0.3,1.7-0.6,2.6-0.6
		c0.5,0,1,0.3,1.7,0.6c0.9,0.4,1.9,0.9,3.3,0.9c1.4,0,2.3-0.5,3-1c0.5-0.3,0.8-0.5,1.2-0.5c0.7,0,1.5,0.4,2.3,0.7
		c0.7,0.3,1.3,0.5,1.8,0.5h0c0.8,0,1.5-0.4,2.2-0.7c0.5-0.2,1-0.5,1.3-0.5h0c0.6,0,1.3,0.3,2,0.6c0.2,0.1,0.4,0.2,0.6,0.2L41.9,27
		c-0.2,0.5,0,1.1,0.5,1.3c0.1,0.1,0.3,0.1,0.4,0.1c0.4,0,0.7-0.2,0.9-0.6l4.3-9.5c0.7,0,1.5-0.3,2.4-0.7c0.5-0.2,1.3-0.5,1.5-0.5h0
		c0.4,0,1.2,0.3,1.8,0.6c0.8,0.3,1.5,0.6,2.1,0.6c0.9,0,1.9-0.4,2.9-0.8c0.5-0.2,1.1-0.5,1.4-0.5l0,0c1.5,0,2.1,0.3,2.3,0.5
		c0,0.1,0,0.2,0,0.3C62.3,24,57.8,27.2,49.4,27.2L49.4,27.2z M5.3,19.4c-1.9-1.6-3.1-3.8-3.3-6.2C1.5,8.1,5.1,3.6,10.2,3
		c5-0.5,9.5,3.2,10.1,8.2c0,0.4,0.1,0.8,0,1.1l-8.1,0h0c-0.7,0-1.4,0.5-1.6,1.1c0,0.1-0.7,2.7-0.7,4.4c0,1,0.2,2.2,0.8,3.6
		C8.7,21.3,6.9,20.6,5.3,19.4L5.3,19.4z M46.8,16.1c-0.2-0.1-0.5-0.2-0.7-0.3c-0.9-0.3-1.8-0.7-2.7-0.7h0c-0.8,0-1.5,0.4-2.2,0.7
		c-0.5,0.2-1.1,0.5-1.4,0.5c-0.2,0-0.7-0.2-1-0.4c-0.9-0.4-2-0.8-3-0.8c-1,0-1.6,0.4-2.2,0.8c-0.6,0.4-1.1,0.7-1.9,0.7
		c-0.9,0-1.7-0.4-2.5-0.7c-0.8-0.4-1.6-0.7-2.5-0.7c-1.2,0-2.3,0.4-3.2,0.7c-0.8,0.3-1.6,0.5-2.3,0.5c-0.8,0-1.4-0.3-2-0.6
		c-0.7-0.3-1.5-0.7-2.5-0.7c-1.4,0-3.3,0.6-4.5,1c0.1-0.7,0.3-1.4,0.4-1.8l35.2,0.1L46.8,16.1z M70.4,7.1L56.5,0.2
		C56,0,55.4-0.1,54.8,0.1c-0.6,0.2-1,0.6-1.3,1.2l-5,11.1l-26.2-0.1c0-0.4,0-0.9-0.1-1.3C21.5,4.9,16,0.4,9.9,1.1
		C3.9,1.7-0.6,7.2,0.1,13.4c0.3,3,1.8,5.6,4.1,7.5c2,1.6,4.4,2.5,7,2.5c0.2,0,0.4,0,0.6,0c0.5,0.8,1.1,1.6,1.9,2.4
		c1.7,1.7,4.8,3.6,9.6,3.5c2.2,6.3,5.9,7.9,10.9,8v28.1l-8.9,2.8l-0.2,0.1c-1.2,0.7-1.7,1.5-1.5,2.3c0.2,0.8,1.1,1.2,2.5,1.2H49
		c1.4,0,2.2-0.4,2.5-1.2c0.2-0.8-0.3-1.6-1.5-2.4l-9.7-3v-28c6.2-0.3,8.3-4.2,9.7-8c11.9-0.2,14-6.8,14.1-11l0.1,0l-0.1-1
		c0-0.1,0-0.2-0.1-0.3c-0.1-1.5-0.6-3.2-0.6-3.3c-0.2-0.7-0.8-1.1-1.6-1.1l-11.4,0l4.7-10.3C55.3,2,55.4,2,55.4,2c0.1,0,0.2,0,0.3,0
		l13.9,6.8c0.5,0.2,1.1,0,1.3-0.4C71.1,7.9,70.9,7.3,70.4,7.1L70.4,7.1z"/>
</g>
</svg>
