<?xml version="1.0" encoding="utf-8"?>
<!-- Generator: Adobe Illustrator 19.1.1, SVG Export Plug-In . SVG Version: 6.00 Build 0)  -->
<svg version="1.1" id="Layer_1" xmlns="http://www.w3.org/2000/svg" xmlns:xlink="http://www.w3.org/1999/xlink" x="0px" y="0px"
	 viewBox="0 0 55.9 50.1" style="enable-background:new 0 0 55.9 50.1;" xml:space="preserve">
<style type="text/css">
	.st0{fill:#FFFFFF;}
</style>
<g>
	<path class="st0" d="M53.6,3.5h-7V1.2c0-0.6-0.5-1.2-1.2-1.2s-1.2,0.5-1.2,1.2v2.3H35V1.2C35,0.5,34.4,0,33.8,0s-1.2,0.5-1.2,1.2
		v2.3h-9.3V1.2c0-0.6-0.5-1.2-1.2-1.2S21,0.5,21,1.2v2.3h-9.3V1.2c0-0.6-0.5-1.2-1.2-1.2C9.8,0,9.3,0.5,9.3,1.2v2.3h-7
		C1.1,3.5,0,4.5,0,5.8v42c0,1.3,1.1,2.3,2.3,2.3h51.3c1.3,0,2.3-1.1,2.3-2.3v-42C55.9,4.5,54.9,3.5,53.6,3.5z M2.3,5.8h7v2.3
		c0,0.6,0.5,1.2,1.2,1.2c0.6,0,1.2-0.5,1.2-1.2V5.8H21v2.3c0,0.6,0.5,1.2,1.2,1.2s1.2-0.5,1.2-1.2V5.8h9.3v2.3
		c0,0.6,0.5,1.2,1.2,1.2S35,8.8,35,8.2V5.8h9.3v2.3c0,0.6,0.5,1.2,1.2,1.2s1.2-0.5,1.2-1.2V5.8h7c0,0,0,0,0,0v4.7H2.3L2.3,5.8
		C2.3,5.8,2.3,5.8,2.3,5.8z M53.6,47.8H2.3c0,0,0,0,0,0v-35h51.3L53.6,47.8C53.6,47.8,53.6,47.8,53.6,47.8z"/>
	<path class="st0" d="M33.8,17.5c-2.3,0-4.3,0.9-5.8,2.5c-1.5-1.5-3.5-2.5-5.8-2.5c-4.5,0-8.2,3.7-8.2,8.2c0,9.3,14,17.5,14,17.5
		S42,35,42,25.6C42,21.1,38.3,17.5,33.8,17.5z M33.5,36.1c-2.1,1.9-4.2,3.4-5.5,4.3c-1.3-0.8-3.4-2.3-5.5-4.3
		c-2.8-2.6-6.2-6.5-6.2-10.5c0-3.2,2.6-5.8,5.8-5.8c1.6,0,3.1,0.6,4.2,1.8l1.7,1.7l1.7-1.7c1.1-1.1,2.6-1.8,4.2-1.8
		c3.2,0,5.8,2.6,5.8,5.8C39.6,29.6,36.3,33.5,33.5,36.1z"/>
</g>
</svg>
