<?xml version="1.0" encoding="utf-8"?>
<!-- Generator: Adobe Illustrator 19.1.1, SVG Export Plug-In . SVG Version: 6.00 Build 0)  -->
<svg version="1.1" id="Layer_1" xmlns="http://www.w3.org/2000/svg" xmlns:xlink="http://www.w3.org/1999/xlink" x="0px" y="0px"
	 viewBox="0 0 70 48.6" style="enable-background:new 0 0 70 48.6;" xml:space="preserve">
<style type="text/css">
	.st0{fill:#FFFFFF;}
</style>
<g>
	<path class="st0" d="M33.7,47.5c-12.7,0-23.2-10.4-23.2-23.2S20.8,1.1,33.7,1.1s23.1,10.5,23.1,23.2S46.4,47.5,33.7,47.5z
		 M33.7,3.7c-11.3,0-20.6,9.2-20.6,20.6s9.2,20.6,20.6,20.6c11.3,0,20.6-9.2,20.6-20.6S45,3.7,33.7,3.7z"/>
</g>
<g>
	<path class="st0" d="M33.7,39.7c-8.5,0-15.4-6.9-15.4-15.4S25.2,8.9,33.7,8.9s15.4,6.9,15.4,15.4S42.2,39.7,33.7,39.7z M33.7,11.6
		c-7,0-12.7,5.7-12.7,12.7s5.7,12.7,12.7,12.7s12.7-5.7,12.7-12.7S40.7,11.6,33.7,11.6z"/>
</g>
<g>
	<path class="st0" d="M1.8,43.2c-0.8,0-1.3-0.5-1.3-1.3v-35C0.5,6,1,5.5,1.8,5.5S3.2,6,3.2,6.8v35C3.2,42.6,2.6,43.2,1.8,43.2z"/>
</g>
<g>
	<path class="st0" d="M67.9,44.9c-0.8,0-1.3-0.5-1.3-1.3V5.1c0-0.8,0.5-1.3,1.3-1.3c0.8,0,1.3,0.5,1.3,1.3v38.5
		C69.3,44.2,68.7,44.9,67.9,44.9z"/>
</g>
<g>
	<path class="st0" d="M67.9,26.3c-4,0-7-4.9-7-11.3s3.1-11.3,7-11.3v2.7c-2.1,0-4.4,3.6-4.4,8.6s2.3,8.6,4.4,8.6V26.3z"/>
</g>
</svg>
