<?xml version="1.0" encoding="utf-8"?>
<!-- Generator: Adobe Illustrator 19.1.1, SVG Export Plug-In . SVG Version: 6.00 Build 0)  -->
<svg version="1.1" id="Layer_1" xmlns="http://www.w3.org/2000/svg" xmlns:xlink="http://www.w3.org/1999/xlink" x="0px" y="0px"
	 viewBox="0 0 12.5 14.3" style="enable-background:new 0 0 12.5 14.3;" xml:space="preserve">
<style type="text/css">
	.st0{fill:#010101;}
</style>
<g>
	<path class="st0" d="M2.9,3.6h6.7c0.2,0,0.4-0.2,0.4-0.4C10,3,9.8,2.8,9.6,2.8H2.9C2.7,2.8,2.5,3,2.5,3.2C2.5,3.4,2.7,3.6,2.9,3.6z
		"/>
	<path class="st0" d="M2.9,6.1h6.7c0.2,0,0.4-0.2,0.4-0.4c0-0.2-0.2-0.4-0.4-0.4H2.9c-0.2,0-0.4,0.2-0.4,0.4
		C2.5,5.9,2.7,6.1,2.9,6.1z"/>
	<path class="st0" d="M10,8.1c0-0.2-0.2-0.4-0.4-0.4H2.9c-0.2,0-0.4,0.2-0.4,0.4c0,0.2,0.2,0.4,0.4,0.4h6.7C9.8,8.5,10,8.3,10,8.1z"
		/>
	<path class="st0" d="M6.7,10.6c0-0.2-0.2-0.4-0.4-0.4H2.9c-0.2,0-0.4,0.2-0.4,0.4c0,0.2,0.2,0.4,0.4,0.4h3.3
		C6.5,11,6.7,10.8,6.7,10.6z"/>
	<path class="st0" d="M12.4,10.4V1c0-0.5-0.4-0.9-0.9-0.9H1C0.5,0.1,0.1,0.5,0.1,1v12.3c0,0.5,0.4,0.9,0.9,0.9h7.6
		c0.2,0,0.4-0.1,0.5-0.2l3.1-3.1C12.3,10.8,12.4,10.6,12.4,10.4z M8.9,13v-2.3h2.3L8.9,13z M8,10.7v2.6H1V1h10.6v8.8H8.9
		C8.4,9.8,8,10.2,8,10.7z"/>
</g>
</svg>
