<?xml version="1.0" encoding="utf-8"?>
<!-- Generator: Adobe Illustrator 19.1.1, SVG Export Plug-In . SVG Version: 6.00 Build 0)  -->
<svg version="1.1" id="Layer_1" xmlns="http://www.w3.org/2000/svg" xmlns:xlink="http://www.w3.org/1999/xlink" x="0px" y="0px"
	 viewBox="0 0 64.1 64.1" style="enable-background:new 0 0 64.1 64.1;" xml:space="preserve">
<style type="text/css">
	.st0{fill:#E5E5E5;}
	.st1{fill:#2D2E2D;}
</style>
<g>
	<path class="st0" d="M62.8,63.4H1.2V1.7h61.7V63.4z M2.2,62.4h59.7V2.7H2.2V62.4z"/>
	<path class="st0" d="M32,63.4c-17,0-30.8-13.8-30.8-30.8C1.2,15.6,15,1.7,32,1.7c17,0,30.8,13.8,30.8,30.8
		C62.8,49.6,49,63.4,32,63.4z M32,2.7C15.6,2.7,2.2,16.1,2.2,32.6C2.2,49,15.6,62.4,32,62.4c16.5,0,29.8-13.4,29.8-29.8
		C61.8,16.1,48.5,2.7,32,2.7z"/>
	<path class="st0" d="M32,47.4c-8.2,0-14.8-6.7-14.8-14.8c0-8.2,6.7-14.8,14.8-14.8c8.2,0,14.8,6.7,14.8,14.8
		C46.8,40.7,40.2,47.4,32,47.4z M32,18.7c-7.6,0-13.8,6.2-13.8,13.8c0,7.6,6.2,13.8,13.8,13.8c7.6,0,13.8-6.2,13.8-13.8
		C45.8,24.9,39.6,18.7,32,18.7z"/>
	<path class="st0" d="M1.2,64.1V1L32,31.8l30-30l0.7,0.7l-30,30l30,30L62,63.2l-30-30L1.2,64.1z M2.2,3.4v58.3l29.1-29.1L2.2,3.4z"
		/>
</g>
<g>
	<path class="st1" d="M47,49.9h-9.9c-0.5,0-0.8-0.4-0.8-0.8v-1.6c0-1.4,0.4-2.3,0.8-3.1c0.4-0.9,0.8-1.7,0.8-3.4
		c0-1.5-0.6-4.3-1.3-7.4c-0.9-4.2-2-8.9-2-12.3c0-0.5,0.4-0.8,0.8-0.8h13.2c0.5,0,0.8,0.4,0.8,0.8c0,3.4-1,8.2-2,12.3
		c-0.7,3.1-1.3,5.9-1.3,7.4c0,1.7,0.4,2.6,0.8,3.4c0.4,0.8,0.8,1.7,0.8,3.1V49C47.8,49.5,47.5,49.9,47,49.9z M38,48.2h8.2v-0.8
		c0-1.1-0.3-1.7-0.7-2.4c-0.5-1-1-2.1-1-4.2c0-1.6,0.6-4.5,1.4-7.7c0.8-3.8,1.8-8,1.9-11.2H36.3c0.1,3.2,1.1,7.4,1.9,11.2
		c0.7,3.3,1.4,6.1,1.4,7.7c0,2.1-0.5,3.2-1,4.2c-0.4,0.8-0.7,1.4-0.7,2.4V48.2z"/>
	<path class="st1" d="M40.4,33.4c-0.4,0-0.7-0.3-0.8-0.6c-0.3-1.2-1.7-7.4-1.7-8.4c0-0.5,0.4-0.8,0.8-0.8h0c0.5,0,0.8,0.4,0.8,0.8
		c0,0.5,0.8,4.5,1.6,8c0.1,0.4-0.2,0.9-0.6,1C40.6,33.4,40.5,33.4,40.4,33.4z"/>
	<path class="st1" d="M28.2,41.1c0.4-1.4,0.9-2.3,1.5-3.4c0.9-1.5,1.9-3.2,2.7-6.5c0.9-3.4,0.3-6.2-0.3-8.7
		c-0.4-1.7-0.7-3.2-0.5-4.6c0,0,0.1,0,0.1-0.1c0.8-0.5,1.2-1.8,1.6-3.2l0.1-0.2c0-0.1,0-0.3,0-0.4l-0.4-1.8
		c-0.1-0.3-0.3-0.5-0.6-0.6l-4.8-1.2c-0.3-0.1-0.6,0-0.8,0.3l-1.2,1.4c-0.1,0.1-0.1,0.2-0.2,0.3l-0.1,0.2c-0.4,1.4-0.7,2.7-0.2,3.6
		c0,0,0,0.1,0.1,0.1c-0.5,1.3-1.5,2.4-2.6,3.7c-1.7,1.9-3.6,4.1-4.5,7.5c-0.9,3.3-0.8,5.3-0.8,7c0,1.3,0,2.3-0.3,3.7
		c-0.4,1.7-1.1,2.7-1.8,3.6c-0.6,0.9-1.3,1.8-1.6,3.1l-0.4,1.6c-0.1,0.4,0.1,0.9,0.6,1l12.7,3.3c0.4,0.1,0.9-0.1,1-0.6l0.4-1.6
		c0.4-1.3,0.2-2.5,0.1-3.5C27.9,44,27.7,42.8,28.2,41.1z M19.7,27.9c0.1-0.4,0.2-0.7,0.3-1.1l11,2.9c-0.1,0.4-0.1,0.7-0.2,1.1
		c-0.5,1.8-1,3.1-1.5,4.2L19,32.3C19.1,31.1,19.3,29.7,19.7,27.9z M23.9,21.1c1.4-1.6,2.7-3,3.2-4.9c0.1-0.4-0.1-0.8-0.4-0.9
		c0-0.2,0-0.8,0.4-2.2l0.8-0.9l3.8,1l0.2,1.1l0,0c-0.4,1.4-0.6,2-0.8,2.1c-0.4,0-0.7,0.2-0.8,0.6c-0.5,1.9-0.1,3.8,0.4,5.8
		c0.3,1.6,0.7,3.2,0.7,5l-10.4-2.7C21.7,23.6,22.8,22.3,23.9,21.1z M26.1,49.1L15,46.2l0.2-0.8c0.3-1.1,0.8-1.8,1.4-2.6
		c0.7-1,1.6-2.2,2.1-4.2c0.4-1.6,0.4-2.9,0.4-4.2c0-0.1,0-0.2,0-0.3l9.5,2.5c0,0.1-0.1,0.2-0.1,0.2c-0.7,1.1-1.3,2.2-1.7,3.8
		c-0.5,2-0.4,3.4-0.2,4.6c0.1,1,0.2,1.9-0.1,2.9L26.1,49.1z"/>
</g>
</svg>
