<?xml version="1.0" encoding="utf-8"?>
<!-- Generator: Adobe Illustrator 19.1.1, SVG Export Plug-In . SVG Version: 6.00 Build 0)  -->
<svg version="1.1" id="Layer_1" xmlns="http://www.w3.org/2000/svg" xmlns:xlink="http://www.w3.org/1999/xlink" x="0px" y="0px"
	 viewBox="0 0 14.9 14.8" style="enable-background:new 0 0 14.9 14.8;" xml:space="preserve">
<style type="text/css">
	.st0{fill:#FFFFFF;}
</style>
<g>
	<path class="st0" d="M7.4,7.4l7.2-5c-0.3-1.3-1.4-2.2-2.7-2.2H3.1c-1.4,0-2.5,1-2.7,2.4L7.4,7.4z"/>
	<polygon class="st0" points="14.7,8.4 14.7,5.9 14.7,4.5 12.3,6.1 	"/>
	<polygon class="st0" points="0.3,4.6 0.3,5.9 0.3,9.1 3,6.4 	"/>
	<path class="st0" d="M10.9,7L7.9,9.1C7.7,9.2,7.5,9.3,7.4,9.3c-0.2,0-0.3,0-0.5-0.1L4.4,7.4l-4,4v0.3c0,1.5,1.2,2.8,2.8,2.8h8.8
		c1.5,0,2.8-1.2,2.8-2.8v-1L10.9,7z"/>
</g>
</svg>
