<?xml version="1.0" encoding="utf-8"?>
<!-- Generator: Adobe Illustrator 19.1.1, SVG Export Plug-In . SVG Version: 6.00 Build 0)  -->
<svg version="1.1" id="Layer_1" xmlns="http://www.w3.org/2000/svg" xmlns:xlink="http://www.w3.org/1999/xlink" x="0px" y="0px"
	 viewBox="0 0 37.4 42.6" style="enable-background:new 0 0 37.4 42.6;" xml:space="preserve">
<style type="text/css">
	.st0{fill:#FFFFFF;stroke:#FFFFFF;stroke-width:0.4;stroke-miterlimit:10;}
</style>
<g>
	<g>
		<path class="st0" d="M26.6,24.3c-1.3,0-2.6-0.2-3.8-0.7c-0.2-0.1-0.4-0.4-0.3-0.6c0.1-0.2,0.4-0.4,0.6-0.3
			c1.1,0.4,2.2,0.7,3.4,0.7c5.5,0,9.9-4.9,9.9-11c0-6-4.4-11-9.9-11c-3.5,0-6.6,2-8.4,5.2C18,6.9,17.7,7,17.5,6.9
			c-0.2-0.1-0.3-0.4-0.2-0.6c2-3.6,5.5-5.7,9.3-5.7c6,0,10.8,5.3,10.8,11.9C37.4,19,32.6,24.3,26.6,24.3z"/>
	</g>
	<g>
		<path class="st0" d="M26.6,26.9c-1.5,0-2.2-0.3-2.2-0.8c0-0.1,0-0.2,0.1-0.3l1.7-2.1c0.2-0.2,0.5-0.2,0.7,0l1.7,2.1
			c0.1,0.1,0.1,0.2,0.1,0.3C28.8,26.6,28,26.9,26.6,26.9z M25.6,25.8c0.2,0,0.6,0.1,1,0.1c0.4,0,0.8,0,1-0.1l-1-1.2L25.6,25.8z"/>
	</g>
	<g>
		<path class="st0" d="M24.8,33.7c-0.6,0-1.2-0.4-1.4-0.7c-0.2-0.2-0.1-0.5,0.1-0.7c0.2-0.2,0.5-0.1,0.7,0.1
			c0.1,0.1,0.5,0.4,0.8,0.3c0.3-0.1,1.4-1,1.1-6.3c0-0.3,0.2-0.5,0.4-0.5c0.3,0,0.5,0.2,0.5,0.4c0.2,4.3-0.3,6.7-1.7,7.3
			C25.2,33.7,25,33.7,24.8,33.7z"/>
	</g>
	<g>
		<path class="st0" d="M12.2,31.4C5.5,31.4,0,25.3,0,17.9C0,10.5,5.5,4.5,12.2,4.5c6.7,0,12.2,6,12.2,13.4
			C24.4,25.3,19,31.4,12.2,31.4z M12.2,5.5C6,5.5,0.9,11.1,0.9,17.9c0,6.9,5.1,12.5,11.3,12.5c6.2,0,11.3-5.6,11.3-12.5
			C23.5,11.1,18.4,5.5,12.2,5.5z"/>
	</g>
	<g>
		<path class="st0" d="M3.5,18.8c-0.3,0-0.5-0.2-0.5-0.5c0-2.9,1-5.5,2.9-7.6c0.3-0.4,0.7-0.7,1.1-1c0.2-0.2,0.4-0.3,0.7-0.5
			c0.6-0.4,1.3-0.8,2-1c0.2-0.1,0.5,0,0.6,0.3c0.1,0.2,0,0.5-0.3,0.6c-0.6,0.2-1.2,0.6-1.8,0.9c-0.2,0.1-0.4,0.3-0.6,0.4
			c-0.3,0.3-0.7,0.6-1,0.9c-1.7,1.8-2.6,4.3-2.6,6.9C3.9,18.6,3.7,18.8,3.5,18.8z"/>
	</g>
	<g>
		<path class="st0" d="M4.4,23.4c-0.2,0-0.3-0.1-0.4-0.3c-0.4-0.8-0.6-1.6-0.8-2.4c0-0.3,0.1-0.5,0.4-0.5c0.3-0.1,0.5,0.1,0.5,0.4
			c0.2,0.8,0.4,1.5,0.7,2.2c0.1,0.2,0,0.5-0.2,0.6C4.6,23.4,4.5,23.4,4.4,23.4z"/>
	</g>
	<g>
		<path class="st0" d="M12.2,34.2c-1.6,0-2.5-0.3-2.5-0.9c0-0.1,0-0.2,0.1-0.3l2-2.4c0.1-0.1,0.2-0.2,0.4-0.2l0,0
			c0.1,0,0.3,0.1,0.4,0.2l2,2.4c0.1,0.1,0.1,0.2,0.1,0.3C14.7,33.9,13.8,34.2,12.2,34.2z M11,33.2c0.3,0.1,0.7,0.1,1.3,0.1
			c0.6,0,1,0,1.3-0.1l-1.3-1.5L11,33.2z"/>
	</g>
	<g>
		<path class="st0" d="M14.8,42.6c-0.2,0-0.4,0-0.5-0.1c-1.3-0.4-2.9-2.2-2.5-8.8c0-0.3,0.2-0.5,0.5-0.4c0.3,0,0.5,0.2,0.4,0.5
			c-0.3,6.7,1.3,7.7,1.9,7.9c0.7,0.2,1.4-0.3,1.7-0.8c0.1-0.2,0.4-0.3,0.6-0.2c0.2,0.1,0.3,0.4,0.2,0.6C16.7,42,15.8,42.6,14.8,42.6
			z"/>
	</g>
	<g>
		<path class="st0" d="M20.1,8.7c-0.1,0-0.2,0-0.2-0.1c-0.2-0.1-0.3-0.4-0.2-0.6C20,7.3,20.5,6.7,21,6.2c0.3-0.3,0.6-0.6,0.9-0.9
			c0.2-0.2,0.4-0.3,0.6-0.4c0.6-0.4,1.2-0.7,1.8-0.9c0.2-0.1,0.5,0,0.6,0.3c0.1,0.2,0,0.5-0.3,0.6C24.1,5,23.5,5.3,23,5.6
			c-0.2,0.1-0.4,0.3-0.5,0.4c-0.3,0.2-0.6,0.5-0.8,0.8c-0.5,0.5-0.9,1.1-1.2,1.7C20.4,8.6,20.3,8.7,20.1,8.7z"/>
	</g>
</g>
</svg>
