<?xml version="1.0" encoding="utf-8"?>
<!-- Generator: Adobe Illustrator 19.1.1, SVG Export Plug-In . SVG Version: 6.00 Build 0)  -->
<svg version="1.1" id="Layer_1" xmlns="http://www.w3.org/2000/svg" xmlns:xlink="http://www.w3.org/1999/xlink" x="0px" y="0px"
	 viewBox="0 0 39.5 41" style="enable-background:new 0 0 39.5 41;" xml:space="preserve">
<style type="text/css">
	.st0{fill:#FFFFFF;stroke:#FFFFFF;stroke-width:0.25;stroke-miterlimit:10;}
</style>
<g>
	<path class="st0" d="M30.7,5.9c-0.8,0-1.6,0.1-2.4,0.3L28,6.3L28,6.1c-1.3-3.4-4.6-5.7-8.2-5.7s-6.9,2.3-8.2,5.7l-0.1,0.2l-0.2-0.1
		C10.5,6,9.6,5.9,8.8,5.9C4,5.9,0,9.9,0,14.7s4,8.8,8.8,8.8c0.6,0,1.2-0.1,1.7-0.2l0.2,0v8.1h16.9l0-8.4l0.3,0.1
		c0.9,0.3,1.8,0.4,2.7,0.4c4.9,0,8.8-4,8.8-8.8S35.5,5.9,30.7,5.9z M26.5,30.2H12v-2.7h14.4V30.2z M30.7,22.3
		c-1.1,0-2.3-0.3-3.3-0.8l-0.9-0.4v5.1h-2.7v-3.1h-1.2v3.1h-2.7v-3.1h-1.2v3.1h-2.7v-3.1h-1.2v3.1H12v-4.6l-0.8,0.3
		c-0.8,0.3-1.6,0.4-2.4,0.4c-4.2,0-7.6-3.4-7.6-7.6c0-4.2,3.4-7.6,7.6-7.6c1,0,1.9,0.2,2.8,0.5L12.3,8l0.2-0.7
		c0.9-3.3,3.9-5.6,7.3-5.6S26.1,4,27,7.3L27.2,8l0.6-0.3c0.9-0.4,1.8-0.5,2.8-0.5c4.2,0,7.6,3.4,7.6,7.6
		C38.2,18.9,34.8,22.3,30.7,22.3z"/>
	<path class="st0" d="M27.5,39.7c-0.4-0.4-3.9-3.8-6.3-3.8c-0.7,0-1.2,0.2-1.6,0.7l-0.2,0.2l-0.2-0.2c-0.4-0.5-0.9-0.7-1.6-0.7
		c-2.4,0-5.9,3.4-6.3,3.8l-0.9,0.9l1.2,0.2c0,0,1.4,0.2,3,0.2c2.3,0,3.7-0.4,4.5-1.1l0.1-0.1l0.1,0.1c0.8,0.8,2.3,1.1,4.5,1.1
		c1.6,0,3-0.2,3-0.2l1.2-0.2L27.5,39.7z M18.6,38.8c-0.2,0.3-1,0.9-3.8,0.9c-0.3,0-0.7,0-1,0l-0.5,0l0.4-0.3c1-0.8,2.8-2.2,4-2.2
		c0.3,0,0.7,0.1,0.9,0.7C18.8,38.4,18.7,38.7,18.6,38.8z M25.1,39.7c-0.3,0-0.6,0-1,0c-2.8,0-3.6-0.6-3.8-0.9
		c-0.1-0.1-0.2-0.4,0-0.9c0.2-0.7,0.6-0.7,0.9-0.7c1.2,0,3,1.4,4,2.2l0.4,0.3L25.1,39.7z"/>
</g>
</svg>
