<?xml version="1.0" encoding="utf-8"?>
<!-- Generator: Adobe Illustrator 19.1.1, SVG Export Plug-In . SVG Version: 6.00 Build 0)  -->
<svg version="1.1" id="Layer_1" xmlns="http://www.w3.org/2000/svg" xmlns:xlink="http://www.w3.org/1999/xlink" x="0px" y="0px"
	 viewBox="0 0 39 48.1" style="enable-background:new 0 0 39 48.1;" xml:space="preserve">
<style type="text/css">
	.st0{fill:none;stroke:#FFFFFF;stroke-width:1.8;stroke-linecap:round;stroke-linejoin:round;}
</style>
<g transform="matrix( 1, 0, 0, 1, 0,0) ">
	<g>
		<path id="b_1_" class="st0" d="M18.6,9.8c-4.1,0.5-7.5-0.5-10.2-3C7.7,6.2,7.3,5.4,7.1,4.4c-0.1-0.5,0-1,0.2-1.6
			c0.1-0.3,0.3-0.6,0.6-0.8c0.9-0.7,1.8-0.9,3-0.6C12,1.8,13,2.2,14.1,2.9c1.7,1.2,3.1,2.5,4.3,4.2c0.5,0.7,0.9,1.5,0.9,2.4
			c0.1-0.8,0.4-1.6,0.9-2.3c1.2-1.6,2.7-3,4.3-4.2c1-0.7,2.1-1.1,3.2-1.4c1.1-0.3,2.1-0.1,3,0.6c0.3,0.2,0.5,0.4,0.6,0.8
			c0.2,0.5,0.2,1,0.2,1.6c-0.1,1-0.6,1.8-1.3,2.5c-2.7,2.5-6.1,3.5-10.2,3 M21.8,10.8c1.1,0.4,2.2,1,3.5,1.7
			c0.6,0.4,1.1,0.8,1.4,1.1c0.2,0.2,0.4,0.5,0.7,0.9c0.1,0.2,0.3,0.6,0.5,1c0.5,1,1,2.1,1.5,3.3 M17.9,10.8c-1.1,0.4-2.2,1-3.5,1.7
			c-0.6,0.4-1.1,0.8-1.4,1.1c-0.2,0.2-0.4,0.5-0.7,0.9c-0.1,0.2-0.3,0.6-0.5,1c-0.5,1-1,2.1-1.5,3.3 M1.2,10.4h18.3h18.3v18.3v18.3
			H19.5H1.2V28.6V10.4z"/>
	</g>
	<g>
		<path id="a_1_" class="st0" d="M19.5,10.4v18.3h18.3 M19.5,46.9V28.6H1.2"/>
	</g>
</g>
</svg>
