<?xml version="1.0" encoding="utf-8"?>
<!-- Generator: Adobe Illustrator 19.0.0, SVG Export Plug-In . SVG Version: 6.00 Build 0)  -->
<svg version="1.1" id="Layer_1" xmlns="http://www.w3.org/2000/svg" xmlns:xlink="http://www.w3.org/1999/xlink" x="0px" y="0px"
	 viewBox="0 0 21 14.333" style="enable-background:new 0 0 21 14.333;" xml:space="preserve">
<style type="text/css">
	.Drop_x0020_Shadow{fill:none;}
	.Round_x0020_Corners_x0020_2_x0020_pt{fill:#FFFFFF;stroke:#000000;stroke-miterlimit:10;}
	.Live_x0020_Reflect_x0020_X{fill:none;}
	.Bevel_x0020_Soft{fill:url(#SVGID_1_);}
	.Dusk{fill:#FFFFFF;}
	.Foliage_GS{fill:#FFDD00;}
	.Pompadour_GS{fill-rule:evenodd;clip-rule:evenodd;fill:#44ADE2;}
	.st0{fill:#FFFFFF;}
</style>
<linearGradient id="SVGID_1_" gradientUnits="userSpaceOnUse" x1="-295.5" y1="-389.3333" x2="-294.7929" y2="-388.6262">
	<stop  offset="0" style="stop-color:#DEDFE3"/>
	<stop  offset="0.1738" style="stop-color:#D8D9DD"/>
	<stop  offset="0.352" style="stop-color:#C9CACD"/>
	<stop  offset="0.5323" style="stop-color:#B4B5B8"/>
	<stop  offset="0.7139" style="stop-color:#989A9C"/>
	<stop  offset="0.8949" style="stop-color:#797C7E"/>
	<stop  offset="1" style="stop-color:#656B6C"/>
</linearGradient>
<g>
	<path class="st0" d="M11.481,2.037c-0.534,0.603-1.066,1.203-1.62,1.827C8.962,3.092,7.985,2.729,6.896,2.799
		C5.926,2.86,5.055,3.218,4.32,3.895C2.907,5.198,2.498,7.181,3.343,8.934c0.833,1.727,2.498,2.564,4.043,2.391
		c2.08-0.233,3.256-1.243,3.542-2.917c-1.245,0-2.482,0-3.745,0c0-0.76,0-1.47,0-2.217c2.059,0,4.116,0,6.29,0
		c0.014,0.55,0.083,1.121,0.034,1.682c-0.231,2.683-1.682,5.034-4.754,5.719c-3.883,0.867-7.464-1.408-8.22-5.26
		c-0.728-3.707,1.673-7.25,5.601-7.901C8.083,0.109,10.35,0.835,11.481,2.037z"/>
	<path class="st0" d="M16.899,4.234c0.675,0,1.25,0,1.868,0c0,0.629,0,1.237,0,1.906c0.662,0,1.283,0,1.929,0
		c0,0.636,0,1.21,0,1.846c-0.611,0-1.232,0-1.894,0c0,0.667,0,1.275,0,1.925c-0.627,0-1.213,0-1.862,0c0-0.603,0-1.224,0-1.886
		c-0.668,0-1.276,0-1.921,0c0-0.628,0-1.215,0-1.848c0.602,0,1.209,0,1.88,0C16.899,5.515,16.899,4.894,16.899,4.234z"/>
</g>
</svg>
