<?xml version="1.0" encoding="utf-8"?>
<!-- Generator: Adobe Illustrator 19.1.1, SVG Export Plug-In . SVG Version: 6.00 Build 0)  -->
<svg version="1.1" id="Layer_1" xmlns="http://www.w3.org/2000/svg" xmlns:xlink="http://www.w3.org/1999/xlink" x="0px" y="0px"
	 viewBox="0 0 16.8 16.6" style="enable-background:new 0 0 16.8 16.6;" xml:space="preserve">
<style type="text/css">
	.st0{fill:#010101;}
</style>
<g>
	<g>
		<g>
			<path class="st0" d="M6.6,0.6c-1,5.1-2,10.2-3,15.3c-0.1,0.6,0.8,0.9,1,0.3c1-5.1,2-10.2,3-15.3C7.7,0.2,6.7,0,6.6,0.6L6.6,0.6z"
				/>
		</g>
	</g>
	<g>
		<g>
			<path class="st0" d="M12.2,0.6c-1,5.1-2,10.2-3,15.3c-0.1,0.6,0.8,0.9,1,0.3c1-5.1,2-10.2,3-15.3C13.3,0.2,12.3,0,12.2,0.6
				L12.2,0.6z"/>
		</g>
	</g>
	<g>
		<g>
			<path class="st0" d="M1.5,5.5c4.9,0,9.8,0,14.7,0.1c0.6,0,0.6-1,0-1c-4.9,0-9.8,0-14.7-0.1C0.9,4.5,0.9,5.5,1.5,5.5L1.5,5.5z"/>
		</g>
	</g>
	<g>
		<g>
			<path class="st0" d="M0.7,11.5c4.9,0,9.7,0.1,14.6,0.1c0.6,0,0.6-1,0-1c-4.9,0-9.7-0.1-14.6-0.1C0,10.5,0,11.5,0.7,11.5L0.7,11.5
				z"/>
		</g>
	</g>
</g>
</svg>
