<?xml version="1.0" encoding="utf-8"?>
<!-- Generator: Adobe Illustrator 19.1.1, SVG Export Plug-In . SVG Version: 6.00 Build 0)  -->
<svg version="1.1" id="Layer_1" xmlns="http://www.w3.org/2000/svg" xmlns:xlink="http://www.w3.org/1999/xlink" x="0px" y="0px"
	 viewBox="0 0 16 15.2" style="enable-background:new 0 0 16 15.2;" xml:space="preserve">
<style type="text/css">
	.st0{fill:#FFFFFF;}
</style>
<path class="st0" d="M15.8,6.9L8.4,0.3c0,0,0,0,0,0c-0.1-0.1-0.4-0.2-0.5,0L0.4,6.9C0.2,7,0.2,7.3,0.4,7.4c0.1,0.1,0.2,0.1,0.3,0.1
	c0.1,0,0.2,0,0.3-0.1l1.4-1.3v0.3V10v4c0,0.6,0.5,1.1,1.1,1.1c0,0,0,0,0,0c0,0,0,0,0,0h2.3c0.5,0,0.9-0.4,1-0.9c0,0,0-0.1,0-0.1
	v-3.9c0-0.1,0.1-0.2,0.2-0.2h2.4c0.1,0,0.2,0.1,0.2,0.2v3.9c0,0,0,0.1,0,0.1c0,0.5,0.5,0.9,1,0.9h2.3c0.6,0,1.1-0.6,1.1-1.3v-3.6V9
	V6.2l1.4,1.3c0.1,0.1,0.2,0.1,0.3,0.1c0.1,0,0.2,0,0.3-0.1C15.9,7.3,15.9,7.1,15.8,6.9z M13.1,9v1.1v3.6c0,0.3-0.2,0.6-0.3,0.6h-2.3
	c-0.1,0-0.2-0.1-0.2-0.2v-3.9c0-0.5-0.4-1-1-1H6.9c-0.5,0-1,0.4-1,1v3.9c0,0.1-0.1,0.2-0.2,0.2H3.4c0,0,0,0,0,0c0,0,0,0,0,0
	c-0.1,0-0.3-0.1-0.3-0.3v-4V6.5v-1l5-4.4l5,4.5L13.1,9L13.1,9z"/>
</svg>
