<?xml version="1.0" encoding="utf-8"?>
<!-- Generator: Adobe Illustrator 19.0.0, SVG Export Plug-In . SVG Version: 6.00 Build 0)  -->
<svg version="1.1" id="Layer_1" xmlns="http://www.w3.org/2000/svg" xmlns:xlink="http://www.w3.org/1999/xlink" x="0px" y="0px"
	 viewBox="0 0 16.083 16" style="enable-background:new 0 0 16.083 16;" xml:space="preserve">
<style type="text/css">
	.Drop_x0020_Shadow{fill:none;}
	.Round_x0020_Corners_x0020_2_x0020_pt{fill:#FFFFFF;stroke:#000000;stroke-miterlimit:10;}
	.Live_x0020_Reflect_x0020_X{fill:none;}
	.Bevel_x0020_Soft{fill:url(#SVGID_1_);}
	.Dusk{fill:#FFFFFF;}
	.Foliage_GS{fill:#FFDD00;}
	.Pompadour_GS{fill-rule:evenodd;clip-rule:evenodd;fill:#44ADE2;}
	.st0{fill:#FFFFFF;}
</style>
<linearGradient id="SVGID_1_" gradientUnits="userSpaceOnUse" x1="-298.4167" y1="-388.3333" x2="-297.7096" y2="-387.6262">
	<stop  offset="0" style="stop-color:#DEDFE3"/>
	<stop  offset="0.1738" style="stop-color:#D8D9DD"/>
	<stop  offset="0.352" style="stop-color:#C9CACD"/>
	<stop  offset="0.5323" style="stop-color:#B4B5B8"/>
	<stop  offset="0.7139" style="stop-color:#989A9C"/>
	<stop  offset="0.8949" style="stop-color:#797C7E"/>
	<stop  offset="1" style="stop-color:#656B6C"/>
</linearGradient>
<g id="VqFZLC.tif">
	<g>
		<path class="st0" d="M0.469,8.042c0-0.709-0.018-1.419,0.005-2.127c0.021-0.653,0.04-1.311,0.143-1.954
			c0.267-1.669,1.359-2.857,2.938-3.281C4.17,0.514,4.799,0.471,5.43,0.465c1.41-0.014,2.821-0.03,4.231-0.022
			c0.723,0.004,1.449,0.03,2.169,0.099c0.958,0.092,1.818,0.44,2.523,1.123c0.538,0.521,0.883,1.15,1.079,1.867
			c0.167,0.611,0.207,1.236,0.214,1.863c0.015,1.422,0.025,2.844,0.024,4.266c-0.001,0.771-0.005,1.543-0.118,2.308
			c-0.116,0.787-0.388,1.512-0.905,2.133c-0.577,0.693-1.314,1.12-2.184,1.333c-0.575,0.141-1.162,0.178-1.75,0.184
			c-1.363,0.014-2.727,0.027-4.09,0.023c-0.689-0.002-1.379-0.023-2.066-0.07c-0.84-0.057-1.634-0.284-2.328-0.783
			c-0.864-0.62-1.368-1.473-1.588-2.504c-0.112-0.524-0.14-1.057-0.15-1.591C0.474,9.81,0.466,8.926,0.454,8.042
			C0.459,8.042,0.464,8.042,0.469,8.042z M10.085,14.265c0-0.007,0-0.015,0-0.022c0.222,0,0.444,0.005,0.666-0.001
			c0.495-0.015,0.988-0.038,1.47-0.168c0.703-0.19,1.253-0.583,1.614-1.219c0.265-0.466,0.379-0.981,0.4-1.511
			c0.034-0.852,0.06-1.705,0.063-2.557c0.004-1.149-0.014-2.298-0.031-3.447c-0.006-0.444-0.035-0.887-0.135-1.322
			c-0.162-0.702-0.517-1.274-1.128-1.668C12.509,2.03,11.951,1.9,11.373,1.876c-0.856-0.037-1.713-0.061-2.569-0.064
			c-1.145-0.004-2.29,0.014-3.436,0.031C4.925,1.849,4.482,1.877,4.046,1.977C3.339,2.139,2.764,2.497,2.37,3.113
			C2.054,3.609,1.926,4.168,1.902,4.746c-0.036,0.84-0.059,1.681-0.063,2.522c-0.006,1.087,0.007,2.174,0.023,3.261
			c0.008,0.517,0.022,1.036,0.145,1.544c0.252,1.047,0.886,1.724,1.934,2.005c0.548,0.147,1.109,0.155,1.669,0.171
			c0.491,0.014,0.982,0.014,1.472,0.015C8.083,14.267,9.084,14.265,10.085,14.265z"/>
		<path class="st0" d="M4.161,8.042C4.16,5.886,5.907,4.135,8.059,4.134c2.177,0,3.917,1.743,3.917,3.925
			c0,2.147-1.756,3.891-3.916,3.89C5.907,11.948,4.162,10.199,4.161,8.042z M5.542,8.035c0,1.382,1.123,2.517,2.47,2.539
			c1.406,0.022,2.562-1.114,2.587-2.483c0.025-1.419-1.137-2.576-2.502-2.575C6.672,5.515,5.541,6.63,5.542,8.035z"/>
		<path class="st0" d="M12.129,4.898c-0.514,0.002-0.919-0.404-0.918-0.921c0.001-0.501,0.406-0.908,0.906-0.91
			c0.509-0.002,0.922,0.402,0.924,0.904C13.044,4.489,12.643,4.896,12.129,4.898z"/>
	</g>
</g>
</svg>
