<?xml version="1.0" encoding="utf-8"?>
<!-- Generator: Adobe Illustrator 19.1.1, SVG Export Plug-In . SVG Version: 6.00 Build 0)  -->
<svg version="1.1" id="Layer_1" xmlns="http://www.w3.org/2000/svg" xmlns:xlink="http://www.w3.org/1999/xlink" x="0px" y="0px"
	 viewBox="0 0 56.5 29" style="enable-background:new 0 0 56.5 29;" xml:space="preserve">
<style type="text/css">
	.st0{fill:#FFFFFF;}
</style>
<g>
	<path class="st0" d="M47.2,9.1L47.2,9.1c-0.2-0.2-0.5-0.3-0.8-0.3l0,0c-0.3,0-0.6,0.1-0.8,0.3l-3.1,3.1c-0.5,0.5-0.5,1.2,0,1.7
		c0.2,0.2,0.5,0.3,0.9,0.3c0.2,0,0.5,0,0.6-0.1l3.2-3.2C47.7,10.3,47.7,9.6,47.2,9.1z"/>
	<path class="st0" d="M53.1,17.7L53.1,17.7c-0.3-0.6-1-0.9-1.6-0.6l-4.1,1.7c-0.6,0.3-0.8,0.9-0.6,1.6c0.2,0.4,0.6,0.6,1.1,0.6
		c0.1,0,0.3,0,0.4-0.1l4.1-1.7C53.1,19,53.3,18.3,53.1,17.7z"/>
	<path class="st0" d="M54.5,26.2H41.3l0-0.6c-0.4-6.8-6.2-12.4-13-12.4c-6.8,0-12.7,5.5-13.1,12.4l0,0.6H1.8c-0.6,0-1,0.5-1,1
		c0,0.6,0.5,1,1,1h52.7c0.6,0,1-0.5,1-1C55.5,26.7,55.1,26.2,54.5,26.2z M28.1,15.3c5.7,0,10.6,4.5,11,10.2l0,0.6H17l0-0.6
		C17.5,19.8,22.3,15.3,28.1,15.3z"/>
	<g>
		<path class="st0" d="M38.6,3.1L38.6,3.1c-0.3-0.1-0.7-0.1-0.9,0c-0.3,0.1-0.5,0.3-0.6,0.6l-1.7,4.1c-0.1,0.3-0.1,0.6,0,0.9
			C35.4,9,35.6,9.2,36,9.4l0.1,0c0.1,0,0.2,0,0.3,0c0.4,0,0.8-0.3,1.2-0.8l1.7-4C39.4,4.1,39.2,3.4,38.6,3.1z"/>
		<path class="st0" d="M27.8,1c-0.6,0-1.2,0.6-1.2,1.2v4c0,0.6,0.6,1.2,1.2,1.2c0.6,0,1.2-0.6,1.2-1.2v-4C28.9,1.6,28.4,1,27.8,1z"
			/>
		<path class="st0" d="M19.4,3.8L19.4,3.8c-0.3-0.6-0.9-0.8-1.6-0.6c-0.6,0.3-0.8,0.9-0.5,1.6l1.6,3.9l0,0.1
			c0.2,0.3,0.5,0.7,1.1,0.7c0,0,0,0,0,0l0.2,0c0.1,0,0.1,0,0.2-0.1l0.2-0.1c0.5-0.3,0.7-0.9,0.4-1.5L19.4,3.8z"/>
	</g>
	<g>
		<path class="st0" d="M8.8,18.8l-4.1-1.7c-0.3-0.1-0.6-0.1-0.9,0c-0.3,0.1-0.5,0.3-0.6,0.6C3,18,3,18.4,3.2,18.6
			c0.1,0.3,0.3,0.5,0.5,0.6l0,0l0,0c0,0,0.1,0,0.1,0L7.9,21c0.2,0.1,0.3,0.1,0.5,0.1c0.5,0,0.9-0.3,1.1-0.8
			C9.6,19.7,9.4,19,8.8,18.8z"/>
		<path class="st0" d="M13.7,12.1L10.6,9c-0.2-0.2-0.5-0.3-0.8-0.3c0,0,0,0,0,0C9.5,8.6,9.2,8.8,9,9C8.7,9.2,8.6,9.5,8.6,9.8
			c0,0.3,0.1,0.6,0.4,0.8l3.1,3.1c0.2,0.2,0.5,0.3,0.9,0.3c0.2,0,0.5,0,0.6-0.1l0.1-0.1c0.2-0.2,0.4-0.5,0.4-0.9
			C14,12.6,13.9,12.3,13.7,12.1z"/>
	</g>
</g>
</svg>
