<?xml version="1.0" encoding="utf-8"?>
<!-- Generator: Adobe Illustrator 19.1.1, SVG Export Plug-In . SVG Version: 6.00 Build 0)  -->
<svg version="1.1" id="Layer_1" xmlns="http://www.w3.org/2000/svg" xmlns:xlink="http://www.w3.org/1999/xlink" x="0px" y="0px"
	 viewBox="0 0 15.3 14.7" style="enable-background:new 0 0 15.3 14.7;" xml:space="preserve">
<style type="text/css">
	.st0{fill:#1C1C1C;stroke:#1C1C1C;stroke-width:0.3;stroke-miterlimit:10;}
</style>
<g>
	<polygon class="st0" points="7.6,3.9 10.7,7 0.1,7 0.1,7.7 10.7,7.7 7.6,10.8 8.1,11.4 12.2,7.4 8.1,3.3 	"/>
	<path class="st0" d="M6.9,14.5h5.6c1.5,0,2.7-1.2,2.7-2.7V2.9c0-1.5-1.2-2.7-2.7-2.7H6.9c-1.5,0-2.7,1.2-2.7,2.7V5H5V2.9
		C5,1.8,5.8,1,6.9,1h5.6c1.1,0,1.9,0.9,1.9,1.9v8.9c0,1.1-0.9,1.9-1.9,1.9H6.9c-1.1,0-1.9-0.9-1.9-1.9V9.8H4.2v2.1
		C4.2,13.3,5.4,14.5,6.9,14.5z"/>
</g>
</svg>
