<?xml version="1.0" encoding="utf-8"?>
<!-- Generator: Adobe Illustrator 19.1.1, SVG Export Plug-In . SVG Version: 6.00 Build 0)  -->
<svg version="1.1" id="Layer_1" xmlns="http://www.w3.org/2000/svg" xmlns:xlink="http://www.w3.org/1999/xlink" x="0px" y="0px"
	 viewBox="0 0 17.8 18.2" style="enable-background:new 0 0 17.8 18.2;" xml:space="preserve">
<style type="text/css">
	.st0{fill:#FFFFFF;}
</style>
<g>
	<path class="st0" d="M16.3,8.5L16.3,8.5c-0.3-1.2-0.9-1.9-1.2-2.1l-0.2-4.6C15,1.7,15,1.5,15,1.4l0-0.1c0-0.4-0.3-0.7-0.4-0.7
		c0,0-0.1,0-0.1,0h-1.8c0,0-0.1,0-0.1,0c-0.2,0.1-0.4,0.3-0.4,0.7l0,0.1c0,0.1,0,0.3,0.2,0.4l-0.3,4.6C12,6.6,11.6,7,11.3,7.8
		C11,7,10.6,6.6,10.4,6.4l-0.2-4.6c0.2-0.1,0.2-0.3,0.2-0.4l0-0.1c0-0.4-0.3-0.7-0.4-0.7c0,0-0.1,0-0.1,0H8.1c0,0-0.1,0-0.1,0
		C7.8,0.6,7.6,0.8,7.6,1.3l0,0.1c0,0.1,0,0.3,0.2,0.4L7.5,6.4C7.3,6.6,6.9,7,6.6,7.8C6.3,7,5.9,6.6,5.7,6.4L5.5,1.8
		c0.2-0.1,0.2-0.3,0.2-0.4l0-0.1c0-0.4-0.3-0.7-0.4-0.7c0,0-0.1,0-0.1,0H3.4c0,0-0.1,0-0.1,0C3.1,0.6,2.9,0.8,2.9,1.3l0,0.1
		c0,0.1,0,0.3,0.2,0.4L2.8,6.4C2.5,6.6,1.9,7.3,1.7,8.5H1.5C0.8,8.5,0.3,9,0.3,9.6v7.1c0,0.6,0.5,1.1,1.1,1.1h14.8
		c0.6,0,1.1-0.5,1.1-1.1V9.6C17.4,9,16.9,8.5,16.3,8.5z M12.9,1.1h1.5c0,0,0,0.1,0,0.1l0,0c-0.2,0.1-0.2,0.2-0.2,0.4
		c0,0,0,0.1,0,0.1l0,0.4H13l0-0.4c0,0,0,0,0-0.1c0-0.1,0-0.3-0.2-0.4l0,0C12.9,1.2,12.9,1.1,12.9,1.1z M14.3,3.9h-1.4L13,2.7h1.3
		L14.3,3.9z M12.7,6.8c0.1-0.1,0.1-0.1,0.1-0.2l0.1-2h1.5l0.1,2c0,0.1,0.1,0.2,0.1,0.2c0,0,0.7,0.5,0.9,1.7h-3.8
		C12,7.3,12.6,6.8,12.7,6.8z M8.2,1.1h1.5c0,0,0,0.1,0,0.1l0,0C9.5,1.3,9.5,1.5,9.5,1.6c0,0,0,0.1,0,0.1l0,0.4H8.4l0-0.4
		c0,0,0,0,0-0.1c0-0.1,0-0.3-0.2-0.4l0,0C8.2,1.2,8.2,1.1,8.2,1.1z M9.6,3.9H8.2l0.1-1.3h1.3L9.6,3.9z M8,6.8C8,6.7,8.1,6.6,8.1,6.5
		l0.1-2h1.5l0.1,2c0,0.1,0.1,0.2,0.1,0.2c0,0,0.7,0.5,0.9,1.7H7C7.3,7.3,7.9,6.8,8,6.8z M3.5,1.1H5c0,0,0,0.1,0,0.1l0,0
		C4.8,1.3,4.8,1.5,4.8,1.6c0,0,0,0.1,0,0.1l0,0.4H3.7l0-0.4c0,0,0,0,0-0.1c0-0.1,0-0.3-0.2-0.4l0,0C3.5,1.2,3.5,1.1,3.5,1.1z
		 M4.9,3.9H3.6l0.1-1.3h1.3L4.9,3.9z M3.3,6.8c0.1-0.1,0.1-0.1,0.1-0.2l0.1-2H5l0.1,2c0,0.1,0.1,0.2,0.1,0.2c0,0,0.7,0.5,0.9,1.7
		H2.3C2.6,7.3,3.2,6.8,3.3,6.8z M16.7,16.7c0,0.3-0.2,0.5-0.5,0.5H1.5C1.2,17.2,1,17,1,16.7V9.6c0-0.3,0.2-0.5,0.5-0.5h14.8
		c0.3,0,0.5,0.2,0.5,0.5V16.7z"/>
	<path class="st0" d="M12.1,10.1H5.4c-0.7,0-1.2,0.5-1.2,1.2c0,0.7,0.5,1.2,1.2,1.2h6.7c0.7,0,1.2-0.5,1.2-1.2
		C13.3,10.6,12.7,10.1,12.1,10.1z M12.1,11.8H5.4c-0.3,0-0.6-0.3-0.6-0.6c0-0.3,0.3-0.6,0.6-0.6h6.7c0.3,0,0.6,0.3,0.6,0.6
		C12.6,11.6,12.4,11.8,12.1,11.8z"/>
</g>
</svg>
