<?xml version="1.0" encoding="utf-8"?>
<!-- Generator: Adobe Illustrator 19.1.1, SVG Export Plug-In . SVG Version: 6.00 Build 0)  -->
<svg version="1.1" id="Layer_1" xmlns="http://www.w3.org/2000/svg" xmlns:xlink="http://www.w3.org/1999/xlink" x="0px" y="0px"
	 viewBox="0 0 22.3 16.1" style="enable-background:new 0 0 22.3 16.1;" xml:space="preserve">
<style type="text/css">
	.st0{fill:#010101;}
</style>
<g>
	<path class="st0" d="M18.6,12.6h-5c-0.2,0-0.4,0.2-0.4,0.4s0.2,0.4,0.4,0.4h5c0.2,0,0.4-0.2,0.4-0.4S18.8,12.6,18.6,12.6z"/>
	<path class="st0" d="M4.7,15.8h15.1c1.1,0,2-0.9,2-2V4.6c0-1.1-0.9-2-2-2h-0.2V2.4c0-1.1-0.9-2-2-2H2.5c-1.1,0-2,0.9-2,2v9.2
		c0,1.1,0.9,2,2,2h0.2v0.2C2.7,14.9,3.6,15.8,4.7,15.8z M21.2,13.8c0,0.7-0.6,1.3-1.3,1.3H4.7c-0.7,0-1.3-0.6-1.3-1.3V8.3h17.7V13.8
		z M21.2,7.6H3.4V5.8h17.7V7.6z M19.9,3.3c0.7,0,1.3,0.6,1.3,1.3v0.5H3.4V4.6c0-0.7,0.6-1.3,1.3-1.3H19.9z M2.5,12.9
		c-0.7,0-1.3-0.6-1.3-1.3V2.4c0-0.7,0.6-1.3,1.3-1.3h15.1c0.7,0,1.3,0.6,1.3,1.3v0.2H4.7c-1.1,0-2,0.9-2,2v8.3H2.5z"/>
</g>
</svg>
