<?xml version="1.0" encoding="utf-8"?>
<!-- Generator: Adobe Illustrator 19.1.1, SVG Export Plug-In . SVG Version: 6.00 Build 0)  -->
<svg version="1.1" id="Layer_1" xmlns="http://www.w3.org/2000/svg" xmlns:xlink="http://www.w3.org/1999/xlink" x="0px" y="0px"
	 viewBox="0 0 20 20.4" style="enable-background:new 0 0 20 20.4;" xml:space="preserve">
<style type="text/css">
	.st0{fill:none;stroke:#010101;stroke-width:0.8;stroke-miterlimit:10;}
</style>
<path class="st0" d="M19.1,15.2c-0.1-0.1-0.2-0.2-0.2-0.3l-0.5-0.5c-1.9-1.9-2.7-2.6-2.7-2.7c-0.1-0.1-0.2-0.2-0.3-0.2
	c-0.9-0.9-1.6-0.2-2.4,1.1c-0.1,0.1-0.2,0.2-0.2,0.3l0,0c0,0,0,0.1-0.1,0.1c-1,1.5-0.9,1.5-1.2,1.4c0,0,0,0,0,0
	c-1.1-0.3-1-0.4-3.1-2.6C6.1,9.8,6,10,5.7,8.9c0,0,0,0,0,0c-0.1-0.3,0-0.3,1.4-1.2v0c0,0,0.1,0,0.1-0.1l0,0c0.1-0.1,0.2-0.1,0.3-0.2
	c1.3-0.9,2-1.5,1.1-2.4C8.6,4.8,8.5,4.7,8.5,4.6C8.4,4.5,7.6,3.8,5.8,1.9L5.3,1.4C5.2,1.3,5.1,1.2,5,1.2c-1-1-2-0.3-3,1.3
	C1,4,0.7,4.9,0.7,4.9C0.2,6.3,1.1,8.1,1.4,8.7c1.2,2.1,1.7,2.9,4.5,5.6c2.7,2.7,3.6,3.2,5.6,4.5c0.6,0.4,2.3,1.2,3.8,0.8
	c0,0,0.9-0.3,2.5-1.3C19.3,17.2,20,16.2,19.1,15.2z"/>
</svg>
