<?xml version="1.0" encoding="utf-8"?>
<!-- Generator: Adobe Illustrator 19.1.1, SVG Export Plug-In . SVG Version: 6.00 Build 0)  -->
<svg version="1.1" id="Layer_1" xmlns="http://www.w3.org/2000/svg" xmlns:xlink="http://www.w3.org/1999/xlink" x="0px" y="0px"
	 viewBox="0 0 21.8 21.8" style="enable-background:new 0 0 21.8 21.8;" xml:space="preserve">
<style type="text/css">
	.st0{fill:#3A3B3B;}
</style>
<path class="st0" d="M8,4.8C8,4,8.3,3.2,8.9,2.7c0.1-0.1,0.4-0.1,0.5,0c0.1,0.1,0.1,0.4,0,0.5C9,3.6,8.8,4.2,8.8,4.8
	c0,0.2-0.2,0.4-0.4,0.4C8.2,5.2,8,5,8,4.8z M10.2,2.7c0.3-0.1,0.6-0.2,0.9-0.2c0.2,0,0.4-0.2,0.4-0.4c0-0.2-0.2-0.4-0.4-0.4
	c-0.4,0-0.8,0.1-1.2,0.2C9.7,2.1,9.6,2.3,9.7,2.5C9.7,2.7,10,2.8,10.2,2.7C10.2,2.7,10.2,2.7,10.2,2.7z M20.9,10
	c-0.8,1.7-3.4,4-5.6,4c0,0.2,0,0.4-0.1,0.6c-0.2,0.5-0.8,0.7-1.3,0.5l-2.7,6.1c-0.1,0.2-0.3,0.3-0.5,0.2c-0.1,0-0.2-0.1-0.2-0.2
	l-3-5.9c-0.5,0.2-1.1,0-1.3-0.6c-0.1-0.2-0.1-0.4,0-0.6C4,13.9,1.5,11.4,0.8,9.7c-1-2.2,0.1-4.8,2.3-5.7c1.1-0.5,2.3-0.5,3.4,0
	C7,1.5,9.4,0,11.8,0.5c1.7,0.4,3.1,1.7,3.4,3.5C17.4,3,20,4,21,6.2C21.5,7.4,21.5,8.8,20.9,10z M10.5,10.5h0.7
	c0.4,0,0.8-0.3,1.2-0.6c-0.1-2.1,0.5-4.3,2.2-5.5c-0.3-2-2.1-3.5-4.1-3.2c-1.7,0.2-3,1.6-3.2,3.3C7,6.5,8.6,10.2,10.5,10.5z M7,13.1
	c0.8-0.4,1.4-1.4,1.5-3C7.3,8.8,6.4,6.4,6.4,4.7c-1.8-0.9-4-0.2-4.9,1.7C1.1,7.3,1,8.4,1.5,9.4c0.6,1.2,1.4,2.2,2.5,2.9
	C5.1,13.2,6.3,13.5,7,13.1z M7.7,13.7L7,13.9c-0.1,0.1-0.2,0.3-0.1,0.4c0.1,0.1,0.2,0.2,0.3,0.1l0.6-0.3C8,14.1,8.1,14,8,13.8
	C7.9,13.7,7.8,13.6,7.7,13.7z M10.5,12.7L10.5,12.7c-0.6,0-1.1-0.5-1.1-1.1c0-0.2,0.1-0.4,0.2-0.6c-0.1-0.1-0.3-0.2-0.4-0.3
	c-0.1,0.8-0.4,1.7-1,2.3c0.5,0.3,0.6,0.9,0.4,1.4c-0.1,0.2-0.3,0.3-0.4,0.4l2.3,4.6V12.7z M11.3,12L11.3,12c0.2,0,0.4-0.2,0.4-0.4
	c0-0.2-0.2-0.4-0.4-0.4h-0.7c-0.2,0-0.4,0.2-0.4,0.4c0,0.2,0.2,0.4,0.4,0.4H11.3z M13.2,14.8L13.2,14.8c-0.5-0.3-0.7-0.9-0.5-1.4
	c0.1-0.2,0.3-0.4,0.5-0.5c-0.4-0.6-0.7-1.4-0.8-2.2c-0.1,0.1-0.2,0.1-0.3,0.2c0.4,0.5,0.3,1.2-0.2,1.5c-0.2,0.1-0.4,0.2-0.6,0.2l0,0
	v6.6L13.2,14.8z M14.4,13.9l-0.6-0.3c-0.1-0.1-0.3-0.1-0.4,0.1c0,0,0,0,0,0c-0.1,0.2,0,0.3,0.1,0.4l0.6,0.3c0.1,0.1,0.3,0,0.4-0.1
	C14.6,14.1,14.6,14,14.4,13.9L14.4,13.9L14.4,13.9z M20.4,6.9C20,5.4,18.6,4.4,17,4.4c-4.7,0-4.8,7.6-2.5,8.7l0,0
	c0.8,0.4,1.9,0.1,3.2-0.7c1.1-0.7,2-1.6,2.6-2.8C20.7,8.8,20.8,7.8,20.4,6.9z M18.5,5.8c-0.4-0.2-0.8-0.3-1.2-0.3
	c-0.2,0-0.4,0.1-0.4,0.3s0.1,0.4,0.3,0.4c0.3,0,0.6,0.1,0.9,0.2c0.2,0.1,0.4,0,0.5-0.2C18.7,6.1,18.6,5.9,18.5,5.8z M16.1,5.6
	c-0.8,0.3-1.4,0.8-1.8,1.5c-0.1,0.2,0,0.4,0.2,0.5c0.2,0.1,0.4,0,0.5-0.2c0.1-0.3,0.3-0.5,0.6-0.7c0.2-0.2,0.5-0.3,0.8-0.4
	c0.2-0.1,0.3-0.3,0.2-0.5S16.3,5.6,16.1,5.6L16.1,5.6z M4.1,5.3C3.7,5.5,3.4,5.7,3.1,6C3,6.1,3,6.4,3.1,6.5c0.1,0.1,0.3,0.1,0.5,0
	C3.8,6.3,4.1,6.1,4.4,6c0.2-0.1,0.2-0.3,0.1-0.5C4.4,5.3,4.2,5.3,4.1,5.3z M3,8.1C3,7.8,3,7.5,3.1,7.2c0.1-0.2,0-0.4-0.2-0.5
	C2.7,6.7,2.5,6.8,2.4,7c-0.3,0.7-0.3,1.6,0,2.3C2.6,9.5,2.8,9.6,3,9.5C3.1,9.4,3.2,9.2,3.1,9l0,0C3,8.7,2.9,8.4,3,8.1L3,8.1z"/>
</svg>
