<?xml version="1.0" encoding="utf-8"?>
<!-- Generator: Adobe Illustrator 19.1.1, SVG Export Plug-In . SVG Version: 6.00 Build 0)  -->
<svg version="1.1" id="Layer_1" xmlns="http://www.w3.org/2000/svg" xmlns:xlink="http://www.w3.org/1999/xlink" x="0px" y="0px"
	 viewBox="0 0 19.8 19.7" style="enable-background:new 0 0 19.8 19.7;" xml:space="preserve">
<style type="text/css">
	.st0{fill:#010101;}
</style>
<g>
	<g>
		<g>
			<path class="st0" d="M10.2,7.7c-0.3,0-0.4,0.2-0.4,0.5c0,1.8,0,3.5,0,5.3c0,0.3,0.2,0.5,0.4,0.5c0.3,0,0.4-0.2,0.4-0.6
				c0-0.9,0-1.8,0-2.6c0-0.9,0-1.8,0-2.7C10.6,7.9,10.4,7.7,10.2,7.7z"/>
			<path class="st0" d="M10.2,5.7C9.8,5.7,9.6,6,9.6,6.3c0,0.3,0.3,0.6,0.6,0.6c0.3,0,0.6-0.3,0.6-0.6C10.8,6,10.5,5.7,10.2,5.7z"/>
		</g>
	</g>
	<g>
		<g>
			<path class="st0" d="M10,1.3c4.7,0,8.6,3.8,8.6,8.6c0,4.7-3.8,8.6-8.6,8.6c-4.7,0-8.6-3.8-8.6-8.6C1.5,5.2,5.3,1.3,10,1.3
				 M10,0.5c-5.2,0-9.4,4.2-9.4,9.4s4.2,9.4,9.4,9.4c5.2,0,9.4-4.2,9.4-9.4S15.2,0.5,10,0.5L10,0.5z"/>
		</g>
	</g>
</g>
</svg>
