<?xml version="1.0" encoding="utf-8"?>
<!-- Generator: Adobe Illustrator 19.1.1, SVG Export Plug-In . SVG Version: 6.00 Build 0)  -->
<svg version="1.1" id="Layer_1" xmlns="http://www.w3.org/2000/svg" xmlns:xlink="http://www.w3.org/1999/xlink" x="0px" y="0px"
	 viewBox="0 0 15.8 15.1" style="enable-background:new 0 0 15.8 15.1;" xml:space="preserve">
<style type="text/css">
	.st0{fill:#3A3B3B;}
</style>
<path class="st0" d="M15.6,6.8L8.2,0.2c0,0,0,0,0,0C8,0.1,7.8,0,7.6,0.2L0.2,6.8c-0.2,0.1-0.2,0.4,0,0.6c0.1,0.1,0.2,0.1,0.3,0.1
	c0.1,0,0.2,0,0.3-0.1l1.4-1.3v0.3v3.5v4c0,0.6,0.5,1.1,1.1,1.1c0,0,0,0,0,0c0,0,0,0,0,0h2.3c0.5,0,0.9-0.4,1-0.9c0,0,0-0.1,0-0.1
	v-3.9c0-0.1,0.1-0.2,0.2-0.2h2.4c0.1,0,0.2,0.1,0.2,0.2V14c0,0,0,0.1,0,0.1c0,0.5,0.5,0.9,1,0.9h2.3c0.6,0,1.1-0.6,1.1-1.3v-3.6V9
	V6.2l1.4,1.3c0.1,0.1,0.2,0.1,0.3,0.1c0.1,0,0.2,0,0.3-0.1C15.8,7.2,15.8,7,15.6,6.8z M12.9,9v1.1v3.6c0,0.3-0.2,0.6-0.3,0.6h-2.3
	c-0.1,0-0.2-0.1-0.2-0.2v-3.9c0-0.5-0.4-1-1-1H6.7c-0.5,0-1,0.4-1,1V14c0,0.1-0.1,0.2-0.2,0.2H3.3c0,0,0,0,0,0c0,0,0,0,0,0
	c-0.1,0-0.3-0.1-0.3-0.3v-4V6.5v-1l5-4.4l5,4.5L12.9,9L12.9,9z"/>
</svg>
