<?xml version="1.0" encoding="utf-8"?>
<!-- Generator: Adobe Illustrator 19.1.1, SVG Export Plug-In . SVG Version: 6.00 Build 0)  -->
<svg version="1.1" id="Layer_1" xmlns="http://www.w3.org/2000/svg" xmlns:xlink="http://www.w3.org/1999/xlink" x="0px" y="0px"
	 viewBox="0 0 13.9 20.4" style="enable-background:new 0 0 13.9 20.4;" xml:space="preserve">
<style type="text/css">
	.st0{fill:#3A3B3B;}
</style>
<g>
	<path class="st0" d="M9.4,20.1H4.5c-0.1,0-0.3-0.1-0.3-0.2c-0.1-0.1,0-0.3,0.1-0.4l2.4-2.1c0.1-0.1,0.3-0.1,0.5,0l2.4,2.1
		c0.1,0.1,0.2,0.2,0.1,0.4C9.7,20.1,9.6,20.1,9.4,20.1z M5.5,19.4h3L7,18.2L5.5,19.4z"/>
	<path class="st0" d="M7,18.2c-0.2,0-0.3-0.1-0.3-0.3v-5.1c0-0.2,0.2-0.3,0.3-0.3c0.2,0,0.3,0.1,0.3,0.3v5.1C7.3,18,7.2,18.2,7,18.2
		z"/>
	<path class="st0" d="M7,13.2c-0.1,0-0.2,0-0.3-0.1L0.4,5.7C0.3,5.6,0.3,5.5,0.4,5.4c0.1-0.1,0.2-0.2,0.3-0.2h12.6
		c0.1,0,0.3,0.1,0.3,0.2c0.1,0.1,0,0.3-0.1,0.4l-6.3,7.3C7.2,13.2,7.1,13.2,7,13.2z M1.4,5.9L7,12.3l5.5-6.5H1.4z"/>
	<path class="st0" d="M6.6,4.8c-0.2,0-0.3-0.2-0.3-0.3C6.3,3.1,5.2,2,3.8,2S1.4,3.1,1.4,4.5c0,0.2-0.2,0.3-0.3,0.3S0.7,4.7,0.7,4.5
		c0-1.7,1.4-3.1,3.1-3.1S7,2.7,7,4.5C7,4.7,6.8,4.8,6.6,4.8z"/>
	<path class="st0" d="M7.3,11.1c0,0-0.1,0-0.1,0C7,11,6.9,10.8,7,10.6l4.5-10.1c0.1-0.2,0.3-0.3,0.5-0.2c0.2,0.1,0.3,0.3,0.2,0.5
		L7.6,10.9C7.6,11,7.5,11.1,7.3,11.1z"/>
</g>
</svg>
