<?xml version="1.0" encoding="utf-8"?>
<!-- Generator: Adobe Illustrator 19.1.1, SVG Export Plug-In . SVG Version: 6.00 Build 0)  -->
<svg version="1.1" id="Layer_1" xmlns="http://www.w3.org/2000/svg" xmlns:xlink="http://www.w3.org/1999/xlink" x="0px" y="0px"
	 viewBox="0 0 21 21.9" style="enable-background:new 0 0 21 21.9;" xml:space="preserve">
<style type="text/css">
	.st0{fill:#010101;stroke:#010101;stroke-width:0.2;stroke-miterlimit:10;}
</style>
<g>
	<g>
		<rect x="0.6" y="17.8" class="st0" width="2.8" height="0.5"/>
	</g>
	<g>
		<rect x="0.6" y="15.5" class="st0" width="2.8" height="0.5"/>
	</g>
	<g>
		<rect x="0.6" y="13.2" class="st0" width="2.8" height="0.5"/>
	</g>
	<g>
		<rect x="0.6" y="10.9" class="st0" width="2.8" height="0.5"/>
	</g>
	<g>
		<rect x="0.6" y="8.6" class="st0" width="2.8" height="0.5"/>
	</g>
	<g>
		<rect x="0.6" y="6.3" class="st0" width="2.8" height="0.5"/>
	</g>
	<g>
		<rect x="0.6" y="4" class="st0" width="2.8" height="0.5"/>
	</g>
	<path class="st0" d="M17.5,21.5H4.8c-1.6,0-3-1.3-3-3V3.8c0-1.6,1.3-3,3-3h12.7c1.6,0,3,1.3,3,3v14.7
		C20.5,20.2,19.1,21.5,17.5,21.5z M4.8,1.3c-1.4,0-2.5,1.1-2.5,2.5v14.7c0,1.4,1.1,2.5,2.5,2.5h12.7c1.4,0,2.5-1.1,2.5-2.5V3.8
		c0-1.4-1.1-2.5-2.5-2.5H4.8z"/>
	<path class="st0" d="M11.4,17.2c-3.3,0-6-2.7-6-6c0-3.3,2.7-6,6-6c3.3,0,6,2.7,6,6C17.4,14.5,14.7,17.2,11.4,17.2z M11.4,5.6
		c-3,0-5.5,2.5-5.5,5.5c0,3,2.5,5.5,5.5,5.5s5.5-2.5,5.5-5.5C16.9,8.1,14.4,5.6,11.4,5.6z"/>
	<path class="st0" d="M9.2,9.9c0-0.4,0.1-0.7,0.2-1c0.1-0.3,0.3-0.6,0.5-0.8c0.2-0.2,0.5-0.4,0.7-0.5c0.3-0.1,0.6-0.2,1-0.2
		c0.3,0,0.6,0,0.8,0.1c0.3,0.1,0.5,0.2,0.7,0.4c0.2,0.2,0.3,0.4,0.5,0.6c0.1,0.2,0.2,0.5,0.2,0.8c0,0.4-0.1,0.7-0.3,1
		c-0.2,0.3-0.4,0.5-0.7,0.8c-0.2,0.2-0.4,0.4-0.5,0.5c-0.1,0.1-0.2,0.2-0.3,0.4c-0.1,0.1-0.1,0.3-0.1,0.4c0,0.2,0,0.4,0,0.7h-0.7
		c0-0.3,0-0.6,0.1-0.8c0-0.2,0.1-0.4,0.2-0.6c0.1-0.2,0.2-0.3,0.4-0.5c0.2-0.2,0.3-0.3,0.6-0.5c0.2-0.2,0.4-0.4,0.5-0.6
		S13,9.7,13,9.4c0-0.2,0-0.4-0.1-0.6c-0.1-0.2-0.2-0.3-0.3-0.4c-0.1-0.1-0.3-0.2-0.5-0.3C11.9,8,11.7,8,11.5,8c-0.3,0-0.5,0-0.7,0.1
		c-0.2,0.1-0.4,0.2-0.5,0.4C10.1,8.7,10,8.9,9.9,9.1C9.8,9.4,9.8,9.6,9.8,9.9L9.2,9.9L9.2,9.9z M11.9,14.5c0-0.3-0.2-0.5-0.5-0.5
		s-0.5,0.2-0.5,0.5c0,0.3,0.2,0.5,0.5,0.5S11.9,14.7,11.9,14.5z"/>
</g>
</svg>
