<?xml version="1.0" encoding="utf-8"?>
<!-- Generator: Adobe Illustrator 19.1.1, SVG Export Plug-In . SVG Version: 6.00 Build 0)  -->
<svg version="1.1" id="Layer_1" xmlns="http://www.w3.org/2000/svg" xmlns:xlink="http://www.w3.org/1999/xlink" x="0px" y="0px"
	 viewBox="0 0 22 22.3" style="enable-background:new 0 0 22 22.3;" xml:space="preserve">
<style type="text/css">
	.st0{fill:#2D2E2D;}
</style>
<g>
	<path class="st0" d="M20.3,10.4h-0.1c-0.3-1.5-1-2.3-1.4-2.6l-0.3-5.7c0.2-0.1,0.2-0.4,0.2-0.5l0-0.1c0-0.5-0.3-0.8-0.5-0.9
		c0,0-0.1-0.1-0.1-0.1h-2.2c0,0-0.1,0-0.1,0.1c-0.2,0.1-0.5,0.3-0.5,0.9l0,0.2c0,0.1,0,0.4,0.2,0.5l-0.3,5.7C14.9,8,14.4,8.6,14,9.5
		c-0.4-0.9-0.9-1.5-1.1-1.7l-0.3-5.7c0.2-0.1,0.2-0.4,0.2-0.5l0-0.1c0-0.5-0.3-0.8-0.5-0.9c0,0-0.1-0.1-0.1-0.1h-2.2
		c0,0-0.1,0-0.1,0.1C9.7,0.6,9.4,0.8,9.4,1.4l0,0.2c0,0.1,0,0.4,0.2,0.5L9.3,7.8C9.1,8,8.5,8.6,8.2,9.5C7.8,8.6,7.3,8,7.1,7.8
		L6.8,2.1C7,2,7,1.7,7,1.6l0-0.1c0-0.5-0.3-0.8-0.5-0.9c0,0-0.1-0.1-0.1-0.1H4.2c0,0-0.1,0-0.1,0.1C3.9,0.6,3.6,0.8,3.6,1.4l0,0.2
		c0,0.1,0,0.4,0.2,0.5L3.5,7.8c-0.3,0.3-1.1,1.1-1.4,2.6H1.8c-0.8,0-1.4,0.6-1.4,1.4v8.8C0.4,21.4,1,22,1.8,22h18.4
		c0.8,0,1.4-0.6,1.4-1.4v-8.8C21.7,11,21,10.4,20.3,10.4z M16.1,1.2h1.9c0,0,0,0.1,0,0.1l0,0c-0.2,0.1-0.3,0.3-0.3,0.5
		c0,0,0,0.1,0,0.1l0,0.5h-1.5l0-0.5c0,0,0-0.1,0-0.1c0-0.2,0-0.4-0.3-0.5l0,0C16,1.3,16,1.2,16.1,1.2z M17.8,4.8h-1.7l0.1-1.6h1.6
		L17.8,4.8z M15.8,8.3c0.1-0.1,0.2-0.2,0.2-0.3l0.1-2.5h1.8L18,8c0,0.1,0.1,0.2,0.2,0.3c0,0,0.8,0.6,1.2,2.1h-4.8
		C14.9,8.9,15.7,8.3,15.8,8.3z M10.2,1.2h1.9c0,0,0,0.1,0,0.1l0,0c-0.2,0.1-0.3,0.3-0.3,0.5c0,0,0,0.1,0,0.1l0,0.5h-1.5l0-0.5
		c0,0,0-0.1,0-0.1c0-0.2,0-0.4-0.3-0.5l0,0C10.2,1.3,10.2,1.2,10.2,1.2z M12,4.8h-1.7l0.1-1.6h1.6L12,4.8z M9.9,8.3
		C10,8.2,10.1,8.1,10.1,8l0.1-2.5H12L12.2,8c0,0.1,0.1,0.2,0.2,0.3c0,0,0.8,0.6,1.2,2.1H8.7C9.1,8.9,9.9,8.3,9.9,8.3z M4.4,1.2h1.9
		c0,0,0,0.1,0,0.1l0,0C6,1.5,6,1.7,6,1.9c0,0,0,0.1,0,0.1l0,0.5H4.6l0-0.5c0,0,0-0.1,0-0.1c0-0.2,0-0.4-0.3-0.5l0,0
		C4.3,1.3,4.4,1.2,4.4,1.2z M6.2,4.8H4.4l0.1-1.6h1.6L6.2,4.8z M4.1,8.3C4.2,8.2,4.2,8.1,4.2,8l0.1-2.5h1.8L6.3,8
		c0,0.1,0.1,0.2,0.2,0.3c0,0,0.8,0.6,1.2,2.1H2.9C3.2,8.9,4,8.3,4.1,8.3z M20.7,20.5c0,0.3-0.3,0.6-0.6,0.6H1.9
		c-0.3,0-0.6-0.3-0.6-0.6v-8.6c0-0.3,0.3-0.6,0.6-0.6h18.2c0.3,0,0.6,0.3,0.6,0.6V20.5z"/>
	<path class="st0" d="M15,12.4H6.7c-0.8,0-1.5,0.7-1.5,1.5c0,0.8,0.7,1.5,1.5,1.5H15c0.8,0,1.5-0.7,1.5-1.5
		C16.5,13,15.9,12.4,15,12.4z M15,14.6H6.7c-0.4,0-0.7-0.3-0.7-0.7c0-0.4,0.3-0.7,0.7-0.7H15c0.4,0,0.7,0.3,0.7,0.7
		C15.7,14.2,15.4,14.6,15,14.6z"/>
</g>
</svg>
