<?xml version="1.0" encoding="utf-8"?>
<!-- Generator: Adobe Illustrator 19.1.1, SVG Export Plug-In . SVG Version: 6.00 Build 0)  -->
<svg version="1.1" id="Layer_1" xmlns="http://www.w3.org/2000/svg" xmlns:xlink="http://www.w3.org/1999/xlink" x="0px" y="0px"
	 viewBox="0 0 29.6 17.6" style="enable-background:new 0 0 29.6 17.6;" xml:space="preserve">
<style type="text/css">
	.st0{fill:#2D2E2D;}
</style>
<g>
	<g>
		<path class="st0" d="M14.1,11c-0.1,0-0.3,0-0.3-0.1l-2.2-2.1c-0.2-0.2-0.2-0.5,0-0.7c0.2-0.2,0.5-0.2,0.7,0l1.8,1.7L17.9,5
			c0.2-0.2,0.5-0.2,0.7-0.1c0.2,0.2,0.3,0.5,0.1,0.7l-4.2,5.2C14.5,11,14.3,11,14.1,11C14.2,11,14.2,11,14.1,11z"/>
		<g transform="translate(49.504118,-303.03853)">
			<path class="st0" d="M-45.6,303.4c-0.2,0.1-0.4,0.3-0.3,0.5v13.5h-2.8c-0.1,0-0.1,0-0.2,0c-0.2,0.1-0.4,0.3-0.3,0.5
				c0,1.4,1.3,2.5,2.8,2.5h23.5c1.5,0,2.8-1.1,2.8-2.5c0-0.3-0.2-0.5-0.5-0.5h-2.8v-13.5c0-0.3-0.2-0.5-0.5-0.5h-21.5
				C-45.5,303.4-45.5,303.4-45.6,303.4z M-44.9,304.4h20.5v13h-20.5V304.4z M-47.9,318.4h2.4h21.8h2.3c-0.3,0.5-0.7,1-1.5,1h-23.5
				C-47.2,319.4-47.7,318.9-47.9,318.4z"/>
		</g>
	</g>
</g>
</svg>
