<?xml version="1.0" encoding="utf-8"?>
<!-- Generator: Adobe Illustrator 19.1.1, SVG Export Plug-In . SVG Version: 6.00 Build 0)  -->
<svg version="1.1" id="Layer_1" xmlns="http://www.w3.org/2000/svg" xmlns:xlink="http://www.w3.org/1999/xlink" x="0px" y="0px"
	 viewBox="0 0 27.9 52.5" style="enable-background:new 0 0 27.9 52.5;" xml:space="preserve">
<style type="text/css">
	.st0{fill:#FFFFFF;}
</style>
<path class="st0" d="M6.3,0.1C6.1,0,5.8,0,5.6,0.1L2.1,1.4C1.9,1.5,1.7,1.7,1.6,1.9c-0.1,0.2-0.1,0.4,0,0.7l1.8,3.8
	c0.1,0.2,0.2,0.3,0.4,0.4c0.2,0.1,0.4,0.1,0.6,0l2.9-1.1c0.4-0.2,0.6-0.6,0.5-1l-1.3-4C6.6,0.4,6.5,0.2,6.3,0.1L6.3,0.1z M5.3,1.9
	L6,4.4L4.5,5L3.4,2.7L5.3,1.9L5.3,1.9z M14.7,7.3c-0.2-0.1-0.4-0.1-0.6,0c-2.6,0.9-4,3.8-3,6.4c0.1,0.2,0.2,0.4,0.4,0.5
	c0.2,0.1,0.4,0.1,0.6,0c0.4-0.2,0.7-0.7,0.5-1.1c-0.6-1.8,0.3-3.7,2-4.3c0.4-0.2,0.7-0.6,0.5-1C15,7.6,14.9,7.4,14.7,7.3L14.7,7.3z
	 M7.3,8.2c-0.2-0.1-0.4-0.1-0.7,0C6.2,8.3,6,8.8,6.2,9.2l2.1,5.5c0.1,0.2,0.3,0.4,0.5,0.4c0.2,0.1,0.4,0.1,0.6,0
	c0.4-0.2,0.7-0.7,0.5-1.1L7.8,8.6C7.6,8.4,7.5,8.2,7.3,8.2L7.3,8.2z M4.3,12.4c-1.2-0.5-2.5-0.6-3.8,0c-0.4,0.2-0.7,0.7-0.5,1
	c0.1,0.2,0.3,0.4,0.5,0.4c0.2,0.1,0.4,0.1,0.7,0c1.7-0.7,3.6,0.1,4.3,1.8c0.2,0.4,0.7,0.7,1,0.5C7,16,7.2,15.5,7.1,15.1
	C6.5,13.9,5.5,12.9,4.3,12.4L4.3,12.4z M12.5,16.3c-0.4-0.2-0.8-0.2-1.2,0l-2.9,1.1c-0.8,0.3-1.2,1.1-1,1.9l0.3,1.2
	c0.1,0.4,0.4,0.8,0.8,1c0.1,0,0.1,0.1,0.2,0.1c0.6,1.8,2.1,6.4,2,9.8c0,4.6,1.2,8,1.3,8.1l4.6,12.1c0.2,0.4,0.4,0.7,0.8,0.9
	c0.4,0.2,0.8,0.2,1.2,0l8.1-3c0.8-0.3,1.2-1.2,0.9-2l-4.6-12.1c-0.1-0.1-1.4-3.5-4.4-6.9l0,0c-2.3-2.5-4.2-6.9-5-8.7
	c0,0,0.1-0.1,0.1-0.2c0.1-0.4,0.1-0.9-0.1-1.3L13.3,17C13.1,16.6,12.8,16.4,12.5,16.3L12.5,16.3z M11.9,17.8l0.5,1
	c-0.3,0.2-0.4,0.6-0.3,1l0,0.1c0.8,1.9,2.8,6.6,5.3,9.4l-1.6,3.1l-3.3-1.3c0-3.8-1.6-8.7-2.2-10.6l0-0.1c-0.1-0.4-0.5-0.6-0.9-0.6
	l-0.3-1L11.9,17.8L11.9,17.8z M18.6,30.6c1.4,1.7,2.2,3.3,2.7,4.2l-7.9,3c-0.3-1-0.7-2.8-0.8-4.9l3.3,1.3c0.4,0.2,0.8,0,1.1-0.4
	L18.6,30.6L18.6,30.6z M21.9,36.4l2.3,6l-7.9,3l-2.3-6L21.9,36.4L21.9,36.4z M24.7,43.9l1.5,3.9l-8,3l-0.9-2.4l0,0l0,0l-0.6-1.5
	L24.7,43.9L24.7,43.9z"/>
</svg>
