<?xml version="1.0" encoding="utf-8"?>
<!-- Generator: Adobe Illustrator 19.1.1, SVG Export Plug-In . SVG Version: 6.00 Build 0)  -->
<svg version="1.1" id="Layer_1" xmlns="http://www.w3.org/2000/svg" xmlns:xlink="http://www.w3.org/1999/xlink" x="0px" y="0px"
	 viewBox="0 0 22.2 16.4" style="enable-background:new 0 0 22.2 16.4;" xml:space="preserve">
<style type="text/css">
	.st0{fill:#010101;}
</style>
<g>
	<path class="st0" d="M18.5,12.7h-5c-0.2,0-0.4,0.2-0.4,0.4c0,0.2,0.2,0.4,0.4,0.4h5c0.2,0,0.4-0.2,0.4-0.4
		C18.9,12.9,18.7,12.7,18.5,12.7z"/>
	<path class="st0" d="M4.7,15.9h15.1c1.1,0,2-0.9,2-2V4.7c0-1.1-0.9-2-2-2h-0.2V2.5c0-1.1-0.9-2-2-2H2.4c-1.1,0-2,0.9-2,2v9.2
		c0,1.1,0.9,2,2,2h0.2v0.2C2.6,15,3.5,15.9,4.7,15.9z M21.1,13.9c0,0.7-0.6,1.3-1.3,1.3H4.7c-0.7,0-1.3-0.6-1.3-1.3V8.4h17.7V13.9z
		 M21.1,7.7H3.4V5.9h17.7V7.7z M19.8,3.4c0.7,0,1.3,0.6,1.3,1.3v0.5H3.4V4.7c0-0.7,0.6-1.3,1.3-1.3H19.8z M2.4,13
		c-0.7,0-1.3-0.6-1.3-1.3V2.5c0-0.7,0.6-1.3,1.3-1.3h15.1c0.7,0,1.3,0.6,1.3,1.3v0.2H4.7c-1.1,0-2,0.9-2,2V13H2.4z"/>
</g>
</svg>
