<?xml version="1.0" encoding="utf-8"?>
<!-- Generator: Adobe Illustrator 19.1.1, SVG Export Plug-In . SVG Version: 6.00 Build 0)  -->
<svg version="1.1" id="Layer_1" xmlns="http://www.w3.org/2000/svg" xmlns:xlink="http://www.w3.org/1999/xlink" x="0px" y="0px"
	 viewBox="0 0 17.5 17.6" style="enable-background:new 0 0 17.5 17.6;" xml:space="preserve">
<style type="text/css">
	.st0{fill:#FFFFFF;}
</style>
<path class="st0" d="M8.8,0.3c-4.7,0-8.5,3.8-8.5,8.5c0,3.5,2.1,6.5,5.1,7.8c0-0.6,0-1.3,0.1-2C5.7,14,6.6,10,6.6,10
	S6.3,9.5,6.3,8.7c0-1.3,0.7-2.2,1.6-2.2c0.8,0,1.1,0.6,1.1,1.3c0,0.8-0.5,1.9-0.8,3c-0.2,0.9,0.5,1.6,1.3,1.6c1.6,0,2.7-2.1,2.7-4.5
	c0-1.9-1.3-3.3-3.5-3.3c-2.6,0-4.2,1.9-4.2,4.1c0,0.7,0.2,1.3,0.6,1.7c0.2,0.2,0.2,0.3,0.1,0.5c0,0.2-0.1,0.5-0.2,0.7
	c-0.1,0.2-0.2,0.3-0.4,0.2C3.6,11.3,3,10,3,8.5c0-2.4,2-5.3,6.1-5.3c3.2,0,5.4,2.4,5.4,4.9c0,3.3-1.9,5.8-4.6,5.8
	c-0.9,0-1.8-0.5-2.1-1.1c0,0-0.5,2-0.6,2.3C7,15.8,6.7,16.5,6.4,17c0.8,0.2,1.6,0.3,2.4,0.3c4.7,0,8.5-3.8,8.5-8.5
	C17.3,4.1,13.5,0.3,8.8,0.3"/>
</svg>
