<?xml version="1.0" encoding="utf-8"?>
<!-- Generator: Adobe Illustrator 19.1.1, SVG Export Plug-In . SVG Version: 6.00 Build 0)  -->
<svg version="1.1" id="Layer_1" xmlns="http://www.w3.org/2000/svg" xmlns:xlink="http://www.w3.org/1999/xlink" x="0px" y="0px"
	 viewBox="0 0 39.3 37.9" style="enable-background:new 0 0 39.3 37.9;" xml:space="preserve">
<style type="text/css">
	.st0{fill:#FFFFFF;stroke:#FFFFFF;stroke-width:0.75;stroke-miterlimit:10;}
</style>
<g id="XMLID_19_">
	<path id="XMLID_25_" class="st0" d="M19.9,1.2c-2.5,0-4.5,2-4.5,4.5c0,2.5,2,4.5,4.5,4.5s4.5-2,4.5-4.5C24.4,3.2,22.4,1.2,19.9,1.2
		z M19.9,9.5c-2.1,0-3.8-1.7-3.8-3.8c0-2.1,1.7-3.8,3.8-3.8c2.1,0,3.8,1.7,3.8,3.8C23.7,7.8,22,9.5,19.9,9.5z"/>
	<path id="XMLID_20_" class="st0" d="M38.2,26.4c0.1-0.8-0.3-1.7-1.9-2c-2.2-0.3-5.3-3.7-7.6-8.4c-2-3.9-8.7-3.8-9-3.8l-0.2,0
		l-0.1,0c-0.1,0-6.7-0.2-8.7,3.8c-2.1,4.2-5.2,7.3-7.6,7.7c-0.8,0.1-1.3,0.4-1.5,0.7c-0.3,0.3-0.4,0.8-0.4,1.3
		c0.2,1.1,1.4,2.1,3.1,1.9c3.3-0.5,6-2.2,8.1-5.2l0.9-1.3l0.2,1.5c0.3,2.1,0.4,5.2-1.6,7.5l-0.2,0.3l-0.3-0.1C11,30.1,10,30,8.9,30
		c-1.6,0-2.7,0.3-3.5,0.8c-0.6,0.4-0.9,1-1,1.7c-0.1,1.1,0.1,2.1,0.8,2.7c0.9,0.9,2.6,1.4,5.6,1.4c2.3,0,5.3-0.3,8.8-0.6l1.9-0.2
		c0,0,0,0,0.1,0l0.2-0.1l0.2,0c2.9,0.5,5.4,0.8,7.3,0.8c2.9,0,4.6-0.5,5.4-1.7c0.3-0.5,0.6-1.4,0.1-2.7c-0.6-1.6-2.5-1.8-4-1.8
		c-0.5,0-1,0-1.7,0.1l-0.4,0l-0.2-0.3c0,0,0-0.1-0.1-0.1c-2-1.7-2.3-4.8-2.2-7l0.1-1.9l1.1,1.5c3.2,4.5,6.6,5.4,7.9,5.6
		c0.8,0.1,1.6,0,2.2-0.4C37.8,27.5,38.2,27,38.2,26.4z M15.9,35.6c-2.3,0.2-3.9,0.3-5.2,0.3c-2.7,0-4.2-0.4-5-1.2
		c-0.3-0.3-0.7-0.9-0.6-2.1c0.1-0.5,0.3-0.9,0.7-1.2c1.3-1,4.2-0.7,5.3-0.5l0.6,0.1l0,0.6c0,0.9,0.6,1.6,1.6,1.9
		c0.6,0.2,1,0.3,1.5,0.5c0.3,0.1,0.7,0.3,1.2,0.4l2.9,1L15.9,35.6z M30.6,31.1L30.6,31.1c2,0,3,0.4,3.4,1.3c0.3,0.9,0.3,1.6,0,2.1
		c-0.6,0.9-2.2,1.4-4.8,1.4c-2.3,0-5.3-0.4-9-1.1c-2.7-0.5-4-1-5.1-1.4c-0.5-0.2-1-0.4-1.6-0.5c-0.8-0.2-1.2-0.7-1.1-1.3
		c0.1-0.7,0.9-1.3,2.4-1.3c0.8,0,1.7,0.2,2.6,0.5c1.6,0.6,3.5,0.8,5.8,0.8c1.5,0,2.9-0.1,4.2-0.2C28.6,31.1,29.7,31.1,30.6,31.1z
		 M35.2,27.6c-3.2-0.5-6.5-3.3-8.8-7.6c-0.1-0.1-0.2-0.2-0.4-0.2c-0.1,0-0.3,0.1-0.3,0.3c-0.1,0.2-1.3,6,1.2,9.5l0.7,0.9l-1.1,0.1
		c-1,0.1-2.1,0.1-3.3,0.1c-2.2,0-4-0.3-5.5-0.8c-1.2-0.4-2.3-0.6-3.2-0.5l-1,0.1l0.4-1c1.7-3.8,0-8.3-0.1-8.5c0-0.1-0.2-0.2-0.3-0.2
		c-0.1,0-0.3,0.1-0.3,0.2C11,24,8,26.3,4.3,26.8C3,27,2.4,26.3,2.2,26.1c-0.3-0.3-0.3-0.7-0.2-1c0.1-0.4,0.6-0.6,1.2-0.7
		c3.3-0.5,6.5-4.6,8.2-8c1.8-3.6,7.9-3.4,8-3.4c0,0,0,0,0.1,0l0.1,0l0.1,0c0,0,0.1,0,0.1,0c1.8,0,6.9,0.4,8.4,3.4
		c2,4,5.2,8.4,8.2,8.8c0.8,0.1,1.1,0.5,1.2,0.7c0.1,0.3,0,0.7-0.2,1.1C37.1,27.1,36.5,27.8,35.2,27.6z"/>
</g>
</svg>
