<?xml version="1.0" encoding="utf-8"?>
<!-- Generator: Adobe Illustrator 19.1.1, SVG Export Plug-In . SVG Version: 6.00 Build 0)  -->
<svg version="1.1" id="Layer_1" xmlns="http://www.w3.org/2000/svg" xmlns:xlink="http://www.w3.org/1999/xlink" x="0px" y="0px"
	 viewBox="0 0 117.8 88" style="enable-background:new 0 0 117.8 88;" xml:space="preserve">
<style type="text/css">
	.st0{fill:#F26C63;}
	.st1{fill:#2D2E2D;}
</style>
<g>
	<path class="st0" d="M72.8,12c0,0-2.1-5.4-5.2-5.9C64.4,5.6,59,7.4,56.5,9.8c-2.6,2.4-2.8,2.3-2.8,4.7c0,2.4,4.6,7.5,4.6,7.5
		L72.8,12z"/>
	<g>
		<path class="st0" d="M42.6,83.3c-8.7,0-15.8-7.1-15.8-15.8c0-8.7,7-15.7,15.6-15.8c-1.1-0.2-2.2-0.3-3.4-0.3c-9.4,0-17,7.6-17,17
			s7.6,17,17,17c4.1,0,7.9-1.5,10.9-3.9C47.8,82.6,45.3,83.3,42.6,83.3z"/>
		<path class="st0" d="M101.2,83.3c-8.7,0-15.8-7.1-15.8-15.8c0-8.7,7-15.7,15.6-15.8c-1.1-0.2-2.2-0.3-3.4-0.3c-9.4,0-17,7.6-17,17
			s7.6,17,17,17c4.1,0,7.9-1.5,10.9-3.9C106.3,82.6,103.8,83.3,101.2,83.3z"/>
		<path class="st1" d="M116.7,65c-1.3-7.4-7.1-13.4-14.4-15c-4-0.9-7.8-0.4-11.2,0.9l-4.6-9.6h5.7c0.9,0,1.7-0.3,2.3-0.9
			c1.5-1.3,1.6-3.5,0.3-5l-9-10.1l-3.7-10.2l-0.4-1l0-0.1c-0.6-1.3-1.7-2.3-3.1-2.9c-0.2-0.1-0.3-0.1-0.5-0.2
			c-0.3-0.1-0.6-0.2-1-0.2c-0.6-0.1-1.1-0.1-1.7,0c-0.2,0-0.3,0.1-0.5,0.1l-0.1,0c0,0-0.1,0-0.1,0c-0.4,0.1-0.7,0.2-1.1,0.4L72.4,9
			v0c0,0,0,0,0,0l-1.9-2.9c-0.9-1.4-3-1.9-5.8-1.4C62.4,5,60,5.9,58.4,7c0,0,0,0,0,0l0,0l-3.6,2.4c-2.3,1.5-3.2,4.3-1.9,6.2l3.9,6
			c-0.3,0.2-0.6,0.5-0.9,0.7c-3.7,3.2-8.2,8.1-8.2,11.3c0,2.1,0.3,4,3.3,5.8l-5.7,0.1c-0.5,0-0.9,0.3-1.1,0.7
			c-0.1,0.2-0.1,0.3-0.1,0.5c0,0.6,0.5,1.2,1.2,1.2l7.8-0.1l1.6,4.3l-5,6.7c-4-2.6-9-3.8-14.3-2.6c-7.4,1.6-13.2,7.6-14.4,15.1
			c-2,11.8,7.1,22.1,18.5,22.1c10,0,18.1-7.8,18.8-17.6h1.4c0.2,0.7,0.6,1.4,1.1,2c0.9,0.9,2,1.4,3.3,1.4h0c2.6,0,4.6-2,4.6-4.6
			c0-0.3,0-0.5-0.1-0.8l1.6-0.7H77c0.6,0,1.2-0.5,1.2-1.2c0-0.7-0.5-1.2-1.2-1.2h-1.1c0-0.1,0-0.2,0.1-0.3c0-0.1,0-0.2,0-0.3l0-4.6
			l11.9-9.6l1.1,2.3c-6.4,3.6-10.5,10.7-9.5,18.6c1,8.4,7.7,15.3,16.1,16.4C108.2,88.7,118.9,77.7,116.7,65z M65,6.9
			c2-0.3,3.2,0,3.5,0.4l1.2,1.9C66.6,10.6,63.6,9,62,7.8C63,7.4,64,7.1,65,6.9z M54.8,14.3c-0.5-0.8,0.1-2.2,1.3-3L59.7,9
			c0,0,0,0,0,0c0,0,0,0,0.1,0c0,0,0,0,0,0c1.3,1.3,3.7,2.9,6.5,3.2c1.5,0.1,3.1-0.1,4.7-0.8l0.7,1C69.6,13.1,67.8,14,66,15
			c-2.5,1.5-5.1,3.2-7.5,5.1L54.8,14.3z M39.4,84.8c-9.7,0-17.4-8.4-16.4-18.2c0.8-7.5,6.8-13.6,14.3-14.6c4-0.5,7.8,0.5,10.9,2.5
			l-9.8,13.2c0,0,0,0.1-0.1,0.1c0,0.1-0.1,0.1-0.1,0.2c0,0.1,0,0.2,0,0.2c0,0,0,0.1,0,0.1c0,0,0,0.1,0,0.1c0,0.1,0,0.2,0,0.2
			c0,0.1,0,0.1,0.1,0.2c0,0.1,0.1,0.1,0.1,0.2c0.1,0.1,0.1,0.1,0.2,0.2c0,0,0,0,0.1,0.1c0.1,0,0.1,0.1,0.2,0.1c0,0,0.1,0.1,0.1,0.1
			c0.1,0.1,0.3,0.1,0.4,0.1h0h16.4C55.2,78.1,48.1,84.8,39.4,84.8z M41.7,67.2l8.4-11.3c3.2,2.8,5.3,6.8,5.7,11.3H41.7z M59.5,67.2
			h-1.4c-0.3-5.3-2.8-10-6.6-13.2l4-5.4l5.8,15.9C60.5,65.1,59.8,66.1,59.5,67.2z M55.5,41.6c0.8,0.4,1.4,0.6,1.4,0.6
			c1.4,0.6,3.6,1.6,5.7,2.6H57c-0.1,0-0.2,0-0.3,0.1L55.5,41.6z M64,70.6v1.2V70.6c-0.6,0-1.2-0.2-1.6-0.7c-0.4-0.4-0.7-1-0.7-1.6
			c0-1.3,1-2.3,2.3-2.3c0.5,0,0.9,0.1,1.3,0.4l-1.8,0.8c-0.6,0.3-0.9,1-0.6,1.6c0.2,0.4,0.6,0.7,1.1,0.7c0.2,0,0.3,0,0.5-0.1
			l1.8-0.8C66.1,69.7,65.2,70.6,64,70.6z M67.6,65.4c-0.1-0.1-0.2-0.2-0.3-0.3c-0.9-0.9-2-1.4-3.3-1.4c-0.1,0-0.2,0-0.4,0l-6.1-16.5
			h10.3c0.1,0,0.2,0.1,0.3,0.1L69,64.2v0l0.1,0.6L67.6,65.4z M73.7,63.9c0,0.3-0.2,0.5-0.5,0.5c0,0-0.1,0-0.1,0
			c-0.3,0-1.6,0.2-1.8-0.4l-0.9-17.5c0,0,0-0.1,0-0.1c0-0.2-0.1-0.3-0.1-0.4c-0.1-0.2-0.3-0.3-0.4-0.4c0,0,0,0-0.1,0
			c-0.4-0.2-1.3-0.6-2.1-1l-11.2-5L55.4,39c-4.2-2-5.5-2.7-5.5-5.4c0-1.3,1.9-4.9,7.4-9.5c5.5-4.7,11.9-8.5,16.3-10.2
			c0.8-0.3,1.5-0.5,2.1-0.6c0.1,0,0.2-0.1,0.3-0.1c0.6-0.1,1.2,0,1.8,0.2c0.8,0.3,1.4,0.9,1.8,1.6l4.2,11.6L93.2,37
			c0.4,0.5,0.4,1.2-0.1,1.7c-0.2,0.2-0.5,0.3-0.8,0.3c-0.3,0-0.6-0.1-0.9-0.4l-9.5-10.7l-3.8-10.4c-0.2-0.5-0.6-0.8-1.1-0.8
			c-0.7,0-1.2,0.5-1.2,1.2c0,0.2,0,0.3,0.1,0.4l0,0l1.8,4.9v0l-17,9.3c-0.4,0.2-0.6,0.6-0.6,1c0,0.4,0.2,0.8,0.5,1l1.8,1.2l0.9,0.6
			l9.5,6.9c0.8,0.5,0.8,1,0.8,1L73.7,63.9C73.7,63.8,73.7,63.8,73.7,63.9z M73.7,41l-9-6.6c0,0-0.1-0.1-0.1-0.1l-1-0.7l14.9-8.2
			l1.2,3.2c0,0,0.1,0.3,0.2,0.4c0.1,0.1,0.3,0.4,0.3,0.4l8.5,9.6h-5.7c-0.7,0-1.2,0.5-1.2,1.2s0.5,1.2,1.2,1.2H84c0,0.1,0,0.1,0,0.2
			l1.6,3.4H76c0-0.3,0-0.5,0-0.8C76,44.1,76,42.7,73.7,41z M86.8,47.5L76,56.2l0-9h10.8L86.8,47.5C86.9,47.5,86.9,47.5,86.8,47.5z
			 M96,84.7c-7.4-1-13.3-7-14.1-14.3C81,63.4,84.5,57.2,90,54.1l7.1,14.8c0.2,0.4,0.6,0.7,1.1,0.7c0.2,0,0.3,0,0.5-0.1
			c0.6-0.3,0.8-1,0.6-1.6l-7.1-14.8c2.7-1,5.6-1.4,8.8-0.9c7.2,1.2,12.8,7.2,13.6,14.4C115.7,77.2,106.6,86.1,96,84.7z"/>
		<path class="st1" d="M89.6,15.6c4,0,7.3-3.3,7.3-7.3c0-4-3.3-7.3-7.3-7.3c-4,0-7.3,3.3-7.3,7.3C82.4,12.3,85.6,15.6,89.6,15.6z
			 M89.6,3.4c2.7,0,4.9,2.2,4.9,4.9c0,2.7-2.2,4.9-4.9,4.9s-4.9-2.2-4.9-4.9C84.7,5.6,86.9,3.4,89.6,3.4z"/>
	</g>
	<path class="st1" d="M4.2,61L4.2,61c0,0.4,0.2,0.7,0.5,0.9C4.9,62,5,62,5.2,62l9.9-0.2c0.6,0,1-0.5,1-1c0-0.6-0.5-1-1-1L5.2,60
		C4.6,60,4.2,60.4,4.2,61z"/>
	<path class="st1" d="M1.2,67.3L1.2,67.3c0,0.4,0.2,0.7,0.5,0.9c0.2,0.1,0.3,0.1,0.5,0.1l9.9-0.2c0.6,0,1-0.5,1-1c0-0.6-0.5-1-1-1
		l-9.9,0.2C1.6,66.2,1.2,66.7,1.2,67.3z"/>
	<path class="st1" d="M4.2,73.5L4.2,73.5c0,0.4,0.2,0.7,0.5,0.9c0.2,0.1,0.3,0.1,0.5,0.1l9.9-0.2c0.6,0,1-0.5,1-1c0-0.6-0.5-1-1-1
		l-9.9,0.2C4.6,72.5,4.2,73,4.2,73.5z"/>
</g>
</svg>
