<?xml version="1.0" encoding="utf-8"?>
<!-- Generator: Adobe Illustrator 19.1.1, SVG Export Plug-In . SVG Version: 6.00 Build 0)  -->
<svg version="1.1" id="Layer_1" xmlns="http://www.w3.org/2000/svg" xmlns:xlink="http://www.w3.org/1999/xlink" x="0px" y="0px"
	 viewBox="0 0 17.4 15.8" style="enable-background:new 0 0 17.4 15.8;" xml:space="preserve">
<style type="text/css">
	.st0{fill:none;stroke:#FFFFFF;stroke-width:0.7;stroke-miterlimit:10;}
	.st1{fill:none;stroke:#FFFFFF;stroke-width:0.7;stroke-linecap:round;stroke-linejoin:round;stroke-miterlimit:10;}
</style>
<g>
	<path class="st0" d="M1.3,10.5v1.8c0,0.7,0.6,1.2,1.2,1.2c0.7,0,1.2-0.6,1.2-1.2v-1.8c0-0.7-0.6-1.2-1.2-1.2
		C1.9,9.2,1.3,9.8,1.3,10.5z"/>
	<path class="st0" d="M5.5,5.6v6.7c0,0.7,0.6,1.2,1.2,1.2c0.7,0,1.2-0.6,1.2-1.2V5.6c0-0.7-0.6-1.2-1.2-1.2C6,4.4,5.5,5,5.5,5.6z"/>
	<path class="st0" d="M13.7,1.8v10.5c0,0.7,0.6,1.2,1.2,1.2c0.7,0,1.2-0.6,1.2-1.2V1.8c0-0.7-0.6-1.2-1.2-1.2
		C14.3,0.5,13.7,1.1,13.7,1.8z"/>
	<path class="st0" d="M9.6,7.6v4.7c0,0.7,0.6,1.2,1.2,1.2s1.2-0.6,1.2-1.2V7.6c0-0.7-0.6-1.2-1.2-1.2S9.6,6.9,9.6,7.6z"/>
	<line class="st1" x1="0.6" y1="15.3" x2="16.8" y2="15.3"/>
</g>
</svg>
