<?xml version="1.0" encoding="utf-8"?>
<!-- Generator: Adobe Illustrator 19.1.1, SVG Export Plug-In . SVG Version: 6.00 Build 0)  -->
<svg version="1.1" id="Layer_1" xmlns="http://www.w3.org/2000/svg" xmlns:xlink="http://www.w3.org/1999/xlink" x="0px" y="0px"
	 viewBox="0 0 14.4 14.6" style="enable-background:new 0 0 14.4 14.6;" xml:space="preserve">
<style type="text/css">
	.st0{fill:#3A3B3B;stroke:#3A3B3B;stroke-width:0.2;stroke-miterlimit:10;}
	.st1{fill:#3A3B3B;stroke:#3A3B3B;stroke-width:0.5;stroke-linecap:round;stroke-linejoin:round;stroke-miterlimit:10;}
</style>
<g>
	<path class="st0" d="M9.2,9.9l4.3,4.3c0.1,0.1,0.4,0.1,0.5,0c0.1-0.1,0.1-0.4,0-0.5L9.7,9.4C11.6,7.3,11.5,4,9.5,2
		C7.4-0.1,3.9-0.1,1.8,2c-2.1,2.1-2.1,5.5,0,7.7C3.9,11.7,7.1,11.8,9.2,9.9z M2.3,2.5c1.8-1.8,4.8-1.8,6.7,0
		c1.8,1.8,1.8,4.8,0.1,6.6c0,0,0,0-0.1,0c0,0,0,0-0.1,0.1C7.1,11,4.1,11,2.3,9.2C0.5,7.3,0.5,4.3,2.3,2.5z"/>
	<path class="st1" d="M6.7,3.2c1.1,0.2,1.9,1.3,1.7,2.5C8.4,5.9,8.5,6,8.7,6c0.1,0,0.3-0.1,0.3-0.2c0.2-1.5-0.7-2.9-2.1-3.1
		c-0.1,0-0.3,0.1-0.3,0.2C6.5,3.1,6.6,3.2,6.7,3.2z"/>
</g>
</svg>
