<?xml version="1.0" encoding="utf-8"?>
<!-- Generator: Adobe Illustrator 19.1.1, SVG Export Plug-In . SVG Version: 6.00 Build 0)  -->
<svg version="1.1" id="Layer_1" xmlns="http://www.w3.org/2000/svg" xmlns:xlink="http://www.w3.org/1999/xlink" x="0px" y="0px"
	 viewBox="0 0 111 89" style="enable-background:new 0 0 111 89;" xml:space="preserve">
<style type="text/css">
	.st0{fill:#F26C63;}
	.st1{fill:#2D2E2D;}
	.st2{fill:#FFFFFF;}
	.st3{fill:#2D2E2D;stroke:#2D2E2D;stroke-width:0.5;stroke-miterlimit:10;}
</style>
<rect x="10.4" y="35.3" class="st0" width="14.9" height="5.4"/>
<rect x="37.3" y="35.3" class="st0" width="14.9" height="5.4"/>
<rect x="64.4" y="35.3" class="st0" width="9.8" height="5.4"/>
<rect x="13.8" y="2.2" class="st0" width="8" height="16.5"/>
<rect x="40.7" y="2.2" class="st0" width="8" height="16.5"/>
<rect x="67.8" y="2.2" class="st0" width="8" height="16.5"/>
<path class="st0" d="M2.1,60.2h85.4v0.5c0,1.9-1.5,3.4-3.4,3.4H5.9C3.8,64.1,2.1,62.4,2.1,60.2L2.1,60.2z"/>
<path class="st0" d="M2.1,83.9h85.4v0.5c0,1.9-1.5,3.4-3.4,3.4H5.9C3.8,87.8,2.1,86.1,2.1,83.9L2.1,83.9z"/>
<path class="st1" d="M53.8,48.3H35.6c-2.1,0-3.8,1.7-3.8,3.8v0.9c0,2.1,1.7,3.8,3.8,3.8h18.2c2.1,0,3.8-1.7,3.8-3.8v-0.9
	C57.6,50,55.9,48.3,53.8,48.3z M55.6,52.9c0,1-0.8,1.8-1.8,1.8H35.6c-1,0-1.8-0.8-1.8-1.8v-0.8c0-1,0.8-1.8,1.8-1.8h18.2
	c1,0,1.8,0.8,1.8,1.8V52.9z M88.3,60.8V44.2c0-2.2-1.7-4-3.8-4.2v-5.4c0-4.2-2.1-6.2-4.1-8.2c-2-1.9-3.8-3.7-3.8-7.8V2.2
	c0-0.6-0.4-1-1-1H68c-0.6,0-1,0.4-1,1v16.4c0,4.1-1.8,5.9-3.8,7.8c-2,1.9-4.1,3.9-4.1,8.2V40h-1.7v-5.4c0-4.2-2.1-6.2-4.1-8.2
	c-2-1.9-3.8-3.7-3.8-7.8V2.2c0-0.6-0.4-1-1-1h-7.6c-0.6,0-1,0.4-1,1v16.4c0,4.1-1.8,5.9-3.8,7.8c-2,1.9-4.1,3.9-4.1,8.2V40h-1.7
	v-5.4c0-4.2-2.1-6.2-4.1-8.2c-2-1.9-3.8-3.7-3.8-7.8V2.2c0-0.6-0.4-1-1-1h-7.6c-0.6,0-1,0.4-1,1v16.4c0,4.1-1.8,5.9-3.8,7.8
	c-2,1.9-4.1,3.9-4.1,8.2V40c-2.1,0.2-3.8,2-3.8,4.2v16.6c0,1.3,0.6,2.5,1.6,3.3c-0.9,0.8-1.6,1.9-1.6,3.3V84c0,2.4,1.9,4.3,4.3,4.3
	H84c2.4,0,4.3-1.9,4.3-4.3V67.4c0-1.3-0.6-2.5-1.6-3.3C87.7,63.3,88.3,62.1,88.3,60.8z M69,3.2h5.6v14.4H69V3.2z M61.1,34.6
	c0-3.4,1.6-4.9,3.5-6.7c1.9-1.9,4.1-4,4.4-8.3h5.7c0.3,4.3,2.5,6.4,4.4,8.3c1.9,1.8,3.5,3.4,3.5,6.7V40h-2.3v-4.3c0-0.6-0.4-1-1-1
	H64.4c-0.6,0-1,0.4-1,1V40h-2.3L61.1,34.6L61.1,34.6z M78.2,36.6V40H65.4v-3.3H78.2z M41.9,3.2h5.6v14.4h-5.6V3.2z M34,34.6
	c0-3.4,1.6-4.9,3.5-6.7c1.9-1.9,4.1-4,4.4-8.3h5.7c0.3,4.3,2.5,6.4,4.4,8.3c1.9,1.8,3.5,3.4,3.5,6.7V40h-2.3v-4.3c0-0.6-0.4-1-1-1
	H37.3c-0.6,0-1,0.4-1,1V40H34V34.6z M51.1,36.6V40H38.3v-3.3H51.1z M14.8,3.2h5.6v14.4h-5.6V3.2z M6.9,34.6c0-3.4,1.6-4.9,3.5-6.7
	c1.9-1.9,4.1-4,4.4-8.3h5.7c0.3,4.3,2.5,6.4,4.4,8.3c1.9,1.8,3.5,3.4,3.5,6.7V40h-2.2v-4.3c0-0.6-0.4-1-1-1H10.4c-0.6,0-1,0.4-1,1
	V40H6.9V34.6z M24.1,36.6V40H11.4v-3.3H24.1z M86.3,84c0,1.2-1,2.3-2.3,2.3H5.4c-1.2,0-2.3-1-2.3-2.3V67.4c0-1.2,1-2.3,2.3-2.3H84
	c1.2,0,2.3,1,2.3,2.3V84z M86.3,60.8c0,1.2-1,2.3-2.3,2.3H5.4c-1.2,0-2.3-1-2.3-2.3V44.2c0-1.2,1-2.3,2.3-2.3H84
	c1.2,0,2.3,1,2.3,2.3V60.8z M79.4,79.7C79.2,80,79,80.4,79,80.8c0,0.4,0.2,0.8,0.4,1.1c0.3,0.3,0.7,0.4,1.1,0.4
	c0.4,0,0.8-0.2,1.1-0.4c0.3-0.3,0.4-0.7,0.4-1.1c0-0.4-0.2-0.8-0.4-1.1C81,79.2,80,79.2,79.4,79.7z M8,69.5
	c-0.3,0.3-0.5,0.7-0.5,1.1c0,0.4,0.2,0.8,0.4,1C8.3,71.9,8.6,72,9,72c0.4,0,0.8-0.2,1.1-0.5c0.3-0.3,0.4-0.7,0.4-1
	c0-0.4-0.2-0.8-0.4-1.1C9.5,68.9,8.5,68.9,8,69.5z M8,79.7c-0.3,0.3-0.4,0.7-0.4,1.1c0,0.4,0.2,0.8,0.4,1.1c0.3,0.3,0.7,0.4,1.1,0.4
	c0.4,0,0.8-0.2,1.1-0.4s0.4-0.7,0.4-1.1c0-0.4-0.2-0.8-0.4-1.1C9.5,79.2,8.5,79.2,8,79.7z M79.4,69.5c-0.3,0.3-0.4,0.7-0.4,1.1
	c0,0.4,0.2,0.8,0.4,1.1c0.3,0.3,0.7,0.4,1.1,0.4s0.8-0.2,1.1-0.4c0.3-0.3,0.4-0.7,0.4-1.1c0-0.4-0.2-0.8-0.4-1.1
	C81,68.9,80,68.9,79.4,69.5z M79.4,46.3C79.2,46.6,79,47,79,47.4c0,0.4,0.2,0.8,0.4,1.1c0.3,0.3,0.7,0.4,1.1,0.4s0.8-0.2,1.1-0.4
	c0.3-0.3,0.4-0.7,0.4-1.1c0-0.4-0.2-0.8-0.4-1.1C81,45.8,80,45.8,79.4,46.3z M8,46.3c-0.3,0.3-0.4,0.7-0.4,1.1
	c0,0.4,0.2,0.8,0.4,1.1c0.3,0.3,0.7,0.4,1.1,0.4c0.4,0,0.8-0.2,1.1-0.4c0.3-0.3,0.4-0.7,0.4-1.1c0-0.4-0.2-0.8-0.4-1.1
	C9.5,45.8,8.5,45.8,8,46.3z M8,56.6c-0.3,0.3-0.4,0.7-0.4,1.1c0,0.4,0.2,0.8,0.4,1.1C8.3,59,8.6,59.1,9,59.1c0.4,0,0.8-0.2,1.1-0.4
	c0.3-0.3,0.4-0.7,0.4-1.1c0-0.4-0.2-0.8-0.4-1.1C9.5,56,8.5,56,8,56.6z M79.4,56.6c-0.3,0.3-0.4,0.7-0.4,1.1c0,0.4,0.2,0.8,0.4,1.1
	c0.3,0.3,0.7,0.4,1.1,0.4s0.8-0.2,1.1-0.4c0.3-0.3,0.4-0.7,0.4-1.1c0-0.4-0.2-0.8-0.4-1.1C81,56,80,56,79.4,56.6z"/>
<circle class="st2" cx="87.8" cy="39.5" r="13.6"/>
<g>
	<path class="st1" d="M97.1,50.1l11.6,11.6c0.4,0.4,1,0.4,1.3,0c0.4-0.4,0.4-1,0-1.3L98.4,48.8c5-5.7,4.8-14.4-0.6-19.9
		c-5.7-5.7-14.9-5.7-20.6,0c-5.7,5.7-5.7,14.9,0,20.6C82.6,54.9,91.4,55.1,97.1,50.1z M78.5,30.2c4.9-4.9,13-4.9,17.9,0
		c4.9,4.9,4.9,12.8,0.1,17.8c-0.1,0-0.1,0.1-0.2,0.1c-0.1,0.1-0.1,0.1-0.1,0.2c-5,4.8-12.9,4.7-17.8-0.1
		C73.5,43.2,73.5,35.1,78.5,30.2z"/>
	<path class="st3" d="M90.3,32.2c3.1,0.4,5.2,3.5,4.7,6.8c-0.1,0.4,0.2,0.7,0.5,0.8c0.3,0.1,0.7-0.2,0.7-0.6c0.6-4.1-2-7.8-5.8-8.3
		c-0.3,0-0.7,0.2-0.7,0.6C89.7,31.8,90,32.2,90.3,32.2z"/>
</g>
</svg>
