<?xml version="1.0" encoding="utf-8"?>
<!-- Generator: Adobe Illustrator 19.1.1, SVG Export Plug-In . SVG Version: 6.00 Build 0)  -->
<svg version="1.1" id="Layer_1" xmlns="http://www.w3.org/2000/svg" xmlns:xlink="http://www.w3.org/1999/xlink" x="0px" y="0px"
	 viewBox="0 0 8.7 10" style="enable-background:new 0 0 8.7 10;" xml:space="preserve">
<style type="text/css">
	.st0{fill:#010101;}
</style>
<path class="st0" d="M8.4,0.3C8.3,0.2,8.1,0.1,7.9,0.1H0.8c-0.2,0-0.4,0.1-0.5,0.3C0.1,0.5,0,0.9,0.1,1.1l1.6,8.1
	C1.8,9.6,2,9.9,2.4,9.9h3.9C6.7,9.9,7,9.6,7,9.2l1.6-8.1C8.7,0.8,8.6,0.5,8.4,0.3z M6.3,9.3H2.4c0,0-0.1-0.1-0.1-0.2L1.3,4.5
	c0.1-0.3,0.5-1,1.1-1c0.3,0,0.4,0.2,0.7,0.5c0.3,0.4,0.6,0.8,1.3,0.8c0,0,0,0,0.1,0c0.7,0,1-0.5,1.2-0.9C5.9,3.6,6,3.4,6.3,3.4
	c0,0,0,0,0,0c0.6,0,1,0.8,1.1,1L6.5,9.1C6.4,9.2,6.4,9.3,6.3,9.3z M6.3,2.9C6.3,2.9,6.3,2.9,6.3,2.9c-0.6,0-0.9,0.4-1.1,0.8
	C5,4,4.9,4.2,4.5,4.2C4.1,4.2,3.9,4,3.6,3.6C3.3,3.3,3,2.9,2.4,2.9c-0.6,0-1,0.4-1.3,0.8L0.6,1c0-0.1,0-0.3,0.1-0.3c0,0,0,0,0.1,0
	h7.2c0,0,0,0,0.1,0C8.1,0.8,8.1,0.9,8.1,1L7.6,3.6C7.3,3.2,6.9,2.9,6.3,2.9z"/>
</svg>
