<?xml version="1.0" encoding="utf-8"?>
<!-- Generator: Adobe Illustrator 19.1.1, SVG Export Plug-In . SVG Version: 6.00 Build 0)  -->
<svg version="1.1" id="Layer_1" xmlns="http://www.w3.org/2000/svg" xmlns:xlink="http://www.w3.org/1999/xlink" x="0px" y="0px"
	 viewBox="0 0 18.2 19.6" style="enable-background:new 0 0 18.2 19.6;" xml:space="preserve">
<style type="text/css">
	.st0{fill:#FFFFFF;}
</style>
<path class="st0" d="M11.1,15.9c0,1.9,1.5,3.4,3.4,3.4s3.4-1.5,3.4-3.4s-1.5-3.4-3.4-3.4c-1.1,0-2.1,0.5-2.7,1.4L11.7,14L7,10.9
	l0-0.1c0.1-0.3,0.1-0.7,0.1-1c0-0.3,0-0.6-0.1-1l0-0.1l4.8-3.1l0.1,0.1C12.4,6.5,13.4,7,14.5,7c1.9,0,3.4-1.5,3.4-3.4
	s-1.5-3.4-3.4-3.4s-3.4,1.5-3.4,3.4c0,0.3,0,0.6,0.1,1l0,0.1L6.5,7.9L6.5,7.8C5.9,6.9,4.8,6.4,3.8,6.4c-1.9,0-3.4,1.5-3.4,3.4
	s1.5,3.4,3.4,3.4c1.1,0,2.1-0.5,2.7-1.4l0.1-0.1l4.8,3.1l0,0.1C11.2,15.2,11.1,15.6,11.1,15.9z M14.5,13.4c1.4,0,2.5,1.1,2.5,2.5
	s-1.1,2.5-2.5,2.5S12,17.3,12,15.9S13.2,13.4,14.5,13.4z M14.5,1.2c1.4,0,2.5,1.1,2.5,2.5s-1.1,2.5-2.5,2.5S12,5,12,3.6
	S13.2,1.2,14.5,1.2z M3.8,12.3c-1.4,0-2.5-1.1-2.5-2.5s1.1-2.5,2.5-2.5s2.5,1.1,2.5,2.5S5.1,12.3,3.8,12.3z"/>
</svg>
