<?xml version="1.0" encoding="utf-8"?>
<!-- Generator: Adobe Illustrator 19.1.1, SVG Export Plug-In . SVG Version: 6.00 Build 0)  -->
<svg version="1.1" id="Layer_1" xmlns="http://www.w3.org/2000/svg" xmlns:xlink="http://www.w3.org/1999/xlink" x="0px" y="0px"
	 viewBox="0 0 32.3 26.1" style="enable-background:new 0 0 32.3 26.1;" xml:space="preserve">
<style type="text/css">
	.st0{fill:#FFFFFF;}
</style>
<path class="st0" d="M32,7c0-0.2-0.1-0.4-0.2-0.5l-3.7-5.6c0-0.1-0.1-0.1-0.1-0.1c0,0,0,0,0,0c0,0-0.1,0-0.1-0.1c0,0-0.1,0-0.1,0
	c0,0-0.1,0-0.1,0c0,0-0.1,0-0.1,0c0,0,0,0-0.1,0c-0.1,0-0.1,0-0.2,0H5.2c-0.1,0-0.1,0-0.2,0c0,0-0.1,0-0.1,0c0,0,0,0-0.1,0
	c0,0-0.1,0-0.1,0c0,0,0,0-0.1,0c0,0-0.1,0-0.1,0.1c-0.1,0-0.1,0-0.1,0c0,0-0.1,0.1-0.1,0.1L0.7,6.5C0.6,6.6,0.5,6.8,0.5,7
	c0,2.2,1.6,4.1,3.7,4.5v13.1c0,0.5,0.4,0.9,0.9,0.9h22.2c0.5,0,0.9-0.4,0.9-0.9V11.5C30.4,11.1,32,9.2,32,7z M19.1,23.7h-5.6v-5.6
	c0-1.5,1.3-2.8,2.8-2.8s2.8,1.3,2.8,2.8V23.7z M20.9,23.7v-5.6c0-2.5-2.1-5-4.6-5s-4.6,2.4-4.6,5v5.6H6.1V11.5
	c1.1-0.2,2.1-0.9,2.8-1.8c0.9,1.1,2.2,1.9,3.7,1.9c1.5,0,2.8-0.7,3.7-1.9c0.9,1.1,2.2,1.9,3.7,1.9c1.5,0,2.8-0.7,3.7-1.9
	c0.7,0.9,1.7,1.5,2.8,1.8v12.1H20.9z M27.4,9.8c-1.5,0-2.8-1.3-2.8-2.8V4.2c0-0.5-0.4-0.9-0.9-0.9s-0.9,0.4-0.9,0.9V7
	c0,1.5-1.3,2.8-2.8,2.8c-1.5,0-2.8-1.3-2.8-2.8V4.2c0-0.5-0.4-0.9-0.9-0.9c-0.5,0-0.9,0.4-0.9,0.9V7c0,1.5-1.3,2.8-2.8,2.8
	S9.8,8.5,9.8,7V4.2c0-0.5-0.4-0.9-0.9-0.9c-0.5,0-0.9,0.4-0.9,0.9V7c0,1.5-1.3,2.8-2.8,2.8c-1.5,0-2.6-1.1-2.8-2.5l3.3-4.9h21.2
	l3.3,4.9C30,8.7,28.8,9.8,27.4,9.8z"/>
</svg>
