<?xml version="1.0" encoding="utf-8"?>
<!-- Generator: Adobe Illustrator 19.1.1, SVG Export Plug-In . SVG Version: 6.00 Build 0)  -->
<svg version="1.1" id="Layer_1" xmlns="http://www.w3.org/2000/svg" xmlns:xlink="http://www.w3.org/1999/xlink" x="0px" y="0px"
	 viewBox="0 0 75.3 84.6" style="enable-background:new 0 0 75.3 84.6;" xml:space="preserve">
<style type="text/css">
	.st0{fill:#FFFFFF;stroke:#FFFFFF;stroke-miterlimit:10;}
	.st1{fill:#FFFFFF;stroke:#FFFFFF;stroke-width:2;stroke-miterlimit:10;}
	.st2{fill:#FFFFFF;}
	.st3{fill:#FFFFFF;}
</style>
<g>
	<g>
		<path class="st0" d="M18.7,74.3V58.8c9.4-0.4,13.2-5.8,14.7-10.5c2.7-8.9-1.2-20.5-5-23.2c-0.5-0.2-0.8-0.2-1.1-0.2s-18.5,0-19,0
			c-0.5,0-0.8,0-1.1,0.2C3,27.8-0.8,39.3,1.9,48.3c1.4,4.6,5.2,10.1,14.7,10.5v15.4 M31.3,47.7c-1.9,5.9-6.6,9.1-13.7,9.1
			c-7.1,0-11.8-3.1-13.7-9.1C1.5,39.8,4.7,29.6,8,27h19.2C30.6,29.6,33.8,39.8,31.3,47.7z"/>
		<g>
			<path class="st1" d="M2.2,43.1c0-3.3,31.1-2.5,30.9,0"/>
		</g>
		<g>
			<g>
				<path class="st1" d="M32.2,48.5c9.2-0.5,22.7,0.4,22.6,2"/>
			</g>
			<path class="st0" d="M40.5,81.7V66.2c9.4-0.4,13.2-5.8,14.7-10.5c2.8-8.9-1.1-20.3-4.7-23c-0.7-0.5-0.9-0.5-2.1-0.5
				c-1.2,0-16.9,0-16.9,0l0.6,2.1h17.1c3.3,2.6,6.4,12.9,4,20.7c-1.9,5.9-6.6,9.1-13.7,9.1c-6.8,0-11.4-2.8-13.4-8.3l-2,0.9
				c1.7,4.3,5.6,9,14.3,9.5v15.4"/>
		</g>
		<path class="st0" d="M62,3.8c-0.6,0-1.2,0.1-1.9,0.2c-2.6-1.9-5.9-3-9.5-3c-8.2,0-14.9,5.8-15,13c0,1.9,0.4,3.8,1.3,5.5l-0.3,6.8
			c0,0-0.1,0.9,0.3,1.2c0.6,0.4,1.4,0,1.4,0l4-2.4c2.4,1.4,5.2,2.1,8.3,2.2c2.9,0,5.7-0.8,8-2c1.1,0.3,2.2,0.4,3.4,0.4
			c1.5,0,3-0.3,4.4-0.7l3,2.3c0,0,0.6,0.7,1.5,0.3c0.5-0.2,0.6-1.4,0.6-1.4l0.5-4.7c1.7-1.9,2.6-4.2,2.6-6.6
			C74.4,8.8,68.8,3.8,62,3.8z M50.5,25.2c-2.7,0-5.4-0.8-7.6-2.2l-0.5-0.4l-3.6,2.1L39,19l-0.2-0.3c-0.8-1.5-1.2-3.1-1.2-4.8
			C37.7,8,43.5,3,50.7,3c3.8,0,7.4,1.5,9.8,4c1.9,2,3,4.6,3,7.1C63.5,20.2,57.7,25.2,50.5,25.2z M70,20.2l-0.3,0.3l-0.4,4.2
			l-2.7-2.1l-0.5,0.2c-1.3,0.5-2.7,0.8-4.2,0.8c-0.3,0-0.6,0-0.9-0.1c2.7-2.4,4.5-5.6,4.6-9.3c0-3-1.1-5.9-3.3-8.3
			c5.5,0.2,10,4.1,10,8.7C72.3,16.7,71.5,18.7,70,20.2z"/>
	</g>
	<g>
		<ellipse class="st2" cx="17.6" cy="75" rx="6.9" ry="0"/>
		<g>
			<path class="st3" d="M24.5,74c-4.6,0-9.2,0-13.8,0c-1.3,0-1.3,2,0,2c4.6,0,9.2,0,13.8,0C25.8,76,25.8,74,24.5,74
				c-4.6,0-9.2,0-13.8,0c-1.3,0-1.3,2,0,2c4.6,0,9.2,0,13.8,0C25.8,76,25.8,74,24.5,74z"/>
		</g>
	</g>
	<g>
		<ellipse class="st2" cx="39.5" cy="82.5" rx="6.9" ry="0"/>
		<g>
			<path class="st3" d="M46.4,81.5c-4.6,0-9.2,0-13.8,0c-1.3,0-1.3,2,0,2c4.6,0,9.2,0,13.8,0C47.7,83.5,47.7,81.5,46.4,81.5
				c-4.6,0-9.2,0-13.8,0c-1.3,0-1.3,2,0,2c4.6,0,9.2,0,13.8,0C47.7,83.5,47.7,81.5,46.4,81.5z"/>
		</g>
	</g>
</g>
</svg>
