<?xml version="1.0" encoding="utf-8"?>
<!-- Generator: Adobe Illustrator 19.1.1, SVG Export Plug-In . SVG Version: 6.00 Build 0)  -->
<svg version="1.1" id="Layer_1" xmlns="http://www.w3.org/2000/svg" xmlns:xlink="http://www.w3.org/1999/xlink" x="0px" y="0px"
	 viewBox="0 0 102.7 98.8" style="enable-background:new 0 0 102.7 98.8;" xml:space="preserve">
<style type="text/css">
	.st0{fill:#F26C63;}
	.st1{fill:#2D2E2D;}
	.st2{fill:#FFFFFF;stroke:#2D2E2D;stroke-width:2;stroke-miterlimit:10;}
	.st3{fill:#FFFFFF;stroke:#2D2E2D;stroke-width:2;stroke-linecap:round;stroke-linejoin:round;stroke-miterlimit:10;}
</style>
<g>
	<rect x="9.9" y="34.9" class="st0" width="14.9" height="5.4"/>
	<rect x="36.8" y="34.9" class="st0" width="14.9" height="5.4"/>
	<rect x="63.9" y="34.9" class="st0" width="14.6" height="5.4"/>
	<rect x="13.3" y="1.8" class="st0" width="8" height="16.5"/>
	<rect x="40.2" y="1.8" class="st0" width="8" height="16.5"/>
	<rect x="67.3" y="1.8" class="st0" width="8" height="16.5"/>
	<path class="st0" d="M1.6,59.7H87v0.5c0,1.9-1.5,3.4-3.4,3.4H5.4C3.3,63.6,1.6,61.9,1.6,59.7L1.6,59.7z"/>
	<path class="st0" d="M1.6,83.4H87V84c0,1.9-1.5,3.4-3.4,3.4H5.4C3.3,87.3,1.6,85.6,1.6,83.4L1.6,83.4z"/>
	<path class="st1" d="M53.3,47.8H35.1c-2.1,0-3.8,1.7-3.8,3.8v0.9c0,2.1,1.7,3.8,3.8,3.8h18.2c2.1,0,3.8-1.7,3.8-3.8v-0.9
		C57.1,49.5,55.4,47.8,53.3,47.8z M55.1,52.5c0,1-0.8,1.8-1.8,1.8H35.1c-1,0-1.8-0.8-1.8-1.8v-0.9c0-1,0.8-1.8,1.8-1.8h18.2
		c1,0,1.8,0.8,1.8,1.8V52.5z M87.8,60.4V43.8c0-2.2-1.7-4-3.8-4.2v-5.4c0-4.2-2.1-6.2-4.1-8.2c-2-1.9-3.8-3.7-3.8-7.8V1.8
		c0-0.6-0.4-1-1-1h-7.6c-0.6,0-1,0.4-1,1v16.4c0,4.1-1.8,5.9-3.8,7.8c-2,1.9-4.1,3.9-4.1,8.2v5.4h-1.7v-5.4c0-4.2-2.1-6.2-4.1-8.2
		c-2-1.9-3.8-3.7-3.8-7.8V1.8c0-0.6-0.4-1-1-1h-7.6c-0.6,0-1,0.4-1,1v16.4c0,4.1-1.8,5.9-3.8,7.8c-2,1.9-4.1,3.9-4.1,8.2v5.4h-1.7
		v-5.4c0-4.2-2.1-6.2-4.1-8.2c-2-1.9-3.8-3.7-3.8-7.8V1.8c0-0.6-0.4-1-1-1h-7.6c-0.6,0-1,0.4-1,1v16.4c0,4.1-1.8,5.9-3.8,7.8
		c-2,1.9-4.1,3.9-4.1,8.2v5.4c-2.1,0.2-3.8,2-3.8,4.2v16.6c0,1.3,0.6,2.5,1.6,3.3c-0.9,0.8-1.6,1.9-1.6,3.3v16.6
		c0,2.4,1.9,4.3,4.3,4.3h78.6c2.4,0,4.3-1.9,4.3-4.3V66.9c0-1.3-0.6-2.5-1.6-3.3C87.2,62.9,87.8,61.7,87.8,60.4z M68.5,2.8h5.6v14.4
		h-5.6V2.8z M60.6,34.2c0-3.4,1.6-4.9,3.5-6.7c1.9-1.9,4.1-4,4.4-8.3h5.7c0.3,4.3,2.5,6.4,4.4,8.3c1.9,1.8,3.5,3.4,3.5,6.7v5.4h-2.3
		v-4.3c0-0.6-0.4-1-1-1H63.9c-0.6,0-1,0.4-1,1v4.3h-2.3L60.6,34.2L60.6,34.2z M77.7,36.2v3.3H64.9v-3.3H77.7z M41.4,2.8H47v14.4
		h-5.6V2.8z M33.5,34.2c0-3.4,1.6-4.9,3.5-6.7c1.9-1.9,4.1-4,4.4-8.3h5.7c0.3,4.3,2.5,6.4,4.4,8.3c1.9,1.8,3.5,3.4,3.5,6.7v5.4h-2.3
		v-4.3c0-0.6-0.4-1-1-1H36.8c-0.6,0-1,0.4-1,1v4.3h-2.3V34.2z M50.6,36.2v3.3H37.8v-3.3H50.6z M14.3,2.8H20v14.4h-5.6V2.8z
		 M6.4,34.2c0-3.4,1.6-4.9,3.5-6.7c1.9-1.9,4.1-4,4.4-8.3H20c0.3,4.3,2.5,6.4,4.4,8.3c1.9,1.8,3.5,3.4,3.5,6.7v5.4h-2.2v-4.3
		c0-0.6-0.4-1-1-1H9.9c-0.6,0-1,0.4-1,1v4.3H6.4V34.2z M23.6,36.2v3.3H10.9v-3.3H23.6z M85.8,83.5c0,1.2-1,2.3-2.3,2.3H4.9
		c-1.2,0-2.3-1-2.3-2.3V66.9c0-1.2,1-2.3,2.3-2.3h78.6c1.2,0,2.3,1,2.3,2.3V83.5z M85.8,60.4c0,1.2-1,2.3-2.3,2.3H4.9
		c-1.2,0-2.3-1-2.3-2.3V43.8c0-1.2,1-2.3,2.3-2.3h78.6c1.2,0,2.3,1,2.3,2.3V60.4z M79,79.3c-0.3,0.3-0.4,0.7-0.4,1.1
		c0,0.4,0.2,0.8,0.4,1.1c0.3,0.3,0.7,0.4,1.1,0.4c0.4,0,0.8-0.2,1.1-0.4c0.3-0.3,0.4-0.7,0.4-1.1c0-0.4-0.2-0.8-0.4-1.1
		C80.5,78.7,79.5,78.7,79,79.3z M7.5,69C7.2,69.3,7,69.7,7,70.1c0,0.4,0.2,0.8,0.4,1c0.3,0.3,0.7,0.5,1.1,0.5c0.4,0,0.8-0.2,1.1-0.5
		c0.3-0.3,0.4-0.7,0.4-1c0-0.4-0.1-0.8-0.4-1.1C9.1,68.5,8,68.5,7.5,69z M7.5,79.3C7.2,79.6,7,80,7,80.3c0,0.4,0.2,0.8,0.4,1.1
		c0.3,0.3,0.7,0.4,1.1,0.4c0.4,0,0.8-0.2,1.1-0.4c0.3-0.3,0.4-0.7,0.4-1.1c0-0.4-0.1-0.8-0.4-1.1C9.1,78.7,8,78.7,7.5,79.3z M79,69
		c-0.3,0.3-0.4,0.7-0.4,1.1c0,0.4,0.2,0.8,0.4,1.1c0.3,0.3,0.7,0.4,1.1,0.4s0.8-0.2,1.1-0.4c0.3-0.3,0.4-0.7,0.4-1.1
		c0-0.4-0.2-0.8-0.4-1.1C80.5,68.5,79.5,68.5,79,69z M79,45.9c-0.3,0.3-0.4,0.7-0.4,1.1c0,0.4,0.2,0.8,0.4,1.1
		c0.3,0.3,0.7,0.4,1.1,0.4s0.8-0.2,1.1-0.4c0.3-0.3,0.4-0.7,0.4-1.1c0-0.4-0.2-0.8-0.4-1.1C80.5,45.4,79.5,45.4,79,45.9z M7.5,45.9
		c-0.3,0.3-0.4,0.7-0.4,1.1c0,0.4,0.2,0.8,0.4,1.1c0.3,0.3,0.7,0.4,1.1,0.4c0.4,0,0.8-0.2,1.1-0.4C9.9,47.7,10,47.4,10,47
		c0-0.4-0.2-0.8-0.4-1.1C9.1,45.4,8,45.4,7.5,45.9z M7.5,56.1C7.2,56.4,7,56.8,7,57.2c0,0.4,0.2,0.8,0.4,1.1
		c0.3,0.3,0.7,0.4,1.1,0.4c0.4,0,0.8-0.2,1.1-0.4C9.9,58,10,57.6,10,57.2c0-0.4-0.2-0.8-0.4-1.1C9.1,55.6,8,55.6,7.5,56.1z M79,56.1
		c-0.3,0.3-0.4,0.7-0.4,1.1c0,0.4,0.2,0.8,0.4,1.1c0.3,0.3,0.7,0.4,1.1,0.4s0.8-0.2,1.1-0.4c0.3-0.3,0.4-0.7,0.4-1.1
		c0-0.4-0.2-0.8-0.4-1.1C80.5,55.6,79.5,55.6,79,56.1z"/>
</g>
<circle class="st2" cx="87.8" cy="83.9" r="13.6"/>
<polyline class="st3" points="82.1,83.6 87.3,88.8 93.5,79.1 "/>
</svg>
