<?xml version="1.0" encoding="utf-8"?>
<!-- Generator: Adobe Illustrator 19.1.1, SVG Export Plug-In . SVG Version: 6.00 Build 0)  -->
<svg version="1.1" id="Layer_1" xmlns="http://www.w3.org/2000/svg" xmlns:xlink="http://www.w3.org/1999/xlink" x="0px" y="0px"
	 viewBox="0 0 35.5 49.3" style="enable-background:new 0 0 35.5 49.3;" xml:space="preserve">
<style type="text/css">
	.st0{fill:#FFFFFF;stroke:#FFFFFF;stroke-width:0.25;stroke-miterlimit:10;}
</style>
<g>
	<path class="st0" d="M11.2,23.5c-2.5,0-4.7,1.6-5.5,3.9l-0.1,0.3l-0.3-0.1c-0.1,0-0.2,0-0.2,0H2c-0.4,0-0.7,0.3-0.7,0.7v5.1
		c0,0.4,0.3,0.7,0.7,0.7c0.4,0,0.7-0.3,0.7-0.7V29h2.7v0.3c0,3.2,2.6,5.8,5.8,5.8c3.2,0,5.8-2.6,5.8-5.8
		C17.1,26.1,14.5,23.5,11.2,23.5z M11.2,33.7c-2.4,0-4.4-2-4.4-4.4s2-4.4,4.4-4.4s4.4,2,4.4,4.4S13.7,33.7,11.2,33.7z"/>
	<path class="st0" d="M34.3,16.1c-0.2-0.3-0.7-0.4-1-0.1c-1.2,0.9-2.8,1.8-4.6,2.5l-0.4,0.1l-0.1-0.4c0-0.1,0-0.2-0.1-0.2
		c-1.8-3.6-0.2-11.2,2.1-16.8c0.1-0.2,0.1-0.5-0.1-0.7c-0.1-0.2-0.4-0.3-0.6-0.3H5.1c-0.2,0-0.5,0.1-0.6,0.3
		C4.4,0.7,4.3,0.9,4.4,1.2C6.7,6.8,8.3,14.4,6.5,18c0,0.1-0.1,0.1-0.1,0.2l-0.1,0.4L6,18.4c-1.8-0.7-3.4-1.6-4.6-2.5
		c-0.1-0.1-0.3-0.1-0.4-0.1c-0.2,0-0.4,0.1-0.6,0.3c-0.2,0.3-0.2,0.8,0.1,1c4.5,3.4,11.9,5,16.8,5c5,0,12.3-1.6,16.8-5
		C34.5,16.8,34.6,16.4,34.3,16.1z M26.8,19.1c-3.1,1-6.5,1.5-9.4,1.5c-3,0-6.3-0.5-9.4-1.5L7.6,19l0.2-0.3C9.7,14.7,8.3,7.5,6.3,2
		L6.2,1.6h22.5L28.5,2c-2,5.5-3.4,12.7-1.5,16.6l0.2,0.3L26.8,19.1z"/>
	<path class="st0" d="M34.1,39.2c-0.7-0.8-1.8-1.2-3.2-1.2c-1.9,0-2.8,1.1-2.8,2.2c0,1,0.8,2,2,2c0.4,0,0.7-0.3,0.7-0.7
		c0-0.4-0.3-0.7-0.7-0.7c-0.5,0-0.7-0.3-0.7-0.6c0-0.5,0.6-0.9,1.5-0.9c1.2,0,2.8,0.3,3,3l0,0.2l-0.2,0.1c-1.1,0.7-2.3,1-3.5,1
		c-2.1,0-4.4-1.1-6.2-3L24,40.6c-0.8-0.8-1.9-1.2-3-1.2c-1,0-1.9,0.3-2.6,0.9l-0.2,0.2l-0.2-0.2c-0.7-0.6-1.7-0.9-2.6-0.9
		c-1.2,0-2.3,0.5-3,1.2l-0.1,0.1c-1.9,1.9-4.2,3-6.2,3c-1.2,0-2.4-0.4-3.5-1l-0.2-0.1l0-0.2c0.2-2.7,1.8-3,3-3
		c0.9,0,1.5,0.3,1.5,0.9c0,0.3-0.2,0.6-0.7,0.6c-0.4,0-0.7,0.3-0.7,0.7c0,0.4,0.3,0.7,0.7,0.7c1.3,0,2-1,2-2c0-1-0.9-2.2-2.8-2.2
		c-1.4,0-2.4,0.4-3.2,1.2C1.4,40,1,41.2,1,42.7c0,0.1,0,0.1,0,0.1c0,1.6,1.1,3.2,3,4.4c1.9,1.2,4.4,1.9,6.9,1.9
		c2.6,0,4.9-0.8,6.8-2.2c0,0,0.1-0.1,0.1-0.1c0,0,0.1-0.1,0.1-0.1l0.2-0.2l0.2,0.2c0.1,0.1,0.1,0.1,0.1,0.1l0.2,0.1
		c1.8,1.4,4.2,2.2,6.8,2.2c5.3,0,9.9-3,9.9-6.4C35.2,41.2,34.8,40,34.1,39.2z M32.9,45.1c-1.6,1.7-4.6,2.8-7.5,2.8
		c-1.6,0-3.9-0.3-5.9-1.9l0.1-0.3l-0.2,0.2l0,0l-0.1-0.1c-0.2-0.2-0.4-0.4-0.6-0.6c-0.2-0.3-0.8-0.3-1,0c-0.2,0.2-0.4,0.4-0.6,0.6
		L16.8,46c-2,1.6-4.4,1.9-6,1.9c-2.9,0-6-1.1-7.5-2.8l-0.8-0.9l1.1,0.4c0.7,0.2,1.5,0.4,2.3,0.4c3.3,0,5.8-2,7.1-3.3
		c0.1-0.1,0.1-0.1,0.1-0.1c0.5-0.6,1.3-0.9,2.1-0.9c0.9,0,1.8,0.4,2.3,1.1c0.2,0.3,0.8,0.3,1,0c0.5-0.7,1.4-1.1,2.3-1.1
		c0.8,0,1.6,0.3,2.1,0.9c0,0,0.1,0.1,0.1,0.1c1.3,1.2,3.8,3.3,7.1,3.3c0.8,0,1.6-0.1,2.3-0.4l1.1-0.4L32.9,45.1z"/>
</g>
</svg>
