<?xml version="1.0" encoding="utf-8"?>
<!-- Generator: Adobe Illustrator 19.1.1, SVG Export Plug-In . SVG Version: 6.00 Build 0)  -->
<svg version="1.1" id="Layer_1" xmlns="http://www.w3.org/2000/svg" xmlns:xlink="http://www.w3.org/1999/xlink" x="0px" y="0px"
	 viewBox="0 0 17.6 14.5" style="enable-background:new 0 0 17.6 14.5;" xml:space="preserve">
<style type="text/css">
	.st0{fill:#FFFFFF;}
</style>
<path class="st0" d="M17.3,1.9c-0.6,0.3-1.3,0.5-2,0.5C16,2,16.6,1.3,16.9,0.5c-0.7,0.4-1.4,0.7-2.2,0.8c-0.6-0.7-1.5-1.1-2.6-1.1
	c-1.9,0-3.5,1.6-3.5,3.5c0,0.3,0,0.5,0.1,0.8C5.8,4.4,3.2,3,1.5,0.9C1.2,1.4,1,2,1,2.7c0,1.2,0.6,2.3,1.6,2.9C2,5.6,1.4,5.4,1,5.1v0
	c0,1.7,1.2,3.1,2.8,3.4C3.5,8.7,3.2,8.7,2.9,8.7c-0.2,0-0.4,0-0.7-0.1c0.4,1.4,1.7,2.4,3.3,2.4c-1.2,0.9-2.7,1.5-4.3,1.5
	c-0.3,0-0.6,0-0.8,0c1.5,1,3.4,1.6,5.4,1.6c6.4,0,9.9-5.3,9.9-9.9c0-0.2,0-0.3,0-0.5C16.3,3.2,16.9,2.6,17.3,1.9"/>
</svg>
