<?xml version="1.0" encoding="utf-8"?>
<!-- Generator: Adobe Illustrator 19.1.1, SVG Export Plug-In . SVG Version: 6.00 Build 0)  -->
<svg version="1.1" id="Layer_1" xmlns="http://www.w3.org/2000/svg" xmlns:xlink="http://www.w3.org/1999/xlink" x="0px" y="0px"
	 viewBox="0 0 92.1 62.4" style="enable-background:new 0 0 92.1 62.4;" xml:space="preserve">
<style type="text/css">
	.st0{fill:#FFFFFF;}
</style>
<g>
	<path class="st0" d="M73.3,61.7h12.4c0.9,0,1.6-0.7,1.6-1.6V31l0.2-0.1c2.5-1.9,3.9-4.8,3.9-7.9c0-5.4-4.4-9.8-9.8-9.8
		c-0.7,0-1.3,0.1-2,0.2l-0.6,0.1v-2.8c0-5.4-4.4-9.8-9.8-9.8H27.1c-4.8,0-14,3.8-14,9.8v2.8l-0.6-0.1c-0.7-0.1-1.3-0.2-2-0.2
		c-5.4,0-9.8,4.4-9.8,9.8c0,3.1,1.4,6,3.9,7.9L5,31v29.1c0,0.9,0.7,1.6,1.6,1.6h12.4c0.9,0,1.6-0.7,1.6-1.6v-2.5h51.2v2.5
		C71.7,61,72.5,61.7,73.3,61.7z M71.7,42H20.5v-5h51.2V42z M81.6,16.4c3.7,0,6.6,3,6.6,6.6s-3,6.6-6.6,6.6c-0.9,0-1.6,0.7-1.6,1.6
		c0,0.9,0.7,1.6,1.6,1.6c0.7,0,1.3-0.1,2-0.2l0.6-0.1v25.9h-9.2V23C74.9,19.4,77.9,16.4,81.6,16.4z M17.3,58.5H8.2V32.5l0.6,0.1
		c0.6,0.1,1.3,0.2,2,0.2c0.9,0,1.6-0.7,1.6-1.6c0-0.9-0.7-1.6-1.6-1.6C7,29.7,4,26.7,4,23s3-6.6,6.6-6.6c3.7,0,6.6,3,6.6,6.6V58.5z
		 M16.6,15.2L16.4,15l0-4.4c0-3.1,6.4-6.6,10.8-6.6h42.1c3.7,0,6.6,3,6.6,6.6V15l-0.2,0.2c-2.5,1.9-3.9,4.7-3.9,7.8v10.8H20.5V23
		C20.5,19.9,19.1,17.1,16.6,15.2z M20.5,54.4v-9.2h51.2v9.2H20.5z"/>
	<circle class="st0" cx="34.8" cy="20.3" r="2.5"/>
	<circle class="st0" cx="57.4" cy="20.3" r="2.5"/>
</g>
</svg>
