<?xml version="1.0" encoding="utf-8"?>
<!-- Generator: Adobe Illustrator 19.1.1, SVG Export Plug-In . SVG Version: 6.00 Build 0)  -->
<svg version="1.1" id="Layer_1" xmlns="http://www.w3.org/2000/svg" xmlns:xlink="http://www.w3.org/1999/xlink" x="0px" y="0px"
	 viewBox="0 0 108.3 84" style="enable-background:new 0 0 108.3 84;" xml:space="preserve">
<style type="text/css">
	.st0{fill:#F26C63;}
	.st1{fill:#2D2E2D;}
	.st2{fill:#FFFFFF;}
	.st3{fill:#2D2E2D;stroke:#2D2E2D;stroke-width:0.5;stroke-miterlimit:10;}
</style>
<polygon class="st0" points="21.1,13.6 21.1,71.6 2.1,61.1 2.1,2.6 "/>
<polygon class="st0" points="58.1,13.6 58.1,71.6 39.1,61.1 39.1,2.6 "/>
<path class="st1" d="M77.5,0.8c-0.3-0.2-0.7-0.2-1.1,0L58.2,11.1L39.9,0.8c0,0-0.1,0-0.2-0.1l-0.1,0c-0.1,0-0.3,0-0.5,0
	c-0.1,0-0.2,0.1-0.2,0.1l-0.1,0L20.7,11.1L2.4,0.8c-0.3-0.2-0.7-0.2-1.1,0C1,1,0.8,1.4,0.8,1.8v59.1c0,0.4,0.2,0.8,0.6,0.9h0
	l18.8,10.6c0.1,0,0.1,0.1,0.2,0.1l0.1,0c0.1,0,0.3,0,0.5,0c0.1,0,0.2-0.1,0.2-0.1l0.1,0l18.2-10.3l18.2,10.3l0.1,0
	c0.1,0,0.1,0.1,0.2,0.1l0.1,0c0.2,0,0.3,0,0.5,0c0.1,0,0.2-0.1,0.2-0.1l0.1,0l18.7-10.6c0.3-0.2,0.6-0.6,0.6-0.9V1.8
	C78.1,1.4,77.9,1,77.5,0.8z M19.6,69.6L3,60.2V3.6L19.6,13V69.6z M38.3,60.2l-16.6,9.4V13l16.6-9.4V60.2z M57.1,69.6l-16.6-9.4V3.6
	L57.1,13V69.6z M75.9,60.2l-16.6,9.4V13l16.6-9.4V60.2z"/>
<g>
	<circle class="st2" cx="82.6" cy="58.2" r="15.2"/>
	<g>
		<path class="st1" d="M92.9,70.1l13,13c0.4,0.4,1.1,0.4,1.5,0c0.4-0.4,0.4-1.1,0-1.5l-13-13c5.6-6.4,5.4-16.2-0.7-22.3
			c-6.4-6.4-16.7-6.4-23.1,0c-6.4,6.4-6.4,16.7,0,23.1C76.8,75.5,86.5,75.7,92.9,70.1z M72.1,47.8c5.5-5.5,14.6-5.5,20.1,0
			c5.5,5.5,5.5,14.4,0.2,19.9c-0.1,0-0.1,0.1-0.2,0.1c-0.1,0.1-0.1,0.1-0.2,0.2c-5.6,5.4-14.4,5.3-19.9-0.2
			C66.6,62.3,66.6,53.3,72.1,47.8z"/>
		<path class="st3" d="M85.4,50c3.4,0.5,5.8,3.9,5.3,7.6c-0.1,0.4,0.2,0.8,0.6,0.9c0.4,0.1,0.8-0.2,0.8-0.7c0.7-4.5-2.2-8.7-6.4-9.3
			c-0.4-0.1-0.8,0.2-0.8,0.7C84.7,49.6,85,50,85.4,50z"/>
	</g>
</g>
</svg>
