<?xml version="1.0" encoding="utf-8"?>
<!-- Generator: Adobe Illustrator 19.0.0, SVG Export Plug-In . SVG Version: 6.00 Build 0)  -->
<svg version="1.1" id="Layer_1" xmlns="http://www.w3.org/2000/svg" xmlns:xlink="http://www.w3.org/1999/xlink" x="0px" y="0px"
	 viewBox="0 0 80 40" style="enable-background:new 0 0 80 40;" xml:space="preserve">
<style type="text/css">
	.Drop_x0020_Shadow{fill:none;}
	.Round_x0020_Corners_x0020_2_x0020_pt{fill:#FFFFFF;stroke:#000000;stroke-miterlimit:10;}
	.Live_x0020_Reflect_x0020_X{fill:none;}
	.Bevel_x0020_Soft{fill:url(#SVGID_1_);}
	.Dusk{fill:#FFFFFF;}
	.Foliage_GS{fill:#FFDD00;}
	.Pompadour_GS{fill-rule:evenodd;clip-rule:evenodd;fill:#44ADE2;}
	.st0{fill:#2D2E2D;stroke:#FFFFFF;stroke-width:0.2;stroke-miterlimit:10;}
	.st1{fill:#2D2E2D;stroke:#2D2E2D;stroke-width:2.3;stroke-linecap:round;stroke-miterlimit:10;}
</style>
<linearGradient id="SVGID_1_" gradientUnits="userSpaceOnUse" x1="0" y1="0" x2="0.7071" y2="0.7071">
	<stop  offset="0" style="stop-color:#DEDFE3"/>
	<stop  offset="0.1738" style="stop-color:#D8D9DD"/>
	<stop  offset="0.352" style="stop-color:#C9CACD"/>
	<stop  offset="0.5323" style="stop-color:#B4B5B8"/>
	<stop  offset="0.7139" style="stop-color:#989A9C"/>
	<stop  offset="0.8949" style="stop-color:#797C7E"/>
	<stop  offset="1" style="stop-color:#656B6C"/>
</linearGradient>
<g id="XMLID_2_">
	<path id="XMLID_6_" class="st0" d="M19.321,26.128c0,6.513,5.299,11.813,11.813,11.813c6.094,0,11.123-4.639,11.747-10.57h4.847
		l0,0h0.001c0.051,0,0.104-0.004,0.154-0.01c0.016-0.002,0.033-0.006,0.049-0.009c0.035-0.005,0.068-0.011,0.101-0.02
		c0.02-0.004,0.039-0.011,0.058-0.018c0.03-0.009,0.059-0.017,0.087-0.028c0.02-0.008,0.039-0.017,0.059-0.026
		c0.026-0.013,0.054-0.024,0.079-0.038c0.019-0.011,0.037-0.022,0.056-0.033c0.025-0.015,0.05-0.03,0.073-0.047
		c0.018-0.013,0.036-0.027,0.053-0.041c0.023-0.018,0.045-0.036,0.066-0.055c0.017-0.015,0.033-0.032,0.049-0.048
		c0.019-0.02,0.039-0.04,0.057-0.061c0.016-0.018,0.03-0.037,0.044-0.056c0.011-0.014,0.022-0.025,0.032-0.039L59.149,11.99
		l1.573,3.776c-3.661,2.009-6.148,5.9-6.148,10.362c0,6.513,5.299,11.813,11.814,11.813c6.513,0,11.812-5.299,11.812-11.813
		s-5.299-11.813-11.812-11.813c-1.172,0-2.303,0.173-3.372,0.493l-2.43-5.829c-0.096-0.264-0.608-1.607-1.616-2.95
		c-1.545-2.06-3.508-3.148-5.676-3.148c-0.687,0-1.244,0.556-1.244,1.243s0.557,1.243,1.244,1.243c1.375,0,2.615,0.726,3.687,2.155
		c0.168,0.223,0.318,0.447,0.451,0.663H40.438l-0.679-1.574h3.684c0.686,0,1.243-0.557,1.243-1.244c0-0.686-0.557-1.243-1.243-1.243
		H36.64c-0.688,0-1.244,0.557-1.244,1.243c0,0.687,0.557,1.244,1.244,1.244h0.411l1.199,2.774l-2.904,5.712
		c-1.309-0.502-2.729-0.779-4.213-0.779C24.62,14.316,19.321,19.615,19.321,26.128z M61.685,18.078l3.555,8.529
		c0.199,0.478,0.662,0.765,1.148,0.765c0.16,0,0.321-0.031,0.478-0.097c0.633-0.264,0.933-0.992,0.669-1.626l-3.556-8.532
		c0.769-0.206,1.576-0.317,2.409-0.317c5.142,0,9.326,4.184,9.326,9.327s-4.184,9.327-9.326,9.327c-5.143,0-9.327-4.184-9.327-9.327
		C57.061,22.699,58.923,19.698,61.685,18.078z M57.039,10.669l-9.116,13.014l-6.315-13.014L57.039,10.669z M45.742,24.886H42.88
		c-0.38-3.625-2.408-6.765-5.318-8.66l2.036-4.005L45.742,24.886z M40.376,24.886h-7.217l3.269-6.43
		C38.539,19.917,40.019,22.224,40.376,24.886z M21.806,26.127c0-5.143,4.185-9.327,9.327-9.327c1.079,0,2.115,0.187,3.079,0.525
		l-4.14,8.146c-0.118,0.191-0.187,0.416-0.187,0.657c0,0.687,0.557,1.243,1.245,1.244c0,0,0.001,0,0.004-0.001h9.242
		c-0.609,4.557-4.521,8.085-9.242,8.085C25.992,35.456,21.806,31.27,21.806,26.127z"/>
	<line id="XMLID_5_" class="st1" x1="14.812" y1="20.188" x2="8.312" y2="20.188"/>
	<line id="XMLID_4_" class="st1" x1="13.375" y1="24.625" x2="3.75" y2="24.625"/>
	<line id="XMLID_3_" class="st1" x1="14.125" y1="28.938" x2="9.969" y2="28.938"/>
</g>
<g id="XMLID_1_">
</g>
<g id="XMLID_13_">
</g>
<g id="XMLID_14_">
</g>
<g id="XMLID_15_">
</g>
<g id="XMLID_16_">
</g>
<g id="XMLID_17_">
</g>
</svg>
