<?xml version="1.0" encoding="utf-8"?>
<!-- Generator: Adobe Illustrator 19.0.0, SVG Export Plug-In . SVG Version: 6.00 Build 0)  -->
<svg version="1.1" id="Layer_1" xmlns="http://www.w3.org/2000/svg" xmlns:xlink="http://www.w3.org/1999/xlink" x="0px" y="0px"
	 viewBox="0 0 44 44" style="enable-background:new 0 0 44 44;" xml:space="preserve">
<style type="text/css">
	.Drop_x0020_Shadow{fill:none;}
	.Round_x0020_Corners_x0020_2_x0020_pt{fill:#FFFFFF;stroke:#000000;stroke-miterlimit:10;}
	.Live_x0020_Reflect_x0020_X{fill:none;}
	.Bevel_x0020_Soft{fill:url(#SVGID_1_);}
	.Dusk{fill:#FFFFFF;}
	.Foliage_GS{fill:#FFDD00;}
	.Pompadour_GS{fill-rule:evenodd;clip-rule:evenodd;fill:#44ADE2;}
	.st0{fill:#FFFFFF;}
	.st1{fill:#2D2E2D;stroke:#FFFFFF;stroke-width:0.5;stroke-miterlimit:10;}
</style>
<linearGradient id="SVGID_1_" gradientUnits="userSpaceOnUse" x1="0" y1="0" x2="0.7071" y2="0.7071">
	<stop  offset="0" style="stop-color:#DEDFE3"/>
	<stop  offset="0.1738" style="stop-color:#D8D9DD"/>
	<stop  offset="0.352" style="stop-color:#C9CACD"/>
	<stop  offset="0.5323" style="stop-color:#B4B5B8"/>
	<stop  offset="0.7139" style="stop-color:#989A9C"/>
	<stop  offset="0.8949" style="stop-color:#797C7E"/>
	<stop  offset="1" style="stop-color:#656B6C"/>
</linearGradient>
<path class="st0" d="M6.931,29.141c-0.976-5.03,1.159-10.713,6.174-16.434L23.85,0.448l10.755,12.259v-0.001
	c4.311,4.918,6.488,9.807,6.385,14.325l-8.524-8.437l-0.979-0.979c-0.039-0.039-0.082-0.072-0.122-0.111l-0.217-0.214
	c-0.021-0.021-0.049-0.028-0.072-0.047c-1.986-1.796-4.526-2.789-7.223-2.789c-5.952,0-10.794,4.842-10.794,10.794
	c0,2.885,1.124,5.596,3.164,7.635l6.686,6.686l3.283,3.313c-0.774,0.106-1.558,0.16-2.344,0.16
	C15.625,43.044,8.509,37.196,6.931,29.141z"/>
<path class="st0" d="M17.981,31.256l-0.005-0.005c-0.002-0.002-0.003-0.003-0.005-0.005l-0.001-0.001
	c-0.036-0.037-0.083-0.052-0.123-0.082c-1.507-1.612-2.341-3.696-2.341-5.913c0-4.784,3.892-8.676,8.676-8.676
	c2.185,0,4.242,0.812,5.844,2.278c1.43,1.482,2.162,3.551,2.162,6.164v8.688c-1.12-0.115-1.986-0.474-2.656-1.411
	c-0.183-0.256-0.471-0.417-0.784-0.44c-0.317-0.023-0.621,0.094-0.84,0.321c-0.788,0.817-2.298,1.642-3.894,1.642
	C21.728,33.816,19.642,32.931,17.981,31.256z"/>
<g transform="translate(0,-952.36218)">
	<path class="st1" d="M9.741,955.029c-0.893-0.005-1.537,0.9-1.554,1.554v8.808H2.488c-0.863,0-1.537,0.899-1.554,1.554v22.278
		c0,2.784,2.24,5.07,5.003,5.165c0.059,0.009,0.118,0.014,0.178,0.016h32.122c2.843,0,5.181-2.338,5.181-5.181v-32.64
		c0-0.814-0.74-1.554-1.554-1.554L9.741,955.029L9.741,955.029z M11.295,958.138h29.013v31.086c0,1.175-0.897,2.072-2.072,2.072
		H10.842c0.284-0.639,0.453-1.332,0.453-2.072V958.138L11.295,958.138z M14.922,960.21c-0.846,0.03-1.537,0.899-1.554,1.554v7.253
		c0,0.814,0.74,1.554,1.554,1.554h10.362c0.814,0,1.554-0.74,1.554-1.554v-7.253c0-0.814-0.74-1.554-1.554-1.554H14.922z
		 M30.465,961.246c-0.858,0-1.554,0.696-1.554,1.554s0.696,1.554,1.554,1.554h6.217c0.858,0,1.554-0.696,1.554-1.554
		s-0.696-1.554-1.554-1.554H30.465z M16.476,963.318h7.253v4.145h-7.253V963.318z M30.465,966.427c-0.858,0-1.554,0.696-1.554,1.554
		s0.696,1.554,1.554,1.554h6.217c0.858,0,1.554-0.696,1.554-1.554s-0.696-1.554-1.554-1.554H30.465z M4.042,968.499h4.145v20.724
		c0,1.175-0.897,2.072-2.072,2.072s-2.072-0.897-2.072-2.072V968.499L4.042,968.499z M14.922,972.644
		c-0.858,0-1.554,0.696-1.554,1.554c0,0.858,0.696,1.554,1.554,1.554h21.76c0.858,0,1.554-0.696,1.554-1.554
		c0-0.858-0.696-1.554-1.554-1.554H14.922z M26.32,977.825c-0.846,0.03-1.537,0.899-1.554,1.554v7.253
		c0,0.814,0.74,1.554,1.554,1.554h10.362c0.814,0,1.554-0.74,1.554-1.554v-7.253c0-0.814-0.74-1.554-1.554-1.554L26.32,977.825
		L26.32,977.825z M14.922,978.861c-0.858,0-1.554,0.696-1.554,1.554c0,0.858,0.696,1.554,1.554,1.554h6.217
		c0.858,0,1.554-0.696,1.554-1.554c0-0.858-0.696-1.554-1.554-1.554H14.922z M27.874,980.934h7.253v4.145h-7.253V980.934z
		 M14.922,984.042c-0.858,0-1.554,0.696-1.554,1.554c0,0.858,0.696,1.554,1.554,1.554h6.217c0.858,0,1.554-0.696,1.554-1.554
		s-0.696-1.554-1.554-1.554L14.922,984.042L14.922,984.042z"/>
</g>
<g id="XMLID_1_">
</g>
<g id="XMLID_2_">
</g>
<g id="XMLID_3_">
</g>
<g id="XMLID_4_">
</g>
<g id="XMLID_5_">
</g>
<g id="XMLID_6_">
</g>
</svg>
