<?xml version="1.0" encoding="utf-8"?>
<!-- Generator: Adobe Illustrator 19.0.0, SVG Export Plug-In . SVG Version: 6.00 Build 0)  -->
<svg version="1.1" id="Layer_1" xmlns="http://www.w3.org/2000/svg" xmlns:xlink="http://www.w3.org/1999/xlink" x="0px" y="0px"
	 viewBox="0 0 52 42" style="enable-background:new 0 0 52 42;" xml:space="preserve">
<style type="text/css">
	.Drop_x0020_Shadow{fill:none;}
	.Round_x0020_Corners_x0020_2_x0020_pt{fill:#FFFFFF;stroke:#000000;stroke-miterlimit:10;}
	.Live_x0020_Reflect_x0020_X{fill:none;}
	.Bevel_x0020_Soft{fill:url(#SVGID_1_);}
	.Dusk{fill:#FFFFFF;}
	.Foliage_GS{fill:#FFDD00;}
	.Pompadour_GS{fill-rule:evenodd;clip-rule:evenodd;fill:#44ADE2;}
	.st0{fill:#2D2E2D;stroke:#2D2E2D;stroke-width:0.4824;stroke-miterlimit:10;}
</style>
<linearGradient id="SVGID_1_" gradientUnits="userSpaceOnUse" x1="0" y1="0" x2="0.7071" y2="0.7071">
	<stop  offset="0" style="stop-color:#DEDFE3"/>
	<stop  offset="0.1738" style="stop-color:#D8D9DD"/>
	<stop  offset="0.352" style="stop-color:#C9CACD"/>
	<stop  offset="0.5323" style="stop-color:#B4B5B8"/>
	<stop  offset="0.7139" style="stop-color:#989A9C"/>
	<stop  offset="0.8949" style="stop-color:#797C7E"/>
	<stop  offset="1" style="stop-color:#656B6C"/>
</linearGradient>
<g id="XMLID_2_" transform="translate(0,-1020.3622)">
	<path id="XMLID_11_" class="st0" d="M26.37,1042.319c-0.481,0.008-0.866,0.403-0.861,0.884v3.952c-1.438,0-2.622,1.185-2.622,2.623
		v6.119h-6.993c-0.483,0-0.874,0.391-0.874,0.874v3.497c0,0.483,0.391,0.874,0.874,0.874h20.98c0.483,0,0.874-0.391,0.874-0.874
		v-3.497c0-0.483-0.391-0.874-0.874-0.874H29.88v-6.119c0-1.438-1.184-2.623-2.622-2.623v-3.952
		c0.006-0.483-0.381-0.879-0.864-0.884C26.386,1042.319,26.378,1042.319,26.37,1042.319z M25.509,1048.904h1.748
		c0.493,0,0.874,0.381,0.874,0.874v6.119h-3.497v-6.119C24.635,1049.285,25.016,1048.904,25.509,1048.904z M16.768,1057.645h19.231
		v1.748H16.768V1057.645z"/>
	<path id="XMLID_4_" class="st0" d="M26.37,1021.427c-0.482,0.007-0.868,0.383-0.861,0.84v1.905c-1.219,0.319-2.177,1.28-2.496,2.5
		H8.9c-0.381,0-0.718,0.248-0.833,0.611l-6.119,19.231c-0.027,0.085-0.041,0.174-0.041,0.263v1.311c0,3.611,2.946,6.556,6.556,6.556
		s6.556-2.946,6.556-6.556v-1.311c0-0.077-0.01-0.154-0.031-0.229l-4.944-18.129h12.969c0.32,1.218,1.281,2.179,2.496,2.5v6.165
		c-0.007,0.483,0.379,0.88,0.862,0.886s0.88-0.379,0.887-0.862c0-0.008,0-0.016,0-0.025v-6.165c1.215-0.321,2.176-1.281,2.496-2.5
		h12.969l-4.944,18.129c-0.02,0.075-0.031,0.151-0.031,0.229v1.311c0,3.611,2.946,6.556,6.556,6.556s6.556-2.946,6.556-6.556v-1.311
		c0-0.089-0.014-0.178-0.041-0.263l-6.119-19.231c-0.115-0.364-0.452-0.611-0.833-0.611H29.754c-0.319-1.22-1.277-2.18-2.496-2.5
		v-1.905c0.007-0.457-0.378-0.833-0.861-0.84C26.388,1021.427,26.379,1021.427,26.37,1021.427z M26.384,1025.797
		c0.976,0,1.748,0.772,1.748,1.748c0,0.976-0.772,1.748-1.748,1.748c-0.976,0-1.748-0.772-1.748-1.748
		C24.635,1026.57,25.408,1025.797,26.384,1025.797z M8.835,1030.633l4.402,16.145H3.7L8.835,1030.633z M43.932,1030.633
		l5.136,16.145H39.53L43.932,1030.633z M3.7,1048.526h9.527c-0.223,2.455-2.248,4.371-4.763,4.371S3.923,1050.98,3.7,1048.526z
		 M39.54,1048.526h9.527c-0.223,2.455-2.248,4.371-4.763,4.371S39.763,1050.98,39.54,1048.526z"/>
	<path id="XMLID_3_" class="st0" d="M27.258,1040.144c0,0.483-0.391,0.874-0.874,0.874s-0.874-0.391-0.874-0.874
		c0-0.483,0.391-0.874,0.874-0.874S27.258,1039.662,27.258,1040.144z"/>
</g>
<g id="XMLID_1_">
</g>
<g id="XMLID_15_">
</g>
<g id="XMLID_16_">
</g>
<g id="XMLID_17_">
</g>
<g id="XMLID_18_">
</g>
<g id="XMLID_19_">
</g>
</svg>
