<?xml version="1.0" encoding="utf-8"?>
<!-- Generator: Adobe Illustrator 19.0.0, SVG Export Plug-In . SVG Version: 6.00 Build 0)  -->
<svg version="1.1" id="Layer_1" xmlns="http://www.w3.org/2000/svg" xmlns:xlink="http://www.w3.org/1999/xlink" x="0px" y="0px"
	 viewBox="0 0 40 48" style="enable-background:new 0 0 40 48;" xml:space="preserve">
<style type="text/css">
	.Drop_x0020_Shadow{fill:none;}
	.Round_x0020_Corners_x0020_2_x0020_pt{fill:#FFFFFF;stroke:#000000;stroke-miterlimit:10;}
	.Live_x0020_Reflect_x0020_X{fill:none;}
	.Bevel_x0020_Soft{fill:url(#SVGID_1_);}
	.Dusk{fill:#FFFFFF;}
	.Foliage_GS{fill:#FFDD00;}
	.Pompadour_GS{fill-rule:evenodd;clip-rule:evenodd;fill:#44ADE2;}
	.st0{fill:#2D2E2D;stroke:#2D2E2D;stroke-width:0.4615;stroke-miterlimit:10;}
</style>
<linearGradient id="SVGID_1_" gradientUnits="userSpaceOnUse" x1="0" y1="0" x2="0.7071" y2="0.7071">
	<stop  offset="0" style="stop-color:#DEDFE3"/>
	<stop  offset="0.1738" style="stop-color:#D8D9DD"/>
	<stop  offset="0.352" style="stop-color:#C9CACD"/>
	<stop  offset="0.5323" style="stop-color:#B4B5B8"/>
	<stop  offset="0.7139" style="stop-color:#989A9C"/>
	<stop  offset="0.8949" style="stop-color:#797C7E"/>
	<stop  offset="1" style="stop-color:#656B6C"/>
</linearGradient>
<g id="XMLID_9_">
	<path id="XMLID_10_" class="st0" d="M34.461,12.852c-1.376-0.942-2.371-1.621-2.374-3.934c0-0.315,0.165-0.617,0.324-0.831
		c0.339-0.131,0.577-0.461,0.577-0.844l-0.001-1.032c-0.002-1.669-1.388-2.704-3.611-2.7c-2.224,0.002-3.606,1.041-3.604,2.711
		l0.002,1.033c0,0.382,0.239,0.709,0.575,0.839c0.164,0.216,0.328,0.518,0.329,0.832c0.003,2.315-0.991,2.995-2.364,3.941
		c-1.756,1.206-3.941,2.704-3.933,7.792l0.007,5.411l0.01,7.215l0.012,9.019c0.003,2.825,1.356,4.508,3.614,4.504l10.821-0.015
		c2.259-0.004,3.605-1.691,3.602-4.514l-0.013-9.018l-0.01-7.214l-0.007-5.414C38.409,15.548,36.222,14.053,34.461,12.852z
		 M26.537,25.517c-0.484-0.64-0.741-1.386-0.742-2.161c-0.002-1.989,1.612-3.609,3.603-3.612c1.988-0.003,3.608,1.613,3.611,3.602
		c0.001,0.776-0.252,1.522-0.737,2.164c-0.205,0.273-0.241,0.639-0.087,0.945c0.153,0.307,0.466,0.5,0.808,0.499l3.628-0.005
		l0.009,5.412l-14.431,0.02l-0.008-5.412l3.629-0.005c0.341,0,0.655-0.194,0.806-0.504C26.779,26.155,26.743,25.788,26.537,25.517z
		 M34.842,44.989L24.02,45.004c-0.446,0.001-1.805,0.002-1.808-2.703l-0.012-8.116l14.43-0.021l0.012,8.117
		C36.647,44.986,35.288,44.989,34.842,44.989z M36.619,25.145L34.5,25.148c0.206-0.577,0.314-1.184,0.313-1.804
		c-0.004-2.983-2.434-5.408-5.418-5.403c-2.984,0.003-5.407,2.435-5.404,5.417c0.001,0.622,0.11,1.23,0.318,1.804l-2.12,0.004
		l-0.006-4.51c-0.006-4.135,1.529-5.187,3.149-6.304c1.479-1.014,3.152-2.165,3.148-5.429c-0.002-1-0.538-1.768-0.904-2.175
		l-0.001-0.529c-0.002-0.785,1.129-0.903,1.803-0.906c0.671,0,1.803,0.116,1.804,0.901l0.001,0.528
		c-0.365,0.411-0.9,1.179-0.9,2.178c0.006,3.266,1.683,4.411,3.163,5.42c1.626,1.112,3.162,2.16,3.168,6.296L36.619,25.145z"/>
</g>
<g id="XMLID_2_">
	<path id="XMLID_3_" class="st0" d="M12.685,14.099l0.017-12.417c0-0.46-0.401-0.863-0.861-0.863l-0.058-0.001L7.241,0.813
		C6.781,0.812,6.38,1.214,6.379,1.674l-0.006,4.6l-0.01,7.759c-3.279,1.26-5.41,4.363-5.415,7.927l-0.009,6.897L0.926,39.204
		l-0.009,6.668c-0.001,0.46,0.401,0.864,0.86,0.863l15.349,0.021c0.459,0.001,0.862-0.402,0.863-0.861l0.008-6.612l0.013-10.346
		l0.009-6.899C17.968,18.475,15.845,15.426,12.685,14.099z M8.101,2.539l2.818,0.004l-0.004,2.874L8.097,5.413L8.101,2.539z
		 M16.218,38.42L2.594,38.402l0.013-8.622l13.623,0.017L16.218,38.42z M2.586,45.07l0.007-4.943l13.623,0.017l-0.006,4.944
		L2.586,45.07z M16.231,28.074L2.608,28.055l0.008-6.095c0.003-2.988,1.96-5.63,4.838-6.489c0.344-0.115,0.631-0.458,0.631-0.805
		l0.01-7.529l2.876,0.003l-0.01,7.531c0,0.402,0.229,0.69,0.573,0.805c2.815,0.924,4.711,3.514,4.705,6.504L16.231,28.074z"/>
</g>
<g id="XMLID_1_">
</g>
<g id="XMLID_15_">
</g>
<g id="XMLID_16_">
</g>
<g id="XMLID_17_">
</g>
<g id="XMLID_18_">
</g>
<g id="XMLID_19_">
</g>
</svg>
