<?xml version="1.0" encoding="utf-8"?>
<!-- Generator: Adobe Illustrator 19.0.0, SVG Export Plug-In . SVG Version: 6.00 Build 0)  -->
<svg version="1.1" id="Layer_1" xmlns="http://www.w3.org/2000/svg" xmlns:xlink="http://www.w3.org/1999/xlink" x="0px" y="0px"
	 viewBox="0 0 35 35" style="enable-background:new 0 0 35 35;" xml:space="preserve">
<style type="text/css">
	.Drop_x0020_Shadow{fill:none;}
	.Round_x0020_Corners_x0020_2_x0020_pt{fill:#FFFFFF;stroke:#000000;stroke-miterlimit:10;}
	.Live_x0020_Reflect_x0020_X{fill:none;}
	.Bevel_x0020_Soft{fill:url(#SVGID_1_);}
	.Dusk{fill:#FFFFFF;}
	.Foliage_GS{fill:#FFDD00;}
	.Pompadour_GS{fill-rule:evenodd;clip-rule:evenodd;fill:#44ADE2;}
	.st0{fill:#010101;stroke:#010101;stroke-width:0.25;stroke-miterlimit:10;}
</style>
<linearGradient id="SVGID_1_" gradientUnits="userSpaceOnUse" x1="0" y1="0" x2="0.7071" y2="0.7071">
	<stop  offset="0" style="stop-color:#DEDFE3"/>
	<stop  offset="0.1738" style="stop-color:#D8D9DD"/>
	<stop  offset="0.352" style="stop-color:#C9CACD"/>
	<stop  offset="0.5323" style="stop-color:#B4B5B8"/>
	<stop  offset="0.7139" style="stop-color:#989A9C"/>
	<stop  offset="0.8949" style="stop-color:#797C7E"/>
	<stop  offset="1" style="stop-color:#656B6C"/>
</linearGradient>
<g id="XMLID_2_">
	<path id="XMLID_6_" class="st0" d="M34.5,10.417V7.442l0,0c0-0.071,0-0.142-0.071-0.213c0,0,0,0,0-0.071s-0.071-0.071-0.071-0.142
		l-4.675-6.233C29.542,0.571,29.329,0.5,29.117,0.5h-4.675h-4.675h-4.675h-4.675H5.883c-0.213,0-0.425,0.071-0.567,0.283
		L0.642,7.017c0,0.071-0.071,0.071-0.071,0.142c0,0,0,0,0,0.071S0.5,7.371,0.5,7.442l0,0v2.975c0,1.204,0.567,2.337,1.487,3.046
		c-0.071,0.071-0.071,0.212-0.071,0.283v19.337H1.208c-0.425,0-0.708,0.283-0.708,0.708S0.783,34.5,1.208,34.5h1.417H6.45h8.713
		h17.212h1.417c0.425,0,0.708-0.283,0.708-0.708s-0.283-0.708-0.708-0.708h-0.708V13.675c0-0.071,0-0.142-0.071-0.212
		C33.933,12.754,34.5,11.621,34.5,10.417z M32.375,6.733h-4.604l-2.125-4.675l-0.071-0.071h3.188L32.375,6.733z M13.533,10.417
		c0,1.417-1.133,2.55-2.55,2.55s-2.55-1.133-2.55-2.55V8.15h5.1L13.533,10.417z M10.983,1.917h3.4l-0.708,4.817H8.858l0.071-0.071
		L10.983,1.917z M24.017,1.917l2.125,4.675l0.071,0.071h-4.817l-0.708-4.817h3.329V1.917z M19.908,6.733h-4.887l0.708-4.817h3.4
		L19.908,6.733z M14.95,8.15h5.1v2.267c0,1.417-1.133,2.55-2.55,2.55c-1.417,0-2.55-1.133-2.55-2.55L14.95,8.15z M21.467,8.15h5.1
		v2.267c0,1.417-1.133,2.55-2.55,2.55c-1.417,0-2.55-1.133-2.55-2.55V8.15z M6.238,1.917h3.188L9.354,1.988L7.229,6.662H2.625
		L6.238,1.917z M1.917,8.15h5.1v2.267c0,1.417-1.133,2.55-2.55,2.55s-2.55-1.133-2.55-2.55V8.15z M7.158,33.083V18.35h7.296v14.733
		H7.158z M31.667,33.083H15.871V17.642c0-0.425-0.283-0.708-0.708-0.708H6.45c-0.425,0-0.708,0.283-0.708,0.708v15.442H3.333V14.171
		c0.354,0.142,0.708,0.213,1.133,0.213c1.346,0,2.55-0.708,3.258-1.7c0.708,1.063,1.912,1.7,3.258,1.7s2.55-0.708,3.258-1.7
		c0.708,1.063,1.913,1.7,3.258,1.7s2.55-0.708,3.258-1.7c0.708,1.063,1.913,1.7,3.258,1.7c1.346,0,2.55-0.708,3.258-1.7
		c0.708,1.063,1.913,1.7,3.258,1.7c0.425,0,0.779-0.071,1.133-0.142L31.667,33.083z M33.083,10.417c0,1.417-1.133,2.55-2.55,2.55
		c-1.417,0-2.55-1.133-2.55-2.55V8.15h5.1L33.083,10.417z"/>
	<path id="XMLID_3_" class="st0" d="M29.825,19.2h-11.05c-0.425,0-0.708,0.283-0.708,0.708v6.729c0,0.425,0.283,0.708,0.708,0.708
		h11.05c0.425,0,0.708-0.283,0.708-0.708v-6.729C30.533,19.483,30.25,19.2,29.825,19.2z M29.117,25.929h-9.633v-5.313h9.633V25.929z
		"/>
</g>
</svg>
