<?xml version="1.0" encoding="utf-8"?>
<!-- Generator: Adobe Illustrator 19.0.0, SVG Export Plug-In . SVG Version: 6.00 Build 0)  -->
<svg version="1.1" id="Layer_1" xmlns="http://www.w3.org/2000/svg" xmlns:xlink="http://www.w3.org/1999/xlink" x="0px" y="0px"
	 viewBox="0 0 30.833 37.333" style="enable-background:new 0 0 30.833 37.333;" xml:space="preserve">
<style type="text/css">
	.Drop_x0020_Shadow{fill:none;}
	.Round_x0020_Corners_x0020_2_x0020_pt{fill:#FFFFFF;stroke:#000000;stroke-miterlimit:10;}
	.Live_x0020_Reflect_x0020_X{fill:none;}
	.Bevel_x0020_Soft{fill:url(#SVGID_1_);}
	.Dusk{fill:#FFFFFF;}
	.Foliage_GS{fill:#FFDD00;}
	.Pompadour_GS{fill-rule:evenodd;clip-rule:evenodd;fill:#44ADE2;}
	.st0{fill:#FFFFFF;}
</style>
<linearGradient id="SVGID_1_" gradientUnits="userSpaceOnUse" x1="-735" y1="-730.8333" x2="-734.2929" y2="-730.1262">
	<stop  offset="0" style="stop-color:#DEDFE3"/>
	<stop  offset="0.1738" style="stop-color:#D8D9DD"/>
	<stop  offset="0.352" style="stop-color:#C9CACD"/>
	<stop  offset="0.5323" style="stop-color:#B4B5B8"/>
	<stop  offset="0.7139" style="stop-color:#989A9C"/>
	<stop  offset="0.8949" style="stop-color:#797C7E"/>
	<stop  offset="1" style="stop-color:#656B6C"/>
</linearGradient>
<g>
	<path class="st0" d="M19.136,21.521c0-2.088-1.698-3.786-3.786-3.786s-3.786,1.698-3.786,3.786s1.698,3.786,3.786,3.786
		S19.136,23.608,19.136,21.521z M13.163,21.521c0-1.206,0.981-2.187,2.187-2.187s2.187,0.981,2.187,2.187s-0.981,2.187-2.187,2.187
		S13.163,22.726,13.163,21.521z"/>
	<path class="st0" d="M24.671,10.994L24.671,10.994l-8.724-9.943c-0.305-0.346-0.9-0.346-1.203,0l-8.715,9.943
		C1.904,15.7,0.165,20.461,1,24.765c1.339,6.833,7.372,11.792,14.346,11.792c1.223,0,2.439-0.152,3.615-0.452
		c0.014-0.003,0.023-0.016,0.036-0.021c5.423-1.428,9.62-5.863,10.702-11.318c0,0,0-0.001,0-0.002l0-0.002
		C30.535,20.461,28.796,15.7,24.671,10.994z M2.57,24.459c-0.737-3.798,0.875-8.09,4.662-12.41l8.114-9.257l8.122,9.257v0
		c3.255,3.714,4.899,7.405,4.822,10.818l-6.437-6.371l-0.739-0.739c-0.03-0.03-0.062-0.054-0.092-0.083l-0.164-0.162
		c-0.016-0.016-0.037-0.021-0.054-0.036c-1.5-1.356-3.418-2.106-5.454-2.106c-4.495,0-8.151,3.656-8.151,8.151
		c0,2.178,0.849,4.226,2.389,5.766l5.049,5.049l2.479,2.501c-0.585,0.08-1.177,0.121-1.77,0.121
		C9.135,34.958,3.762,30.542,2.57,24.459z M10.667,26.056l-0.004-0.004c-0.001-0.001-0.002-0.002-0.004-0.004l0,0
		c-0.027-0.028-0.063-0.04-0.093-0.062c-1.138-1.217-1.768-2.791-1.768-4.465c0-3.612,2.939-6.551,6.551-6.551
		c1.65,0,3.203,0.613,4.413,1.72c1.08,1.119,1.633,2.682,1.633,4.655v6.561c-0.846-0.087-1.5-0.358-2.005-1.065
		c-0.138-0.193-0.355-0.315-0.592-0.333c-0.239-0.018-0.469,0.071-0.634,0.243c-0.595,0.617-1.735,1.24-2.94,1.24
		C13.496,27.989,11.922,27.321,10.667,26.056z M18.992,34.427l-3.245-3.245l-1.659-1.674c0.374,0.054,0.753,0.082,1.136,0.082
		c1.374,0,2.597-0.549,3.439-1.165c1.048,0.968,2.354,1.116,3.533,1.116c0.442,0,0.8-0.358,0.8-0.8v-7.396
		c0-0.538-0.038-1.057-0.111-1.554l5.14,5.14C26.95,29.437,23.474,33.092,18.992,34.427z"/>
</g>
</svg>
