<?xml version="1.0" encoding="utf-8"?>
<!-- Generator: Adobe Illustrator 19.0.0, SVG Export Plug-In . SVG Version: 6.00 Build 0)  -->
<svg version="1.1" id="Layer_1" xmlns="http://www.w3.org/2000/svg" xmlns:xlink="http://www.w3.org/1999/xlink" x="0px" y="0px"
	 viewBox="0 0 43 43" style="enable-background:new 0 0 43 43;" xml:space="preserve">
<style type="text/css">
	.Drop_x0020_Shadow{fill:none;}
	.Round_x0020_Corners_x0020_2_x0020_pt{fill:#FFFFFF;stroke:#000000;stroke-miterlimit:10;}
	.Live_x0020_Reflect_x0020_X{fill:none;}
	.Bevel_x0020_Soft{fill:url(#SVGID_1_);}
	.Dusk{fill:#FFFFFF;}
	.Foliage_GS{fill:#FFDD00;}
	.Pompadour_GS{fill-rule:evenodd;clip-rule:evenodd;fill:#44ADE2;}
	.st0{fill:#010101;}
	.st1{fill:#F26C63;}
</style>
<linearGradient id="SVGID_1_" gradientUnits="userSpaceOnUse" x1="0" y1="0" x2="0.7071" y2="0.7071">
	<stop  offset="0" style="stop-color:#DEDFE3"/>
	<stop  offset="0.1738" style="stop-color:#D8D9DD"/>
	<stop  offset="0.352" style="stop-color:#C9CACD"/>
	<stop  offset="0.5323" style="stop-color:#B4B5B8"/>
	<stop  offset="0.7139" style="stop-color:#989A9C"/>
	<stop  offset="0.8949" style="stop-color:#797C7E"/>
	<stop  offset="1" style="stop-color:#656B6C"/>
</linearGradient>
<g id="XMLID_2_">
	<path id="XMLID_6_" class="st0" d="M8.029,0.936c-1.242,0-2.291,1.049-2.291,2.291v1.7H2.541c-0.972,0-1.793,0.821-1.793,1.793
		v32.93c0,0.972,0.821,1.793,1.793,1.793h37.919c0.064-0.003,1.793-0.103,1.793-1.792V6.72c0-0.972-0.821-1.793-1.793-1.793h-3.197
		v-1.7c0-1.242-1.05-2.291-2.292-2.291c-1.242,0-2.291,1.049-2.291,2.291v1.7h-4.398v-1.7c0-1.242-1.049-2.291-2.291-2.291
		s-2.291,1.049-2.291,2.291v1.7h-4.398v-1.7c0-1.242-1.049-2.291-2.291-2.291s-2.291,1.049-2.291,2.291v1.7H10.32v-1.7
		C10.32,1.985,9.271,0.936,8.029,0.936z M7.327,3.227c0-0.406,0.295-0.702,0.702-0.702s0.702,0.295,0.702,0.702v4.99
		c0,0.407-0.295,0.702-0.702,0.702S7.327,8.624,7.327,8.217V3.227z M40.663,39.853H2.337V14.5l38.325,0V39.853z M34.269,3.227
		c0-0.406,0.295-0.702,0.702-0.702c0.407,0,0.702,0.295,0.702,0.702v4.99c0,0.407-0.295,0.702-0.702,0.702
		c-0.407,0-0.702-0.295-0.702-0.702V3.227z M25.288,3.227c0-0.406,0.295-0.702,0.702-0.702s0.702,0.295,0.702,0.702v4.99
		c0,0.407-0.295,0.702-0.702,0.702s-0.702-0.295-0.702-0.702V3.227z M16.308,3.227c0-0.406,0.295-0.702,0.702-0.702
		s0.702,0.295,0.702,0.702v4.99c0,0.407-0.295,0.702-0.702,0.702s-0.702-0.295-0.702-0.702V3.227z M14.718,6.517v1.7
		c0,1.242,1.049,2.291,2.291,2.291s2.291-1.049,2.291-2.291v-1.7h4.398v1.7c0,1.242,1.049,2.291,2.291,2.291
		s2.291-1.049,2.291-2.291v-1.7h4.398v1.7c0,1.242,1.049,2.291,2.291,2.291c1.242,0,2.292-1.049,2.292-2.291v-1.7h3.4v6.394H2.337
		V6.517h3.4v1.7c0,1.242,1.049,2.291,2.291,2.291s2.291-1.049,2.291-2.291v-1.7H14.718z"/>
	<path id="XMLID_3_" class="st1" d="M14.718,6.517v1.7c0,1.242,1.049,2.291,2.291,2.291s2.291-1.049,2.291-2.291v-1.7h4.398v1.7
		c0,1.242,1.049,2.291,2.291,2.291s2.291-1.049,2.291-2.291v-1.7h4.398v1.7c0,1.242,1.049,2.291,2.291,2.291
		c1.242,0,2.292-1.049,2.292-2.291v-1.7h3.4v6.394H2.337V6.517h3.4v1.7c0,1.242,1.049,2.291,2.291,2.291s2.291-1.049,2.291-2.291
		v-1.7H14.718z"/>
</g>
</svg>
