<?xml version="1.0" encoding="utf-8"?>
<!-- Generator: Adobe Illustrator 19.0.0, SVG Export Plug-In . SVG Version: 6.00 Build 0)  -->
<svg version="1.1" id="Layer_1" xmlns="http://www.w3.org/2000/svg" xmlns:xlink="http://www.w3.org/1999/xlink" x="0px" y="0px"
	 viewBox="0 0 45 27" style="enable-background:new 0 0 45 27;" xml:space="preserve">
<style type="text/css">
	.Drop_x0020_Shadow{fill:none;}
	.Round_x0020_Corners_x0020_2_x0020_pt{fill:#FFFFFF;stroke:#000000;stroke-miterlimit:10;}
	.Live_x0020_Reflect_x0020_X{fill:none;}
	.Bevel_x0020_Soft{fill:url(#SVGID_1_);}
	.Dusk{fill:#FFFFFF;}
	.Foliage_GS{fill:#FFDD00;}
	.Pompadour_GS{fill-rule:evenodd;clip-rule:evenodd;fill:#44ADE2;}
	.st0{fill:#FFFFFF;}
</style>
<linearGradient id="SVGID_1_" gradientUnits="userSpaceOnUse" x1="0" y1="0" x2="0.7071" y2="0.7071">
	<stop  offset="0" style="stop-color:#DEDFE3"/>
	<stop  offset="0.1738" style="stop-color:#D8D9DD"/>
	<stop  offset="0.352" style="stop-color:#C9CACD"/>
	<stop  offset="0.5323" style="stop-color:#B4B5B8"/>
	<stop  offset="0.7139" style="stop-color:#989A9C"/>
	<stop  offset="0.8949" style="stop-color:#797C7E"/>
	<stop  offset="1" style="stop-color:#656B6C"/>
</linearGradient>
<path class="st0" d="M35.605,9.486c-1.085,0-2.122,0.203-3.079,0.57l-2.122-4.174l0.876-2.027h0.301
	c0.503,0,0.909-0.407,0.909-0.909c0-0.502-0.407-0.908-0.909-0.908h-4.972c-0.502,0-0.908,0.407-0.908,0.908
	c0,0.502,0.407,0.909,0.908,0.909H29.3l-0.496,1.15H16.382c0.097-0.158,0.207-0.321,0.33-0.485c0.784-1.044,1.69-1.575,2.695-1.575
	c0.502,0,0.909-0.406,0.909-0.908s-0.407-0.908-0.909-0.908c-1.585,0-3.019,0.796-4.149,2.301c-0.736,0.982-1.111,1.964-1.181,2.156
	l-1.776,4.26c-0.781-0.233-1.608-0.36-2.464-0.36c-4.76,0-8.633,3.873-8.633,8.634s3.873,8.634,8.633,8.634
	c4.761,0,8.634-3.873,8.634-8.634c0-3.261-1.817-6.105-4.493-7.573l1.15-2.76l7.604,10.855c0.007,0.01,0.015,0.019,0.023,0.029
	c0.011,0.014,0.021,0.028,0.032,0.041c0.013,0.015,0.028,0.03,0.042,0.045c0.012,0.012,0.024,0.024,0.036,0.035
	c0.015,0.014,0.031,0.027,0.048,0.04c0.012,0.01,0.025,0.02,0.039,0.03c0.017,0.012,0.035,0.023,0.054,0.034
	c0.013,0.008,0.027,0.016,0.041,0.024c0.019,0.01,0.039,0.019,0.058,0.028c0.014,0.007,0.028,0.013,0.043,0.019
	c0.02,0.008,0.042,0.014,0.063,0.021c0.014,0.005,0.028,0.01,0.042,0.013c0.024,0.007,0.049,0.011,0.074,0.014
	c0.011,0.002,0.024,0.005,0.036,0.007c0.037,0.005,0.075,0.007,0.113,0.007h0.001l0,0h3.543c0.456,4.335,4.132,7.725,8.585,7.725
	c4.761,0,8.634-3.873,8.634-8.634S40.365,9.486,35.605,9.486z M16.655,18.12c0,3.759-3.058,6.817-6.817,6.817
	c-3.758,0-6.816-3.058-6.816-6.817s3.058-6.817,6.816-6.817c0.609,0,1.199,0.081,1.761,0.232L9,17.77
	c-0.193,0.463,0.026,0.995,0.489,1.188c0.114,0.048,0.232,0.071,0.349,0.071c0.355,0,0.694-0.21,0.839-0.559l2.598-6.233
	C15.294,13.42,16.655,15.614,16.655,18.12z M27.949,6.821l-4.616,9.512l-6.663-9.512L27.949,6.821z M29.419,7.955l1.488,2.927
	c-2.127,1.385-3.61,3.68-3.887,6.33h-2.092L29.419,7.955z M31.735,12.512l2.39,4.7H28.85C29.11,15.267,30.192,13.58,31.735,12.512z
	 M35.605,24.937c-3.45,0-6.309-2.578-6.755-5.909h6.755c0.002,0.001,0.003,0.001,0.003,0.001c0.503-0.001,0.91-0.407,0.91-0.909
	c0-0.176-0.05-0.34-0.137-0.48l-3.026-5.954c0.705-0.247,1.462-0.384,2.25-0.384c3.758,0,6.817,3.058,6.817,6.817
	S39.362,24.937,35.605,24.937z"/>
</svg>
