<?xml version="1.0" encoding="utf-8"?>
<!-- Generator: Adobe Illustrator 19.0.0, SVG Export Plug-In . SVG Version: 6.00 Build 0)  -->
<svg version="1.1" id="Layer_1" xmlns="http://www.w3.org/2000/svg" xmlns:xlink="http://www.w3.org/1999/xlink" x="0px" y="0px"
	 viewBox="0 0 15.333 21.5" style="enable-background:new 0 0 15.333 21.5;" xml:space="preserve">
<style type="text/css">
	.Drop_x0020_Shadow{fill:none;}
	.Round_x0020_Corners_x0020_2_x0020_pt{fill:#FFFFFF;stroke:#000000;stroke-miterlimit:10;}
	.Live_x0020_Reflect_x0020_X{fill:none;}
	.Bevel_x0020_Soft{fill:url(#SVGID_1_);}
	.Dusk{fill:#FFFFFF;}
	.Foliage_GS{fill:#FFDD00;}
	.Pompadour_GS{fill-rule:evenodd;clip-rule:evenodd;fill:#44ADE2;}
	.st0{fill:#F16C61;}
</style>
<linearGradient id="SVGID_1_" gradientUnits="userSpaceOnUse" x1="-299" y1="-386.25" x2="-298.2929" y2="-385.5429">
	<stop  offset="0" style="stop-color:#DEDFE3"/>
	<stop  offset="0.1738" style="stop-color:#D8D9DD"/>
	<stop  offset="0.352" style="stop-color:#C9CACD"/>
	<stop  offset="0.5323" style="stop-color:#B4B5B8"/>
	<stop  offset="0.7139" style="stop-color:#989A9C"/>
	<stop  offset="0.8949" style="stop-color:#797C7E"/>
	<stop  offset="1" style="stop-color:#656B6C"/>
</linearGradient>
<path class="st0" d="M14.861,8.284c0,0.001,0.199,4.175-7.035,12.638C1.675,13.726,0.901,9.533,0.808,8.438
	C0.772,8.151,0.754,7.858,0.754,7.56c0-3.906,3.166-7.072,7.072-7.072c3.906,0,7.072,3.166,7.072,7.072
	C14.898,7.805,14.885,8.046,14.861,8.284z M4.447,7.646c0,0.222,0.022,0.438,0.062,0.648l0,0C4.556,8.537,4.629,8.77,4.726,8.992
	l0,0c0.077,0.177,0.168,0.345,0.273,0.505L5.001,9.5c0.078,0.119,0.164,0.233,0.256,0.341l0.001,0.001
	c0.03,0.035,0.061,0.069,0.092,0.103c0.002,0.002,0.004,0.004,0.004,0.004c0.033,0.035,0.065,0.068,0.097,0.1l0.004,0.004
	c0.066,0.065,0.135,0.128,0.207,0.188l0.004,0.003C5.7,10.273,5.735,10.3,5.77,10.328c0,0,0.007,0.006,0.011,0.008
	c0.035,0.027,0.071,0.053,0.106,0.078c0.004,0.003,0.007,0.005,0.007,0.005c0.04,0.028,0.078,0.053,0.116,0.078l0.001,0
	c0.039,0.025,0.078,0.049,0.118,0.072c0.002,0.001,0.004,0.002,0.004,0.002c0.04,0.023,0.079,0.044,0.118,0.065
	c0.005,0.003,0.01,0.006,0.01,0.006c0.043,0.022,0.082,0.042,0.121,0.06c0,0,0.011,0.005,0.017,0.008
	c0.04,0.018,0.08,0.037,0.12,0.053c0.003,0.001,0.006,0.003,0.006,0.003c0.044,0.018,0.085,0.034,0.127,0.05l0.007,0.003
	c0.041,0.015,0.083,0.029,0.125,0.043c0,0,0.013,0.004,0.019,0.006c0.041,0.013,0.082,0.025,0.123,0.036
	c0.007,0.002,0.014,0.004,0.021,0.006c0.042,0.011,0.084,0.022,0.127,0.032l0.015,0.003c0.043,0.01,0.087,0.019,0.131,0.027
	l0.006,0.001c0.044,0.008,0.089,0.015,0.134,0.021c0.007,0.001,0.014,0.002,0.021,0.003c0.043,0.006,0.086,0.01,0.13,0.015
	c0.008,0.001,0.016,0.002,0.024,0.002c0.044,0.004,0.088,0.007,0.132,0.009c0,0,0.013,0,0.019,0.001
	c0.047,0.002,0.094,0.003,0.141,0.003c0.046,0,0.092-0.001,0.138-0.003c0,0,0.014,0,0.021-0.001c0.044-0.002,0.087-0.005,0.13-0.009
	c0,0,0.016-0.002,0.024-0.002c0.043-0.004,0.086-0.009,0.129-0.014c0.006-0.001,0.012-0.002,0.018-0.003
	c0.043-0.006,0.086-0.013,0.129-0.02l0.006-0.001c0.043-0.008,0.087-0.017,0.13-0.026c0.007-0.002,0.014-0.003,0.014-0.003
	c0.048-0.011,0.089-0.021,0.13-0.032c0,0,0.014-0.004,0.021-0.006c0.041-0.011,0.083-0.023,0.124-0.036l0.012-0.004
	c0.041-0.013,0.082-0.027,0.122-0.041c0.003-0.001,0.005-0.002,0.005-0.002c0.044-0.016,0.084-0.032,0.124-0.048
	c0.006-0.003,0.012-0.005,0.018-0.007c0.039-0.016,0.078-0.033,0.116-0.051l0.017-0.008c0.039-0.018,0.079-0.037,0.117-0.057
	l0.004-0.002c0.039-0.02,0.078-0.041,0.117-0.063l0.007-0.004c0.038-0.022,0.075-0.044,0.112-0.067c0,0,0.009-0.006,0.013-0.008
	c0.036-0.023,0.073-0.047,0.108-0.071l0.01-0.007c0.075-0.051,0.147-0.106,0.217-0.163l0.004-0.003
	c0.034-0.028,0.068-0.057,0.102-0.087c0.003-0.003,0.006-0.005,0.006-0.005c0.036-0.032,0.069-0.062,0.101-0.093l0.004-0.004
	c0.066-0.064,0.13-0.131,0.191-0.201l0.001-0.002c0.03-0.034,0.06-0.069,0.088-0.105c0.001-0.002,0.003-0.003,0.003-0.003
	c0.118-0.147,0.224-0.303,0.316-0.466l0.001-0.001c0.162-0.288,0.283-0.603,0.354-0.936l0,0c0.05-0.231,0.076-0.47,0.076-0.715
	c0-1.866-1.513-3.379-3.379-3.379S4.447,5.779,4.447,7.646z"/>
</svg>
