<?xml version="1.0" encoding="utf-8"?>
<!-- Generator: Adobe Illustrator 19.0.0, SVG Export Plug-In . SVG Version: 6.00 Build 0)  -->
<svg version="1.1" id="Layer_1" xmlns="http://www.w3.org/2000/svg" xmlns:xlink="http://www.w3.org/1999/xlink" x="0px" y="0px"
	 viewBox="0 0 13.313 18.813" style="enable-background:new 0 0 13.313 18.813;" xml:space="preserve">
<style type="text/css">
	.Drop_x0020_Shadow{fill:none;}
	.Round_x0020_Corners_x0020_2_x0020_pt{fill:#FFFFFF;stroke:#000000;stroke-miterlimit:10;}
	.Live_x0020_Reflect_x0020_X{fill:none;}
	.Bevel_x0020_Soft{fill:url(#SVGID_1_);}
	.Dusk{fill:#FFFFFF;}
	.Foliage_GS{fill:#FFDD00;}
	.Pompadour_GS{fill-rule:evenodd;clip-rule:evenodd;fill:#44ADE2;}
	.st0{fill:none;stroke:#FFFFFF;stroke-width:0.8;stroke-miterlimit:10;}
</style>
<linearGradient id="SVGID_1_" gradientUnits="userSpaceOnUse" x1="-299.875" y1="-387.625" x2="-299.1679" y2="-386.9179">
	<stop  offset="0" style="stop-color:#DEDFE3"/>
	<stop  offset="0.1738" style="stop-color:#D8D9DD"/>
	<stop  offset="0.352" style="stop-color:#C9CACD"/>
	<stop  offset="0.5323" style="stop-color:#B4B5B8"/>
	<stop  offset="0.7139" style="stop-color:#989A9C"/>
	<stop  offset="0.8949" style="stop-color:#797C7E"/>
	<stop  offset="1" style="stop-color:#656B6C"/>
</linearGradient>
<path class="st0" d="M12.592,7.34c0,0.001,0.165,3.467-5.841,10.493C1.643,11.859,1.001,8.378,0.924,7.468
	c-0.03-0.239-0.045-0.482-0.045-0.729c0-3.243,2.629-5.872,5.872-5.872c3.243,0,5.872,2.629,5.872,5.872
	C12.622,6.942,12.612,7.142,12.592,7.34z M3.945,6.81c0,0.184,0.018,0.364,0.052,0.538l0,0c0.039,0.202,0.1,0.396,0.18,0.58l0,0
	c0.064,0.147,0.14,0.287,0.227,0.419L4.405,8.35C4.47,8.449,4.541,8.543,4.618,8.633l0.001,0.001
	c0.025,0.029,0.05,0.058,0.076,0.085c0.002,0.002,0.003,0.003,0.003,0.003c0.028,0.029,0.054,0.056,0.081,0.083l0.003,0.003
	c0.055,0.054,0.112,0.106,0.172,0.156l0.003,0.002c0.029,0.024,0.058,0.047,0.087,0.07c0,0,0.006,0.005,0.009,0.007
	c0.029,0.022,0.059,0.044,0.088,0.065c0.003,0.002,0.006,0.004,0.006,0.004c0.034,0.023,0.065,0.044,0.096,0.065l0,0
	c0.032,0.02,0.065,0.04,0.098,0.06c0.002,0.001,0.003,0.002,0.003,0.002c0.033,0.019,0.065,0.037,0.098,0.054
	c0.004,0.002,0.009,0.005,0.009,0.005c0.036,0.019,0.068,0.035,0.1,0.05c0,0,0.009,0.004,0.014,0.006
	c0.033,0.015,0.066,0.03,0.1,0.044C5.668,9.399,5.67,9.4,5.67,9.4c0.036,0.015,0.071,0.029,0.105,0.041l0.006,0.002
	C5.816,9.456,5.85,9.468,5.885,9.479c0,0,0.011,0.003,0.016,0.005c0.034,0.011,0.068,0.021,0.102,0.03
	c0.006,0.002,0.012,0.003,0.018,0.005c0.035,0.009,0.07,0.018,0.105,0.026l0.013,0.003c0.036,0.008,0.072,0.015,0.109,0.022
	l0.005,0.001c0.037,0.007,0.074,0.012,0.111,0.017C6.369,9.59,6.374,9.59,6.38,9.591C6.416,9.596,6.452,9.6,6.488,9.603
	c0.007,0.001,0.013,0.001,0.02,0.002c0.036,0.003,0.073,0.006,0.11,0.007c0,0,0.011,0,0.016,0.001
	c0.039,0.002,0.078,0.003,0.117,0.003c0.038,0,0.077-0.001,0.115-0.002c0,0,0.012,0,0.017-0.001
	c0.036-0.002,0.072-0.004,0.108-0.007c0,0,0.014-0.001,0.02-0.002C7.047,9.6,7.083,9.597,7.118,9.592
	c0.005-0.001,0.01-0.001,0.015-0.002c0.036-0.005,0.072-0.01,0.107-0.017l0.005-0.001c0.036-0.006,0.072-0.014,0.108-0.021
	C7.359,9.55,7.364,9.549,7.364,9.549c0.04-0.009,0.074-0.017,0.108-0.026c0,0,0.012-0.003,0.018-0.005
	c0.034-0.009,0.069-0.019,0.103-0.03l0.01-0.003C7.637,9.473,7.671,9.462,7.704,9.45c0.002-0.001,0.004-0.001,0.004-0.001
	c0.036-0.013,0.07-0.026,0.103-0.04c0.005-0.002,0.01-0.004,0.015-0.006C7.859,9.389,7.891,9.375,7.923,9.36l0.014-0.006
	c0.033-0.015,0.065-0.031,0.097-0.048l0.004-0.002C8.07,9.287,8.102,9.27,8.134,9.252L8.14,9.249
	c0.031-0.018,0.062-0.037,0.093-0.056c0,0,0.007-0.005,0.011-0.007c0.03-0.019,0.06-0.039,0.09-0.059l0.009-0.006
	c0.062-0.043,0.122-0.088,0.18-0.135l0.003-0.003C8.554,8.96,8.583,8.936,8.61,8.911c0.002-0.002,0.005-0.004,0.005-0.004
	c0.03-0.027,0.057-0.052,0.084-0.078l0.003-0.003C8.757,8.774,8.81,8.718,8.86,8.66l0.001-0.001c0.025-0.029,0.05-0.058,0.073-0.087
	C8.936,8.57,8.937,8.569,8.937,8.569c0.098-0.122,0.186-0.251,0.262-0.387L9.2,8.181c0.134-0.24,0.235-0.501,0.294-0.777l0,0
	c0.041-0.192,0.063-0.39,0.063-0.594c0-1.55-1.256-2.806-2.806-2.806S3.945,5.26,3.945,6.81z"/>
</svg>
