<?xml version="1.0" encoding="utf-8"?>
<!-- Generator: Adobe Illustrator 19.0.0, SVG Export Plug-In . SVG Version: 6.00 Build 0)  -->
<svg version="1.1" id="Layer_1" xmlns="http://www.w3.org/2000/svg" xmlns:xlink="http://www.w3.org/1999/xlink" x="0px" y="0px"
	 viewBox="0 0 28 48" style="enable-background:new 0 0 28 48;" xml:space="preserve">
<style type="text/css">
	.Drop_x0020_Shadow{fill:none;}
	.Round_x0020_Corners_x0020_2_x0020_pt{fill:#FFFFFF;stroke:#000000;stroke-miterlimit:10;}
	.Live_x0020_Reflect_x0020_X{fill:none;}
	.Bevel_x0020_Soft{fill:url(#SVGID_1_);}
	.Dusk{fill:#FFFFFF;}
	.Foliage_GS{fill:#FFDD00;}
	.Pompadour_GS{fill-rule:evenodd;clip-rule:evenodd;fill:#44ADE2;}
	.st0{fill:#010101;stroke:#010101;stroke-width:0.5;stroke-miterlimit:10;}
</style>
<linearGradient id="SVGID_1_" gradientUnits="userSpaceOnUse" x1="0" y1="0" x2="0.7071" y2="0.7071">
	<stop  offset="0" style="stop-color:#DEDFE3"/>
	<stop  offset="0.1738" style="stop-color:#D8D9DD"/>
	<stop  offset="0.352" style="stop-color:#C9CACD"/>
	<stop  offset="0.5323" style="stop-color:#B4B5B8"/>
	<stop  offset="0.7139" style="stop-color:#989A9C"/>
	<stop  offset="0.8949" style="stop-color:#797C7E"/>
	<stop  offset="1" style="stop-color:#656B6C"/>
</linearGradient>
<g id="XMLID_2_">
	<path id="XMLID_9_" class="st0" d="M14.001,41.627c-1.125,0-10.997,0.083-10.997,2.958s9.872,2.958,10.997,2.958
		s10.996-0.083,10.996-2.958S15.126,41.627,14.001,41.627z M14.001,46.086c-5.759,0-9.233-1.015-9.56-1.418
		c0.327-0.57,3.801-1.585,9.56-1.585c5.485,0,8.899,0.923,9.49,1.502C22.9,45.163,19.486,46.086,14.001,46.086z"/>
	<path id="XMLID_6_" class="st0" d="M14.003,7.314c-3.783,0-6.863,3.078-6.863,6.861c0,0.442,0.044,0.886,0.128,1.314
		c0.094,0.486,0.241,0.966,0.44,1.42c0.154,0.357,0.341,0.698,0.559,1.033c0.16,0.241,0.334,0.474,0.515,0.683l0.407,0.437
		c0.135,0.133,0.275,0.261,0.428,0.387l0.236,0.19l2.075,1.076l2.073,0.32l1.797-0.238l2.093-0.971
		c0.153-0.103,0.3-0.215,0.446-0.334l0.435-0.387c0.135-0.131,0.265-0.266,0.407-0.428l0.169-0.202
		c0.238-0.298,0.453-0.612,0.641-0.948c0.336-0.598,0.577-1.237,0.719-1.899c0.103-0.476,0.156-0.964,0.156-1.452
		C20.862,10.392,17.784,7.314,14.003,7.314z M19.286,15.32c-0.114,0.522-0.304,1.026-0.568,1.497
		c-0.147,0.263-0.318,0.511-0.509,0.753l-0.146,0.172c-0.096,0.11-0.197,0.217-0.302,0.318l-0.348,0.309
		c-0.11,0.089-0.225,0.176-0.355,0.266l-0.801,0.454l-2.256,0.49l-1.681-0.266l-1.782-0.989c-0.115-0.094-0.224-0.193-0.332-0.302
		l-0.316-0.339c-0.149-0.17-0.284-0.353-0.41-0.545c-0.167-0.256-0.314-0.525-0.438-0.811c-0.156-0.357-0.272-0.731-0.346-1.117
		c-0.066-0.334-0.099-0.682-0.099-1.035c0-2.981,2.425-5.406,5.407-5.406c2.981,0,5.404,2.425,5.404,5.406
		C19.406,14.56,19.366,14.944,19.286,15.32z"/>
	<path id="XMLID_3_" class="st0" d="M14.001,0.458c-7.477,0-13.563,6.085-13.563,13.563c0,0.57,0.036,1.131,0.103,1.655
		c0.176,2.073,1.626,9.87,12.908,23.064l0.552,0.646l0.552-0.646c12.707-14.864,12.956-22.574,12.943-23.38
		c0.043-0.44,0.066-0.888,0.066-1.339C27.562,6.543,21.478,0.458,14.001,0.458z M26.044,15.261l-0.004,0.053l0.002,0.048
		c0.002,0.073,0.103,7.355-12.041,21.78C3.509,24.679,2.153,17.482,1.986,15.522c-0.06-0.492-0.092-0.992-0.092-1.502
		c0-6.677,5.43-12.107,12.107-12.107c6.675,0,12.105,5.43,12.105,12.107C26.106,14.438,26.085,14.853,26.044,15.261z"/>
</g>
</svg>
