<?xml version="1.0" encoding="utf-8"?>
<!-- Generator: Adobe Illustrator 19.0.0, SVG Export Plug-In . SVG Version: 6.00 Build 0)  -->
<svg version="1.1" id="Layer_1" xmlns="http://www.w3.org/2000/svg" xmlns:xlink="http://www.w3.org/1999/xlink" x="0px" y="0px"
	 viewBox="0 0 20.75 22.75" style="enable-background:new 0 0 20.75 22.75;" xml:space="preserve">
<style type="text/css">
	.Drop_x0020_Shadow{fill:none;}
	.Round_x0020_Corners_x0020_2_x0020_pt{fill:#FFFFFF;stroke:#000000;stroke-miterlimit:10;}
	.Live_x0020_Reflect_x0020_X{fill:none;}
	.Bevel_x0020_Soft{fill:url(#SVGID_1_);}
	.Dusk{fill:#FFFFFF;}
	.Foliage_GS{fill:#FFDD00;}
	.Pompadour_GS{fill-rule:evenodd;clip-rule:evenodd;fill:#44ADE2;}
	.st0{fill:#010101;}
</style>
<linearGradient id="SVGID_1_" gradientUnits="userSpaceOnUse" x1="-296.25" y1="-386" x2="-295.5429" y2="-385.2929">
	<stop  offset="0" style="stop-color:#DEDFE3"/>
	<stop  offset="0.1738" style="stop-color:#D8D9DD"/>
	<stop  offset="0.352" style="stop-color:#C9CACD"/>
	<stop  offset="0.5323" style="stop-color:#B4B5B8"/>
	<stop  offset="0.7139" style="stop-color:#989A9C"/>
	<stop  offset="0.8949" style="stop-color:#797C7E"/>
	<stop  offset="1" style="stop-color:#656B6C"/>
</linearGradient>
<path class="st0" d="M3.86,22.117h13.352c0.86,0,1.413-0.881,1.413-1.742v-8.687l0.173-0.018c0.8-0.081,1.401-0.744,1.401-1.543V7.2
	c0-0.86-0.546-1.35-1.406-1.35h-3.858L15.323,5.4c0.656-0.581,1.018-1.375,1.018-2.142c0-1.427-1.161-2.571-2.643-2.571
	c-1.313,0-2.316,0.802-2.981,2.409L10.535,3.53l-0.182-0.443C9.69,1.48,8.687,0.664,7.373,0.664c-1.482,0-2.643,1.117-2.643,2.544
	c0,0.766,0.361,1.612,1.018,2.193l0.388,0.448H2.278c-0.86,0-1.496,0.49-1.496,1.351v2.928c0,0.799,0.6,1.462,1.401,1.543
	l0.173,0.018v8.687C2.356,21.236,2.999,22.117,3.86,22.117z M11.138,5.387C11.364,4,11.998,1.674,13.698,1.674
	c1.021,0,1.632,0.779,1.632,1.533c0,0.588-0.345,1.144-0.973,1.565c-0.489,0.327-1.408,0.738-3.011,0.843l-0.247,0.016L11.138,5.387
	z M11.277,6.899h7.515c0.302,0,0.356-0.001,0.356,0.301v2.928c0,0.302-0.054,0.444-0.357,0.444h-7.515V6.899z M11.277,11.622h6.297
	v8.754c0,0.303-0.061,0.692-0.363,0.692h-5.934V11.622z M10.228,21.068H3.86c-0.302,0-0.454-0.39-0.454-0.692v-8.754h6.822V21.068z
	 M5.741,3.207c0.001-0.753,0.611-1.533,1.632-1.533c1.699,0,2.333,2.326,2.559,3.712l0.04,0.244L9.725,5.614
	C8.123,5.51,7.203,5.099,6.714,4.772C6.086,4.352,5.741,3.796,5.741,3.207z M2.278,10.572c-0.302,0-0.447-0.142-0.447-0.444V7.2
	c0-0.302,0.145-0.301,0.447-0.301h7.949v3.673H2.278z"/>
</svg>
