<?xml version="1.0" encoding="utf-8"?>
<!-- Generator: Adobe Illustrator 19.0.0, SVG Export Plug-In . SVG Version: 6.00 Build 0)  -->
<svg version="1.1" id="Layer_1" xmlns="http://www.w3.org/2000/svg" xmlns:xlink="http://www.w3.org/1999/xlink" x="0px" y="0px"
	 viewBox="0 0 20 18" style="enable-background:new 0 0 20 18;" xml:space="preserve">
<style type="text/css">
	.Drop_x0020_Shadow{fill:none;}
	.Round_x0020_Corners_x0020_2_x0020_pt{fill:#FFFFFF;stroke:#000000;stroke-miterlimit:10;}
	.Live_x0020_Reflect_x0020_X{fill:none;}
	.Bevel_x0020_Soft{fill:url(#SVGID_1_);}
	.Dusk{fill:#FFFFFF;}
	.Foliage_GS{fill:#FFDD00;}
	.Pompadour_GS{fill-rule:evenodd;clip-rule:evenodd;fill:#44ADE2;}
	.st0{fill:#010101;stroke:#010101;stroke-width:0.25;stroke-miterlimit:10;}
	.st1{fill:#010101;}
</style>
<linearGradient id="SVGID_1_" gradientUnits="userSpaceOnUse" x1="0" y1="0" x2="0.7071" y2="0.7071">
	<stop  offset="0" style="stop-color:#DEDFE3"/>
	<stop  offset="0.1738" style="stop-color:#D8D9DD"/>
	<stop  offset="0.352" style="stop-color:#C9CACD"/>
	<stop  offset="0.5323" style="stop-color:#B4B5B8"/>
	<stop  offset="0.7139" style="stop-color:#989A9C"/>
	<stop  offset="0.8949" style="stop-color:#797C7E"/>
	<stop  offset="1" style="stop-color:#656B6C"/>
</linearGradient>
<g id="XMLID_9_">
	<path id="XMLID_14_" class="st0" d="M7.986,8.324V6.457c0-0.258-0.209-0.467-0.467-0.467H3.316C3.059,5.991,2.85,6.2,2.85,6.457
		v1.867c-0.773,0.001-1.4,0.627-1.4,1.4v6.068c0,0.773,0.627,1.4,1.4,1.4h5.134c0.774,0,1.4-0.627,1.4-1.4V9.725
		C9.385,8.952,8.759,8.325,7.986,8.324z M4.255,6.457v0.934c0,0.129,0.105,0.233,0.234,0.233c0.129,0,0.233-0.104,0.233-0.233V6.457
		h1.396v0.934c0,0.129,0.105,0.233,0.233,0.233c0.129,0,0.233-0.104,0.233-0.233V6.457h0.935v1.867H3.316V6.457H4.255z
		 M8.919,15.793c0,0.515-0.419,0.933-0.934,0.933H2.851c-0.515,0-0.933-0.419-0.933-0.933V9.725c0-0.515,0.418-0.933,0.933-0.933
		h5.134c0.515,0,0.934,0.419,0.934,0.933V15.793z"/>
	<path id="XMLID_13_" class="st0" d="M3.318,9.258H2.851c-0.258,0-0.467,0.209-0.467,0.467v6.301c0,0.129,0.105,0.234,0.234,0.234
		c0.129,0,0.233-0.105,0.233-0.234V9.725h0.467c0.129,0,0.233-0.104,0.233-0.233C3.551,9.362,3.446,9.258,3.318,9.258z"/>
	<path id="XMLID_10_" class="st0" d="M6.118,11.125h-1.4v0.934H3.784v1.4h0.934v0.934h1.4v-0.934h0.933v-1.4H6.118V11.125z
		 M6.585,12.525v0.467H6.118H5.651v0.467v0.467H5.184v-0.467v-0.467H4.718H4.251v-0.467h0.467h0.466v-0.467v-0.467h0.467v0.467
		v0.467h0.467H6.585z"/>
</g>
<path id="XMLID_2_" class="st1" d="M14.876,0.609L11.151,2.3l-0.476-1.049c-0.083-0.182-0.297-0.263-0.479-0.18
	c-0.182,0.083-0.263,0.297-0.18,0.479l0.476,1.049l-0.383,0.174L9.254,0.889c-0.083-0.182-0.297-0.263-0.479-0.18
	c-0.182,0.083-0.263,0.297-0.18,0.479l0.855,1.884L8.373,3.56C8.191,3.643,8.11,3.857,8.193,4.039l3.658,8.061
	c0.083,0.182,0.297,0.263,0.479,0.18l6.504-2.951c0.182-0.083,0.263-0.297,0.18-0.479l-3.658-8.061
	C15.273,0.607,15.058,0.526,14.876,0.609z M8.766,4.032l6.206-2.816l0.892,1.967l-0.974,0.442c-0.766-0.576-1.798-0.734-2.712-0.32
	c-0.914,0.415-1.475,1.296-1.545,2.252L9.659,5.999L8.766,4.032z M15.373,4.235l0.804-0.365l0.377,0.831l-0.788,0.357
	c-0.031-0.132-0.072-0.263-0.129-0.389C15.566,4.512,15.477,4.367,15.373,4.235z M15.014,4.899c0.439,0.967,0.011,2.107-0.957,2.546
	s-2.107,0.011-2.546-0.957c-0.439-0.967-0.011-2.107,0.957-2.546C13.435,3.503,14.575,3.932,15.014,4.899z M9.938,6.614l0.804-0.365
	c0.031,0.165,0.082,0.328,0.153,0.485c0.057,0.127,0.129,0.243,0.208,0.354l-0.788,0.357L9.938,6.614z M18.484,8.898l-6.249,2.836
	l-1.642-3.619l0.932-0.423c0.762,0.603,1.838,0.769,2.796,0.335c0.958-0.435,1.542-1.354,1.589-2.325l0.932-0.423L18.484,8.898z"/>
</svg>
