<?xml version="1.0" encoding="utf-8"?>
<!-- Generator: Adobe Illustrator 19.0.0, SVG Export Plug-In . SVG Version: 6.00 Build 0)  -->
<svg version="1.1" id="Layer_1" xmlns="http://www.w3.org/2000/svg" xmlns:xlink="http://www.w3.org/1999/xlink" x="0px" y="0px"
	 viewBox="0 0 27.833 28.333" style="enable-background:new 0 0 27.833 28.333;" xml:space="preserve">
<style type="text/css">
	.Drop_x0020_Shadow{fill:none;}
	.Round_x0020_Corners_x0020_2_x0020_pt{fill:#FFFFFF;stroke:#000000;stroke-miterlimit:10;}
	.Live_x0020_Reflect_x0020_X{fill:none;}
	.Bevel_x0020_Soft{fill:url(#SVGID_1_);}
	.Dusk{fill:#FFFFFF;}
	.Foliage_GS{fill:#FFDD00;}
	.Pompadour_GS{fill-rule:evenodd;clip-rule:evenodd;fill:#44ADE2;}
	.st0{fill:#FFFFFF;}
	.st1{fill:#010101;}
</style>
<linearGradient id="SVGID_1_" gradientUnits="userSpaceOnUse" x1="-293.4167" y1="-382.25" x2="-292.7096" y2="-381.5429">
	<stop  offset="0" style="stop-color:#DEDFE3"/>
	<stop  offset="0.1738" style="stop-color:#D8D9DD"/>
	<stop  offset="0.352" style="stop-color:#C9CACD"/>
	<stop  offset="0.5323" style="stop-color:#B4B5B8"/>
	<stop  offset="0.7139" style="stop-color:#989A9C"/>
	<stop  offset="0.8949" style="stop-color:#797C7E"/>
	<stop  offset="1" style="stop-color:#656B6C"/>
</linearGradient>
<g>
	<g>
		<polygon class="st0" points="16.317,10.4 10.887,23.627 21.139,27.713 26.426,14.356 		"/>
		<g>
			<path class="st1" d="M18.936,10.618c0.153,0.061,0.319,0.078,0.483,0.051c0.492-0.083,0.825-0.55,0.743-1.042
				c-0.017-0.105,0.054-0.205,0.159-0.222c0.035-0.006,0.07-0.002,0.102,0.011c0.064,0.025,0.109,0.081,0.121,0.148
				c0.052,0.311,0.266,0.576,0.56,0.692c0.153,0.061,0.319,0.078,0.483,0.051c0.492-0.082,0.825-0.55,0.743-1.042
				c-0.115-0.688-0.59-1.275-1.241-1.533c-0.338-0.134-0.707-0.173-1.066-0.113c-1.089,0.182-1.828,1.217-1.645,2.307
				C18.429,10.237,18.643,10.502,18.936,10.618z M20.133,8.279c0.239-0.04,0.484-0.015,0.709,0.075
				c0.433,0.172,0.75,0.563,0.827,1.02c0.021,0.128-0.065,0.25-0.193,0.271c-0.043,0.007-0.086,0.003-0.126-0.013
				c-0.078-0.031-0.132-0.098-0.146-0.18c-0.049-0.296-0.254-0.549-0.534-0.66c-0.146-0.058-0.305-0.075-0.459-0.049
				c-0.469,0.078-0.787,0.524-0.708,0.993c0.021,0.128-0.065,0.25-0.193,0.271c-0.043,0.007-0.085,0.003-0.125-0.013
				c-0.078-0.031-0.132-0.098-0.146-0.18C18.916,9.09,19.407,8.401,20.133,8.279z"/>
			<path class="st1" d="M24.457,10.916c0.062,0.032,0.126,0.061,0.19,0.087l0,0c0.956,0.379,2.036-0.023,2.512-0.935
				c0.112-0.214,0.134-0.459,0.062-0.69c-0.072-0.231-0.23-0.419-0.444-0.531c-0.028-0.015-0.058-0.028-0.087-0.04
				c-0.432-0.171-0.92,0.011-1.135,0.423c-0.045,0.087-0.151,0.126-0.242,0.09c-0.006-0.002-0.013-0.005-0.019-0.009
				c-0.046-0.024-0.079-0.064-0.095-0.113c-0.015-0.05-0.011-0.102,0.013-0.147c0.112-0.214,0.133-0.459,0.061-0.69
				c-0.072-0.23-0.23-0.419-0.444-0.531c-0.028-0.015-0.057-0.028-0.086-0.039c-0.432-0.171-0.92,0.011-1.135,0.422
				c-0.248,0.474-0.296,1.016-0.135,1.527C23.634,10.25,23.983,10.668,24.457,10.916z M24.202,8.522
				c0.056-0.107,0.183-0.155,0.295-0.11c0.008,0.003,0.015,0.006,0.023,0.011c0.056,0.029,0.097,0.078,0.115,0.138
				c0.019,0.06,0.013,0.124-0.016,0.18c-0.106,0.204-0.127,0.437-0.058,0.657c0.069,0.22,0.22,0.4,0.423,0.507
				c0.027,0.014,0.055,0.027,0.083,0.038c0.412,0.163,0.877-0.01,1.082-0.403c0.06-0.115,0.201-0.161,0.318-0.1
				c0.055,0.029,0.096,0.078,0.115,0.138c0.019,0.06,0.013,0.124-0.016,0.18c-0.317,0.608-1.036,0.875-1.673,0.623
				c-0.043-0.017-0.086-0.037-0.127-0.058c-0.315-0.165-0.547-0.443-0.654-0.783C24.006,9.198,24.038,8.837,24.202,8.522z"/>
			<path class="st1" d="M17.756,8.139c0.43-0.32,0.709-0.787,0.787-1.316c0.135-0.924-0.377-1.809-1.244-2.153
				c-0.144-0.057-0.294-0.097-0.448-0.12c-0.239-0.035-0.478,0.025-0.672,0.17c-0.194,0.144-0.32,0.356-0.355,0.595
				c-0.061,0.418,0.17,0.818,0.561,0.973c0.065,0.026,0.133,0.044,0.203,0.054c0.105,0.015,0.178,0.117,0.164,0.219
				c-0.007,0.051-0.035,0.096-0.076,0.127c-0.042,0.031-0.092,0.044-0.143,0.036c-0.239-0.035-0.478,0.025-0.671,0.17
				c-0.194,0.145-0.32,0.356-0.355,0.595c-0.061,0.417,0.17,0.817,0.561,0.972l0,0c0.065,0.026,0.133,0.044,0.203,0.054
				C16.799,8.593,17.327,8.459,17.756,8.139z M17.357,7.602c-0.286,0.213-0.637,0.302-0.99,0.251
				c-0.018-0.003-0.036-0.007-0.053-0.014l0,0c-0.102-0.04-0.162-0.145-0.146-0.253c0.009-0.062,0.042-0.117,0.092-0.155
				c0.05-0.038,0.113-0.053,0.174-0.044c0.228,0.033,0.455-0.024,0.64-0.162c0.185-0.138,0.305-0.339,0.339-0.567
				c0.058-0.398-0.162-0.779-0.536-0.927c-0.062-0.024-0.127-0.042-0.193-0.051c-0.018-0.003-0.036-0.008-0.053-0.014
				c-0.102-0.04-0.162-0.144-0.146-0.253c0.009-0.062,0.042-0.117,0.092-0.155c0.05-0.038,0.113-0.053,0.175-0.044
				c0.103,0.015,0.203,0.042,0.298,0.079c0.578,0.229,0.918,0.819,0.828,1.433C17.829,7.078,17.643,7.389,17.357,7.602z"/>
			<path class="st1" d="M22.239,26.046l0.001-0.004c0.004-0.01,0.007-0.021,0.01-0.031c0.001-0.003,0.099-0.005,0.099-0.008
				c0.002-0.009,0.104-0.019,0.104-0.028v-0.003c0-0.013,0.1-1.281,0.785-3.009l1.453-3.789c0.683-1.724,1.381-2.796,1.388-2.807
				l-0.011-0.002c0.006-0.009,0.005-0.018,0.01-0.028c0.001-0.001-0.002-0.002-0.002-0.002c0.006-0.011,0.01-0.022,0.014-0.033
				l0-0.001l0,0l0.717-1.81c0.068-0.172-0.016-0.366-0.188-0.434l-0.87-0.345c0.297-0.694,0.18-1.513-0.314-2.092
				c-0.095-0.112-0.218-0.199-0.354-0.253c-0.313-0.124-0.666-0.065-0.922,0.153c-0.38,0.324-0.424,0.896-0.1,1.276
				c0.06,0.071,0.058,0.175-0.001,0.246l-7.745-3.069c-0.172-0.068-0.366,0.016-0.434,0.188l-0.718,1.812l-0.001,0.002
				c0,0-0.001,0.004-0.002,0.007c-0.003,0.009-0.007,0.018-0.009,0.028c-0.001,0.003-0.001,0.006-0.002,0.009
				c-0.002,0.009-0.004,0.017-0.005,0.027c0,0-0.001,0.003,0,0.004c-0.002,0.013-0.191,1.294-0.873,3.015l-1.501,3.789
				c-0.682,1.722-1.411,2.786-1.418,2.796c-0.001,0.001-0.001,0.002-0.001,0.002c-0.006,0.008-0.01,0.015-0.015,0.023
				c-0.001,0.003-0.003,0.006-0.005,0.009c-0.005,0.008,0.085,0.018,0.081,0.027c-0.001,0.002,0.092,0.004,0.092,0.006v0.001
				l-0.812,1.812c-0.068,0.172-0.031,0.366,0.141,0.434l10.282,4.084c0.172,0.068,0.355-0.016,0.423-0.188l0.712-1.812l-0.003,0
				L22.239,26.046z M14.604,23.381l-0.471,1.19l-1.09-0.432l0.471-1.19L14.604,23.381z M15.227,23.627l1.09,0.432l-0.471,1.19
				l-1.09-0.432L15.227,23.627z M16.94,24.306l1.048,0.415l-0.471,1.19l-1.048-0.415L16.94,24.306z M18.61,24.968l1.09,0.432
				l-0.471,1.19l-1.09-0.432L18.61,24.968z M12.122,21.677c0.28-0.461,0.78-1.355,1.265-2.578l1.501-3.789
				c0.485-1.223,0.729-2.221,0.838-2.752l9.552,3.785c-0.277,0.462-0.774,1.36-1.26,2.585l-1.501,3.789
				c-0.485,1.223-0.733,2.217-0.844,2.745L12.122,21.677z M24.268,13.845l-0.471,1.19l-1.091-0.432l0.471-1.19L24.268,13.845z
				 M22.084,14.356l-1.048-0.415l0.471-1.19l1.048,0.415L22.084,14.356z M20.413,13.694l-1.091-0.432l0.471-1.19l1.091,0.432
				L20.413,13.694z M18.701,13.015l-1.09-0.432l0.471-1.19l1.09,0.432L18.701,13.015z M25.589,15.745l-1.17-0.464l0.471-1.19
				l1.17,0.464L25.589,15.745z M24.593,12.028c0.067-0.057,0.159-0.072,0.24-0.04c0.036,0.014,0.067,0.037,0.092,0.066
				c0.293,0.343,0.387,0.813,0.264,1.239l-0.442-0.175c0.061-0.26,0.002-0.543-0.181-0.758
				C24.483,12.261,24.494,12.112,24.593,12.028z M16.377,10.718l1.082,0.429l-0.471,1.19l-1.082-0.429L16.377,10.718z M11.81,22.273
				l1.082,0.429l-0.471,1.19l-1.082-0.429L11.81,22.273z M21.022,27.301l-1.17-0.464l0.471-1.19l1.17,0.464L21.022,27.301z"/>
			<path class="st1" d="M22.62,18.364l-0.689-0.273c-0.172-0.068-0.366,0.016-0.434,0.188c-0.068,0.172,0.016,0.366,0.188,0.435
				l0.378,0.15l-0.99,2.499l-5.665-2.245l0.99-2.499l3.606,1.429c0.172,0.068,0.366-0.016,0.434-0.188
				c0.068-0.172-0.016-0.366-0.188-0.434l-3.918-1.552c-0.172-0.068-0.367,0.016-0.435,0.188l-1.237,3.121
				c-0.068,0.172,0.016,0.366,0.188,0.434l6.287,2.491c0.172,0.068,0.366-0.016,0.435-0.188l1.237-3.121
				C22.876,18.627,22.791,18.432,22.62,18.364z"/>
		</g>
		<path class="st0" d="M24.202,8.522c0.056-0.107,0.183-0.155,0.295-0.11c0.008,0.003,0.015,0.006,0.023,0.011
			c0.056,0.029,0.097,0.078,0.115,0.138c0.019,0.06,0.013,0.124-0.016,0.18c-0.106,0.204-0.127,0.437-0.058,0.657
			c0.069,0.22,0.22,0.4,0.423,0.507c0.027,0.014,0.055,0.027,0.083,0.038c0.412,0.163,0.877-0.01,1.082-0.403
			c0.06-0.115,0.201-0.161,0.318-0.1c0.055,0.029,0.096,0.078,0.115,0.138c0.019,0.06,0.013,0.124-0.016,0.18
			c-0.317,0.608-1.036,0.875-1.673,0.623c-0.043-0.017-0.086-0.037-0.127-0.058c-0.315-0.165-0.547-0.443-0.654-0.783
			C24.006,9.198,24.038,8.837,24.202,8.522z"/>
		<path class="st0" d="M24.593,12.028c0.067-0.057,0.159-0.072,0.24-0.04c0.036,0.014,0.067,0.037,0.092,0.066
			c0.293,0.343,0.387,0.813,0.264,1.239l-0.442-0.175c0.061-0.26,0.002-0.543-0.181-0.758
			C24.483,12.261,24.494,12.112,24.593,12.028z"/>
	</g>
	<path class="st1" d="M8.5,19.7H2.135c-0.292,0-0.446-0.263-0.446-0.557v-1.06c0-0.922,0.226-1.481,0.485-2.022
		c0.274-0.573,0.513-1.116,0.513-2.221c0-0.941-0.422-2.799-0.858-4.767C1.232,6.375,0.549,3.238,0.549,1.031
		c0-0.292,0.232-0.61,0.525-0.61H9.56c0.294,0,0.531,0.317,0.531,0.61c0,2.207-0.677,5.304-1.274,8.002
		C8.381,11.001,7.97,12.879,7.97,13.82c0,1.105,0.313,1.658,0.588,2.231c0.259,0.542,0.58,1.11,0.58,2.032v1.06
		C9.138,19.437,8.793,19.7,8.5,19.7z M2.666,18.824h5.528v-0.74c0-0.682-0.221-1.071-0.456-1.564
		c-0.299-0.626-0.704-1.236-0.704-2.581c0-1.057,0.485-2.887,0.953-5.001c0.537-2.43,1.118-5.644,1.213-7.397H1.621
		c0.095,1.753,0.696,4.92,1.234,7.35c0.468,2.114,0.872,3.915,0.872,4.972c0,1.345-0.39,2.042-0.689,2.668
		c-0.236,0.493-0.373,0.871-0.373,1.552V18.824z"/>
	<path class="st1" d="M4.257,9.066c-0.243,0-0.462-0.167-0.516-0.413C3.56,7.857,2.666,3.811,2.666,3.187
		c0-0.292,0.237-0.575,0.529-0.575h0.001c0.292,0,0.53,0.283,0.531,0.575C3.727,3.53,4.26,6.116,4.775,8.397
		C4.84,8.683,4.66,8.978,4.374,9.043C4.334,9.051,4.295,9.066,4.257,9.066z"/>
</g>
</svg>
