<?xml version="1.0" encoding="utf-8"?>
<!-- Generator: Adobe Illustrator 19.0.0, SVG Export Plug-In . SVG Version: 6.00 Build 0)  -->
<svg version="1.1" id="Layer_1" xmlns="http://www.w3.org/2000/svg" xmlns:xlink="http://www.w3.org/1999/xlink" x="0px" y="0px"
	 viewBox="0 0 18 22" style="enable-background:new 0 0 18 22;" xml:space="preserve">
<style type="text/css">
	.Drop_x0020_Shadow{fill:none;}
	.Round_x0020_Corners_x0020_2_x0020_pt{fill:#FFFFFF;stroke:#000000;stroke-miterlimit:10;}
	.Live_x0020_Reflect_x0020_X{fill:none;}
	.Bevel_x0020_Soft{fill:url(#SVGID_1_);}
	.Dusk{fill:#FFFFFF;}
	.Foliage_GS{fill:#FFDD00;}
	.Pompadour_GS{fill-rule:evenodd;clip-rule:evenodd;fill:#44ADE2;}
	.st0{fill:#010101;}
</style>
<linearGradient id="SVGID_1_" gradientUnits="userSpaceOnUse" x1="0" y1="0" x2="0.7071" y2="0.7071">
	<stop  offset="0" style="stop-color:#DEDFE3"/>
	<stop  offset="0.1738" style="stop-color:#D8D9DD"/>
	<stop  offset="0.352" style="stop-color:#C9CACD"/>
	<stop  offset="0.5323" style="stop-color:#B4B5B8"/>
	<stop  offset="0.7139" style="stop-color:#989A9C"/>
	<stop  offset="0.8949" style="stop-color:#797C7E"/>
	<stop  offset="1" style="stop-color:#656B6C"/>
</linearGradient>
<g id="XMLID_2_">
	<path id="XMLID_26_" class="st0" d="M9.094,5.753C9.235,5.808,9.388,5.825,9.538,5.8c0.453-0.076,0.76-0.506,0.684-0.959
		c-0.016-0.097,0.049-0.189,0.146-0.205c0.032-0.006,0.064-0.002,0.094,0.01c0.059,0.023,0.1,0.074,0.111,0.136
		c0.048,0.286,0.245,0.53,0.515,0.637c0.141,0.056,0.294,0.072,0.444,0.047c0.453-0.076,0.76-0.506,0.684-0.959
		c-0.106-0.633-0.543-1.173-1.142-1.41c-0.311-0.123-0.65-0.159-0.981-0.104C9.09,3.16,8.411,4.112,8.579,5.115
		C8.627,5.402,8.824,5.646,9.094,5.753z M10.195,3.6c0.22-0.037,0.446-0.013,0.653,0.069c0.399,0.158,0.691,0.518,0.761,0.939
		c0.019,0.118-0.06,0.23-0.178,0.25c-0.04,0.006-0.079,0.003-0.116-0.012c-0.072-0.028-0.122-0.09-0.134-0.166
		c-0.045-0.273-0.234-0.505-0.491-0.607c-0.134-0.053-0.28-0.069-0.423-0.045C9.835,4.1,9.542,4.511,9.614,4.942
		c0.02,0.118-0.06,0.23-0.178,0.25C9.397,5.198,9.358,5.194,9.321,5.18C9.25,5.151,9.199,5.09,9.187,5.014
		C9.075,4.346,9.527,3.712,10.195,3.6z"/>
	<path id="XMLID_23_" class="st0" d="M14.174,6.026c0.057,0.03,0.116,0.056,0.175,0.08l0,0c0.88,0.349,1.874-0.021,2.312-0.861
		c0.103-0.197,0.123-0.422,0.057-0.635c-0.067-0.212-0.212-0.386-0.409-0.489c-0.026-0.013-0.053-0.026-0.08-0.036
		c-0.397-0.157-0.846,0.01-1.045,0.389c-0.041,0.08-0.139,0.116-0.222,0.083c-0.006-0.002-0.012-0.005-0.018-0.008
		c-0.042-0.022-0.073-0.059-0.087-0.104C14.844,4.4,14.848,4.352,14.87,4.31c0.103-0.197,0.123-0.423,0.056-0.635
		c-0.067-0.212-0.212-0.386-0.409-0.489c-0.026-0.014-0.052-0.026-0.079-0.036c-0.397-0.157-0.846,0.01-1.044,0.389
		c-0.228,0.436-0.272,0.935-0.124,1.406C13.417,5.414,13.738,5.799,14.174,6.026z M13.94,3.824c0.052-0.099,0.168-0.142,0.271-0.102
		c0.007,0.003,0.014,0.006,0.021,0.01c0.051,0.026,0.089,0.072,0.106,0.127c0.018,0.055,0.012,0.114-0.015,0.166
		c-0.098,0.188-0.117,0.402-0.054,0.605c0.064,0.202,0.202,0.368,0.389,0.466c0.025,0.013,0.05,0.025,0.076,0.035
		c0.379,0.15,0.807-0.009,0.996-0.371c0.055-0.106,0.185-0.148,0.293-0.092c0.051,0.027,0.089,0.072,0.106,0.127
		c0.017,0.055,0.012,0.114-0.015,0.165c-0.292,0.559-0.953,0.805-1.539,0.573c-0.04-0.016-0.079-0.034-0.117-0.054
		c-0.29-0.151-0.504-0.407-0.602-0.721C13.759,4.446,13.788,4.114,13.94,3.824z"/>
	<path id="XMLID_20_" class="st0" d="M8.008,3.471C8.404,3.177,8.66,2.747,8.732,2.26c0.124-0.85-0.347-1.665-1.145-1.981
		c-0.132-0.052-0.271-0.089-0.412-0.11c-0.22-0.032-0.44,0.023-0.618,0.156C6.378,0.457,6.262,0.652,6.23,0.872
		C6.173,1.257,6.386,1.625,6.746,1.767c0.06,0.024,0.122,0.04,0.187,0.05c0.096,0.014,0.164,0.107,0.15,0.202
		c-0.007,0.047-0.032,0.088-0.07,0.117c-0.038,0.028-0.085,0.04-0.132,0.033c-0.22-0.032-0.44,0.023-0.618,0.156
		C6.085,2.458,5.969,2.653,5.937,2.873C5.881,3.257,6.093,3.625,6.454,3.768l0,0c0.06,0.024,0.122,0.04,0.187,0.05
		C7.127,3.889,7.613,3.766,8.008,3.471z M7.64,2.977C7.377,3.173,7.054,3.255,6.73,3.208C6.713,3.205,6.696,3.201,6.681,3.195l0,0
		C6.587,3.158,6.532,3.062,6.547,2.962c0.008-0.057,0.039-0.108,0.085-0.142C6.678,2.785,6.735,2.77,6.792,2.779
		c0.21,0.031,0.419-0.022,0.589-0.149c0.17-0.127,0.281-0.312,0.312-0.522C7.747,1.742,7.544,1.391,7.2,1.255
		C7.143,1.232,7.083,1.217,7.023,1.208C7.006,1.205,6.989,1.201,6.974,1.194C6.88,1.157,6.825,1.062,6.839,0.961
		c0.009-0.057,0.039-0.108,0.085-0.143c0.046-0.035,0.104-0.049,0.161-0.04C7.18,0.792,7.272,0.817,7.36,0.852
		c0.532,0.211,0.845,0.753,0.762,1.319C8.075,2.495,7.904,2.781,7.64,2.977z"/>
	<path id="XMLID_4_" class="st0" d="M12.133,19.95l0.001-0.003c0.004-0.009,0.007-0.019,0.01-0.028
		c0.001-0.003,0.001-0.005,0.002-0.008c0.002-0.009,0.004-0.017,0.006-0.026l0-0.003c0.002-0.012,0.182-1.179,0.812-2.769
		l1.382-3.487c0.629-1.586,1.293-2.573,1.299-2.583l0.001-0.001c0.005-0.008,0.01-0.017,0.015-0.026
		c0.001-0.001,0.001-0.002,0.002-0.003c0.005-0.01,0.01-0.019,0.014-0.029l0.001-0.001l0,0l0.66-1.666
		c0.063-0.158-0.015-0.337-0.173-0.4l-0.801-0.317c0.274-0.639,0.166-1.392-0.289-1.926c-0.088-0.103-0.201-0.183-0.326-0.233
		c-0.288-0.114-0.613-0.06-0.848,0.141c-0.349,0.298-0.39,0.825-0.092,1.174c0.055,0.065,0.054,0.161-0.001,0.227L6.679,5.158
		c-0.158-0.063-0.337,0.015-0.4,0.173L5.619,6.999L5.618,7c0,0-0.001,0.004-0.002,0.006C5.613,7.015,5.61,7.023,5.608,7.032
		C5.607,7.035,5.606,7.038,5.606,7.041C5.604,7.049,5.602,7.057,5.601,7.065c0,0-0.001,0.002,0,0.003
		C5.599,7.08,5.424,8.259,4.797,9.843l-1.382,3.487c-0.628,1.585-1.299,2.564-1.305,2.573c-0.001,0.001-0.001,0.002-0.001,0.002
		c-0.005,0.007-0.009,0.014-0.013,0.021c-0.001,0.003-0.003,0.005-0.005,0.008c-0.004,0.008-0.008,0.016-0.012,0.025
		c-0.001,0.002-0.002,0.004-0.002,0.005l0,0.001l-0.661,1.668c-0.063,0.158,0.015,0.337,0.173,0.4l9.484,3.758
		c0.158,0.063,0.337-0.015,0.4-0.173L12.133,19.95L12.133,19.95L12.133,19.95z M5.107,17.498l-0.434,1.095L3.67,18.195L4.104,17.1
		L5.107,17.498z M5.68,17.725l1.003,0.398l-0.434,1.095L5.246,18.82L5.68,17.725z M7.256,18.349l0.964,0.382l-0.434,1.095
		l-0.964-0.382L7.256,18.349z M8.793,18.958l1.004,0.398l-0.434,1.095l-1.004-0.398L8.793,18.958z M2.823,15.93
		c0.258-0.424,0.718-1.247,1.164-2.373l1.382-3.487C5.815,8.944,6.04,8.026,6.14,7.537l8.791,3.483
		c-0.255,0.425-0.713,1.251-1.159,2.379l-1.382,3.487c-0.446,1.126-0.674,2.041-0.777,2.526L2.823,15.93z M14,8.722l-0.434,1.095
		l-1.004-0.398l0.434-1.095L14,8.722z M11.99,9.192L11.026,8.81l0.434-1.095l0.964,0.382L11.99,9.192z M10.453,8.583L9.449,8.185
		l0.434-1.095l1.004,0.398L10.453,8.583z M8.877,7.959L7.873,7.561l0.434-1.095l1.003,0.398L8.877,7.959z M15.216,10.471
		l-1.077-0.427l0.434-1.095l1.077,0.427L15.216,10.471z M14.299,7.05c0.062-0.052,0.146-0.066,0.221-0.037
		c0.033,0.013,0.061,0.034,0.085,0.061c0.27,0.316,0.356,0.748,0.243,1.14l-0.406-0.161c0.056-0.239,0.002-0.5-0.166-0.697
		C14.198,7.265,14.209,7.128,14.299,7.05z M6.739,5.845l0.995,0.394L7.3,7.334L6.305,6.94L6.739,5.845z M2.536,16.479l0.995,0.394
		l-0.434,1.095l-0.995-0.394L2.536,16.479z M11.013,21.105l-1.077-0.427l0.434-1.095l1.077,0.427L11.013,21.105z"/>
	<path id="XMLID_3_" class="st0" d="M12.483,12.881l-0.634-0.251c-0.158-0.063-0.337,0.015-0.4,0.173
		c-0.063,0.158,0.014,0.337,0.173,0.4l0.348,0.138l-0.911,2.3l-5.213-2.066l0.911-2.299l3.318,1.315
		c0.158,0.063,0.337-0.015,0.4-0.173c0.063-0.158-0.015-0.337-0.173-0.4l-3.605-1.429c-0.158-0.063-0.337,0.015-0.4,0.173
		l-1.138,2.872c-0.063,0.158,0.015,0.337,0.173,0.4l5.786,2.293c0.158,0.063,0.337-0.015,0.4-0.173l1.138-2.872
		C12.719,13.123,12.641,12.944,12.483,12.881z"/>
</g>
</svg>
