<?xml version="1.0" encoding="utf-8"?>
<!-- Generator: Adobe Illustrator 19.0.0, SVG Export Plug-In . SVG Version: 6.00 Build 0)  -->
<svg version="1.1" id="Layer_1" xmlns="http://www.w3.org/2000/svg" xmlns:xlink="http://www.w3.org/1999/xlink" x="0px" y="0px"
	 viewBox="0 0 15 17" style="enable-background:new 0 0 15 17;" xml:space="preserve">
<style type="text/css">
	.Drop_x0020_Shadow{fill:none;}
	.Round_x0020_Corners_x0020_2_x0020_pt{fill:#FFFFFF;stroke:#000000;stroke-miterlimit:10;}
	.Live_x0020_Reflect_x0020_X{fill:none;}
	.Bevel_x0020_Soft{fill:url(#SVGID_1_);}
	.Dusk{fill:#FFFFFF;}
	.Foliage_GS{fill:#FFDD00;}
	.Pompadour_GS{fill-rule:evenodd;clip-rule:evenodd;fill:#44ADE2;}
	.st0{fill:#1D1D1B;}
</style>
<linearGradient id="SVGID_1_" gradientUnits="userSpaceOnUse" x1="0" y1="0" x2="0.7071" y2="0.7071">
	<stop  offset="0" style="stop-color:#DEDFE3"/>
	<stop  offset="0.1738" style="stop-color:#D8D9DD"/>
	<stop  offset="0.352" style="stop-color:#C9CACD"/>
	<stop  offset="0.5323" style="stop-color:#B4B5B8"/>
	<stop  offset="0.7139" style="stop-color:#989A9C"/>
	<stop  offset="0.8949" style="stop-color:#797C7E"/>
	<stop  offset="1" style="stop-color:#656B6C"/>
</linearGradient>
<g>
	<g id="XMLID_73_">
		<path id="XMLID_82_" class="st0" d="M11.567,3.492H3.949c-0.25,0-0.453,0.25-0.453,0.5s0.203,0.5,0.453,0.5h7.617
			c0.25,0,0.453-0.25,0.453-0.5S11.817,3.492,11.567,3.492z"/>
		<path id="XMLID_81_" class="st0" d="M11.567,6.492H3.949c-0.25,0-0.453,0.25-0.453,0.5s0.203,0.5,0.453,0.5h7.617
			c0.25,0,0.453-0.25,0.453-0.5S11.817,6.492,11.567,6.492z"/>
		<path id="XMLID_80_" class="st0" d="M11.567,9.492H3.949c-0.25,0-0.453,0.25-0.453,0.5s0.203,0.5,0.453,0.5h7.617
			c0.25,0,0.453-0.251,0.453-0.5S11.817,9.492,11.567,9.492z"/>
		<g id="XMLID_78_">
			<path id="XMLID_79_" class="st0" d="M8.261,12.992c0-0.278-0.224-0.5-0.503-0.5H3.949c-0.278,0-0.503,0.222-0.503,0.5
				c0,0.279,0.225,0.5,0.503,0.5h3.809C8.036,13.492,8.261,13.271,8.261,12.992z"/>
		</g>
		<path id="XMLID_74_" class="st0" d="M0.631,15.647c0,0.527,0.564,0.846,1.092,0.846h8.724c0.198,0,0.385-0.022,0.525-0.162
			l3.5-3.532c0.141-0.141,0.159-0.3,0.159-0.497V1.566c0-0.527-0.312-1.073-0.839-1.073H1.723c-0.527,0-1.092,0.546-1.092,1.073
			V15.647z M13.364,12.621l-2.733,2.729v-2.858h2.866L13.364,12.621z M1.631,1.492h12v10h-2.856c-0.526,0-1.144,0.61-1.144,1.137
			v2.863h-8V1.492z"/>
	</g>
</g>
</svg>
