<?xml version="1.0" encoding="utf-8"?>
<!-- Generator: Adobe Illustrator 19.0.0, SVG Export Plug-In . SVG Version: 6.00 Build 0)  -->
<svg version="1.1" id="Layer_1" xmlns="http://www.w3.org/2000/svg" xmlns:xlink="http://www.w3.org/1999/xlink" x="0px" y="0px"
	 viewBox="0 0 17 21" style="enable-background:new 0 0 17 21;" xml:space="preserve">
<style type="text/css">
	.Drop_x0020_Shadow{fill:none;}
	.Round_x0020_Corners_x0020_2_x0020_pt{fill:#FFFFFF;stroke:#000000;stroke-miterlimit:10;}
	.Live_x0020_Reflect_x0020_X{fill:none;}
	.Bevel_x0020_Soft{fill:url(#SVGID_1_);}
	.Dusk{fill:#FFFFFF;}
	.Foliage_GS{fill:#FFDD00;}
	.Pompadour_GS{fill-rule:evenodd;clip-rule:evenodd;fill:#44ADE2;}
	.st0{fill:#FFFFFF;}
</style>
<linearGradient id="SVGID_1_" gradientUnits="userSpaceOnUse" x1="0" y1="0" x2="0.7071" y2="0.7071">
	<stop  offset="0" style="stop-color:#DEDFE3"/>
	<stop  offset="0.1738" style="stop-color:#D8D9DD"/>
	<stop  offset="0.352" style="stop-color:#C9CACD"/>
	<stop  offset="0.5323" style="stop-color:#B4B5B8"/>
	<stop  offset="0.7139" style="stop-color:#989A9C"/>
	<stop  offset="0.8949" style="stop-color:#797C7E"/>
	<stop  offset="1" style="stop-color:#656B6C"/>
</linearGradient>
<g id="XMLID_9_">
	<path id="XMLID_10_" class="st0" d="M14.632,5.559c-0.572-0.392-0.986-0.674-0.987-1.635c0-0.131,0.068-0.256,0.135-0.346
		c0.141-0.055,0.24-0.192,0.24-0.351l-0.001-0.429c-0.001-0.694-0.577-1.124-1.501-1.123c-0.925,0.001-1.499,0.433-1.498,1.127
		l0.001,0.43c0,0.159,0.099,0.295,0.239,0.349c0.068,0.09,0.136,0.215,0.137,0.346c0.001,0.962-0.412,1.245-0.983,1.639
		c-0.73,0.501-1.638,1.124-1.635,3.24l0.003,2.25l0.004,3l0.005,3.75c0.001,1.174,0.564,1.874,1.503,1.873l4.499-0.006
		c0.939-0.001,1.499-0.703,1.498-1.877l-0.006-3.75l-0.004-2.999l-0.003-2.251C16.273,6.679,15.364,6.058,14.632,5.559z
		 M11.337,10.824c-0.201-0.266-0.308-0.576-0.309-0.898c-0.001-0.827,0.67-1.501,1.498-1.502c0.826-0.001,1.5,0.671,1.501,1.497
		c0.001,0.323-0.105,0.633-0.306,0.9c-0.085,0.114-0.1,0.266-0.036,0.393c0.063,0.128,0.194,0.208,0.336,0.208l1.508-0.002
		l0.004,2.25l-6,0.008l-0.003-2.25l1.509-0.002c0.142,0,0.272-0.08,0.335-0.21C11.438,11.089,11.423,10.937,11.337,10.824z
		 M14.79,18.92l-4.499,0.006c-0.185,0-0.75,0.001-0.752-1.124l-0.005-3.374l6-0.009l0.005,3.375
		C15.541,18.919,14.976,18.92,14.79,18.92z M15.529,10.669l-0.881,0.001c0.086-0.24,0.131-0.492,0.13-0.75
		c-0.002-1.24-1.012-2.248-2.252-2.246c-1.24,0.001-2.248,1.012-2.247,2.252c0,0.259,0.046,0.511,0.132,0.75l-0.881,0.001
		L9.527,8.803c-0.003-1.719,0.636-2.157,1.309-2.621c0.615-0.422,1.311-0.9,1.309-2.257c-0.001-0.416-0.224-0.735-0.376-0.904
		L11.769,2.8c-0.001-0.326,0.47-0.376,0.75-0.377c0.279,0,0.75,0.048,0.75,0.374l0,0.219c-0.152,0.171-0.374,0.49-0.374,0.906
		c0.003,1.358,0.7,1.834,1.315,2.254c0.676,0.463,1.314,0.898,1.317,2.618L15.529,10.669z"/>
</g>
<g id="XMLID_2_">
	<path id="XMLID_3_" class="st0" d="M5.578,6.077l0.007-5.162c0-0.191-0.167-0.359-0.358-0.359l-0.024,0L3.315,0.553
		c-0.191,0-0.358,0.167-0.358,0.358L2.954,2.823L2.95,6.049C1.586,6.573,0.7,7.863,0.698,9.345l-0.004,2.868l-0.005,4.302
		l-0.004,2.773c0,0.191,0.167,0.359,0.358,0.359l6.382,0.009c0.191,0,0.358-0.167,0.359-0.358l0.003-2.749l0.006-4.302l0.004-2.868
		C7.775,7.896,6.892,6.628,5.578,6.077z M3.672,1.27l1.172,0.002L4.842,2.467L3.671,2.466L3.672,1.27z M7.047,16.189l-5.665-0.007
		l0.005-3.585l5.664,0.007L7.047,16.189z M1.379,18.954l0.003-2.055l5.664,0.007l-0.003,2.055L1.379,18.954z M7.053,11.887
		l-5.664-0.008l0.003-2.534c0.001-1.242,0.815-2.341,2.012-2.698C3.546,6.6,3.665,6.457,3.666,6.313L3.67,3.183l1.196,0.001
		L4.861,6.315c0,0.167,0.095,0.287,0.238,0.335c1.17,0.384,1.959,1.461,1.956,2.704L7.053,11.887z"/>
</g>
</svg>
