<?xml version="1.0" encoding="utf-8"?>
<!-- Generator: Adobe Illustrator 19.0.0, SVG Export Plug-In . SVG Version: 6.00 Build 0)  -->
<svg version="1.1" id="Layer_1" xmlns="http://www.w3.org/2000/svg" xmlns:xlink="http://www.w3.org/1999/xlink" x="0px" y="0px"
	 viewBox="0 0 24 24" style="enable-background:new 0 0 24 24;" xml:space="preserve">
<style type="text/css">
	.Drop_x0020_Shadow{fill:none;}
	.Round_x0020_Corners_x0020_2_x0020_pt{fill:#FFFFFF;stroke:#000000;stroke-miterlimit:10;}
	.Live_x0020_Reflect_x0020_X{fill:none;}
	.Bevel_x0020_Soft{fill:url(#SVGID_1_);}
	.Dusk{fill:#FFFFFF;}
	.Foliage_GS{fill:#FFDD00;}
	.Pompadour_GS{fill-rule:evenodd;clip-rule:evenodd;fill:#44ADE2;}
	.st0{fill:#010101;stroke:#010101;stroke-width:0.25;stroke-miterlimit:10;}
</style>
<linearGradient id="SVGID_1_" gradientUnits="userSpaceOnUse" x1="0" y1="0" x2="0.7071" y2="0.7071">
	<stop  offset="0" style="stop-color:#DEDFE3"/>
	<stop  offset="0.1738" style="stop-color:#D8D9DD"/>
	<stop  offset="0.352" style="stop-color:#C9CACD"/>
	<stop  offset="0.5323" style="stop-color:#B4B5B8"/>
	<stop  offset="0.7139" style="stop-color:#989A9C"/>
	<stop  offset="0.8949" style="stop-color:#797C7E"/>
	<stop  offset="1" style="stop-color:#656B6C"/>
</linearGradient>
<g id="XMLID_2_">
	<g id="XMLID_11_">
		<path id="XMLID_12_" class="st0" d="M21.018,7.646l2.147-5.689c0.079-0.211-0.035-0.464-0.246-0.544l-0.026-0.01l-2.081-0.785
			c-0.211-0.08-0.464,0.036-0.544,0.246l-0.795,2.107l-1.342,3.556c-1.72,0.013-3.232,1.068-3.848,2.701l-1.192,3.16l-1.789,4.741
			l-1.153,3.055c-0.08,0.211,0.035,0.465,0.246,0.544l7.033,2.654c0.21,0.08,0.465-0.036,0.544-0.246l1.143-3.03l1.789-4.741
			l1.193-3.161C22.685,10.563,22.238,8.799,21.018,7.646z M20.908,1.556l1.291,0.487L21.702,3.36l-1.291-0.487L20.908,1.556z
			 M18.446,19.404l-6.243-2.356l1.492-3.951l6.242,2.355L18.446,19.404z M11.051,20.104l0.855-2.265l6.242,2.355l-0.855,2.265
			L11.051,20.104z M20.235,14.664l-6.242-2.356l1.054-2.793c0.516-1.369,1.869-2.243,3.336-2.141
			c0.178,0.006,0.368-0.101,0.428-0.26l1.302-3.45l1.318,0.497l-1.302,3.451c-0.069,0.184-0.014,0.356,0.124,0.468
			c1.131,0.909,1.554,2.423,1.037,3.792L20.235,14.664z"/>
	</g>
	<g id="XMLID_3_">
		<path id="XMLID_8_" class="st0" d="M9.391,15.264c0.011-0.022,0.024-0.083,0.025-0.139l1.029-9.811
			c0.02-0.129-0.04-0.28-0.139-0.354c-0.08-0.075-0.161-0.11-0.251-0.11c-0.042,0-0.088,0.008-0.137,0.023L2.355,7.278
			C2.236,7.332,2.127,7.451,2.087,7.573c-0.038,0.116,0,0.276,0.086,0.364l6.539,7.4c0.098,0.119,0.286,0.176,0.429,0.131
			C9.253,15.433,9.341,15.36,9.391,15.264z M8.699,14.074L3.212,7.86l6.38-2.028L9.584,5.903L8.699,14.074z"/>
		<g id="XMLID_5_">
			<path id="XMLID_7_" class="st0" d="M2.477,4.264c0.45,0.233,0.82,0.743,1.041,1.437C3.592,5.888,3.802,6.05,4.041,5.972
				c0.111-0.035,0.2-0.107,0.25-0.203C4.32,5.713,4.358,5.603,4.289,5.491L4.276,5.464C4.012,4.569,3.494,3.87,2.853,3.538
				C2.316,3.26,1.71,3.215,1.104,3.408c-0.23,0.073-0.345,0.294-0.272,0.524c0.073,0.23,0.295,0.344,0.524,0.271
				c0.178-0.056,0.351-0.085,0.515-0.085C2.086,4.118,2.29,4.167,2.477,4.264z"/>
			<path id="XMLID_6_" class="st0" d="M9.168,1.596C9.217,1.5,9.225,1.387,9.19,1.275C9.154,1.164,9.082,1.076,8.987,1.026
				C8.932,0.998,8.868,0.982,8.804,0.982c-0.046,0-0.092,0.007-0.137,0.022C8.059,1.197,7.595,1.575,7.326,2.096
				C7.002,2.782,6.983,3.631,7.273,4.484C7.31,4.598,7.382,4.688,7.478,4.737c0.096,0.049,0.209,0.056,0.32,0.021
				C7.909,4.722,7.998,4.65,8.047,4.554C8.07,4.51,8.115,4.4,8.046,4.319l-0.023-0.04C7.798,3.577,7.805,2.947,8.038,2.496
				C8.21,2.165,8.506,1.93,8.919,1.799C9.03,1.764,9.118,1.692,9.168,1.596z"/>
		</g>
		<path id="XMLID_4_" class="st0" d="M4.469,1.755C4.42,1.85,4.412,1.964,4.447,2.075L5.409,5.1C5.444,5.211,5.516,5.3,5.612,5.349
			c0.095,0.05,0.209,0.057,0.32,0.022c0.111-0.035,0.2-0.107,0.249-0.203l0.004-0.007c0.047-0.094,0.054-0.206,0.019-0.314
			L5.242,1.822C5.184,1.641,5.037,1.529,4.858,1.529c-0.046,0-0.093,0.008-0.139,0.022C4.607,1.587,4.519,1.659,4.469,1.755z"/>
	</g>
</g>
</svg>
