<?xml version="1.0" encoding="utf-8"?>
<!-- Generator: Adobe Illustrator 19.0.0, SVG Export Plug-In . SVG Version: 6.00 Build 0)  -->
<svg version="1.1" id="Layer_1" xmlns="http://www.w3.org/2000/svg" xmlns:xlink="http://www.w3.org/1999/xlink" x="0px" y="0px"
	 viewBox="0 0 18 20" style="enable-background:new 0 0 18 20;" xml:space="preserve">
<style type="text/css">
	.Drop_x0020_Shadow{fill:none;}
	.Round_x0020_Corners_x0020_2_x0020_pt{fill:#FFFFFF;stroke:#000000;stroke-miterlimit:10;}
	.Live_x0020_Reflect_x0020_X{fill:none;}
	.Bevel_x0020_Soft{fill:url(#SVGID_1_);}
	.Dusk{fill:#FFFFFF;}
	.Foliage_GS{fill:#FFDD00;}
	.Pompadour_GS{fill-rule:evenodd;clip-rule:evenodd;fill:#44ADE2;}
	.st0{fill:#FFFFFF;}
	.st1{fill:transparent;}
</style>
<linearGradient id="SVGID_1_" gradientUnits="userSpaceOnUse" x1="0" y1="0" x2="0.7071" y2="0.7071">
	<stop  offset="0" style="stop-color:#DEDFE3"/>
	<stop  offset="0.1738" style="stop-color:#D8D9DD"/>
	<stop  offset="0.352" style="stop-color:#C9CACD"/>
	<stop  offset="0.5323" style="stop-color:#B4B5B8"/>
	<stop  offset="0.7139" style="stop-color:#989A9C"/>
	<stop  offset="0.8949" style="stop-color:#797C7E"/>
	<stop  offset="1" style="stop-color:#656B6C"/>
</linearGradient>
<g id="XMLID_2_">
	<path id="XMLID_13_" class="st0" d="M16.352,19.186h-4.62c-0.212,0-0.385-0.172-0.385-0.385v-0.769
		c0-0.669,0.194-1.075,0.382-1.468c0.199-0.416,0.388-0.81,0.388-1.612c0-0.683-0.299-2.032-0.615-3.461
		c-0.433-1.959-0.925-4.178-0.925-5.78c0-0.212,0.172-0.385,0.385-0.385h6.16c0.213,0,0.385,0.172,0.385,0.385
		c0,1.602-0.491,3.821-0.925,5.78c-0.316,1.429-0.615,2.777-0.615,3.461c0,0.802,0.188,1.196,0.388,1.612
		c0.188,0.393,0.382,0.799,0.382,1.468V18.8C16.737,19.013,16.564,19.186,16.352,19.186z M12.117,18.416h3.851v-0.385
		c0-0.495-0.136-0.777-0.307-1.135c-0.217-0.454-0.464-0.969-0.464-1.945c0-0.767,0.294-2.092,0.633-3.626
		c0.39-1.764,0.828-3.742,0.897-5.229h-5.371c0.069,1.487,0.507,3.465,0.897,5.229c0.34,1.534,0.633,2.859,0.633,3.626
		c0,0.976-0.246,1.49-0.464,1.945c-0.171,0.358-0.307,0.641-0.307,1.135V18.416z"/>
	<path id="XMLID_8_" class="st0" d="M7.535,15.096c0.17-0.65,0.426-1.086,0.722-1.591c0.412-0.701,0.88-1.496,1.287-3.057
		c0.41-1.57,0.123-2.906-0.129-4.084C9.244,5.566,9.094,4.866,9.191,4.233c0.016-0.008,0.031-0.016,0.046-0.025
		c0.386-0.227,0.569-0.84,0.737-1.502l0.026-0.097c0.015-0.059,0.017-0.118,0.004-0.177L9.826,1.589
		c-0.03-0.142-0.139-0.256-0.279-0.293L7.311,0.713C7.171,0.676,7.02,0.722,6.924,0.831L6.357,1.48
		C6.318,1.524,6.29,1.578,6.274,1.636L6.249,1.734c-0.177,0.66-0.317,1.283-0.092,1.67C6.167,3.42,6.175,3.435,6.186,3.45
		C5.96,4.047,5.487,4.585,4.949,5.198c-0.796,0.905-1.699,1.93-2.109,3.5c-0.407,1.561-0.389,2.483-0.371,3.296
		c0.011,0.586,0.021,1.092-0.148,1.742c-0.206,0.79-0.536,1.248-0.856,1.692c-0.294,0.41-0.599,0.834-0.764,1.466l-0.195,0.745
		c-0.053,0.206,0.07,0.416,0.275,0.47l5.961,1.557c0.205,0.053,0.416-0.07,0.469-0.276l0.195-0.745
		c0.165-0.631,0.107-1.151,0.05-1.653C7.393,16.448,7.329,15.887,7.535,15.096z M3.584,8.892c0.046-0.177,0.099-0.345,0.159-0.507
		l5.166,1.348c-0.027,0.171-0.064,0.344-0.109,0.52c-0.224,0.858-0.468,1.469-0.71,1.962L3.245,10.95
		C3.275,10.403,3.36,9.75,3.584,8.892z M5.527,5.706c0.641-0.73,1.249-1.419,1.476-2.288c0.045-0.174-0.037-0.353-0.188-0.435
		C6.794,2.868,6.817,2.59,6.993,1.933l0.354-0.415l1.775,0.463l0.11,0.521L9.228,2.516C9.061,3.175,8.944,3.429,8.87,3.52
		C8.698,3.517,8.539,3.633,8.493,3.807C8.267,4.676,8.459,5.574,8.662,6.525c0.16,0.745,0.323,1.506,0.318,2.329l-4.87-1.271
		C4.509,6.863,5.024,6.278,5.527,5.706z M6.563,18.822l-5.215-1.361l0.097-0.373c0.129-0.493,0.369-0.826,0.646-1.211
		c0.343-0.477,0.732-1.018,0.975-1.947c0.197-0.753,0.185-1.336,0.172-1.952c0-0.043-0.001-0.087-0.002-0.132l4.426,1.156
		c-0.022,0.038-0.045,0.077-0.066,0.114c-0.313,0.532-0.608,1.034-0.804,1.787c-0.243,0.93-0.167,1.592-0.102,2.176
		c0.054,0.47,0.101,0.878-0.028,1.372L6.563,18.822z"/>
	<path id="XMLID_7_" class="st1" d="M12.117,18.434h3.851v-0.385c0-0.495-0.136-0.777-0.307-1.135
		c-0.217-0.454-0.464-0.969-0.464-1.945c0-0.767,0.294-2.092,0.633-3.626c0.39-1.764,0.828-3.742,0.897-5.229h-5.371
		c0.069,1.487,0.507,3.465,0.897,5.229c0.34,1.534,0.633,2.859,0.633,3.626c0,0.976-0.246,1.49-0.464,1.945
		c-0.171,0.358-0.307,0.641-0.307,1.135V18.434z"/>
	<path id="XMLID_6_" class="st1" d="M3.584,8.911c0.046-0.177,0.099-0.345,0.159-0.507l5.166,1.348
		c-0.027,0.171-0.064,0.344-0.109,0.52c-0.224,0.858-0.468,1.469-0.71,1.962l-4.845-1.265C3.275,10.421,3.36,9.769,3.584,8.911z"/>
	<path id="XMLID_5_" class="st1" d="M5.527,5.725c0.641-0.73,1.249-1.419,1.476-2.288c0.045-0.174-0.037-0.353-0.188-0.435
		c-0.021-0.115,0.002-0.393,0.178-1.05l0.354-0.415L9.121,2l0.11,0.521L9.228,2.535C9.061,3.194,8.944,3.448,8.87,3.538
		C8.698,3.536,8.539,3.651,8.493,3.826C8.267,4.695,8.459,5.592,8.662,6.543c0.16,0.745,0.323,1.506,0.318,2.329l-4.87-1.271
		C4.509,6.881,5.024,6.297,5.527,5.725z"/>
	<path id="XMLID_4_" class="st1" d="M6.563,18.84l-5.215-1.361l0.097-0.373c0.129-0.493,0.369-0.826,0.646-1.211
		c0.343-0.477,0.732-1.018,0.975-1.947c0.197-0.753,0.185-1.336,0.172-1.952c0-0.043-0.001-0.087-0.002-0.132l4.426,1.156
		c-0.022,0.038-0.045,0.077-0.066,0.114c-0.313,0.532-0.608,1.034-0.804,1.787c-0.243,0.93-0.167,1.592-0.102,2.176
		c0.054,0.47,0.101,0.878-0.028,1.372L6.563,18.84z"/>
	<path id="XMLID_3_" class="st0" d="M13.272,11.485c-0.177,0-0.336-0.121-0.375-0.3c-0.131-0.577-0.78-3.482-0.78-3.935
		c0-0.212,0.172-0.385,0.384-0.385h0.001c0.212,0,0.385,0.172,0.385,0.385c0,0.249,0.387,2.11,0.761,3.765
		c0.047,0.208-0.083,0.414-0.291,0.461C13.328,11.482,13.299,11.485,13.272,11.485z"/>
</g>
</svg>
