<?xml version="1.0" encoding="utf-8"?>
<!-- Generator: Adobe Illustrator 19.0.0, SVG Export Plug-In . SVG Version: 6.00 Build 0)  -->
<svg version="1.1" id="Layer_1" xmlns="http://www.w3.org/2000/svg" xmlns:xlink="http://www.w3.org/1999/xlink" x="0px" y="0px"
	 viewBox="0 0 39 32" style="enable-background:new 0 0 39 32;" xml:space="preserve">
<style type="text/css">
	.Drop_x0020_Shadow{fill:none;}
	.Round_x0020_Corners_x0020_2_x0020_pt{fill:#FFFFFF;stroke:#000000;stroke-miterlimit:10;}
	.Live_x0020_Reflect_x0020_X{fill:none;}
	.Bevel_x0020_Soft{fill:url(#SVGID_1_);}
	.Dusk{fill:#FFFFFF;}
	.Foliage_GS{fill:#FFDD00;}
	.Pompadour_GS{fill-rule:evenodd;clip-rule:evenodd;fill:#44ADE2;}
	.st0{fill:#010101;}
</style>
<linearGradient id="SVGID_1_" gradientUnits="userSpaceOnUse" x1="0" y1="0" x2="0.7071" y2="0.7071">
	<stop  offset="0" style="stop-color:#DEDFE3"/>
	<stop  offset="0.1738" style="stop-color:#D8D9DD"/>
	<stop  offset="0.352" style="stop-color:#C9CACD"/>
	<stop  offset="0.5323" style="stop-color:#B4B5B8"/>
	<stop  offset="0.7139" style="stop-color:#989A9C"/>
	<stop  offset="0.8949" style="stop-color:#797C7E"/>
	<stop  offset="1" style="stop-color:#656B6C"/>
</linearGradient>
<g id="XMLID_2_">
	<path id="XMLID_10_" class="st0" d="M3.708,12.055h31.583c0.293,0,0.568-0.137,0.745-0.37c0.177-0.233,0.236-0.535,0.158-0.817
		c-0.963-3.484-3.665-6.418-7.288-8.301c-0.096-0.093-0.211-0.168-0.344-0.214c-0.061-0.021-0.124-0.035-0.186-0.044
		c-2.306-1.107-4.949-1.795-7.744-1.943c-0.006-0.002-0.01-0.004-0.015-0.006c-0.149-0.041-0.299-0.04-0.441-0.01
		C19.95,0.343,19.727,0.327,19.5,0.327c-2.614,0-5.12,0.482-7.374,1.336c-0.111,0.023-0.215,0.064-0.31,0.124
		c-4.479,1.784-7.901,5.065-9.012,9.081c-0.078,0.282-0.019,0.584,0.158,0.817C3.14,11.918,3.415,12.055,3.708,12.055z
		 M10.766,4.316L9.852,7.145c-0.159,0.492,0.111,1.021,0.603,1.18c0.096,0.031,0.193,0.046,0.288,0.046
		c0.395,0,0.763-0.252,0.891-0.649l1.427-4.416c1.869-0.668,3.93-1.054,6.08-1.093l-1.354,4.975
		c-0.136,0.499,0.158,1.014,0.657,1.15c0.083,0.023,0.166,0.033,0.246,0.033c0.412,0,0.79-0.274,0.904-0.691l1.472-5.409
		c2.157,0.171,4.2,0.691,6.018,1.49l-1.159,3.367c-0.169,0.489,0.091,1.022,0.58,1.191c0.101,0.035,0.204,0.051,0.306,0.051
		c0.389,0,0.751-0.244,0.886-0.632l1.074-3.12c2.386,1.396,4.237,3.316,5.199,5.562H5.028C6.062,7.768,8.117,5.731,10.766,4.316z"/>
	<path id="XMLID_7_" class="st0" d="M36.228,28.293v-3.792c0-0.517-0.42-0.936-0.936-0.936h-3.406c-1.724,0-2.464,1.312-2.543,2.246
		l-0.015,0.481c0,0.023,0,0.045,0.001,0.067c0,0.006-0.002,0.54-0.369,0.923c-0.308,0.321-0.82,0.483-1.523,0.483
		c-1.688,0-1.896-1.144-1.919-1.444v-0.244c0-0.034-0.002-0.067-0.006-0.1c-0.085-0.794-0.791-2.299-2.857-2.299
		c-1.791,0-2.584,1.378-2.68,2.302c-0.004,0.033-0.006,0.064-0.006,0.097v0.436c-0.054,0.297-0.26,0.745-1.004,0.745
		c-0.817,0-1.015-0.409-1.037-0.714v-0.586c0-1.001-0.481-1.782-1.353-2.199c-0.587-0.281-1.186-0.304-1.375-0.304h-0.002H3.708
		c-0.517,0-0.936,0.42-0.936,0.936v3.903c0,1.825,1.484,3.31,3.31,3.31h26.837C34.743,31.602,36.228,30.117,36.228,28.293z
		 M4.645,28.293v-2.965h10.571c0.558,0,0.839,0.211,0.839,0.629v0.607c0.023,1.032,0.817,2.567,2.91,2.567
		c2.068,0,2.784-1.601,2.873-2.45c0.003-0.033,0.006-0.064,0.006-0.098v-0.435c0.053-0.282,0.24-0.597,0.812-0.597
		c0.746,0,0.942,0.374,0.989,0.597v0.211c0.037,0.913,0.793,3.279,3.792,3.279c1.233,0,2.2-0.356,2.875-1.06
		c0.856-0.891,0.893-2.001,0.89-2.256l0.011-0.402c0.013-0.144,0.104-0.481,0.674-0.481h2.468v2.855
		c0,0.792-0.644,1.436-1.436,1.436H6.081C5.289,29.728,4.645,29.085,4.645,28.293z"/>
	<path id="XMLID_6_" class="st0" d="M35.291,20.364H3.708c-0.517,0-0.936,0.419-0.936,0.936s0.42,0.937,0.936,0.937h31.583
		c0.517,0,0.936-0.42,0.936-0.937S35.808,20.364,35.291,20.364z"/>
	<path id="XMLID_3_" class="st0" d="M3.175,19.05h32.648c1.671,0,3.031-1.36,3.031-3.029c0-1.671-1.36-3.03-3.031-3.03H3.175
		c-1.67,0-3.029,1.358-3.029,3.03C0.146,17.691,1.505,19.05,3.175,19.05z M3.175,14.864h32.648c0.638,0,1.157,0.52,1.157,1.157
		s-0.519,1.156-1.157,1.156H3.175c-0.637,0-1.155-0.519-1.155-1.156S2.538,14.864,3.175,14.864z"/>
</g>
</svg>
